<svg xmlns="http://www.w3.org/2000/svg">
<defs>
<font id="UTMHelve-Italic" horiz-adv-x="1200" >
  <font-face 
    font-family="UTM Helve"
    font-weight="400"
    font-style="italic"
    font-stretch="normal"
    units-per-em="2048"
    panose-1="2 4 6 3 5 5 6 9 2 4"
    ascent="1638"
    descent="-410"
    x-height="1073"
    cap-height="1470"
    bbox="-123 -450.998 4956 2335"
    underline-thickness="109"
    underline-position="-143"
    slope="-12"
    unicode-range="U+0020-U+2026"
  />
<missing-glyph horiz-adv-x="5040" 
d="M3785 2045h10c23.333 -6.66699 32 -24 26 -52c-1.33301 -8 -16 -27 -44 -57h-28c3.33301 16 16.666 34 40 54l4 10c-1.33301 8.66699 -3.66602 13.667 -7 15h-9c-5.33301 0 -10 -6.33301 -14 -19h-30c10.667 32.667 28 49 52 49zM2447 2016l23 -31
c-2.66699 -10.667 -18.334 -20.667 -47 -30h-19l-56 12l-14 -12l-22 25c11.333 19.333 27.666 29 49 29h11l39 -11h2c6.66699 0 18 6 34 18zM889 1980h142l-13 -60h-94l-16 -75h89l-13 -59h-89l-27 -129l-6 -5h-49l69 323zM1576 1980h43l5 -5l-17 -78h30l-11 -52h-30
l-40 -188l-7 -5h-49l41 193h-25l11 52h25l17 78zM2042 1980h42l3 -5l-20 -94h3c18.667 16 38.334 24 59 24h2c38.667 0 61.334 -23.667 68 -71l-7 -39l-30 -143h-52l24 115c11.333 53.333 3 80 -25 80h-7c-28.667 0 -49 -28.667 -61 -86l-23 -109h-51l69 323zM2621 1980
l49 -0.000976562l4 -5l-48 -222c0 -34 11.667 -51 35 -51c30 4.66699 48.667 24.334 56 59.001l46 214l6 5h49l-46 -216c-12 -56.667 -42 -94 -90 -112c-11.333 -5.33301 -23.666 -8 -37 -8c-31.333 0 -54.666 18.333 -70 55c-6 16 -6.66699 35 -2 57zM2856 1980h159
l-13 -60h-56l-57 -268h-53l57 268h-55l12 55zM3042 1980l71 0.000976562c4 -2.66699 13.667 -86.334 29 -251.001h2l134 251h73l-70 -328h-54l51 242h-2l-125 -242h-44c-2.66699 0 -9 60.667 -19 182l-7 60h-3l-51 -242h-55zM4181 1980l52 -0.000976562l-70 -328h-45l-4 5
l2 11l4 2v14c-25.333 -26.667 -54.333 -40 -87 -40c-44.667 0 -71.334 30.333 -80 91l3 39l1 3c12.667 62.667 52 104.334 118 125.001l24 3c23.334 0 42 -10.667 56 -32h3zM2467 1928l36 0.00195312l2 -6l-10 -49h-45l-47 -221h-48l5 23c-20 -20.667 -42 -31 -66 -31

<glyph glyph-name=".notdef" horiz-adv-x="5040" 
d="M3785 2045h10c23.333 -6.66699 32 -24 26 -52c-1.33301 -8 -16 -27 -44 -57h-28c3.33301 16 16.666 34 40 54l4 10c-1.33301 8.66699 -3.66602 13.667 -7 15h-9c-5.33301 0 -10 -6.33301 -14 -19h-30c10.667 32.667 28 49 52 49zM2447 2016l23 -31
c-2.66699 -10.667 -18.334 -20.667 -47 -30h-19l-56 12l-14 -12l-22 25c11.333 19.333 27.666 29 49 29h11l39 -11h2c6.66699 0 18 6 34 18zM889 1980h142l-13 -60h-94l-16 -75h89l-13 -59h-89l-27 -129l-6 -5h-49l69 323zM1576 1980h43l5 -5l-17 -78h30l-11 -52h-30
l-40 -188l-7 -5h-49l41 193h-25l11 52h25l17 78zM2042 1980h42l3 -5l-20 -94h3c18.667 16 38.334 24 59 24h2c38.667 0 61.334 -23.667 68 -71l-7 -39l-30 -143h-52l24 115c11.333 53.333 3 80 -25 80h-7c-28.667 0 -49 -28.667 -61 -86l-23 -109h-51l69 323zM2621 1980
l49 -0.000976562l4 -5l-48 -222c0 -34 11.667 -51 35 -51c30 4.66699 48.667 24.334 56 59.001l46 214l6 5h49l-46 -216c-12 -56.667 -42 -94 -90 -112c-11.333 -5.33301 -23.666 -8 -37 -8c-31.333 0 -54.666 18.333 -70 55c-6 16 -6.66699 35 -2 57zM2856 1980h159
l-13 -60h-56l-57 -268h-53l57 268h-55l12 55zM3042 1980l71 0.000976562c4 -2.66699 13.667 -86.334 29 -251.001h2l134 251h73l-70 -328h-54l51 242h-2l-125 -242h-44c-2.66699 0 -9 60.667 -19 182l-7 60h-3l-51 -242h-55zM4181 1980l52 -0.000976562l-70 -328h-45l-4 5
l2 11l4 2v14c-25.333 -26.667 -54.333 -40 -87 -40c-44.667 0 -71.334 30.333 -80 91l3 39l1 3c12.667 62.667 52 104.334 118 125.001l24 3c23.334 0 42 -10.667 56 -32h3zM2467 1928l36 0.00195312l2 -6l-10 -49h-45l-47 -221h-48l5 23c-20 -20.667 -42 -31 -66 -31
c-57.333 9.33301 -80 41.666 -68 96.999l33 156h51l-22 -104c-11.333 -52.667 -8.66602 -81.334 8 -86.001l17 -5h6c17.333 0 32.666 12 46 36l9 26l28 133h53l5 25zM3886 1928l-12 -55h-31l-47 -221h-47l5 25h-2c-14.667 -22 -36 -33 -64 -33c-45.333 0 -68.333 26 -69 78
l3 29l31 146h52l-25 -120c-7.33301 -33.333 -6 -56 4 -68l20 -7h9c28 0 46.667 23 56 69l27 126h27c2.66699 0 6 9.33301 10 28l4 3h49zM1163 1905c45.333 0 73.999 -25.667 85.999 -77c4 -12 4.33301 -30 1 -54c-12.667 -58.667 -51.667 -101 -117 -127l-33 -3
c-42 0 -70.333 24.333 -85 73c-5.33301 14.667 -5.66602 32 -0.999023 52l2 10c13.333 62.667 56 104.667 128 126h19zM1416 1905h3.00098c49.333 0 69.666 -33.667 60.999 -101l-32 -152h-51l25 119c10.667 50.667 2 76 -26 76h-5c-29.333 0 -49.333 -25.333 -60 -76
l-25 -119h-52l52 245h46l-4 -21c24 19.333 46.667 29 68 29zM1871 1905l6.99805 -0.000976562c48 0 76.667 -29.667 86 -89h-60c-6.66699 20.667 -18.667 31 -36 31h-17c-37.333 -9.33301 -59.333 -29.666 -66 -60.999l-6 -15c-1.33301 -46 14.334 -69 47.001 -69h9
c14.667 0 32 9 52 27h40l3 3h3l1 -3l3 3l2 -3l3 3v-7c-33.333 -54 -75.666 -81 -126.999 -81c-50.667 0 -80.667 31.333 -90 94l4 36l1 3c12 56.667 46 96.667 102 120c11.333 5.33301 24.333 8 39 8zM3546 1905h2c32.667 0 51.667 -20 57 -60l-3 -14h-52
c2 10.667 -2.33301 16 -13 16h-4c-9.33301 0 -16.333 -4.33301 -21 -13l-3 -13c-1.33301 -6 18.667 -17.667 60 -35c17.333 -12.667 23.333 -32.334 18 -59.001c-8 -38.667 -34 -65.334 -78 -80.001l-24 -3c-48.667 8 -68 35.667 -58 83h54
c-2.66699 -13.333 4.66602 -21.666 22 -24.999h4c12.667 0 22 7.66699 28 23c3.33301 14.667 -16 29.334 -58 44.001c-18.667 18 -26 37.667 -22 59c9.33301 44 39.666 69.667 91 77zM4608 1905c36.666 0 57.666 -21 63 -63c2 -12 0 -33.667 -6 -65l-27 -125h-52l24 112
c11.334 55.333 3.66699 83 -23 83h-11c-22 0 -39 -18 -51 -54l-30 -141h-52l1 5h-2l2 2l51 238h47l-4 -21c20.666 19.333 44 29 70 29zM4837 1905h5c26.666 0 46.666 -13.333 60 -40l4 18l-2 3l5 11h47l-44 -208c-14 -64.667 -51.666 -108.667 -113 -132l-34 -4h-7
c-46.666 0 -75.666 26.667 -87 80h59c12.666 -14.667 26 -22.334 40 -23.001h13c14.666 0 30.666 7.33301 48 22c11.334 8.66699 22.334 26 33 52h-3c-27.334 -26.667 -54.667 -40 -82 -40c-38 0 -65 23.333 -81 70c-4 12 -4 33 0 63c12 58.667 49.666 100.334 113 125.001z
M4254 1897l53 -0.000976562l-29 -136c-4 -39.333 5.33398 -59 28 -59h7c30.666 0 52.333 31 65 93l22 102h51l-52 -245h-47l-1 10h3l-2 3l1 5l3 2l1 3h-4c-3.33398 -15.333 -24.667 -25.666 -64 -30.999h-3c-39.334 0 -62 25 -68 75l16 85zM1066 1771
c-2.66699 -46 13.667 -69 49 -69h7c41.333 9.33301 65.333 31 72 65l4 15c0 43.333 -15.333 65 -46 65h-5c-38.667 0 -65.667 -25.333 -81 -76zM4007 1774c-1.33301 -48 14.001 -72 46.001 -72h5c38.666 0 66 25 82 75c6.66602 32.667 -5.66699 56 -37 70h-22
c-24.667 0 -47.334 -19 -68.001 -57zM4751 1774c-4.66602 -48 12 -71.999 50 -71.999h5c40.666 8 65.333 32 74 72c8.66602 40.667 -6 65 -44 73h-14c-39.334 -10.667 -62.334 -31.334 -69 -62.001zM4272 1620h52l-12 -57h-52zM1352 1402
c26.667 -7.33301 37.334 -23.667 32.001 -49v-4c-2.66699 -11.333 -17.667 -31.333 -45 -60h-28c3.33301 16.667 17.666 35.667 42.999 57l1 7c2 8 1 13 -3 15h-12c-7.33301 -2.66699 -12 -9 -14 -19h-28l1 6c4.66699 21.333 18.667 36 42 44zM3633 1339
c61.333 0 100.333 -33.001 117 -99.001h-60c-18.667 28 -42.334 42 -71 42c-36.667 0 -70.334 -22.667 -101 -68c-10 -14.667 -16.667 -30.334 -20 -47.001c-11.333 -52 7.66699 -88.667 57 -110l18 -1c24 0 52 13 84 39h61c-43.333 -64.667 -96.333 -97 -159 -97
c-62 0 -101 37.333 -117 112c-2.66699 20.667 -1.66699 41.334 3 62.001c14 64.667 54.667 115.334 122 152.001c21.333 10 43.333 15 66 15zM3948 1339c38 0 69 -15.666 93 -46.999c24 -34 31.333 -72.333 22 -115l-4 -20c-12.667 -59.333 -53.334 -108 -122 -146
c-24 -8.66699 -46 -13 -66 -13c-59.333 0 -98.333 33.667 -117 101c-4 22 -4 42 0 60l4 18c14 65.333 57.333 115.666 130 150.999c20.667 7.33301 40.667 11 60 11zM2545 1337h2l45 -11h3c7.33301 0 16.666 3.66699 28 11l10 -36c-14.667 -12.667 -27.667 -19 -39 -19h-3
l-52 10l-21 -7l-12 36c14 10.667 27 16 39 16zM999 1334h19c78.667 0 120 -8.66699 124 -26c12.667 -17.333 16.667 -38 12 -62c-14.667 -38 -28.667 -57 -42 -57l-2 -6c28 -15.333 39 -37.333 33 -66l-4 -18c-8.66699 -42 -37.667 -71.333 -87 -88l-55 -5h-67zM2833 1334
h53l-46 -217c-4.66699 -40.667 6 -61 32 -61c19.333 0 37 13 53 39l9 30l43 203l5 6h45l4 -6l-36 -171c-16.667 -78.667 -39.667 -123 -69 -133c-19.333 -17.333 -42.333 -26 -69 -26c-36.667 0 -61.667 25.333 -75 76l8 54zM3088 1334h59c2.66699 0 26.667 -79 72 -237h4
l50 237h50l3 -6l-68 -322h-58c-12.667 32 -37.667 111.333 -75 238h-3l-50 -238h-53zM3384 1334h54l-69 -328h-54zM4142 1334l8 0.000976562c103.334 0 158.667 -13.333 166 -40c14 -7.33301 24.334 -32.333 31 -75l-4 -36l-2 -11l2 -2
c-12.666 -62.667 -50.333 -112.334 -113 -149.001c-25.334 -10 -59.334 -15 -102 -15h-55zM4424 1334h153l-12 -60h-103l-16 -75h101l-12 -57h-101l-16 -74l3 -5h99l-12 -57h-157l68 322zM3813 1175l-3 -10c-10.667 -50.667 8 -86.667 56 -108l19 -1
c45.333 0 83.666 28.667 115 86l7 20l3 15c8.66699 40.667 -4.66602 72 -40 94c-6.66699 5.33301 -19 9 -37 11c-44 0 -81.667 -27.667 -113 -83zM1041 1274l-15 -67h9c36 0 56 9.33301 60 28l6 14c-3.33301 16.667 -11 25 -23 25h-37zM4183 1274l-44 -206.001l1 -3v-2
c69.334 0 115.334 25.333 138 76l5 15l6 29c4.66602 22.667 -1 45.334 -17 68.001c-13.334 15.333 -37.667 23 -73 23h-16zM1308 1259h4.99902c25.333 0 46.333 -13.333 63 -40l7 32h49l-52 -245h-49l6 32c-29.333 -26.667 -58.666 -40 -87.999 -40
c-50 0 -76.667 32.333 -80 97l2 36c12.667 59.333 50 101 112 125zM1581 1259h3c49.333 0 70 -34 62 -102l-32 -151h-51l27 128c9.33301 44.667 0 67 -28 67h-10c-22.667 0 -40 -20.667 -52 -62l-28 -133h-52l52 245h47l-5 -21c22.667 19.333 45 29 67 29zM1810 1259h5
c30 0 51 -13.333 63 -40l7 32h47l-47 -219c-13.333 -63.333 -57 -105.333 -131 -126h-16c-49.333 0 -79.333 27.333 -90 82h59c13.333 -16.667 26 -25 38 -25h14c34.667 0 61.667 25.667 81 77c-28 -28 -56.333 -42 -85 -42c-40 0 -68 27 -84 81l2 44l4 16
c11.333 52.667 48 91.667 110 117zM2179 1259l2.00098 0.000976562c28.667 0 46.667 -12.333 54 -37h2c26 24.667 51.333 37 76 37h4c38 0 60.667 -18.333 68 -55c1.33301 -16.667 0.666016 -31.667 -2.00098 -45l-32 -153h-52l29 138c6 29.333 2.33301 47.666 -11 54.999
l-12 2h-15c-21.333 0 -38 -21.667 -50 -65l-27 -130h-52l29 136c8 39.333 -2.33301 59 -31 59h-8c-21.333 0 -37.333 -19 -48 -57l-29 -138h-54l52 245h50l-5 -21h2c7.33301 16 27.333 25.667 60 29zM2549 1259c31.333 0 53.333 -14 66 -42l8 34h47l-52 -245h-47l6 32
c-29.333 -26.667 -58 -40 -86 -40c-49.333 0 -77 30.667 -83 92l3 41c12.667 60 50 101.667 112 125zM1222 1117c-6.66699 -32 9.33301 -52.333 48 -61h4c30 0 54 15.333 72 46l6 15l5 22c0.666992 41.333 -14 62 -44 62h-14c-27.333 0 -51 -19 -71 -57zM1727 1128
c-7.33301 -32 2 -54.667 28 -68l17 -4h5c31.333 0 56.333 19 75 57l5 23c2 43.333 -12.667 65 -44 65h-12c-33.333 0 -58 -24.333 -74 -73zM2465 1131l-3 -14.001c1.33301 -40.667 16 -61 44 -61h14c40.667 8 64.667 29.333 72 64l2 11c6.66699 30 -1 51.667 -23 65l-17 5
h-10c-44 -5.33301 -70.333 -28.666 -79 -69.999zM1014 1150l-16.999 -82c-0.666992 -3.33301 1.33301 -5 6 -5c51.333 0 80 15 86 45c5.33301 22.667 -7.33398 36.667 -38.001 42h-37zM3126 752.999l18 -28l-63 -55c-10 8 -17 16.667 -21 26zM1678 726.999l74 -54
c-2 -10 -12 -24 -30 -42l-76 54c18 27.333 28.667 41.333 32 42zM2997 692.999h38l42 -60h-54l-15 26l-29 -26h-54c44.667 40 68.667 60 72 60zM3569 692.999h40l43 -60h-54l-18 26h-1c-0.666992 -3.33301 -9 -12 -25 -26h-54zM767.001 684.999l52.001 0.00195312
c5.33301 -2.66699 11.333 -48.334 18 -137.001l11 -110c7.33301 5.33301 25.666 38.666 54.999 99.999l79 147h54v-2l-181 -326h-44zM1304 685.001h51l-11 -54h-51zM1499 685.001h46l5 -5l-68 -323h-52zM2462 685.001h45l3 -5l-16 -78h31l-11 -52h-31l-41 -193h-53l41 193
h-26l11 52h26l16 78zM2570 685.001h52l-20 -98h2c18 15.333 37.333 23 58 23h3c38 0 60 -23.667 66 -71l-5 -38l-30 -144h-52l24 115c11.333 54 4 81 -22 81h-10c-28 0 -48 -29 -60 -87l-23 -109h-52zM2809 685.001h52l-11 -54h-52zM3173 685.001h44l5 -5l-16 -78h29
l-11 -52h-29l-41 -193h-54l41 193h-27l11 52h27l16 78zM3379 685.001h52l-69 -328h-52zM4102 685.001h52l-69 -328h-52zM4461 685.001h51l-11 -54h-51zM1684 610.001h5c55.333 0 85 -34 89 -102l-2 -23l-2 -11c-12 -55.333 -49 -95.333 -111 -120l-36 -5
c-50.667 0 -80.667 32.333 -90 97l2 32c14 64.667 54.333 108 121 130zM1940 610.001h4c35.333 0 57.333 -20 66 -60c0.666992 -16.667 -3 -43.667 -11 -81l-23 -112h-54l31 146c2 33.333 -7 50 -27 50h-10c-25.333 0 -43.333 -19 -54 -57l-29 -139h-54l52 245h49l-5 -21
c21.333 19.333 43 29 65 29zM2175 610.001h4.00098c30 0 48.333 -13 55 -39h3l7 31h49l-44 -206c-14.667 -68 -54 -113 -118 -135l-28 -3h-5c-48.667 0 -78.334 27 -89.001 81h52l33 -20l14 -3h14c33.333 0 58.666 24 76 72c-27.333 -26 -54.333 -39 -81 -39
c-41.333 0 -68.666 25.333 -82 76c-4 15.333 -3.66699 35.333 1 60c12 56.667 49.333 97.667 112 123zM2995 610.001l1.99902 -0.000976562c54.667 0 84.334 -34.667 89.001 -104l-3 -25l-8 -27h-172c4 -30 16 -45 36 -45l13 -3c19.333 0 37.333 7.33301 54 22h57l-1 -3
c-34 -50.667 -75.333 -76 -124 -76c-51.333 0 -81.333 32.333 -90 97l5 28l1 8c7.33301 32.667 24.333 62.334 51 89.001c28 26 58 39 90 39zM3558 610h5c27.333 0 48 -13 62 -39h2l7 31h47l-52 -245h-47l6 31h-2c-28.667 -26 -57 -39 -85 -39
c-47.333 0 -74.666 29.667 -82 89l3 36l3 14c12 57.333 48.333 97.333 109 120zM3840 610l7 -0.000976562c58.667 0 85.334 -42.667 80 -128l-2 -1l-3 -15c-9.33301 -43.333 -39 -78.666 -89 -105.999c-15.333 -7.33301 -31.333 -11 -48 -11
c-22.667 0 -41.667 10.667 -57 32l-21 -99l-6 -5h-49l69 325h49l-6 -28c25.333 24 50.666 36 76 36zM4280 609.999c29.334 0 51.667 -13 67 -39l7 31h49l-52 -245h-49l6 31c-28.666 -26 -57 -39 -85 -39c-61.334 0 -88 44 -80 132c12 56 45 96.333 99 121
c10.666 5.33301 23.333 8 38 8zM1050 601.999h50l-29 -136c-6.66699 -40 3 -60 29 -60h5c29.333 0 50.333 29 63 87l23 109h52l-52 -245h-47l5 24h-5c-3.33301 -15.333 -24.333 -26 -63 -32h-3c-36.667 0 -59.334 22.667 -68.001 68
c2.66699 23.333 8.33398 56.333 17.001 99l18 81zM1287 601.999h51l-52 -245h-51zM2792 601.999h52l-52 -245h-52zM4444 601.999h51l-52 -245h-51zM1596 487.999l-3.99805 -15.999c-0.666992 -44 14.333 -66 45 -66h4c39.333 0 66.666 25.333 81.999 76
c1.33301 47.333 -13.334 71 -44.001 71h-11c-41.333 -10.667 -65.333 -32.334 -72 -65.001zM2087 472c0.666992 -44 15.667 -66 45 -66h11c32 0 57 25 75 75v1c1.33301 47.333 -13.334 71 -44 71h-14c-26 0 -48.667 -19 -68 -57zM2912 506h122l1 2
c-4.66699 30 -21.334 45 -50 45h-7c-23.333 0 -45.333 -15.667 -66 -47zM3474 474c-1.33301 -45.333 14 -68 46 -68h5c34.667 0 60.667 21 78 63l3 12c3.33301 48 -10.667 72 -42 72h-16c-39.333 -9.33301 -62.333 -30.333 -69 -63zM3743 478
c-2 -48 13.333 -72.001 46 -72.001h3c33.333 0 59.333 20 78 60l5 22c6 28.667 -6 50.334 -36 65.001h-22c-31.333 0 -55.666 -24 -73 -72zM4195 471.999c-2.66602 -44 14.667 -66 52 -66c28.666 0 52.333 16 71 48l5 15l4 16c7.33398 36 -5.33301 58.667 -38 68h-18
c-28 0 -51.666 -20 -71 -60zM3484 320.999h51l-11 -52h-51zM4205 320.999h51l-11 -52h-51zM2761 132.999h4c23.333 0 34 -16.667 32 -50v-2c-2 -10.667 -13 -24.334 -33 -41.001l-13 -17h-28c3.33301 16.667 16.666 35.334 40 56.001l3 2v2c0.666992 12.667 -1 19 -5 19h-10
c-5.33301 0 -9.66602 -6.33301 -13 -19h-30c11.333 33.333 29 50 53 50zM1570 115.999l40 -60l-30 -19l-41 52zM369.004 78.999h4c42.667 -32 66.667 -52 72 -60l-28 -37c-52 32.667 -77.333 52 -76 58zM3507 78.999l73 -58l-26 -39c-6.66699 0 -33 18.333 -79 55
c14.667 24 25.334 38 32 42zM4594 75.999l10 -42l-102 -52l-12 39l105 58zM1215 52.999h51l-4 -19l4 -5h14l-8 -36h-14l-6 -5l-59 -279h-46l7 31c-28.667 -26.667 -58.667 -40 -90 -40c-48 0 -74.667 35 -80 105l3 26c14.667 68 57.667 111.667 129 131h14
c22 0 41.667 -11 59 -33l12 59l-5 5h-43l8 36h49zM1489 44.999h40l43 -61h-53l-17 27l-29 -27h-53zM2650 44.999h33c8 0 24.667 -20.333 50 -61h-54l-17 27c-15.333 -14 -23.666 -23 -25 -27h-58l1 4zM57.0039 36.999h160l-13 -60h-56l-57 -268h-50l-3 5l52 245l3 3v2l-1 2
l2 3l-1 2l2 3l-1 3h-54l11 54zM707.004 36.999h47.001l-16 -73l2 -2l-3 -3l-1 -3l2 -2l-3 -3v-3l1 -2v-2l-3 -3l2 -3h3c14.667 16 33.334 24 56.001 24h3c35.333 0 56.666 -19.333 63.999 -58c2.66699 -11.333 2 -25.333 -2 -42l-32 -153h-52l27 127
c9.33301 45.333 0.666016 68 -26.001 68h-8c-28.667 0 -49 -28.667 -61 -86l-23 -109h-52l68 322zM1305 36.999h47l3 -6l-10 -49h-52zM1995 36.999h52l-42 -198l94 115h62l-103 -118l63 -125v-2h-70c-3.33301 14.667 -20 53 -50 115l-24 -115h-52zM2279 36.999
l-21.001 -98.999c19.333 16 38.666 24 58 24c38 0 60.667 -18.667 68 -56c4 -12.667 1.66699 -38.334 -7 -77.001l-25 -120h-54l28 133c8.66699 41.333 -0.666016 62 -27.999 62h-11c-20.667 0 -36.667 -18.333 -48 -55l-30 -140h-53l67 314l-1 3l1 3l1 2v3l2 3h53zM2466 37
h51l-12 -55h-51zM3156 37h51l-23 -108c22.667 22 47.667 33 75 33h3c50 0 78.333 -31.333 85 -94l-3 -37c-10.667 -50 -40.667 -90 -90 -120c-21.333 -7.33301 -38.333 -11 -51 -11c-27.333 0 -48.333 13.333 -63 40l-7 -31h-47zM4283 37h52l-21 -99h2
c18.666 16 38.333 24 59 24h3c40 0 62 -24.667 66 -74l-7 -41l-29 -138h-52l24 111c11.334 54.667 6.33398 82 -15 82l-10 2h-12c-24.666 0 -42.666 -26.667 -54 -80l-24 -115h-52zM321.004 -38h3l-13 -58h-5c-28 0 -46 -19 -54 -57l-29 -138h-53l52 245h47l-4 -21
c16 19.333 34.667 29 56 29zM556.004 -38c47.333 0 69.666 -29 66.999 -87l-35 -166h-51l29 136c4 39.333 -5.66699 59 -29 59h-6c-30 0 -50.667 -28 -62 -84l-24 -111h-52l52 245h50l-4 -21c20.667 19.333 42.334 29 65.001 29zM1496 -38c48 0 76.333 -31.333 85 -94
l-4 -39c-4.66699 -16 -8.66699 -24 -12 -24h-169c4.66699 -31.333 22 -47 52 -47c16 0 33.667 7 53 21h57c-33.333 -52.667 -75 -79 -125 -79c-54.667 0 -85 35 -91 105l8 37c11.333 54 49.333 93 114 117zM2649 -38h5c51.333 0 80 -32.333 86 -97l-2 -26l-5 -21l-6 -13
h-170c5.33301 -31.333 19.666 -47 43 -47h12c14 0 29.667 7 47 21h59c-34 -52.667 -74.667 -79 -122 -79c-56 0 -87 34 -93 102l4 29c13.333 62 52.666 104.667 118 128zM2907 -38h4c36 0 57.667 -20 65 -60c1.33301 -16.667 -2 -44 -10 -82l-24 -111h-54l29 138
c6.66699 32 -1 51 -23 57h-11c-25.333 0 -43.666 -19 -55 -57l-29 -138h-54l52 245h50l-4 -21c20.667 19.333 42 29 64 29zM3500 -38h6c26.667 0 47 -13.333 61 -40h2l7 32h47l-52 -245h-47l7 31h-2c-28.667 -26.667 -57.667 -40 -87 -40c-47.333 0 -74.666 30 -82 90l4 37
l3 12c11.333 54.667 45 93.667 101 117c8.66699 4 19.334 6 32 6zM3773 -38h4c41.333 0 63 -26 65 -78l-15 -84l-19 -91h-54l29 138c6.66699 32 -2 51 -26 57h-9c-25.333 0 -43 -17.333 -53 -52l-30 -143h-54l52 245h49l-4 -21c21.333 19.333 43 29 65 29zM4125 -38h1
c49.334 0 77.334 -31 84 -93l-5 -40c-12 -58.667 -48.666 -100.667 -110 -126l-26 -3c-27.333 0 -47.666 11.333 -61 34l-22 -106h-52l69 326h47l-6 -29c25.333 24.667 52.333 37 81 37zM4706 -38h5c22.666 0 41 -12.333 55 -37c23.334 24.667 49 37 77 37h6
c37.334 0 59 -22 65 -66l-5 -51l-29 -136h-52l26 122c10 48.667 2 73 -24 73h-7c-23.334 0 -40.334 -16.667 -51 -50l-30 -140l-6 -5h-48l30 140c6 28 -0.666016 46.333 -20 55h-17c-26.666 0 -45.333 -25.667 -56 -77l-25 -118h-51l52 245h47l-4 -21
c18.666 19.333 39.333 29 62 29zM349.004 -46h49l4 -6l-50 -234l-6 -5h-49zM1287 -46h52l-52 -245h-52zM1639 -46h52l-29 -136c-6 -40 4 -60 30 -60h4c29.333 0 50 27 62 81l24 115h52l-52 -245h-47l5 24h-5c-12.667 -22 -34.667 -33 -66 -33c-34.667 0 -56.667 21 -66 63
c-1.33301 8 -0.333008 19.333 3 34zM2448 -46h51l-52 -245h-51zM4505 -46h51l-52 -245h-51zM1041 -169c-7.33301 -35.333 4.33203 -59.666 34.999 -72.999h12c36 0 62.667 22 80 66l3 10c7.33301 35.333 -6 58.666 -40 69.999h-17c-25.333 0 -48.666 -19 -69.999 -57z
M1407 -143h122c-5.33301 31.333 -19.666 47 -42.999 47h-7c-28.667 0 -52.334 -14.667 -71.001 -44zM2568 -143h122c-7.33301 31.333 -22 47 -44 47h-7c-30.667 0 -54.334 -15.667 -71 -47zM3162 -158l-2 -11c-4 -48.667 11 -73 45 -73h5c44 5.33301 70.333 29 79 71l2 5
c6 30 -2.33301 51.667 -25 65l-17 5h-14c-42 -9.33301 -66.333 -30 -73 -62zM3415 -173c-0.666992 -46 15 -69 47 -69h11c27.333 0 51.333 20 72 60l3 13c4.66699 48.667 -9 73 -41 73h-17c-31.333 0 -56 -24.333 -74 -73zM4028 -158l-4 -22
c-6.66699 -31.333 8.33301 -52 45 -62h9c33.334 0 59.334 25.333 78 76c0.666016 46.667 -14 70 -44 70h-15c-39.333 -11.333 -62.333 -32 -69 -62z" />
    <glyph glyph-name="space" unicode=" " horiz-adv-x="602" 
 />
    <glyph glyph-name="exclam" unicode="!" horiz-adv-x="602" 
d="M429 209l-44 -209h-201l44 209h201zM411 352h-103l86 635l102 483h201l-102 -483z" />
    <glyph glyph-name="quotedbl" unicode="&#x22;" horiz-adv-x="786" 
d="M345 950l111 520h152l-111 -520h-152zM636 950l111 520h151l-111 -520h-151z" />
    <glyph glyph-name="numbersign" unicode="#" 
d="M885 430l-148 -430h-135l148 430h-254l-152 -430h-135l152 430h-213l48 131h209l103 291h-213l48 127h209l152 430h135l-148 -430h254l148 430h140l-153 -430h213l-47 -127h-209l-103 -291h209l-45 -131h-213zM897 852h-253l-103 -291h258z" />
    <glyph glyph-name="dollar" unicode="$" 
d="M699 840l99 466.999c-76.667 0 -141.667 -22.667 -195 -68s-87 -102 -101 -170c-14 -65.333 0 -118.666 42 -159.999c36 -34 87.667 -57 155 -69zM749 630.999l-111 -520.001c87.333 0 161.333 26.333 222 79c53.333 46.667 87.666 106.334 102.999 179.001
c12 56 7.33301 104.333 -14 145s-53.666 68.667 -96.999 84zM1260 1069l-176 -0.00390625c6 64 -1.66699 113.333 -23 148c-28.667 44.667 -85 74.667 -169 90l-103 -488c120.667 -38 202.667 -68.667 246 -92c109.333 -61.333 147.666 -170 114.999 -326
c-33.333 -155.333 -112 -272.666 -236 -351.999c-94.667 -60 -197.334 -90 -308.001 -90l-42 -197h-94l42 197c-138 0 -238 34.667 -300 104c-71.333 82 -89 207 -53 375h180c-23.333 -109.333 -20.166 -187.166 9.50098 -233.499s94.834 -77.5 195.501 -93.5l116 544
c-162 41.333 -266 95.333 -312 162c-40.667 60 -50.334 140 -29.001 240c23.333 110.667 83.833 205.167 181.5 283.5s207.5 117.5 329.5 117.5l28 131h94l-28 -131c104.667 -9.33301 185.334 -34.666 242.001 -75.999c92.667 -65.333 124 -169.666 94 -312.999z" />
    <glyph glyph-name="percent" unicode="%" horiz-adv-x="1912" 
d="M310 1077c21.333 98.667 72.501 181.333 153.501 248s170.5 100 268.5 100c97.333 0 172.5 -33.667 225.5 -101s69.167 -149.666 48.5 -246.999c-20.667 -96.667 -71.834 -178.834 -153.501 -246.501s-171.167 -101.5 -268.5 -101.5c-95.333 0 -170 33.5 -224 100.5
s-70.667 149.5 -50 247.5zM453.001 1077c-12.667 -61.333 -3.50195 -110.833 27.498 -148.5s75.833 -56.5 134.5 -56.5c60 0 113.333 19.833 160 59.5s76 88.167 88 145.5c12.667 57.333 3.33398 105.833 -27.999 145.5s-75.666 59.5 -132.999 59.5s-110 -19.833 -158 -59.5
s-78.333 -88.167 -91 -145.5zM1116 335.999c20.667 98 71.502 180.501 152.502 247.501s170.833 100.5 269.5 100.5c96.667 0 171.667 -33.833 225 -101.5s69.666 -149.834 48.999 -246.501c-20.667 -97.333 -72.167 -180.333 -154.5 -249s-171.833 -103 -268.5 -103
c-96 0 -170.833 34 -224.5 102s-69.834 151.333 -48.501 250zM1259 336c-13.333 -61.333 -4.50195 -110.833 26.498 -148.5s75.833 -56.5 134.5 -56.5c60 0 113.333 19.833 160 59.5s76.334 88.167 89.001 145.5c12 57.333 2.33301 105.833 -29 145.5
s-75.666 59.5 -132.999 59.5s-110 -19.833 -158 -59.5s-78 -88.167 -90 -145.5zM1678 1442l-1126 -1483h-110l1122 1483h114z" />
    <glyph glyph-name="ampersand" unicode="&#x26;" horiz-adv-x="1454" 
d="M918 291l-246 405c-106.667 -60 -178.667 -107 -216 -141c-56 -50.667 -91.667 -112.667 -107 -186c-18 -82 2.66699 -145.667 62 -191c44 -34 94.667 -51 152 -51c134 0 252.333 54.667 355 164zM778 901c65.333 38 112.333 70.668 141 98.001c52.667 48 85 100 97 156
c12 58.667 2.66699 101.667 -28 129c-22.667 20.667 -54 31 -94 31c-65.333 0 -117.333 -20.667 -156 -62c-25.333 -27.333 -42 -60 -50 -98c-8.66699 -40.667 -1.66699 -87.667 21 -141c16 -38.667 39 -76.334 69 -113.001zM1129 319.001l193.999 -319h-234l-103 168
c-70 -65.333 -137 -113 -201 -143c-80 -38.667 -169.333 -58 -268 -58c-159.333 0 -266.666 50.667 -321.999 152c-38 70.667 -47.667 149.667 -29 237c22 104 62 188.167 120 252.5s161.333 134.5 310 210.5c-42 71.333 -69.333 126 -82 164
c-15.333 49.333 -17 102.666 -5 159.999c19.333 91.333 64.666 167 135.999 227c80 66.667 174 100 282 100c109.333 0 187 -32 233 -96c40.667 -54.667 52 -123.667 34 -207c-19.333 -91.333 -66.333 -171.666 -141 -240.999c-42.667 -40 -111.667 -88 -207 -144l203 -319
c26 44.667 45.167 80.667 57.5 108s28.5 67.666 48.5 120.999h172c-10 -49.333 -32.167 -105.666 -66.5 -168.999s-78.166 -131.333 -131.499 -204z" />
    <glyph glyph-name="quotesingle" unicode="'" horiz-adv-x="417" 
d="M324 950l111 520h147l-111 -520h-147z" />
    <glyph glyph-name="parenleft" unicode="(" horiz-adv-x="737" 
d="M806 1503l123.001 0.00195312c-97.333 -130.667 -167.333 -230.334 -210 -299.001c-70 -108 -126.167 -214.167 -168.5 -318.5s-80.833 -237.166 -115.5 -398.499c-22.667 -106 -32.667 -208.833 -30 -308.5s14.667 -199.5 36 -299.5
c13.333 -60 40.666 -161.667 81.999 -305h-123c-82.667 181.333 -135.667 333.666 -159 456.999c-30 159.333 -26 328 12 506c36.667 173.333 102 339.666 196 498.999c85.333 143.333 204.333 299 357 467z" />
    <glyph glyph-name="parenright" unicode=")" horiz-adv-x="737" 
d="M105 -426l-123.003 0.00195312c93.333 126.667 164 227 212 301c68.667 108 124.5 214.5 167.5 319.5s81.833 238.167 116.5 399.5c22.667 106.667 32.834 209.167 30.501 307.5s-15.166 197.166 -38.499 296.499c-12 61.333 -39.333 163 -82 305h123
c56 -122.667 96.333 -224.334 121 -305.001c32 -100.667 51 -204.667 57 -312s-4 -221 -30 -341c-36.667 -174.667 -102 -342 -196 -502c-85.333 -144.667 -204.666 -301 -357.999 -469z" />
    <glyph glyph-name="asterisk" unicode="*" horiz-adv-x="856" 
d="M339 1212l65 111l196 -78l48 225h123l-48 -225l234 78l17 -111l-236 -69l95 -189l-113 -69l-95 192l-172 -192l-87 69l179 189z" />
    <glyph glyph-name="plus" unicode="+" horiz-adv-x="1269" 
d="M649 594l94 442h152l-94 -442h442l-32 -152h-442l-94 -442h-152l94 442h-442l32 152h442z" />
    <glyph glyph-name="comma" unicode="," horiz-adv-x="602" 
d="M180 0l46.998 217.001h213l-43 -201c-25.333 -118.667 -73.666 -205.334 -144.999 -260.001c-39.333 -30 -84.666 -49.667 -135.999 -59l20 94c40 4 73.667 27.333 101 70c20 32.667 36.333 79 49 139h-106z" />
    <glyph glyph-name="hyphen" unicode="-" horiz-adv-x="737" 
d="M734 659l-39 -184h-504l39 184h504z" />
    <glyph glyph-name="hyphen" unicode="&#x2010;" horiz-adv-x="737" 
d="M734 659l-39 -184h-504l39 184h504z" />
    <glyph glyph-name="period" unicode="." horiz-adv-x="602" 
d="M439 217l-46 -217h-213l46 217h213z" />
    <glyph glyph-name="slash" unicode="/" horiz-adv-x="602" 
d="M928 1511l-834 -1552h-139l838 1552h135z" />
    <glyph glyph-name="zero" unicode="0" 
d="M1021 700c40 187.333 45.8311 330.5 17.498 429.5s-94.166 148.5 -197.499 148.5c-100 0 -185.5 -50.5 -256.5 -151.5s-126.167 -243.167 -165.5 -426.5c-39.333 -185.333 -45.166 -327.833 -17.499 -427.5s92.167 -149.5 193.5 -149.5c100.667 0 187 50.167 259 150.5
s127.667 242.5 167 426.5zM1213 700c-41.333 -193.333 -105.999 -353.667 -193.999 -481c-121.333 -173.333 -274 -260 -458 -260c-184.667 0 -300.667 86 -348 258c-33.333 124 -29 285 13 483c41.333 195.333 105.666 356 192.999 482c120 173.333 272.333 260 457 260
c184 0 300 -86 348 -258c34.667 -126 31 -287.333 -11 -484z" />
    <glyph glyph-name="one" unicode="1" 
d="M1043 1442l-307 -1442h-192l218 1024h-336l30 143c122.667 0 212 15.667 268 47c65.333 37.333 124 113.333 176 228h143z" />
    <glyph glyph-name="two" unicode="2" 
d="M467 926l-179.997 -0.000976562c43.333 203.333 137.333 347.333 282 432c95.333 56 204.666 84 327.999 84c128 0 226.667 -39 296 -117s90 -182.333 62 -313c-24.667 -116 -83.334 -214.333 -176.001 -295c-62.667 -56 -166.667 -119 -312 -189l-168 -82
c-94.667 -46 -170.334 -98.333 -227.001 -157c-38.667 -41.333 -64.334 -80.333 -77.001 -117h782l-37 -172h-987c30 140.667 87.333 259.334 172 356.001c68.667 79.333 165.334 151.666 290.001 216.999l211 111c107.333 53.333 180.333 96.333 219 129
c62 53.333 102 122.333 120 207c14 66.667 4.66699 124 -28 172c-39.333 57.333 -107.333 86 -204 86c-91.333 0 -167.666 -28 -228.999 -84c-66.667 -61.333 -112.334 -150.666 -137.001 -267.999z" />
    <glyph glyph-name="three" unicode="3" 
d="M599 664l33.002 155.001l93 -4c78 0 144.667 17 200 51c66 41.333 108 103.666 126 186.999c11.333 56 4.33301 103.667 -21 143c-36.667 54.667 -102.667 82 -198 82c-110.667 0 -196.667 -39 -258 -117c-41.333 -50.667 -70 -114 -86 -190h-176
c27.333 128 79.666 232.333 156.999 313c101.333 105.333 236.666 158 405.999 158c138 0 239.333 -35.167 304 -105.5s85 -162.166 61 -275.499c-17.333 -83.333 -52.333 -152.333 -105 -207c-42 -44 -89 -73.333 -141 -88c68.667 -26 117 -64.333 145 -115
c32 -58.667 38.333 -133.667 19 -225c-27.333 -130 -90 -237.333 -188 -322c-114 -96.667 -256.333 -145 -427 -145c-50 0 -95.833 5.5 -137.5 16.5s-79.834 27.5 -114.501 49.5c-66.667 39.333 -109.5 96.166 -128.5 170.499s-18.833 156.5 0.5 246.5h188
c-19.333 -88.667 -17 -158.334 7 -209.001c34.667 -73.333 112.334 -110 233.001 -110c92.667 0 173.167 26 241.5 78s111.166 118.667 128.499 200c22.667 106.667 -1.66602 181.334 -72.999 224.001c-47.333 28.667 -116 43 -206 43z" />
    <glyph glyph-name="four" unicode="4" 
d="M1148 352h-213l-75 -352h-180l75 352h-627l37 176l854 914h148l-199 -934h213zM325 508h463l139 651z" />
    <glyph glyph-name="five" unicode="5" 
d="M627 1233l-145 -393.002c40.667 26 82.334 46.333 125.001 61c54.667 19.333 112 29 172 29c126 0 225.667 -39.667 299 -119c79.333 -86 104 -200.667 74 -344c-26 -121.333 -78.333 -225.666 -157 -312.999c-117.333 -130 -274.333 -195 -471 -195
c-116 0 -207 26 -273 78c-87.333 68 -123.666 175.667 -108.999 323h188c-8.66699 -81.333 9.66602 -141.833 54.999 -181.5s111.333 -59.5 198 -59.5c91.333 0 171.333 31.333 240 94s112.667 140.334 132 233.001c22 101.333 8.66699 180 -40 236s-119.334 84 -212.001 84
c-105.333 0 -203.333 -45 -294 -135l-155 8l275 770h745l-37 -176h-610z" />
    <glyph glyph-name="six" unicode="6" 
d="M1256 1057h-176.006c0.666992 68 -13.666 120.333 -42.999 157c-32.667 42.667 -86 64 -160 64c-122.667 0 -229.667 -69.667 -321 -209c-63.333 -96.667 -107.666 -204.667 -132.999 -324l5 -4c36.667 48 82 87 136 117c71.333 40 151.333 60 240 60
c110.667 0 200.667 -33 270 -99c89.333 -83.333 117.333 -202 84 -356c-15.333 -74 -39.666 -139.667 -72.999 -197s-78.666 -111.166 -135.999 -161.499s-110.333 -85.833 -159 -106.5c-63.333 -26 -143 -39 -239 -39c-65.333 0 -124.666 15 -177.999 45
c-67.333 36.667 -116.666 92.667 -147.999 168c-28 64 -41.5 136.667 -40.5 218s12.833 175.333 35.5 282c42 199.333 112.333 366.666 211 501.999c131.333 178.667 293 268 485 268c104 0 189 -27.333 255 -82c84.667 -70 113 -171 85 -303zM383.994 442
c-18 -84.667 -9.33301 -157 26 -217c40 -68 109.667 -102 209 -102c84.667 0 159.5 30.667 224.5 92s108.167 141.333 129.5 240c16 77.333 9.33301 143.333 -20 198c-37.333 70 -106.333 105 -207 105c-97.333 0 -177 -29.333 -239 -88s-103 -134.667 -123 -228z" />
    <glyph glyph-name="seven" unicode="7" 
d="M339 1233l37.002 176h995l-33 -156c-74.667 -65.333 -156 -147.666 -244 -246.999c-120.667 -136.667 -228.334 -279.334 -323.001 -428.001c-120.667 -190 -218.334 -382.667 -293.001 -578h-196c66 195.333 180.667 410.333 344 645c156.667 224 324.667 420 504 588
h-791z" />
    <glyph glyph-name="eight" unicode="8" 
d="M1234 1069c-18.667 -88.667 -56.668 -160.331 -114.001 -214.998c-34.667 -34 -80 -63.333 -136 -88c82 -36.667 135 -91.334 159 -164.001c18 -54.667 19.667 -116 5 -184c-27.333 -128.667 -88 -234.667 -182 -318c-107.333 -94 -241.333 -141 -402 -141
c-57.333 0 -110 7 -158 21c-67.333 18.667 -123 50 -167 94c-53.333 48.667 -83 110.667 -89 186c-3.33301 41.333 1.66699 92.666 15 153.999c18 86 54.333 158.333 109 217s125 103.667 211 135c-120.667 48 -166.667 140.667 -138 278c20.667 97.333 68.667 182 144 254
c100 96 226.333 144 379 144c146.667 0 251.334 -41 314.001 -123c54 -70 70.667 -153.333 50 -250zM711.999 676.003c-96 0 -177.001 -27.334 -243.001 -82.001c-59.333 -49.333 -96.666 -110.666 -111.999 -183.999c-16 -74 -9.66699 -136.333 19 -187
c39.333 -66.667 115 -100 227 -100c82 0 150.333 17 205 51c74 46.667 122 121 144 223c19.333 92 6 161.5 -40 208.5s-112.667 70.5 -200 70.5zM739.998 831.002c76.667 0 143.667 22.668 201 68.001s93 100.666 107 165.999c11.333 53.333 2.66602 99 -26.001 137
c-38.667 50.667 -105 76 -199 76c-86 0 -154.667 -25.333 -206 -76c-39.333 -39.333 -65.666 -89 -78.999 -149c-14 -66 -0.833008 -119.5 39.5 -160.5s94.5 -61.5 162.5 -61.5z" />
    <glyph glyph-name="nine" unicode="9" 
d="M643 483c-135.333 0 -236.168 41.334 -302.501 124.001s-84.166 195.667 -53.499 339c29.333 139.333 92.666 254.666 189.999 345.999c106 100 232 150 378 150c200.667 0 324.667 -82 372 -246c30.667 -106.667 27.334 -247.334 -9.99902 -422.001
c-20.667 -96.667 -48.667 -190 -84 -280c-60 -152 -132 -271.667 -216 -359c-112 -117.333 -243.333 -176 -394 -176c-151.333 0 -255.333 47 -312 141c-43.333 72.667 -55 155.334 -35 248.001h181c-16 -73.333 -6 -131.166 30 -173.499s90.667 -63.5 164 -63.5
c98.667 0 184.167 42.667 256.5 128s139.833 222.666 202.5 411.999l-3 4c-37.333 -53.333 -90 -95.333 -158 -126s-136.667 -46 -206 -46zM700.998 643.001c68.667 0 130.666 19.001 185.999 57.001c82 56 136.333 146.333 163 271c19.333 90 12 161.667 -22 215
c-39.333 61.333 -107.333 92 -204 92c-84.667 0 -158.5 -29.333 -221.5 -88s-105.167 -137.334 -126.5 -236.001c-25.333 -121.333 -9.66602 -207.333 47.001 -258c38 -35.333 97.333 -53 178 -53z" />
    <glyph glyph-name="colon" unicode=":" horiz-adv-x="602" 
d="M439 217l-46 -217h-213l46 217h213zM618 1057l-46 -217h-213l46 217h213z" />
    <glyph glyph-name="semicolon" unicode=";" horiz-adv-x="602" 
d="M180 0l46.998 217.001h213l-43 -201c-25.333 -118.667 -73.666 -205.334 -144.999 -260.001c-39.333 -30 -84.666 -49.667 -135.999 -59l20 94c40 4 73.667 27.333 101 70c20 32.667 36.333 79 49 139h-106zM571.998 840.001h-213l46 217h213z" />
    <glyph glyph-name="less" unicode="&#x3c;" horiz-adv-x="1269" 
d="M1137 188l-34 -163l-910 421l31 144l1089 426l-35 -164l-868 -332z" />
    <glyph glyph-name="equal" unicode="=" horiz-adv-x="1269" 
d="M1287 799l-31 -148h-1036l31 148h1036zM1199 385l-31 -147h-1036l31 147h1036z" />
    <glyph glyph-name="greater" unicode="&#x3e;" horiz-adv-x="1269" 
d="M279 852l35 164l908 -426l-31 -144l-1088 -421l35 163l869 332z" />
    <glyph glyph-name="question" unicode="?" 
d="M509 1012h-180.001c23.333 110.667 55.333 194 96 250c34.667 47.333 84.667 92.333 150 135c96.667 62.667 201.667 94 315 94c121.333 0 215 -34 281 -102c72 -74 94.667 -173.667 68 -299c-14 -66 -40.667 -122.667 -80 -170c-31.333 -40 -93.333 -96.667 -186 -170
c-67.333 -54.667 -111.333 -92.334 -132 -113.001c-60.667 -61.333 -101.667 -141.333 -123 -240v-20h-180c28 130.667 71.667 229.667 131 297c23.333 27.333 73.333 73.333 150 138s123.334 105.334 140.001 122.001c45.333 44.667 75 100.667 89 168c12 56 6 105 -18 147
c-32 57.333 -91 86 -177 86c-88.667 0 -162.5 -26.833 -221.5 -80.5s-99.833 -134.5 -122.5 -242.5zM694.999 209l-44 -209h-197l44 209h197z" />
    <glyph glyph-name="at" unicode="@" horiz-adv-x="1509" 
d="M1455 836c10.667 51.333 3.66992 95.5 -20.9971 132.5s-60.334 55.5 -107.001 55.5c-87.333 0 -172 -45 -254 -135c-74.667 -82 -121.667 -169.333 -141 -262c-12.667 -60 -7.33398 -108.5 15.999 -145.5s61 -55.5 113 -55.5c82 0 165 47.667 249 143
c77.333 87.333 125.666 176.333 144.999 267zM1555 1012l68.002 127h139l-211 -420c-72 -143.333 -110.333 -226 -115 -248c-8.66699 -38 2 -57 32 -57c69.333 0 145 46.333 227 139s134.333 193.667 157 303c34 160 6.16699 288 -83.5 384s-215.167 144 -376.5 144
c-180 0 -342.333 -63.333 -487 -190s-236.667 -281.667 -276 -465c-38 -181.333 -8.83301 -333.166 87.5 -455.499s235.166 -183.5 416.499 -183.5c96 0 192.333 20.833 289 62.5s182 98.834 256 171.501h139c-92 -113.333 -201.5 -202.5 -328.5 -267.5
s-256.167 -97.5 -387.5 -97.5c-219.333 0 -388.5 75.5 -507.5 226.5s-155.167 336.167 -108.5 555.5c45.333 213.333 159.166 395 341.499 545s379.833 225 592.5 225c195.333 0 348.833 -60.333 460.5 -181s147.834 -273.334 108.501 -458.001
c-36.667 -170.667 -126.667 -316 -270 -436c-124 -104.667 -238.667 -157 -344 -157c-38 0 -67 10.833 -87 32.5s-25.333 54.5 -16 98.5l-5 -4c-43.333 -36 -86.666 -65 -129.999 -87c-52.667 -26.667 -100.334 -40 -143.001 -40c-87.333 0 -152.833 32 -196.5 96
s-56.167 141 -37.5 231c31.333 147.333 101.666 276.333 210.999 387c118 118.667 246 178 384 178c50.667 0 93.167 -12.833 127.5 -38.5s58.833 -65.834 73.5 -120.501z" />
    <glyph glyph-name="A" unicode="A" horiz-adv-x="1454" 
d="M1069 430h-590l-246 -430h-205l865 1470h225l221 -1470h-217zM579 606h455l-81 647z" />
    <glyph glyph-name="B" unicode="B" horiz-adv-x="1454" 
d="M629 1303l-97 -455h356c101.333 0 180 17 236 51c62.667 38 103.334 100 122.001 186c15.333 72.667 4.33301 126 -33 160c-42.667 38.667 -117.334 58 -224.001 58h-360zM151 0l312.002 1470h647c131.333 0 227.666 -36 288.999 -108
c56.667 -66.667 73.667 -153.334 51 -260.001c-12.667 -61.333 -36.334 -115.333 -71.001 -162c-46 -62.667 -109.667 -111 -191 -145c70.667 -34.667 119.667 -68.334 147 -101.001c52 -64 66.333 -150.667 43 -260c-26 -124 -90 -225.667 -192 -305
c-110 -86 -243.333 -129 -400 -129h-635zM498.002 688.002l-109.001 -516.001h422c102 0 184.333 23.5 247 70.5s102.667 112.167 120 195.5c20 94.667 -2.66699 162.334 -68 203.001c-49.333 31.333 -123.666 47 -222.999 47h-389z" />
    <glyph glyph-name="C" unicode="C" horiz-adv-x="1568" 
d="M1598 1028l-192.002 -0.000976562c1.33301 114.667 -38.334 198 -119.001 250c-59.333 38 -134.666 57 -225.999 57c-140.667 0 -264.667 -48.333 -372 -145c-116.667 -105.333 -195 -252 -235 -440c-40 -187.333 -35.333 -332.333 14 -435
c56.667 -117.333 171 -176 343 -176c88.667 0 171.667 24 249 72c108.667 68 195 178 259 330h193c-67.333 -186 -168.666 -329.5 -303.999 -430.5s-289.666 -151.5 -462.999 -151.5c-186 0 -325.667 60 -419 180c-108 140.667 -134 342.667 -78 606
c48.667 228 149.834 412.667 303.501 554s336.167 212 547.5 212c177.333 0 310.666 -49.667 399.999 -149c78.667 -87.333 111.667 -198.666 99 -333.999z" />
    <glyph glyph-name="D" unicode="D" horiz-adv-x="1568" 
d="M167 0l312 1470h594c190 0 326.667 -65.167 410 -195.5s102.333 -302.5 57 -516.5c-42.667 -200.667 -122 -368 -238 -502c-146.667 -170.667 -329.667 -256 -549 -256h-586zM641 1303l-240.002 -1131h385c130.667 0 244.834 49.5 342.501 148.5
s165.834 240.5 204.501 424.5c38.667 182 29.5 320.5 -27.5 415.5s-154.5 142.5 -292.5 142.5h-372z" />
    <glyph glyph-name="E" unicode="E" horiz-adv-x="1454" 
d="M1298 176l-37 -176h-1085l312 1470h1073l-37 -176h-872l-96 -450h803l-37 -176h-803l-105 -492h884z" />
    <glyph glyph-name="F" unicode="F" horiz-adv-x="1314" 
d="M519 668l-142 -668h-201l312 1470h1020l-37 -176h-819l-96 -450h721l-37 -176h-721z" />
    <glyph glyph-name="G" unicode="G" horiz-adv-x="1683" 
d="M930 618l35.001 167.999h643l-167 -786h-126l-9 193c-63.333 -70 -143.5 -126.5 -240.5 -169.5s-194.5 -64.5 -292.5 -64.5c-114.667 0 -208.334 18.333 -281.001 55c-50.667 26 -95.334 63.667 -134.001 113c-78 92.667 -121 203.334 -129 332.001
c-5.33301 79.333 4.33398 176.333 29.001 291c42 199.333 134.333 370.666 277 513.999c162.667 164.667 356 247 580 247c152 0 277 -39.333 375 -118c110.667 -88.667 159 -211.667 145 -369h-193c-2.66699 116 -45.667 200 -129 252c-62 39.333 -143 59 -243 59
c-139.333 0 -264.333 -51 -375 -153c-116.667 -109.333 -195 -257.666 -235 -444.999c-37.333 -176 -34 -314.333 10 -415c54.667 -127.333 172 -191 352 -191c52 0 99 4.66699 141 14c63.333 15.333 122.666 42 177.999 80c71.333 48 127.333 106 168 174
c34.667 58.667 61.334 131.667 80.001 219h-459z" />
    <glyph glyph-name="H" unicode="H" horiz-adv-x="1568" 
d="M1310 864l128 606h196l-312 -1470h-196l146 688h-770l-146 -688h-197l312 1470h197l-128 -606h770z" />
    <glyph glyph-name="I" unicode="I" horiz-adv-x="602" 
d="M697 1470l-312 -1470h-197l312 1470h197z" />
    <glyph glyph-name="J" unicode="J" horiz-adv-x="1085" 
d="M137 475l183.999 -0.000976562l-22 -102c-18 -84.667 -12 -146.167 18 -184.5s80.667 -57.5 152 -57.5c87.333 0 155.333 24 204 72c41.333 40.667 70.333 101.334 87 182.001l231 1085h197l-228 -1073c-33.333 -156.667 -104 -272.667 -212 -348
c-84.667 -60 -185.667 -90 -303 -90c-153.333 0 -256.666 44.333 -309.999 133c-39.333 65.333 -49.333 144 -30 236z" />
    <glyph glyph-name="K" unicode="K" horiz-adv-x="1454" 
d="M466 516l-110 -516h-201l312 1470h201l-151 -712l863 712h275l-741 -593l445 -877h-258l-359 737z" />
    <glyph glyph-name="L" unicode="L" 
d="M668 1470l-275 -1294h745l-37 -176h-946l312 1470h201z" />
    <glyph glyph-name="M" unicode="M" horiz-adv-x="1798" 
d="M1560 0h-192l263 1237l-677 -1237h-197l-151 1233l-262 -1233h-193l312 1470h283l159 -1241l684 1241h283z" />
    <glyph glyph-name="N" unicode="N" horiz-adv-x="1568" 
d="M1442 1470h192l-312 -1470h-221l-496 1188l-257 -1188h-193l312 1470h238l481 -1187z" />
    <glyph glyph-name="O" unicode="O" horiz-adv-x="1572" 
d="M1480 737c37.333 176 22.6689 318.667 -43.998 428c-70.667 113.333 -184.334 170 -341.001 170c-156 0 -292.333 -56 -409 -168s-193.334 -255.333 -230.001 -430c-38 -177.333 -23 -321.333 45 -432s181.333 -166 340 -166c156.667 0 293 55.667 409 167
s192.667 255 230 431zM1685 737c-42 -198 -128.666 -367.333 -259.999 -508c-166.667 -180 -374.334 -270 -623.001 -270c-247.333 0 -416 89.333 -506 268c-72 143.333 -87 313.333 -45 510c41.333 195.333 127.666 363.333 258.999 504
c167.333 180 374.666 270 621.999 270c246.667 0 415.334 -89.333 506.001 -268c72.667 -142 88.334 -310.667 47.001 -506z" />
    <glyph glyph-name="P" unicode="P" horiz-adv-x="1454" 
d="M654 1303l-109 -512h393c96.667 0 173 19 229 57c64 43.333 106.333 113 127 209c18.667 87.333 4 151.333 -44 192c-40 36 -105 54 -195 54h-401zM509 623l-132.002 -623h-201l312 1470h664c132 0 229.167 -38.5 291.5 -115.5s80.833 -176.167 55.5 -297.5
c-25.333 -117.333 -78.666 -215 -159.999 -293c-97.333 -94 -219.666 -141 -366.999 -141h-463z" />
    <glyph glyph-name="Q" unicode="Q" horiz-adv-x="1683" 
d="M923 303l130.002 123l153 -143c62.667 50 116.834 115 162.501 195s78.5 166.333 98.5 259c37.333 176 22.666 318.667 -44.001 428c-70.667 113.333 -184.334 170 -341.001 170c-156 0 -292.333 -56 -409 -168s-193.334 -255.333 -230.001 -430
c-38 -177.333 -23 -321.333 45 -432s181.333 -166 340 -166c80.667 0 156 15 226 45zM1503 4l-127 -118.998l-188 176c-113.333 -68 -246.333 -102 -399 -102c-247.333 0 -416 89.333 -506 268c-72 143.333 -87 313.333 -45 510c41.333 195.333 127.666 363.333 258.999 504
c167.333 180 374.666 270 621.999 270c246.667 0 415.334 -89.333 506.001 -268c72.667 -142 88.334 -310.667 47.001 -506c-22.667 -104.667 -60 -204.334 -112 -299.001c-60 -110.667 -134.667 -203.334 -224 -278.001z" />
    <glyph glyph-name="R" unicode="R" horiz-adv-x="1568" 
d="M515 631l-133.999 -631h-201l312 1470h680c139.333 0 244.666 -26.333 315.999 -79c86.667 -66 114.667 -170.667 84 -314c-20.667 -98 -59 -177 -115 -237c-38 -41.333 -93 -79.666 -165 -114.999c54 -26 89 -51.333 105 -76c28 -43.333 32.333 -111 13 -203l-45 -266
c-8.66699 -42 -10.5 -72.333 -5.5 -91s21.167 -37.334 48.5 -56.001l-7 -33h-242c-4 36.667 -0.5 96 10.5 178s21.167 145.667 30.5 191c22 100.667 12.333 171 -29 211c-34.667 34 -93.667 51 -177 51h-479zM658.001 1303l-106 -500.001h458c90.667 0 162 15 214 45
c71.333 40.667 117.666 110.334 138.999 209.001c20.667 98 4 167 -50 207c-35.333 26 -88.666 39 -159.999 39h-495z" />
    <glyph glyph-name="S" unicode="S" horiz-adv-x="1454" 
d="M1449 1040l-183.999 0.00292969c22.667 105.333 -1 184 -71 236c-56 42 -132.333 63 -229 63c-90.667 0 -165.667 -14.333 -225 -43c-89.333 -42 -144.666 -113.667 -165.999 -215c-12 -56 -3.66699 -99.667 25 -131c21.333 -23.333 57.333 -41 108 -53l401 -98
c96.667 -24.667 166 -66.334 208 -125.001c49.333 -68.667 62.333 -158 39 -268c-33.333 -158.667 -122.333 -277 -267 -355c-114.667 -61.333 -248.334 -92 -401.001 -92c-121.333 0 -218 16.333 -290 49c-44 19.333 -86 50.666 -126 93.999
c-45.333 52 -72 108.333 -80 169s-4 128.667 12 204h184c-26 -121.333 -1.66699 -212 73 -272c60 -48 146.667 -72 260 -72c130.667 0 235.667 25.333 315 76c66 42 107 100 123 174c16 75.333 6.66699 129.666 -28 162.999s-110.667 65 -228 95l-289 70
c-76 20 -133.333 48.667 -172 86c-67.333 62.667 -89 150 -65 262c26.667 126.667 87.667 231 183 313c110 94 249 141 417 141c225.333 0 372.666 -58 441.999 -174c46.667 -77.333 57 -176.333 31 -297z" />
    <glyph glyph-name="T" unicode="T" horiz-adv-x="1314" 
d="M303 1294l37 176h1196l-37 -176h-500l-275 -1294h-196l275 1294h-500z" />
    <glyph glyph-name="U" unicode="U" horiz-adv-x="1478" 
d="M1421 1470l197.002 -0.000976562l-202 -954c-34.667 -161.333 -110.334 -291.666 -227.001 -390.999c-128.667 -110.667 -289.334 -166 -482.001 -166c-186.667 0 -319 54 -397 162c-68.667 95.333 -87 219 -55 371l208 978h197l-196 -925
c-31.333 -146 -15 -253.333 49 -322c52.667 -56 131.334 -84 236.001 -84c110.667 0 204.667 26.667 282 80c97.333 68.667 161.666 176 192.999 322z" />
    <glyph glyph-name="V" unicode="V" horiz-adv-x="1454" 
d="M1413 1470h225l-848 -1470h-213l-225 1470h221l156 -1253z" />
    <glyph glyph-name="W" unicode="W" horiz-adv-x="2027" 
d="M626 0h-209l-73 1470h217l21 -1196l585 1196h217l78 -1196l533 1196h217l-697 -1470h-209l-77 1221z" />
    <glyph glyph-name="X" unicode="X" horiz-adv-x="1454" 
d="M970 754l356 -754h-246l-264 606l-538 -606h-238l684 754l-339 716h250l253 -561l492 561h238z" />
    <glyph glyph-name="Y" unicode="Y" horiz-adv-x="1454" 
d="M908 594l-126 -594h-197l126 594l-371 876h233l272 -704l572 704h234z" />
    <glyph glyph-name="Z" unicode="Z" horiz-adv-x="1314" 
d="M1241 176l-37 -176h-1155l36 168l1140 1126h-835l37 176h1089l-36 -172l-1144 -1122h905z" />
    <glyph glyph-name="bracketleft" unicode="[" horiz-adv-x="602" 
d="M575 1335l-339 -1593h221l-30 -143h-381l400 1880h381l-31 -144h-221z" />
    <glyph glyph-name="backslash" unicode="\" horiz-adv-x="602" 
d="M491 -41l-174 1552h139l174 -1552h-139z" />
    <glyph glyph-name="bracketright" unicode="]" horiz-adv-x="602" 
d="M223 -258l339 1593h-221l31 144h385l-400 -1880h-385l30 143h221z" />
    <glyph glyph-name="asciicircum" unicode="^" horiz-adv-x="1015" 
d="M1107 541h-160l-198 704l-502 -704h-160l622 868h148z" />
    <glyph glyph-name="underscore" unicode="_" 
d="M1084 -258h-1139l22 102h1139z" />
    <glyph glyph-name="grave" unicode="`" horiz-adv-x="737" 
d="M552 1217l-205 286h221l124 -286h-140z" />
    <glyph glyph-name="a" unicode="a" horiz-adv-x="1175" 
d="M453 745l-168 0.00195312c26 123.333 86.333 215 181 275c87.333 54.667 200 82 338 82c87.333 0 160.333 -15 219 -45c101.333 -50.667 139.333 -135.334 114 -254.001l-131 -615c-8.66699 -43.333 7.33301 -65 48 -65l59 8l-28 -131l-51 -13
c-18 -4.66699 -35.333 -7 -52 -7c-72 0 -119.333 17 -142 51c-18 26 -21.667 63.333 -11 112c-58.667 -50 -113.667 -88 -165 -114c-83.333 -41.333 -170.666 -62 -261.999 -62c-98.667 0 -173.167 28.667 -223.5 86s-65.5 132.666 -45.5 225.999
c15.333 72 45.333 134 90 186c72.667 83.333 175.667 133 309 149l303 37c29.333 2.66699 52 11 68 25c25.333 20.667 43 54.667 53 102c24.667 117.333 -46.333 176 -213 176c-88.667 0 -158.667 -24.333 -210 -73c-30.667 -30 -57.334 -75.333 -80.001 -136zM866 373.002
l37 176c-18 -14 -47.167 -25.667 -87.5 -35s-109.166 -20.166 -206.499 -32.499s-166.166 -32.833 -206.499 -61.5s-65.5 -66.334 -75.5 -113.001c-13.333 -61.333 -7.83301 -108 16.5 -140s69.833 -48 136.5 -48c87.333 0 169.666 24.5 246.999 73.5
s123.666 109.167 138.999 180.5z" />
    <glyph glyph-name="b" unicode="b" 
d="M290 0h-172l312 1470h180l-113 -532c104 109.333 221 164 351 164c137.333 0 236.333 -51.333 297 -154c57.333 -96.667 69.333 -223 36 -379c-33.333 -156.667 -94 -289 -182 -397c-112.667 -136.667 -251.667 -205 -417 -205c-82 0 -145.333 20 -190 60
c-28 24 -51 60 -69 108zM987 541c22.667 106 26.667 189.333 12 250c-25.333 100.667 -98 151 -218 151c-116 0 -208.667 -54 -278 -162c-46.667 -72 -83 -169.667 -109 -293c-27.333 -126.667 -13 -222 43 -286c42.667 -49.333 101 -74 175 -74
c95.333 0 175 37.5 239 112.5s109.333 175.5 136 301.5z" />
    <glyph glyph-name="c" unicode="c" horiz-adv-x="1085" 
d="M1131 713l-177.001 0.000976562c4.66699 72 -10 128.167 -44 168.5s-88 60.5 -162 60.5c-100.667 0 -186 -43 -256 -129c-59.333 -74 -100.666 -166 -123.999 -276c-24.667 -116.667 -26.334 -208.334 -5.00098 -275.001c28 -90 98.667 -135 212 -135
c60.667 0 119.667 22.5 177 67.5s101 107.167 131 186.5h177c-35.333 -108 -90.666 -198 -165.999 -270c-100 -96 -220.333 -144 -361 -144c-147.333 0 -253.333 50.167 -318 150.5s-80 230.5 -46 390.5c38 177.333 109 318 213 422c114 114.667 257 172 429 172
c128.667 0 219.667 -41.667 273 -125c44 -68.667 59.667 -156.667 47 -264z" />
    <glyph glyph-name="d" unicode="d" 
d="M1335 1470l-312 -1470h-172l31 147c-50.667 -65.333 -109 -113 -175 -143c-53.333 -24.667 -110 -37 -170 -37c-165.333 0 -275.333 67.667 -330 203c-42.667 106.667 -47 239.667 -13 399c33.333 156 99.833 283.833 199.5 383.5s219.5 149.5 359.5 149.5
c84.667 0 152 -22 202 -66c25.333 -21.333 52 -59.333 80 -114l6 12l114 536h180zM372 541c-26 -123.333 -22.167 -223.167 11.5 -299.5s97.5 -114.5 191.5 -114.5c74 0 142 24 204 72c81.333 62.667 135.666 158.667 162.999 288c26.667 123.333 32.334 220.333 17.001 291
c-23.333 109.333 -92.333 164 -207 164c-121.333 0 -216 -49.667 -284 -149c-41.333 -62 -73.333 -146 -96 -252z" />
    <glyph glyph-name="e" unicode="e" 
d="M934 336h181.002c-16 -41.333 -41 -84.333 -75 -129c-51.333 -68.667 -111 -122.667 -179 -162c-42 -24.667 -78.333 -41.667 -109 -51c-56 -18 -122.333 -27 -199 -27c-147.333 0 -253.333 50.167 -318 150.5s-80 230.5 -46 390.5c38 177.333 109 318 213 422
c114 114.667 257 172 429 172c150 0 252.167 -55.667 306.5 -167s61.166 -263.333 20.499 -456h-782c-24 -113.333 -16.333 -200.333 23 -261s110.333 -91 213 -91c79.333 0 151.666 24.667 216.999 74c54.667 42 89.667 87 105 135zM406.002 623h598
c20 91.333 13 165 -21 221c-38 65.333 -108 98 -210 98c-82 0 -159.167 -32 -231.5 -96s-117.5 -138.333 -135.5 -223z" />
    <glyph glyph-name="f" unicode="f" horiz-adv-x="602" 
d="M732 922h-180l-196 -922h-181l196 922h-147l32 151h147l39 184c33.333 156 143 234 329 234h37.5c11.667 0 26.167 -1.33301 43.5 -4l-34 -160l-73 4c-70.667 0 -115 -42.333 -133 -127l-28 -131h180z" />
    <glyph glyph-name="g" unicode="g" 
d="M384 541c-26.667 -124.667 -23.666 -224.833 9.00098 -300.5s96 -113.5 190 -113.5c75.333 0 144 24 206 72c83.333 64 138.333 160 165 288c26 122 31 219 15 291c-24.667 109.333 -94.334 164 -209.001 164c-121.333 0 -215.333 -49.667 -282 -149
c-40 -60.667 -71.333 -144.667 -94 -252zM1251 1073l-208.998 -982.999c-30 -140.667 -74.333 -250 -133 -328c-106.667 -142 -267.334 -213 -482.001 -213c-94 0 -169.333 17.333 -226 52c-87.333 53.333 -125.666 142.666 -114.999 267.999h180
c-1.33301 -56 15.667 -98.667 51 -128s86.666 -44 153.999 -44c130.667 0 229 45 295 135c38.667 53.333 69 131.333 91 234l12 57l-6 -8c-36.667 -44 -79.667 -78.333 -129 -103c-58 -30 -121 -45 -189 -45c-165.333 0 -275.333 67.667 -330 203
c-42.667 106.667 -47 239.667 -13 399c32.667 154.667 99.667 282.167 201 382.5s220.666 150.5 357.999 150.5c86 0 154 -22 204 -66c28.667 -26 54.667 -64 78 -114l36 151h172z" />
    <glyph glyph-name="h" unicode="h" 
d="M1162 729l-154.999 -729.002h-180l149 700c17.333 82 16 141 -4 177c-23.333 43.333 -76 65 -158 65c-84.667 0 -158.334 -25.333 -221.001 -76c-75.333 -61.333 -126.333 -154.666 -153 -279.999l-125 -586h-180l312 1470h180l-114 -540
c52 50.667 97.333 87.334 136 110.001c68.667 41.333 140.667 62 216 62c104.667 0 183.667 -23.333 237 -70c70 -61.333 90 -162.333 60 -303z" />
    <glyph glyph-name="i" unicode="i" horiz-adv-x="487" 
d="M547 1073l-228 -1073h-180l228 1073h180zM588 1266h-180l43 204h180z" />
    <glyph glyph-name="j" unicode="j" horiz-adv-x="487" 
d="M548 1073l-262.001 -1233c-15.333 -72 -39.666 -128 -72.999 -168c-56.667 -68 -143 -102 -259 -102h-29h-24c-10.667 2.66699 -18.667 4 -24 4l33 156h37c54.667 0 92.5 7.5 113.5 22.5s37.5 51.167 49.5 108.5l258 1212h180zM631.999 1470l-43 -204h-180l43 204h180z
" />
    <glyph glyph-name="k" unicode="k" horiz-adv-x="1085" 
d="M737 672l291 -672h-234l-216 541l-181 -135l-86 -406h-172l312 1470h172l-181 -852l560 455h229z" />
    <glyph glyph-name="l" unicode="l" horiz-adv-x="487" 
d="M631 1470l-312 -1470h-180l312 1470h180z" />
    <glyph glyph-name="m" unicode="m" horiz-adv-x="1798" 
d="M135 0l228 1073h168l-32 -151c48 48.667 91.667 85.334 131 110.001c74.667 46.667 153 70 235 70c64 0 115.833 -12.667 155.5 -38s71.167 -70 94.5 -134c67.333 60 121.333 101 162 123c59.333 32.667 126.666 49 201.999 49c82 0 147 -22 195 -66
c68.667 -62.667 89 -161 61 -295l-158 -741h-180l147 692c17.333 80.667 16.333 140.667 -3 180c-23.333 46.667 -71.666 70 -144.999 70c-74 0 -140.167 -28.333 -198.5 -85s-95.833 -124 -112.5 -202l-139 -655h-180l158 741c11.333 53.333 9 97.666 -7 132.999
c-20.667 45.333 -60.334 68 -119.001 68c-70 0 -134 -22.667 -192 -68c-83.333 -62.667 -138.666 -158.667 -165.999 -288l-125 -586h-180z" />
    <glyph glyph-name="n" unicode="n" 
d="M1162 729l-154.999 -729h-180l140 659c21.333 98.667 20.666 169 -2.00098 211c-25.333 48 -81 72 -167 72c-70 0 -134 -22.667 -192 -68c-83.333 -62.667 -138.666 -158.667 -165.999 -288l-125 -586h-180l228 1073h168l-32 -151c48 47.333 92.667 84 134 110
c75.333 46.667 152.666 70 231.999 70c104.667 0 183.667 -23.333 237 -70c70 -61.333 90 -162.333 60 -303z" />
    <glyph glyph-name="o" unicode="o" horiz-adv-x="1179" 
d="M187 537c32.667 154 99.6699 283 201.003 387c115.333 118.667 253.666 178 414.999 178c160.667 0 274 -59.333 340 -178c58.667 -105.333 71.667 -234.333 39 -387c-32.667 -152 -100.334 -280.333 -203.001 -385c-116.667 -120.667 -255.334 -181 -416.001 -181
c-160 0 -272.333 59.667 -337 179c-58.667 104.667 -71.667 233.667 -39 387zM371.003 537c-21.333 -101.333 -20.3311 -187.332 3.00195 -257.999c33.333 -101.333 107.333 -152 222 -152c113.333 0 207.666 49.667 282.999 149c55.333 72.667 93.666 159.667 114.999 261
c21.333 100.667 20.666 186.667 -2.00098 258c-33.333 100.667 -107.333 151 -222 151c-113.333 0 -208 -49.667 -284 -149c-55.333 -72.667 -93.666 -159.334 -114.999 -260.001z" />
    <glyph glyph-name="p" unicode="p" 
d="M393 487c-26.667 -126.667 -12.333 -222 43 -286c43.333 -49.333 102 -74 176 -74c95.333 0 174.833 37.5 238.5 112.5s109.167 175.5 136.5 301.5c22 106 26 189.333 12 250c-25.333 100.667 -98 151 -218 151c-116 0 -209 -54 -279 -162
c-46.667 -72 -83 -169.667 -109 -293zM27.001 -426l319.001 1499h172l-32 -151c48.667 51.333 91 88.666 127 111.999c72 45.333 150.333 68 235 68c137.333 0 236 -51.333 296 -154c57.333 -96.667 69.333 -223 36 -379c-32.667 -156.667 -93.334 -289 -182.001 -397
c-112 -136.667 -250.667 -205 -416 -205c-68 0 -122.833 13.333 -164.5 40s-72.167 62.667 -91.5 108l-119 -541h-180z" />
    <glyph glyph-name="q" unicode="q" 
d="M1239 1073l-319 -1499h-180l115 541c-36.667 -44 -79.667 -78.333 -129 -103c-58 -30 -121 -45 -189 -45c-165.333 0 -275.333 67.667 -330 203c-42.667 106.667 -47 239.667 -13 399c33.333 156 99.833 283.833 199.5 383.5s219.5 149.5 359.5 149.5
c84.667 0 152 -22 202 -66c25.333 -21.333 52 -59.333 80 -114l36 151h168zM942 487c26.667 123.333 32.334 220.332 17.001 290.999c-23.333 109.333 -92.333 164 -207 164c-121.333 0 -216 -49.667 -284 -149c-41.333 -62 -73.333 -146 -96 -252
c-26 -123.333 -22.167 -223.166 11.5 -299.499s97.5 -114.5 191.5 -114.5c74 0 142 24 204 72c81.333 62.667 135.666 158.667 162.999 288z" />
    <glyph glyph-name="r" unicode="r" horiz-adv-x="737" 
d="M471 623l-132.001 -623h-180l228 1073h168l-38 -180c54.667 66.667 109 117 163 151c60 38.667 122.667 58 188 58c22 0 36.667 -1.33301 44 -4l-40 -189h-65c-82 0 -154.167 -27.333 -216.5 -82s-102.166 -122.667 -119.499 -204z" />
    <glyph glyph-name="s" unicode="s" horiz-adv-x="1085" 
d="M1080 766l-176.005 -0.000976562c10 48 4.33301 86.333 -17 115c-33.333 43.333 -99.666 65 -198.999 65c-65.333 0 -120.166 -14 -164.499 -42s-71.166 -64.333 -80.499 -109c-8.66699 -41.333 0 -71.333 26 -90c20 -15.333 67 -33.333 141 -54l170 -45
c104 -26 173.833 -60.833 209.5 -104.5s45.5 -102.834 29.5 -177.501c-23.333 -109.333 -81.166 -196.166 -173.499 -260.499s-200.5 -96.5 -324.5 -96.5c-187.333 0 -307.666 46.333 -360.999 139c-35.333 60.667 -42.666 140 -21.999 238h176
c-16.667 -78 -2 -134.667 44 -170c41.333 -31.333 105.666 -47 192.999 -47c70.667 0 130.667 13 180 39c56 30 90 73 102 129c8.66699 40.667 0.333984 71.334 -24.999 92.001s-77 42 -155 64l-199 49c-74.667 20 -128 49.333 -160 88
c-35.333 43.333 -45.333 101.333 -30 174c23.333 110.667 82.666 196.667 177.999 258c83.333 54.667 183 82 299 82c127.333 0 220.833 -31.5 280.5 -94.5s79.167 -143.5 58.5 -241.5z" />
    <glyph glyph-name="t" unicode="t" horiz-adv-x="602" 
d="M724 922l-172 0.000976562l-148 -697c-8 -35.333 0 -59 24 -71c12.667 -7.33301 34 -11 64 -11h66l-30 -143l-139 -16c-83.333 0 -137.333 22.333 -162 67c-20 35.333 -22 90.666 -6 165.999l150 705h-147l32 151h147l64 299h181l-64 -299h172z" />
    <glyph glyph-name="u" unicode="u" 
d="M1003 0h-172.001l34 156l-4 4c-51.333 -64.667 -107.166 -113 -167.499 -145s-131.5 -48 -213.5 -48c-92.667 0 -164.667 23.333 -216 70c-65.333 58.667 -85.333 147.334 -60 266.001l164 770h180l-152 -713c-17.333 -82.667 -10.333 -143.334 21 -182.001
c26.667 -34 72.667 -51 138 -51c102.667 0 188.667 39.667 258 119c55.333 64 93 143 113 237l126 590h180z" />
    <glyph glyph-name="v" unicode="v" horiz-adv-x="1085" 
d="M1039 1073h196l-633 -1073h-193l-165 1073h209l93 -872z" />
    <glyph glyph-name="w" unicode="w" horiz-adv-x="1568" 
d="M524 0h-185l-83 1073h197l25 -844l392 844h201l30 -844l400 844h180l-539 -1073h-188l-40 831z" />
    <glyph glyph-name="x" unicode="x" horiz-adv-x="1085" 
d="M744 553l259 -553h-229l-181 406l-344 -406h-225l495 553l-251 520h234l166 -377l329 377h222z" />
    <glyph glyph-name="y" unicode="y" horiz-adv-x="1085" 
d="M1030 1073l201.002 -0.000976562l-298.5 -522l-310.5 -531c-132 -216.667 -222.833 -347.167 -272.5 -391.5s-131.834 -66.5 -246.501 -66.5c-10.667 0 -19.667 0.666992 -27 2c-18.667 6.66699 -33.334 11.334 -44.001 14.001l35 164c10.667 -4 25.167 -8.5 43.5 -13.5
s37.833 -7.5 58.5 -7.5c44.667 0 79.5 13 104.5 39s72.167 96.333 141.5 211l-163 1102h205l96 -872z" />
    <glyph glyph-name="z" unicode="z" horiz-adv-x="1085" 
d="M1139 926l-804 -774h659l-32 -152h-897l30 143l809 779h-594l32 151h828z" />
    <glyph glyph-name="braceleft" unicode="{" horiz-adv-x="737" 
d="M188 479l26.0029 122.999c46.667 0 91.667 25 135 75s73 112.333 89 187l75 353c16.667 80 50.667 143.667 102 191s105.666 71 162.999 71h135l-28 -131h-90c-32.667 0 -59.834 -15.167 -81.501 -45.5s-37.834 -71.166 -48.501 -122.499l-74 -349
c-18.667 -87.333 -58.667 -159 -120 -215c-44 -40.667 -84.667 -64.334 -122 -71.001c24 -10 45.333 -25 64 -45c58.667 -60 76.334 -144.667 53.001 -254l-73 -348c-10.667 -49.333 -11.834 -89.666 -3.50098 -120.999s28.833 -47 61.5 -47h90l-28 -131h-135
c-56 0 -99.333 22.333 -130 67c-32.667 49.333 -40.334 114.333 -23.001 195l74 352c16.667 78 14.334 141.833 -6.99902 191.5s-56 74.5 -104 74.5z" />
    <glyph glyph-name="bar" unicode="|" horiz-adv-x="577" 
d="M183 -41l330 1552h152l-330 -1552h-152z" />
    <glyph glyph-name="braceright" unicode="}" horiz-adv-x="737" 
d="M726 602l-25.999 -123.001c-48 0 -92.667 -24.833 -134 -74.5s-70 -113.5 -86 -191.5l-75 -352c-17.333 -80.667 -51.833 -144.5 -103.5 -191.5s-105.5 -70.5 -161.5 -70.5h-139l28 131h90c34 0 61.333 15.333 82 46s36.667 71.334 48 122.001l74 348
c19.333 92.667 59.666 167 120.999 223c38.667 35.333 79.334 59.333 122.001 72c-22 6.66699 -43.667 21 -65 43c-58.667 60 -76.667 142.333 -54 247l74 349c10.667 51.333 13 90 7 116c-9.33301 34.667 -31 52 -65 52h-90l28 131h139c56 0 99.667 -23.667 131 -71
s38.666 -111 21.999 -191l-75 -353c-16.667 -77.333 -15.167 -140.333 4.5 -189s54.167 -73 103.5 -73z" />
    <glyph glyph-name="asciitilde" unicode="~" horiz-adv-x="1269" 
d="M1140 668l49.999 -115c-45.333 -53.333 -93 -96 -143 -128s-101 -48 -153 -48c-26 0 -52.667 4.33301 -80 13s-65.333 27.334 -114 56.001c-35.333 23.333 -66.333 40 -93 50c-37.333 13.333 -79 20 -125 20c-41.333 0 -80.333 -15 -117 -45
c-29.333 -24.667 -58 -58.667 -86 -102l-50 114c38.667 53.333 78 93.666 118 120.999c52.667 36.667 110.334 55 173.001 55c32.667 0 67 -5.66699 103 -17s73.667 -27.333 113 -48c47.333 -22 87.333 -39.833 120 -53.5s57 -20.5 73 -20.5c35.333 0 73 15.667 113 47
c18 15.333 50.667 49 98 101z" />
    <glyph glyph-name="dieresis" unicode="&#xa8;" horiz-adv-x="1024" 
 />
    <glyph glyph-name="copyright" unicode="&#xa9;" horiz-adv-x="1642" 
d="M797 -41c-215.333 0 -384.332 74.5 -506.999 223.5s-160.667 333.833 -114 554.5c46.667 220 162.667 404 348 552s386.333 222 603 222c214.667 0 383 -74 505 -222s159.667 -332 113 -552c-46.667 -220.667 -162.334 -405.5 -347.001 -554.5s-385 -223.5 -601 -223.5z
M332.001 737c-39.333 -185.333 -11.334 -339.5 83.999 -462.5s231.666 -184.5 408.999 -184.5c178 0 340 61.5 486 184.5s238.667 277.167 278 462.5c39.333 183.333 12 336.333 -82 459s-230 184 -408 184c-177.333 0 -339.666 -61.333 -486.999 -184
s-240.666 -275.667 -279.999 -459zM1203 594l139 -0.00195312c-42 -101.333 -104.333 -182 -187 -242s-171 -90 -265 -90c-138 0 -239.333 45.5 -304 136.5s-82.334 205.167 -53.001 342.5c29.333 136.667 94.333 249.334 195 338.001s219.334 133 356.001 133
c102.667 0 183.334 -27.167 242.001 -81.5s84 -133.5 76 -237.5h-135c-1.33301 56 -20.5 100.667 -57.5 134s-88.167 50 -153.5 50c-94 0 -173.167 -30.667 -237.5 -92s-107.5 -142.666 -129.5 -243.999c-20.667 -96.667 -10.667 -178.167 30 -244.5
s107.334 -99.5 200.001 -99.5c61.333 0 118.166 18.5 170.499 55.5s90.166 84.167 113.499 141.5z" />
    <glyph glyph-name="registered" unicode="&#xae;" horiz-adv-x="1642" 
d="M797 -41c-215.333 0 -384.332 74.5 -506.999 223.5s-160.667 333.833 -114 554.5c46.667 220 162.667 404 348 552s386.333 222 603 222c214.667 0 383 -74 505 -222s159.667 -332 113 -552c-46.667 -220.667 -162.334 -405.5 -347.001 -554.5s-385 -223.5 -601 -223.5z
M332.001 737c-39.333 -185.333 -11.334 -339.5 83.999 -462.5s231.666 -184.5 408.999 -184.5c178 0 340 61.5 486 184.5s238.667 277.167 278 462.5c39.333 183.333 12 336.333 -82 459s-230 184 -408 184c-177.333 0 -339.666 -61.333 -486.999 -184
s-240.666 -275.667 -279.999 -459zM786 676l-81 -385.001h-136l189 893h340c108 0 183.5 -20.167 226.5 -60.5s54.833 -104.833 35.5 -193.5c-16 -75.333 -49 -133.166 -99 -173.499s-111 -64.5 -183 -72.5l171 -393h-151l-157 385h-155zM811 790.999l162.998 -0.000976562
c92 0 153.833 11.833 185.5 35.5s52.834 60.834 63.501 111.501s-0.166016 85.167 -32.499 103.5s-77.833 27.5 -136.5 27.5h-184z" />
    <glyph glyph-name="acute" unicode="&#xb4;" horiz-adv-x="1024" 
 />
    <glyph glyph-name="paragraph" unicode="&#xb6;" horiz-adv-x="1024" 
d="M1234 1435l-15 -70h-127l-290 -1365h-82l290 1365h-166l-290 -1365h-84l157 738c-114.667 5.33301 -199.167 39.5 -253.5 102.5s-70.833 144.833 -49.5 245.5c22 104.667 75.667 189 161 253s187.333 96 306 96h443z" />
    <glyph glyph-name="onequarter" unicode="&#xbc;" horiz-adv-x="1798" 
d="M901 193l26 122l537 549h132l-117 -553h135l-25 -118h-135l-41 -193h-132l41 193h-421zM1347 311l82 385l-376 -385h294zM1645 1442l-1220 -1483h-119l1220 1483h119zM624 1188h-221l19 90c82 0 140 9 174 27c41.333 21.333 78.333 67 111 137h110l-183 -864h-139z" />
    <glyph glyph-name="onehalf" unicode="&#xbd;" horiz-adv-x="1798" 
d="M1572 1442l-1221 -1483h-118l1220 1483h119zM562 1184h-221l20 94c82 0 140 9 174 27c41.333 21.333 78.333 67 111 137h115l-183 -864h-144zM1203 557l-122.998 -0.000976562c26 121.333 85.333 207.333 178 258c60 32.667 130.333 49 211 49
c87.333 0 154.166 -23.167 200.499 -69.5s61.166 -109.166 44.499 -188.499c-15.333 -70.667 -52 -130 -110 -178c-38 -31.333 -104 -69 -198 -113l-100 -45c-51.333 -26 -92.333 -50.333 -123 -73c-22 -16.667 -45.667 -40 -71 -70h500l-27 -127h-655
c18 84.667 53.333 156.334 106 215.001c44.667 49.333 104.667 92.333 180 129l137 66c72.667 35.333 120.667 61.666 144 78.999c39.333 32 64 72.333 74 121l2 8c7.33301 34.667 1 62.667 -19 84c-25.333 28.667 -67.333 43 -126 43c-74 0 -131.333 -25 -172 -75
c-26 -31.333 -43.667 -69 -53 -113z" />
    <glyph glyph-name="threequarters" unicode="&#xbe;" horiz-adv-x="1798" 
d="M1012 193l26 122l538 549h132l-118 -553h135l-25 -118h-135l-41 -193h-132l41 193h-421zM1164 311h294l82 385zM1764 1442l-1220 -1483h-115l1220 1483h115zM272 840h138.997c-9.33301 -46.667 -7.33301 -83 6 -109c20.667 -39.333 65.667 -59 135 -59
c62 0 112.833 11.833 152.5 35.5s64.834 60.834 75.501 111.501c13.333 62.667 -3 105 -49 127c-28.667 14 -73 21 -133 21h-45l22 102h53c52 0 93 9 123 27c38.667 22.667 63.667 60 75 112c6 30 2.33301 54 -11 72c-21.333 28.667 -64.333 43 -129 43
c-61.333 0 -109.666 -18.333 -144.999 -55c-26 -27.333 -44 -63.666 -54 -108.999h-127c16.667 76.667 51.334 139.667 104.001 189c66.667 62.667 156 94 268 94c88.667 0 154 -21.5 196 -64.5s56 -98.167 42 -165.5c-10.667 -50 -33 -91.667 -67 -125
c-28 -26.667 -57.667 -43.667 -89 -51c44 -14.667 76.5 -38.834 97.5 -72.501s25.833 -77.834 14.5 -132.501c-16.667 -76 -57 -139.333 -121 -190c-75.333 -58.667 -169.666 -88 -282.999 -88c-64 0 -118.333 13.667 -163 41c-42 23.333 -69.833 56.5 -83.5 99.5
s-14.834 91.833 -3.50098 146.5z" />
    <glyph glyph-name="Agrave" unicode="&#xc0;" horiz-adv-x="1454" 
d="M1069 430h-590l-246 -430h-205l865 1470h225l221 -1470h-217zM579 606h455l-81 647zM957 1614l-205 291h222l118 -291h-135z" />
    <glyph glyph-name="Aacute" unicode="&#xc1;" horiz-adv-x="1454" 
d="M1069 430h-590l-246 -430h-205l865 1470h225l221 -1470h-217zM579 606h455l-81 647zM971 1614l243 291h221l-328 -291h-136z" />
    <glyph glyph-name="Acircumflex" unicode="&#xc2;" horiz-adv-x="1454" 
d="M1069 430h-590l-246 -430h-205l865 1470h225l221 -1470h-217zM579 606h455l-81 647zM1068 1810l-176 -192h-164l267 291h189l142 -291h-163z" />
    <glyph glyph-name="Atilde" unicode="&#xc3;" horiz-adv-x="1454" 
d="M1069 430h-590l-246 -430h-205l865 1470h225l221 -1470h-217zM579 606h455l-81 647zM1352 1880l102 0.00195312c-20.667 -64 -53.667 -117.5 -99 -160.5s-96.666 -64.5 -153.999 -64.5c-30 0 -67.667 9.33301 -113 28l-50 17c-60.667 22 -100.667 33 -120 33
c-26 0 -47.333 -7.16699 -64 -21.5s-33 -37.5 -49 -69.5h-98c23.333 67.333 54 118.666 92 153.999c44 42.667 99.667 64 167 64c23.333 0 45.666 -2.5 66.999 -7.5s43.333 -12.167 66 -21.5l41 -21c15.333 -6.66699 32 -12.334 50 -17.001s31 -7 39 -7
c35.333 0 63.333 10.333 84 31c13.333 13.333 26.333 34.333 39 63z" />
    <glyph glyph-name="Egrave" unicode="&#xc8;" horiz-adv-x="1454" 
d="M1298 176l-37 -176h-1085l312 1470h1073l-37 -176h-872l-96 -450h803l-37 -176h-803l-105 -492h884zM1038 1614l-204 291h221l118 -291h-135z" />
    <glyph glyph-name="Eacute" unicode="&#xc9;" horiz-adv-x="1454" 
d="M1298 176l-37 -176h-1085l312 1470h1073l-37 -176h-872l-96 -450h803l-37 -176h-803l-105 -492h884zM962 1614l242 291h221l-328 -291h-135z" />
    <glyph glyph-name="Ecircumflex" unicode="&#xca;" horiz-adv-x="1454" 
d="M1298 176l-37 -176h-1085l312 1470h1073l-37 -176h-872l-96 -450h803l-37 -176h-803l-105 -492h884zM1104 1810l-176 -192h-164l267 291h188l143 -291h-164z" />
    <glyph glyph-name="Igrave" unicode="&#xcc;" horiz-adv-x="602" 
d="M697 1470l-312 -1470h-197l312 1470h197zM596 1614l-204 291h221l118 -291h-135z" />
    <glyph glyph-name="Iacute" unicode="&#xcd;" horiz-adv-x="602" 
d="M697 1470l-312 -1470h-197l312 1470h197zM531 1614l242 291h221l-328 -291h-135z" />
    <glyph glyph-name="Ograve" unicode="&#xd2;" horiz-adv-x="1572" 
d="M1480 737c37.333 176 22.6689 318.667 -43.998 428c-70.667 113.333 -184.334 170 -341.001 170c-156 0 -292.333 -56 -409 -168s-193.334 -255.333 -230.001 -430c-38 -177.333 -23 -321.333 45 -432s181.333 -166 340 -166c156.667 0 293 55.667 409 167
s192.667 255 230 431zM1685 737c-42 -198 -128.666 -367.333 -259.999 -508c-166.667 -180 -374.334 -270 -623.001 -270c-247.333 0 -416 89.333 -506 268c-72 143.333 -87 313.333 -45 510c41.333 195.333 127.666 363.333 258.999 504
c167.333 180 374.666 270 621.999 270c246.667 0 415.334 -89.333 506.001 -268c72.667 -142 88.334 -310.667 47.001 -506zM1128 1614l-204 291h221l118 -291h-135z" />
    <glyph glyph-name="Oacute" unicode="&#xd3;" horiz-adv-x="1572" 
d="M1480 737c37.333 176 22.6689 318.667 -43.998 428c-70.667 113.333 -184.334 170 -341.001 170c-156 0 -292.333 -56 -409 -168s-193.334 -255.333 -230.001 -430c-38 -177.333 -23 -321.333 45 -432s181.333 -166 340 -166c156.667 0 293 55.667 409 167
s192.667 255 230 431zM1685 737c-42 -198 -128.666 -367.333 -259.999 -508c-166.667 -180 -374.334 -270 -623.001 -270c-247.333 0 -416 89.333 -506 268c-72 143.333 -87 313.333 -45 510c41.333 195.333 127.666 363.333 258.999 504
c167.333 180 374.666 270 621.999 270c246.667 0 415.334 -89.333 506.001 -268c72.667 -142 88.334 -310.667 47.001 -506zM1003 1614l242 291h221l-328 -291h-135z" />
    <glyph glyph-name="Ocircumflex" unicode="&#xd4;" horiz-adv-x="1572" 
d="M1480 737c37.333 176 22.6689 318.667 -43.998 428c-70.667 113.333 -184.334 170 -341.001 170c-156 0 -292.333 -56 -409 -168s-193.334 -255.333 -230.001 -430c-38 -177.333 -23 -321.333 45 -432s181.333 -166 340 -166c156.667 0 293 55.667 409 167
s192.667 255 230 431zM1685 737c-42 -198 -128.666 -367.333 -259.999 -508c-166.667 -180 -374.334 -270 -623.001 -270c-247.333 0 -416 89.333 -506 268c-72 143.333 -87 313.333 -45 510c41.333 195.333 127.666 363.333 258.999 504
c167.333 180 374.666 270 621.999 270c246.667 0 415.334 -89.333 506.001 -268c72.667 -142 88.334 -310.667 47.001 -506zM1196 1810l-176 -192h-164l267 291h188l143 -291h-164z" />
    <glyph glyph-name="Otilde" unicode="&#xd5;" horiz-adv-x="1572" 
d="M1480 737c37.333 176 22.6689 318.667 -43.998 428c-70.667 113.333 -184.334 170 -341.001 170c-156 0 -292.333 -56 -409 -168s-193.334 -255.333 -230.001 -430c-38 -177.333 -23 -321.333 45 -432s181.333 -166 340 -166c156.667 0 293 55.667 409 167
s192.667 255 230 431zM1685 737c-42 -198 -128.666 -367.333 -259.999 -508c-166.667 -180 -374.334 -270 -623.001 -270c-247.333 0 -416 89.333 -506 268c-72 143.333 -87 313.333 -45 510c41.333 195.333 127.666 363.333 258.999 504
c167.333 180 374.666 270 621.999 270c246.667 0 415.334 -89.333 506.001 -268c72.667 -142 88.334 -310.667 47.001 -506zM1457 1880l101.997 0.00195312c-20.667 -64 -53.667 -117.5 -99 -160.5s-96.666 -64.5 -153.999 -64.5c-30 0 -67.667 9.33301 -113 28l-50 17
c-60.667 22 -100.667 33 -120 33c-26 0 -47.333 -7.16699 -64 -21.5s-33 -37.5 -49 -69.5h-98c24 67.333 54.667 118.666 92 153.999c44 42.667 99.667 64 167 64c22.667 0 44.834 -2.5 66.501 -7.5s43.834 -12.167 66.501 -21.5l41 -21
c15.333 -6.66699 32 -12.334 50 -17.001s31 -7 39 -7c35.333 0 63.333 10.333 84 31c14 13.333 27 34.333 39 63z" />
    <glyph glyph-name="Ugrave" unicode="&#xd9;" horiz-adv-x="1478" 
d="M1421 1470l197.002 -0.000976562l-202 -954c-34.667 -161.333 -110.334 -291.666 -227.001 -390.999c-128.667 -110.667 -289.334 -166 -482.001 -166c-186.667 0 -319 54 -397 162c-68.667 95.333 -87 219 -55 371l208 978h197l-196 -925
c-31.333 -146 -15 -253.333 49 -322c52.667 -56 131.334 -84 236.001 -84c110.667 0 204.667 26.667 282 80c97.333 68.667 161.666 176 192.999 322zM1048 1614l-204 291h221l118 -291h-135z" />
    <glyph glyph-name="Uacute" unicode="&#xda;" horiz-adv-x="1478" 
d="M1421 1470l197.002 -0.000976562l-202 -954c-34.667 -161.333 -110.334 -291.666 -227.001 -390.999c-128.667 -110.667 -289.334 -166 -482.001 -166c-186.667 0 -319 54 -397 162c-68.667 95.333 -87 219 -55 371l208 978h197l-196 -925
c-31.333 -146 -15 -253.333 49 -322c52.667 -56 131.334 -84 236.001 -84c110.667 0 204.667 26.667 282 80c97.333 68.667 161.666 176 192.999 322zM983.002 1614l242 291h221l-328 -291h-135z" />
    <glyph glyph-name="Yacute" unicode="&#xdd;" horiz-adv-x="1454" 
d="M908 594l-126 -594h-197l126 594l-371 876h233l272 -704l572 704h234zM952 1614l242 291h221l-327 -291h-136z" />
    <glyph glyph-name="agrave" unicode="&#xe0;" horiz-adv-x="1175" 
d="M453 745l-168 0.00195312c26 123.333 86.333 215 181 275c87.333 54.667 200 82 338 82c87.333 0 160.333 -15 219 -45c101.333 -50.667 139.333 -135.334 114 -254.001l-131 -615c-8.66699 -43.333 7.33301 -65 48 -65l59 8l-28 -131l-51 -13
c-18 -4.66699 -35.333 -7 -52 -7c-72 0 -119.333 17 -142 51c-18 26 -21.667 63.333 -11 112c-58.667 -50 -113.667 -88 -165 -114c-83.333 -41.333 -170.666 -62 -261.999 -62c-98.667 0 -173.167 28.667 -223.5 86s-65.5 132.666 -45.5 225.999
c15.333 72 45.333 134 90 186c72.667 83.333 175.667 133 309 149l303 37c29.333 2.66699 52 11 68 25c25.333 20.667 43 54.667 53 102c24.667 117.333 -46.333 176 -213 176c-88.667 0 -158.667 -24.333 -210 -73c-30.667 -30 -57.334 -75.333 -80.001 -136zM866 373.002
l37 176c-18 -14 -47.167 -25.667 -87.5 -35s-109.166 -20.166 -206.499 -32.499s-166.166 -32.833 -206.499 -61.5s-65.5 -66.334 -75.5 -113.001c-13.333 -61.333 -7.83301 -108 16.5 -140s69.833 -48 136.5 -48c87.333 0 169.666 24.5 246.999 73.5
s123.666 109.167 138.999 180.5zM770 1217l-210 286h225l120 -286h-135z" />
    <glyph glyph-name="aacute" unicode="&#xe1;" horiz-adv-x="1175" 
d="M453 745l-168 0.00195312c26 123.333 86.333 215 181 275c87.333 54.667 200 82 338 82c87.333 0 160.333 -15 219 -45c101.333 -50.667 139.333 -135.334 114 -254.001l-131 -615c-8.66699 -43.333 7.33301 -65 48 -65l59 8l-28 -131l-51 -13
c-18 -4.66699 -35.333 -7 -52 -7c-72 0 -119.333 17 -142 51c-18 26 -21.667 63.333 -11 112c-58.667 -50 -113.667 -88 -165 -114c-83.333 -41.333 -170.666 -62 -261.999 -62c-98.667 0 -173.167 28.667 -223.5 86s-65.5 132.666 -45.5 225.999
c15.333 72 45.333 134 90 186c72.667 83.333 175.667 133 309 149l303 37c29.333 2.66699 52 11 68 25c25.333 20.667 43 54.667 53 102c24.667 117.333 -46.333 176 -213 176c-88.667 0 -158.667 -24.333 -210 -73c-30.667 -30 -57.334 -75.333 -80.001 -136zM866 373.002
l37 176c-18 -14 -47.167 -25.667 -87.5 -35s-109.166 -20.166 -206.499 -32.499s-166.166 -32.833 -206.499 -61.5s-65.5 -66.334 -75.5 -113.001c-13.333 -61.333 -7.83301 -108 16.5 -140s69.833 -48 136.5 -48c87.333 0 169.666 24.5 246.999 73.5
s123.666 109.167 138.999 180.5zM679 1217l241 286h226l-332 -286h-135z" />
    <glyph glyph-name="acircumflex" unicode="&#xe2;" horiz-adv-x="1175" 
d="M453 745l-168 0.00195312c26 123.333 86.333 215 181 275c87.333 54.667 200 82 338 82c87.333 0 160.333 -15 219 -45c101.333 -50.667 139.333 -135.334 114 -254.001l-131 -615c-8.66699 -43.333 7.33301 -65 48 -65l59 8l-28 -131l-51 -13
c-18 -4.66699 -35.333 -7 -52 -7c-72 0 -119.333 17 -142 51c-18 26 -21.667 63.333 -11 112c-58.667 -50 -113.667 -88 -165 -114c-83.333 -41.333 -170.666 -62 -261.999 -62c-98.667 0 -173.167 28.667 -223.5 86s-65.5 132.666 -45.5 225.999
c15.333 72 45.333 134 90 186c72.667 83.333 175.667 133 309 149l303 37c29.333 2.66699 52 11 68 25c25.333 20.667 43 54.667 53 102c24.667 117.333 -46.333 176 -213 176c-88.667 0 -158.667 -24.333 -210 -73c-30.667 -30 -57.334 -75.333 -80.001 -136zM866 373.002
l37 176c-18 -14 -47.167 -25.667 -87.5 -35s-109.166 -20.166 -206.499 -32.499s-166.166 -32.833 -206.499 -61.5s-65.5 -66.334 -75.5 -113.001c-13.333 -61.333 -7.83301 -108 16.5 -140s69.833 -48 136.5 -48c87.333 0 169.666 24.5 246.999 73.5
s123.666 109.167 138.999 180.5zM847 1384l-175 -188h-160l262 287h193l139 -287h-164z" />
    <glyph glyph-name="atilde" unicode="&#xe3;" horiz-adv-x="1175" 
d="M453 745l-168 0.00195312c26 123.333 86.333 215 181 275c87.333 54.667 200 82 338 82c87.333 0 160.333 -15 219 -45c101.333 -50.667 139.333 -135.334 114 -254.001l-131 -615c-8.66699 -43.333 7.33301 -65 48 -65l59 8l-28 -131l-51 -13
c-18 -4.66699 -35.333 -7 -52 -7c-72 0 -119.333 17 -142 51c-18 26 -21.667 63.333 -11 112c-58.667 -50 -113.667 -88 -165 -114c-83.333 -41.333 -170.666 -62 -261.999 -62c-98.667 0 -173.167 28.667 -223.5 86s-65.5 132.666 -45.5 225.999
c15.333 72 45.333 134 90 186c72.667 83.333 175.667 133 309 149l303 37c29.333 2.66699 52 11 68 25c25.333 20.667 43 54.667 53 102c24.667 117.333 -46.333 176 -213 176c-88.667 0 -158.667 -24.333 -210 -73c-30.667 -30 -57.334 -75.333 -80.001 -136zM866 373.002
l37 176c-18 -14 -47.167 -25.667 -87.5 -35s-109.166 -20.166 -206.499 -32.499s-166.166 -32.833 -206.499 -61.5s-65.5 -66.334 -75.5 -113.001c-13.333 -61.333 -7.83301 -108 16.5 -140s69.833 -48 136.5 -48c87.333 0 169.666 24.5 246.999 73.5
s123.666 109.167 138.999 180.5zM1125 1479h103.001c-22 -63.333 -55.833 -116.166 -101.5 -158.499s-95.834 -63.5 -150.501 -63.5c-16.667 0 -33.167 1.83301 -49.5 5.5s-39.166 10.167 -68.499 19.5l-49 21c-16.667 5.33301 -36.667 11.333 -60 18s-42.333 10 -57 10
c-26 0 -48.167 -7.83301 -66.5 -23.5s-35.166 -37.834 -50.499 -66.501h-99c22.667 65.333 55.667 118.5 99 159.5s97 61.5 161 61.5c23.333 0 45.333 -3 66 -9s43 -13.667 67 -23l42 -17c43.333 -19.333 74 -29 92 -29c35.333 0 63.666 11 84.999 33
c13.333 14 25.666 34.667 36.999 62z" />
    <glyph glyph-name="egrave" unicode="&#xe8;" 
d="M934 336h181.002c-16 -41.333 -41 -84.333 -75 -129c-51.333 -68.667 -111 -122.667 -179 -162c-42 -24.667 -78.333 -41.667 -109 -51c-56 -18 -122.333 -27 -199 -27c-147.333 0 -253.333 50.167 -318 150.5s-80 230.5 -46 390.5c38 177.333 109 318 213 422
c114 114.667 257 172 429 172c150 0 252.167 -55.667 306.5 -167s61.166 -263.333 20.499 -456h-782c-24 -113.333 -16.333 -200.333 23 -261s110.333 -91 213 -91c79.333 0 151.666 24.667 216.999 74c54.667 42 89.667 87 105 135zM406.002 623h598
c20 91.333 13 165 -21 221c-38 65.333 -108 98 -210 98c-82 0 -159.167 -32 -231.5 -96s-117.5 -138.333 -135.5 -223zM769.002 1217l-209 286h225l120 -286h-136z" />
    <glyph glyph-name="eacute" unicode="&#xe9;" 
d="M934 336h181.002c-16 -41.333 -41 -84.333 -75 -129c-51.333 -68.667 -111 -122.667 -179 -162c-42 -24.667 -78.333 -41.667 -109 -51c-56 -18 -122.333 -27 -199 -27c-147.333 0 -253.333 50.167 -318 150.5s-80 230.5 -46 390.5c38 177.333 109 318 213 422
c114 114.667 257 172 429 172c150 0 252.167 -55.667 306.5 -167s61.166 -263.333 20.499 -456h-782c-24 -113.333 -16.333 -200.333 23 -261s110.333 -91 213 -91c79.333 0 151.666 24.667 216.999 74c54.667 42 89.667 87 105 135zM406.002 623h598
c20 91.333 13 165 -21 221c-38 65.333 -108 98 -210 98c-82 0 -159.167 -32 -231.5 -96s-117.5 -138.333 -135.5 -223zM679.002 1217l241 286h226l-332 -286h-135z" />
    <glyph glyph-name="ecircumflex" unicode="&#xea;" 
d="M934 336h181.002c-16 -41.333 -41 -84.333 -75 -129c-51.333 -68.667 -111 -122.667 -179 -162c-42 -24.667 -78.333 -41.667 -109 -51c-56 -18 -122.333 -27 -199 -27c-147.333 0 -253.333 50.167 -318 150.5s-80 230.5 -46 390.5c38 177.333 109 318 213 422
c114 114.667 257 172 429 172c150 0 252.167 -55.667 306.5 -167s61.166 -263.333 20.499 -456h-782c-24 -113.333 -16.333 -200.333 23 -261s110.333 -91 213 -91c79.333 0 151.666 24.667 216.999 74c54.667 42 89.667 87 105 135zM406.002 623h598
c20 91.333 13 165 -21 221c-38 65.333 -108 98 -210 98c-82 0 -159.167 -32 -231.5 -96s-117.5 -138.333 -135.5 -223zM860.002 1384l-175 -188h-160l262 287h193l139 -287h-163z" />
    <glyph glyph-name="igrave" unicode="&#xec;" horiz-adv-x="487" 
d="M548 1073l-228 -1073h-181l228 1073h181zM459 1217l-210 286h225l121 -286h-136z" />
    <glyph glyph-name="iacute" unicode="&#xed;" horiz-adv-x="487" 
d="M547 1073l-228 -1073h-180l228 1073h180zM399 1217l240 286h225l-330 -286h-135z" />
    <glyph glyph-name="ograve" unicode="&#xf2;" horiz-adv-x="1179" 
d="M187 537c32.667 154 99.6699 283 201.003 387c115.333 118.667 253.666 178 414.999 178c160.667 0 274 -59.333 340 -178c58.667 -105.333 71.667 -234.333 39 -387c-32.667 -152 -100.334 -280.333 -203.001 -385c-116.667 -120.667 -255.334 -181 -416.001 -181
c-160 0 -272.333 59.667 -337 179c-58.667 104.667 -71.667 233.667 -39 387zM371.003 537c-21.333 -101.333 -20.3311 -187.332 3.00195 -257.999c33.333 -101.333 107.333 -152 222 -152c113.333 0 207.666 49.667 282.999 149c55.333 72.667 93.666 159.667 114.999 261
c21.333 100.667 20.666 186.667 -2.00098 258c-33.333 100.667 -107.333 151 -222 151c-113.333 0 -208 -49.667 -284 -149c-55.333 -72.667 -93.666 -159.334 -114.999 -260.001zM779.005 1217l-209 286h225l120 -286h-136z" />
    <glyph glyph-name="oacute" unicode="&#xf3;" horiz-adv-x="1179" 
d="M187 537c32.667 154 99.6699 283 201.003 387c115.333 118.667 253.666 178 414.999 178c160.667 0 274 -59.333 340 -178c58.667 -105.333 71.667 -234.333 39 -387c-32.667 -152 -100.334 -280.333 -203.001 -385c-116.667 -120.667 -255.334 -181 -416.001 -181
c-160 0 -272.333 59.667 -337 179c-58.667 104.667 -71.667 233.667 -39 387zM371.003 537c-21.333 -101.333 -20.3311 -187.332 3.00195 -257.999c33.333 -101.333 107.333 -152 222 -152c113.333 0 207.666 49.667 282.999 149c55.333 72.667 93.666 159.667 114.999 261
c21.333 100.667 20.666 186.667 -2.00098 258c-33.333 100.667 -107.333 151 -222 151c-113.333 0 -208 -49.667 -284 -149c-55.333 -72.667 -93.666 -159.334 -114.999 -260.001zM709.005 1217l241 286h226l-332 -286h-135z" />
    <glyph glyph-name="ocircumflex" unicode="&#xf4;" horiz-adv-x="1179" 
d="M187 537c32.667 154 99.6699 283 201.003 387c115.333 118.667 253.666 178 414.999 178c160.667 0 274 -59.333 340 -178c58.667 -105.333 71.667 -234.333 39 -387c-32.667 -152 -100.334 -280.333 -203.001 -385c-116.667 -120.667 -255.334 -181 -416.001 -181
c-160 0 -272.333 59.667 -337 179c-58.667 104.667 -71.667 233.667 -39 387zM371.003 537c-21.333 -101.333 -20.3311 -187.332 3.00195 -257.999c33.333 -101.333 107.333 -152 222 -152c113.333 0 207.666 49.667 282.999 149c55.333 72.667 93.666 159.667 114.999 261
c21.333 100.667 20.666 186.667 -2.00098 258c-33.333 100.667 -107.333 151 -222 151c-113.333 0 -208 -49.667 -284 -149c-55.333 -72.667 -93.666 -159.334 -114.999 -260.001zM863.005 1384l-176 -188h-159l261 287h193l140 -287h-164z" />
    <glyph glyph-name="otilde" unicode="&#xf5;" horiz-adv-x="1179" 
d="M187 537c32.667 154 99.6699 283 201.003 387c115.333 118.667 253.666 178 414.999 178c160.667 0 274 -59.333 340 -178c58.667 -105.333 71.667 -234.333 39 -387c-32.667 -152 -100.334 -280.333 -203.001 -385c-116.667 -120.667 -255.334 -181 -416.001 -181
c-160 0 -272.333 59.667 -337 179c-58.667 104.667 -71.667 233.667 -39 387zM371.003 537c-21.333 -101.333 -20.3311 -187.332 3.00195 -257.999c33.333 -101.333 107.333 -152 222 -152c113.333 0 207.666 49.667 282.999 149c55.333 72.667 93.666 159.667 114.999 261
c21.333 100.667 20.666 186.667 -2.00098 258c-33.333 100.667 -107.333 151 -222 151c-113.333 0 -208 -49.667 -284 -149c-55.333 -72.667 -93.666 -159.334 -114.999 -260.001zM1130 1479h103.001c-22 -63.333 -55.833 -116.166 -101.5 -158.499
s-95.834 -63.5 -150.501 -63.5c-16.667 0 -33.167 1.83301 -49.5 5.5s-39.166 10.167 -68.499 19.5l-48 21l-60.5 18c-23 6.66699 -41.833 10 -56.5 10c-26 0 -48.167 -7.83301 -66.5 -23.5s-35.166 -37.834 -50.499 -66.501h-99c22 65.333 54.833 118.5 98.5 159.5
s97.5 61.5 161.5 61.5c23.333 0 45.333 -3 66 -9s42.667 -13.667 66 -23l42 -17c43.333 -19.333 74 -29 92 -29c35.333 0 63.666 11 84.999 33c13.333 14 25.666 34.667 36.999 62z" />
    <glyph glyph-name="divide" unicode="&#xf7;" horiz-adv-x="1706" 
 />
    <glyph glyph-name="glyph216" unicode="&#xf9;" 
d="M1003 0h-172.001l34 156l-4 4c-51.333 -64.667 -107.166 -113 -167.499 -145s-131.5 -48 -213.5 -48c-92.667 0 -164.667 23.333 -216 70c-65.333 58.667 -85.333 147.334 -60 266.001l164 770h180l-152 -713c-17.333 -82.667 -10.333 -143.334 21 -182.001
c26.667 -34 72.667 -51 138 -51c102.667 0 188.667 39.667 258 119c55.333 64 93 143 113 237l126 590h180zM779.999 1217l-209 286h225l119 -286h-135z" />
    <glyph glyph-name="glyph217" unicode="&#xfa;" 
d="M1003 0h-172.001l34 156l-4 4c-51.333 -64.667 -107.166 -113 -167.499 -145s-131.5 -48 -213.5 -48c-92.667 0 -164.667 23.333 -216 70c-65.333 58.667 -85.333 147.334 -60 266.001l164 770h180l-152 -713c-17.333 -82.667 -10.333 -143.334 21 -182.001
c26.667 -34 72.667 -51 138 -51c102.667 0 188.667 39.667 258 119c55.333 64 93 143 113 237l126 590h180zM709.999 1217l241 286h225l-331 -286h-135z" />
    <glyph glyph-name="glyph234" unicode="&#xfd;" horiz-adv-x="1085" 
d="M1030 1073l201.002 -0.000976562l-298.5 -522l-310.5 -531c-132 -216.667 -222.833 -347.167 -272.5 -391.5s-131.834 -66.5 -246.501 -66.5c-10.667 0 -19.667 0.666992 -27 2c-18.667 6.66699 -33.334 11.334 -44.001 14.001l35 164c10.667 -4 25.167 -8.5 43.5 -13.5
s37.833 -7.5 58.5 -7.5c44.667 0 79.5 13 104.5 39s72.167 96.333 141.5 211l-163 1102h205l96 -872zM698.002 1217l242 286h225l-331 -286h-136z" />
    <glyph glyph-name="Abreve" unicode="&#x102;" horiz-adv-x="1454" 
d="M1069 430h-590l-246 -430h-205l865 1470h225l221 -1470h-217zM579 606h455l-81 647zM1291 1839l99.002 0.00390625c-33.333 -96.667 -84.333 -168.334 -153 -215.001c-62 -42 -140 -63 -234 -63c-90 0 -155.667 22.5 -197 67.5s-57 115.167 -47 210.5h98
c2.66699 -20.667 5 -35.667 7 -45c5.33301 -20.667 12.333 -38.334 21 -53.001c13.333 -20.667 32.5 -36.834 57.5 -48.501s58.5 -17.5 100.5 -17.5c71.333 0 128.666 19.333 171.999 58c25.333 21.333 50.666 56.666 75.999 105.999z" />
    <glyph glyph-name="abreve" unicode="&#x103;" horiz-adv-x="1175" 
d="M453 745l-168 0.00195312c26 123.333 86.333 215 181 275c87.333 54.667 200 82 338 82c87.333 0 160.333 -15 219 -45c101.333 -50.667 139.333 -135.334 114 -254.001l-131 -615c-8.66699 -43.333 7.33301 -65 48 -65l59 8l-28 -131l-51 -13
c-18 -4.66699 -35.333 -7 -52 -7c-72 0 -119.333 17 -142 51c-18 26 -21.667 63.333 -11 112c-58.667 -50 -113.667 -88 -165 -114c-83.333 -41.333 -170.666 -62 -261.999 -62c-98.667 0 -173.167 28.667 -223.5 86s-65.5 132.666 -45.5 225.999
c15.333 72 45.333 134 90 186c72.667 83.333 175.667 133 309 149l303 37c29.333 2.66699 52 11 68 25c25.333 20.667 43 54.667 53 102c24.667 117.333 -46.333 176 -213 176c-88.667 0 -158.667 -24.333 -210 -73c-30.667 -30 -57.334 -75.333 -80.001 -136zM866 373.002
l37 176c-18 -14 -47.167 -25.667 -87.5 -35s-109.166 -20.166 -206.499 -32.499s-166.166 -32.833 -206.499 -61.5s-65.5 -66.334 -75.5 -113.001c-13.333 -61.333 -7.83301 -108 16.5 -140s69.833 -48 136.5 -48c87.333 0 169.666 24.5 246.999 73.5
s123.666 109.167 138.999 180.5zM1074 1475h98c-33.333 -97.333 -84.333 -169 -153 -215c-62 -42.667 -140 -64 -234 -64c-90 0 -155.667 22.5 -197 67.5s-57 115.5 -47 211.5h98c2.66699 -20.667 5 -35.667 7 -45c5.33301 -20.667 12.666 -38.667 21.999 -54
c13.333 -20 32.333 -35.833 57 -47.5s58.334 -17.5 101.001 -17.5c70.667 0 127.667 19 171 57c25.333 22 51 57.667 77 107z" />
    <glyph glyph-name="Ccaron" unicode="&#x10c;" horiz-adv-x="1274" 
 />
    <glyph glyph-name="ccaron" unicode="&#x10d;" horiz-adv-x="922" 
 />
    <glyph glyph-name="Dslash" unicode="&#x110;" horiz-adv-x="1568" 
d="M936 844l-36.999 -176h-393l-105 -496h385c131.333 0 245.666 49.5 342.999 148.5s165.333 240.5 204 424.5c38.667 182 29.667 320.5 -27 415.5s-154 142.5 -292 142.5h-373l-98 -459h393zM203.001 668l36.999 176h106l133 626h594c190 0 326.833 -65.167 410.5 -195.5
s102.834 -302.5 57.501 -516.5c-18 -86 -45.333 -170 -82 -252c-64.667 -142 -144.667 -254.667 -240 -338c-130 -112 -285.333 -168 -466 -168h-586l142 668h-106z" />
    <glyph glyph-name="dcroat" unicode="&#x111;" 
d="M1278 1200l-255 -1200h-172l31 147c-50.667 -65.333 -109 -113 -175 -143c-53.333 -24.667 -110 -37 -170 -37c-165.333 0 -275.333 67.667 -330 203c-42.667 106.667 -47 239.667 -13 399c33.333 156 99.833 283.833 199.5 383.5s219.5 149.5 359.5 149.5
c84.667 0 152 -22 202 -66c25.333 -21.333 52 -59.333 80 -114l6 12l55 258h-258l33 156h258l26 122h180l-27 -127h82l-30 -143h-82zM372 541c-26 -123.333 -22.167 -223.167 11.5 -299.5s97.5 -114.5 191.5 -114.5c74 0 142 24 204 72
c81.333 62.667 135.666 158.667 162.999 288c26.667 123.333 32.334 220.333 17.001 291c-23.333 109.333 -92.333 164 -207 164c-121.333 0 -216 -49.667 -284 -149c-41.333 -62 -73.333 -146 -96 -252z" />
    <glyph glyph-name="Itilde" unicode="&#x128;" horiz-adv-x="602" 
d="M697 1470l-312 -1470h-197l312 1470h197zM970 1880l102.003 0.00195312c-20.667 -64 -53.5 -117.5 -98.5 -160.5s-96.167 -64.5 -153.5 -64.5c-30.667 0 -68.334 9.33301 -113.001 28l-51 17c-60.667 22 -100.334 33 -119.001 33c-26 0 -47.333 -7.16699 -64 -21.5
s-33.334 -37.5 -50.001 -69.5h-98c23.333 67.333 54 118.666 92 153.999c44.667 42.667 100.334 64 167.001 64c23.333 0 45.666 -2.5 66.999 -7.5s43.333 -12.167 66 -21.5l41 -21c15.333 -6.66699 32 -12.334 50 -17.001s31.333 -7 40 -7c35.333 0 63 10.333 83 31
c14 13.333 27 34.333 39 63z" />
    <glyph glyph-name="itilde" unicode="&#x129;" horiz-adv-x="487" 
d="M547 1073l-228 -1073h-180l228 1073h180zM830 1479h102.001c-21.333 -63.333 -54.833 -116.166 -100.5 -158.499s-95.834 -63.5 -150.501 -63.5c-16.667 0 -33 1.83301 -49 5.5s-39 10.167 -69 19.5l-49 21c-16 5.33301 -35.667 11.333 -59 18s-42.333 10 -57 10
c-26 0 -48.167 -7.83301 -66.5 -23.5s-35.5 -37.834 -51.5 -66.501h-98c22 65.333 54.833 118.5 98.5 159.5s97.5 61.5 161.5 61.5c23.333 0 45.166 -3 65.499 -9s42.5 -13.667 66.5 -23l41 -17c44 -19.333 75 -29 93 -29c35.333 0 63.333 11 84 33
c14.667 14 27.334 34.667 38.001 62z" />
    <glyph glyph-name="Utilde" unicode="&#x168;" horiz-adv-x="1478" 
d="M1421 1470l197.002 -0.000976562l-202 -954c-34.667 -161.333 -110.334 -291.666 -227.001 -390.999c-128.667 -110.667 -289.334 -166 -482.001 -166c-186.667 0 -319 54 -397 162c-68.667 95.333 -87 219 -55 371l208 978h197l-196 -925
c-31.333 -146 -15 -253.333 49 -322c52.667 -56 131.334 -84 236.001 -84c110.667 0 204.667 26.667 282 80c97.333 68.667 161.666 176 192.999 322zM1385 1880l103 0.00195312c-20.667 -64 -53.5 -117.5 -98.5 -160.5s-96.167 -64.5 -153.5 -64.5
c-30 0 -67.667 9.33301 -113 28l-50 17c-61.333 22 -101.333 33 -120 33c-26 0 -47.333 -7.16699 -64 -21.5s-33 -37.5 -49 -69.5h-99c24 67.333 55 118.666 93 153.999c44 42.667 99.333 64 166 64c23.333 0 45.833 -2.5 67.5 -7.5s43.834 -12.167 66.501 -21.5l41 -21
c14 -6.66699 30.333 -12.334 49 -17.001s32 -7 40 -7c35.333 0 63.333 10.333 84 31c13.333 13.333 25.666 34.333 36.999 63z" />
    <glyph glyph-name="utilde" unicode="&#x169;" 
d="M1003 0h-172.001l34 156l-4 4c-51.333 -64.667 -107.166 -113 -167.499 -145s-131.5 -48 -213.5 -48c-92.667 0 -164.667 23.333 -216 70c-65.333 58.667 -85.333 147.334 -60 266.001l164 770h180l-152 -713c-17.333 -82.667 -10.333 -143.334 21 -182.001
c26.667 -34 72.667 -51 138 -51c102.667 0 188.667 39.667 258 119c55.333 64 93 143 113 237l126 590h180zM1171 1479h102c-21.333 -63.333 -55 -116.166 -101 -158.499s-96 -63.5 -150 -63.5c-16.667 0 -33.167 1.83301 -49.5 5.5s-39.166 10.167 -68.499 19.5l-50 21
c-16 5.33301 -35.667 11.333 -59 18s-42.333 10 -57 10c-26 0 -48.167 -7.83301 -66.5 -23.5s-35.5 -37.834 -51.5 -66.501h-98c22 65.333 54.833 118.5 98.5 159.5s97.5 61.5 161.5 61.5c23.333 0 45.166 -3 65.499 -9s42.5 -13.667 66.5 -23l42 -17
c44 -19.333 75 -29 93 -29c35.333 0 63.333 11 84 33c14 14 26.667 34.667 38 62z" />
    <glyph glyph-name="Ohorn" unicode="&#x1a0;" horiz-adv-x="1572" 
d="M1526 1376c85.333 -72 140.338 -172.331 165.005 -300.998c21.333 -106.667 19.333 -219.334 -6 -338.001c-42 -198 -128.667 -367.333 -260 -508c-166.667 -180 -374.334 -270 -623.001 -270c-247.333 0 -416 89.333 -506 268c-72 143.333 -87 313.333 -45 510
c41.333 195.333 127.666 363.333 258.999 504c167.333 180 374.666 270 621.999 270c68 0 129.5 -7.16699 184.5 -21.5s104.833 -35.833 149.5 -64.5c8 1.33301 23.667 9.66602 47 24.999s39 26.333 47 33c21.333 16 37.166 33.667 47.499 53s18.166 41.333 23.499 66h-115
l27 127h197l-39 -181c-8 -38 -36.667 -77.333 -86 -118c-36 -26 -65.667 -44 -89 -54zM1480 737.002c37.333 176 22.6689 318.667 -43.998 428c-70.667 113.333 -184.334 170 -341.001 170c-156 0 -292.333 -56 -409 -168s-193.334 -255.333 -230.001 -430
c-38 -177.333 -23 -321.333 45 -432s181.333 -166 340 -166c156.667 0 293 55.667 409 167s192.667 255 230 431z" />
    <glyph glyph-name="ohorn" unicode="&#x1a1;" 
d="M1112 979c7.33301 1.33301 20.0029 8.83398 38.0029 22.501s32.667 25.167 44 34.5c21.333 16.667 37 34.5 47 53.5s17.667 40.833 23 65.5h-115l27 127h197l-38 -180c-8 -38.667 -36.667 -78.334 -86 -119.001l-53.5 -39.5c-17 -13 -31.167 -21.5 -42.5 -25.5
c26 -50.667 41 -109.5 45 -176.5s-1.33301 -135.167 -16 -204.5c-32.667 -152 -100.334 -280.333 -203.001 -385c-116.667 -120.667 -255.334 -181 -416.001 -181c-160 0 -272.333 59.667 -337 179c-58.667 104.667 -71.667 233.667 -39 387c32.667 154 99.667 283 201 387
c115.333 118.667 253.666 178 414.999 178c142 0 245 -41 309 -123zM371.003 537.001c-21.333 -101.333 -20.3311 -187.332 3.00195 -257.999c33.333 -101.333 107.333 -152 222 -152c113.333 0 207.666 49.667 282.999 149c55.333 72.667 93.666 159.667 114.999 261
c21.333 100.667 20.666 186.667 -2.00098 258c-33.333 100.667 -107.333 151 -222 151c-113.333 0 -208 -49.667 -284 -149c-55.333 -72.667 -93.666 -159.334 -114.999 -260.001z" />
    <glyph glyph-name="Uhorn" unicode="&#x1af;" horiz-adv-x="1478" 
d="M1604 1401c8.66699 2.66699 20.168 7.66406 34.501 14.9971s26.833 14.833 37.5 22.5s19.334 17.334 26.001 29.001s11 22.167 13 31.5l10 49h-115l27 127h197l-38 -180c-8 -38 -37 -77.667 -87 -119c-18 -13.333 -39.333 -25.666 -64 -36.999l-60 -24l-169 -799
c-34.667 -161.333 -110.334 -291.666 -227.001 -390.999c-128.667 -110.667 -289.334 -166 -482.001 -166c-186.667 0 -319 54 -397 162c-68.667 95.333 -87 219 -55 371l208 978h197l-196 -925c-31.333 -146 -15 -253.333 49 -322c52.667 -56 131.334 -84 236.001 -84
c110.667 0 204.667 26.667 282 80c97.333 68.667 161.666 176 192.999 322l197 929h197z" />
    <glyph glyph-name="uhorn" unicode="&#x1b0;" 
d="M1217 1004c9.33301 2.66699 20.998 9.33301 34.998 20c8.66699 8 14.334 13.333 17.001 16c22 16.667 37.333 34.5 46 53.5s16 42.167 22 69.5h-114l27 127h196l-39 -180c-8 -38 -36.667 -77.667 -86 -119c-42 -31.333 -82.667 -54.333 -122 -69l-196 -922h-172l34 156
l-4 4c-51.333 -64.667 -107.166 -113 -167.499 -145s-131.5 -48 -213.5 -48c-92.667 0 -164.667 23.333 -216 70c-65.333 58.667 -85.333 147.334 -60 266.001l164 770h180l-152 -713c-17.333 -82.667 -10.333 -143.334 21 -182.001c26.667 -34 72.667 -51 138 -51
c102.667 0 188.667 39.667 258 119c55.333 64 93 143 113 237l126 590h180z" />
    <glyph glyph-name="uni1EA0" unicode="&#x1ea0;" horiz-adv-x="1454" 
d="M1069 430h-590l-246 -430h-205l865 1470h225l221 -1470h-217zM579 606h455l-81 647zM699 -348h-180l44 205h180z" />
    <glyph glyph-name="uni1EA1" unicode="&#x1ea1;" horiz-adv-x="1175" 
d="M453 745l-168 0.00195312c26 123.333 86.333 215 181 275c87.333 54.667 200 82 338 82c87.333 0 160.333 -15 219 -45c101.333 -50.667 139.333 -135.334 114 -254.001l-131 -615c-8.66699 -43.333 7.33301 -65 48 -65l59 8l-28 -131l-51 -13
c-18 -4.66699 -35.333 -7 -52 -7c-72 0 -119.333 17 -142 51c-18 26 -21.667 63.333 -11 112c-58.667 -50 -113.667 -88 -165 -114c-83.333 -41.333 -170.666 -62 -261.999 -62c-98.667 0 -173.167 28.667 -223.5 86s-65.5 132.666 -45.5 225.999
c15.333 72 45.333 134 90 186c72.667 83.333 175.667 133 309 149l303 37c29.333 2.66699 52 11 68 25c25.333 20.667 43 54.667 53 102c24.667 117.333 -46.333 176 -213 176c-88.667 0 -158.667 -24.333 -210 -73c-30.667 -30 -57.334 -75.333 -80.001 -136zM866 373.002
l37 176c-18 -14 -47.167 -25.667 -87.5 -35s-109.166 -20.166 -206.499 -32.499s-166.166 -32.833 -206.499 -61.5s-65.5 -66.334 -75.5 -113.001c-13.333 -61.333 -7.83301 -108 16.5 -140s69.833 -48 136.5 -48c87.333 0 169.666 24.5 246.999 73.5
s123.666 109.167 138.999 180.5zM568 -343.998h-181l44 205h181z" />
    <glyph glyph-name="uni1EA2" unicode="&#x1ea2;" horiz-adv-x="1454" 
d="M1069 430h-590l-246 -430h-205l865 1470h225l221 -1470h-217zM579 606h455l-81 647zM1072 1550l-117.001 0.000976562c11.333 52 25.833 93.333 43.5 124s48.834 59.667 93.501 87s70.667 58 78 92c6.66699 33.333 2.66699 57.166 -12 71.499s-33.667 21.5 -57 21.5
c-36.667 0 -64.5 -10.333 -83.5 -31s-31.5 -46 -37.5 -76l-132 -2c16 74 52 130 108 168c48 32.667 101.333 49 160 49c52 0 95.333 -10.333 130 -31c58.667 -34 80 -89 64 -165c-8 -36 -23 -66.167 -45 -90.5s-56.167 -50.833 -102.5 -79.5s-76.5 -74.667 -90.5 -138z" />
    <glyph glyph-name="uni1EA3" unicode="&#x1ea3;" horiz-adv-x="1175" 
d="M453 745l-168 0.00195312c26 123.333 86.333 215 181 275c87.333 54.667 200 82 338 82c87.333 0 160.333 -15 219 -45c101.333 -50.667 139.333 -135.334 114 -254.001l-131 -615c-8.66699 -43.333 7.33301 -65 48 -65l59 8l-28 -131l-51 -13
c-18 -4.66699 -35.333 -7 -52 -7c-72 0 -119.333 17 -142 51c-18 26 -21.667 63.333 -11 112c-58.667 -50 -113.667 -88 -165 -114c-83.333 -41.333 -170.666 -62 -261.999 -62c-98.667 0 -173.167 28.667 -223.5 86s-65.5 132.666 -45.5 225.999
c15.333 72 45.333 134 90 186c72.667 83.333 175.667 133 309 149l303 37c29.333 2.66699 52 11 68 25c25.333 20.667 43 54.667 53 102c24.667 117.333 -46.333 176 -213 176c-88.667 0 -158.667 -24.333 -210 -73c-30.667 -30 -57.334 -75.333 -80.001 -136zM866 373.002
l37 176c-18 -14 -47.167 -25.667 -87.5 -35s-109.166 -20.166 -206.499 -32.499s-166.166 -32.833 -206.499 -61.5s-65.5 -66.334 -75.5 -113.001c-13.333 -61.333 -7.83301 -108 16.5 -140s69.833 -48 136.5 -48c87.333 0 169.666 24.5 246.999 73.5
s123.666 109.167 138.999 180.5zM842 1178h-121.001c10 47.333 22.667 83 38 107s45.833 50 91.5 78s72.167 59 79.5 93c6.66699 32.667 2.66699 56.167 -12 70.5s-33.667 21.5 -57 21.5c-37.333 0 -65.166 -10.167 -83.499 -30.5s-30.833 -45.5 -37.5 -75.5l-131 -2
c15.333 73.333 51 129.333 107 168c48 32.667 101.667 49 161 49c51.333 0 94.666 -10.333 129.999 -31c58 -34 79 -89.333 63 -166c-7.33301 -35.333 -22.166 -65.333 -44.499 -90s-56.5 -51.334 -102.5 -80.001c-24.667 -14.667 -42.667 -29.167 -54 -43.5
s-20.333 -37.166 -27 -68.499z" />
    <glyph glyph-name="uni1EA4" unicode="&#x1ea4;" horiz-adv-x="1454" 
d="M1069 430h-590l-246 -430h-205l865 1470h225l221 -1470h-217zM579 606h455l-81 647zM1754 2126l-328 -291h-136l243 291h221zM1068 1810l-176 -192h-164l267 291h189l142 -291h-163z" />
    <glyph glyph-name="uni1EA5" unicode="&#x1ea5;" horiz-adv-x="1175" 
d="M453 745l-168 0.00195312c26 123.333 86.333 215 181 275c87.333 54.667 200 82 338 82c87.333 0 160.333 -15 219 -45c101.333 -50.667 139.333 -135.334 114 -254.001l-131 -615c-8.66699 -43.333 7.33301 -65 48 -65l59 8l-28 -131l-51 -13
c-18 -4.66699 -35.333 -7 -52 -7c-72 0 -119.333 17 -142 51c-18 26 -21.667 63.333 -11 112c-58.667 -50 -113.667 -88 -165 -114c-83.333 -41.333 -170.666 -62 -261.999 -62c-98.667 0 -173.167 28.667 -223.5 86s-65.5 132.666 -45.5 225.999
c15.333 72 45.333 134 90 186c72.667 83.333 175.667 133 309 149l303 37c29.333 2.66699 52 11 68 25c25.333 20.667 43 54.667 53 102c24.667 117.333 -46.333 176 -213 176c-88.667 0 -158.667 -24.333 -210 -73c-30.667 -30 -57.334 -75.333 -80.001 -136zM866 373.002
l37 176c-18 -14 -47.167 -25.667 -87.5 -35s-109.166 -20.166 -206.499 -32.499s-166.166 -32.833 -206.499 -61.5s-65.5 -66.334 -75.5 -113.001c-13.333 -61.333 -7.83301 -108 16.5 -140s69.833 -48 136.5 -48c87.333 0 169.666 24.5 246.999 73.5
s123.666 109.167 138.999 180.5zM1035 1428l241 286h226l-332 -286h-135zM847 1384l-175 -188h-160l262 287h193l139 -287h-164z" />
    <glyph glyph-name="uni1EA6" unicode="&#x1ea6;" horiz-adv-x="1454" 
d="M1069 430h-590l-246 -430h-205l865 1470h225l221 -1470h-217zM579 606h455l-81 647zM1331 1868l-204 291h221l119 -291h-136zM1068 1810l-176 -192h-164l267 291h189l142 -291h-163z" />
    <glyph glyph-name="uni1EA7" unicode="&#x1ea7;" horiz-adv-x="1175" 
d="M453 745l-168 0.00195312c26 123.333 86.333 215 181 275c87.333 54.667 200 82 338 82c87.333 0 160.333 -15 219 -45c101.333 -50.667 139.333 -135.334 114 -254.001l-131 -615c-8.66699 -43.333 7.33301 -65 48 -65l59 8l-28 -131l-51 -13
c-18 -4.66699 -35.333 -7 -52 -7c-72 0 -119.333 17 -142 51c-18 26 -21.667 63.333 -11 112c-58.667 -50 -113.667 -88 -165 -114c-83.333 -41.333 -170.666 -62 -261.999 -62c-98.667 0 -173.167 28.667 -223.5 86s-65.5 132.666 -45.5 225.999
c15.333 72 45.333 134 90 186c72.667 83.333 175.667 133 309 149l303 37c29.333 2.66699 52 11 68 25c25.333 20.667 43 54.667 53 102c24.667 117.333 -46.333 176 -213 176c-88.667 0 -158.667 -24.333 -210 -73c-30.667 -30 -57.334 -75.333 -80.001 -136zM866 373.002
l37 176c-18 -14 -47.167 -25.667 -87.5 -35s-109.166 -20.166 -206.499 -32.499s-166.166 -32.833 -206.499 -61.5s-65.5 -66.334 -75.5 -113.001c-13.333 -61.333 -7.83301 -108 16.5 -140s69.833 -48 136.5 -48c87.333 0 169.666 24.5 246.999 73.5
s123.666 109.167 138.999 180.5zM1084 1417l-211 286h225l121 -286h-135zM847 1384l-175 -188h-160l262 287h193l139 -287h-164z" />
    <glyph glyph-name="uni1EA8" unicode="&#x1ea8;" horiz-adv-x="1454" 
d="M1069 430h-590l-246 -430h-205l865 1470h225l221 -1470h-217zM579 606h455l-81 647zM1068 1810l-176 -192h-164l267 291h189l142 -291h-163zM1403 1831h-116.998c11.333 52 25.666 93.333 42.999 124s48.5 59.667 93.5 87s71.167 58 78.5 92
c6.66699 33.333 2.5 57.166 -12.5 71.5c-15 14.333 -34.167 21.5 -57.5 21.5c-36.667 0 -64.334 -10.333 -83.001 -31s-31 -46 -37 -76l-132 -2c16 74 52 130 108 168c47.333 32.667 100.333 49 159 49c52 0 95.667 -10.333 131 -31c58.667 -34 80 -89 64 -165
c-8 -36 -23 -66.167 -45 -90.5s-56.333 -50.833 -103 -79.5s-76.667 -74.667 -90 -138z" />
    <glyph glyph-name="uni1EA9" unicode="&#x1ea9;" horiz-adv-x="1175" 
d="M453 745l-168 0.00195312c26 123.333 86.333 215 181 275c87.333 54.667 200 82 338 82c87.333 0 160.333 -15 219 -45c101.333 -50.667 139.333 -135.334 114 -254.001l-131 -615c-8.66699 -43.333 7.33301 -65 48 -65l59 8l-28 -131l-51 -13
c-18 -4.66699 -35.333 -7 -52 -7c-72 0 -119.333 17 -142 51c-18 26 -21.667 63.333 -11 112c-58.667 -50 -113.667 -88 -165 -114c-83.333 -41.333 -170.666 -62 -261.999 -62c-98.667 0 -173.167 28.667 -223.5 86s-65.5 132.666 -45.5 225.999
c15.333 72 45.333 134 90 186c72.667 83.333 175.667 133 309 149l303 37c29.333 2.66699 52 11 68 25c25.333 20.667 43 54.667 53 102c24.667 117.333 -46.333 176 -213 176c-88.667 0 -158.667 -24.333 -210 -73c-30.667 -30 -57.334 -75.333 -80.001 -136zM866 373.002
l37 176c-18 -14 -47.167 -25.667 -87.5 -35s-109.166 -20.166 -206.499 -32.499s-166.166 -32.833 -206.499 -61.5s-65.5 -66.334 -75.5 -113.001c-13.333 -61.333 -7.83301 -108 16.5 -140s69.833 -48 136.5 -48c87.333 0 169.666 24.5 246.999 73.5
s123.666 109.167 138.999 180.5zM1172 1409h-121.001c10 47.333 22.667 83 38 107s45.833 50 91.5 78s72.167 59 79.5 93c6.66699 32.667 2.83398 56.167 -11.499 70.5s-33.166 21.5 -56.499 21.5c-37.333 0 -65.333 -10.167 -84 -30.5s-31.334 -45.5 -38.001 -75.5l-131 -2
c15.333 73.333 51 129.333 107 168c48 32.667 101.667 49 161 49c51.333 0 94.666 -10.333 129.999 -31c58 -34 79 -89.333 63 -166c-7.33301 -35.333 -22.166 -65.333 -44.499 -90s-56.5 -51.334 -102.5 -80.001c-24.667 -14.667 -42.667 -29.167 -54 -43.5
s-20.333 -37.166 -27 -68.499zM846.999 1384l-175 -188h-160l262 287h193l139 -287h-164z" />
    <glyph glyph-name="uni1EAA" unicode="&#x1eaa;" horiz-adv-x="1454" 
d="M1069 430h-590l-246 -430h-205l865 1470h225l221 -1470h-217zM579 606h455l-81 647zM1068 1810l-176 -192h-164l267 291h189l142 -291h-163zM1492 2211l102.003 0.000976562c-20 -64 -52.833 -117.5 -98.5 -160.5s-97.167 -64.5 -154.5 -64.5
c-30 0 -67.667 9.33301 -113 28l-49 17c-60.667 22 -100.667 33 -120 33c-26 0 -47.333 -7.16699 -64 -21.5s-33.334 -37.5 -50.001 -69.5h-98c24 67.333 54.667 118.666 92 153.999c44.667 42.667 100.667 64 168 64c23.333 0 45.666 -2.5 66.999 -7.5
s43.333 -12.167 66 -21.5l40 -21c15.333 -6.66699 32 -12.334 50 -17c18 -4.66699 31 -7 39 -7c35.333 0 63.666 10.333 84.999 31c13.333 13.333 26 34.333 38 63z" />
    <glyph glyph-name="uni1EAB" unicode="&#x1eab;" horiz-adv-x="1175" 
d="M453 745l-168 0.00195312c26 123.333 86.333 215 181 275c87.333 54.667 200 82 338 82c87.333 0 160.333 -15 219 -45c101.333 -50.667 139.333 -135.334 114 -254.001l-131 -615c-8.66699 -43.333 7.33301 -65 48 -65l59 8l-28 -131l-51 -13
c-18 -4.66699 -35.333 -7 -52 -7c-72 0 -119.333 17 -142 51c-18 26 -21.667 63.333 -11 112c-58.667 -50 -113.667 -88 -165 -114c-83.333 -41.333 -170.666 -62 -261.999 -62c-98.667 0 -173.167 28.667 -223.5 86s-65.5 132.666 -45.5 225.999
c15.333 72 45.333 134 90 186c72.667 83.333 175.667 133 309 149l303 37c29.333 2.66699 52 11 68 25c25.333 20.667 43 54.667 53 102c24.667 117.333 -46.333 176 -213 176c-88.667 0 -158.667 -24.333 -210 -73c-30.667 -30 -57.334 -75.333 -80.001 -136zM866 373.002
l37 176c-18 -14 -47.167 -25.667 -87.5 -35s-109.166 -20.166 -206.499 -32.499s-166.166 -32.833 -206.499 -61.5s-65.5 -66.334 -75.5 -113.001c-13.333 -61.333 -7.83301 -108 16.5 -140s69.833 -48 136.5 -48c87.333 0 169.666 24.5 246.999 73.5
s123.666 109.167 138.999 180.5zM1258 1730h103.001c-22 -63.333 -55.833 -116.166 -101.5 -158.499s-95.834 -63.5 -150.501 -63.5c-16.667 0 -33.167 1.83301 -49.5 5.5s-39.166 10.167 -68.499 19.5l-48 21l-60.5 18c-23 6.66699 -41.833 10 -56.5 10
c-26 0 -48.167 -7.83301 -66.5 -23.5s-35.166 -37.834 -50.499 -66.501h-99c22 65.333 54.833 118.5 98.5 159.5s97.5 61.5 161.5 61.5c23.333 0 45.333 -3 66 -9s43 -13.667 67 -23l41 -17c43.333 -19.333 74 -29 92 -29c35.333 0 63.666 11 84.999 33
c13.333 14 25.666 34.667 36.999 62zM847.001 1384l-175 -188h-160l262 287h193l139 -287h-164z" />
    <glyph glyph-name="uni1EAC" unicode="&#x1eac;" horiz-adv-x="1454" 
d="M1069 430h-590l-246 -430h-205l865 1470h225l221 -1470h-217zM579 606h455l-81 647zM699 -348h-180l44 205h180zM1068 1810l-176 -192h-164l267 291h189l142 -291h-163z" />
    <glyph glyph-name="uni1EAD" unicode="&#x1ead;" horiz-adv-x="1175" 
d="M453 745l-168 0.00195312c26 123.333 86.333 215 181 275c87.333 54.667 200 82 338 82c87.333 0 160.333 -15 219 -45c101.333 -50.667 139.333 -135.334 114 -254.001l-131 -615c-8.66699 -43.333 7.33301 -65 48 -65l59 8l-28 -131l-51 -13
c-18 -4.66699 -35.333 -7 -52 -7c-72 0 -119.333 17 -142 51c-18 26 -21.667 63.333 -11 112c-58.667 -50 -113.667 -88 -165 -114c-83.333 -41.333 -170.666 -62 -261.999 -62c-98.667 0 -173.167 28.667 -223.5 86s-65.5 132.666 -45.5 225.999
c15.333 72 45.333 134 90 186c72.667 83.333 175.667 133 309 149l303 37c29.333 2.66699 52 11 68 25c25.333 20.667 43 54.667 53 102c24.667 117.333 -46.333 176 -213 176c-88.667 0 -158.667 -24.333 -210 -73c-30.667 -30 -57.334 -75.333 -80.001 -136zM866 373.002
l37 176c-18 -14 -47.167 -25.667 -87.5 -35s-109.166 -20.166 -206.499 -32.499s-166.166 -32.833 -206.499 -61.5s-65.5 -66.334 -75.5 -113.001c-13.333 -61.333 -7.83301 -108 16.5 -140s69.833 -48 136.5 -48c87.333 0 169.666 24.5 246.999 73.5
s123.666 109.167 138.999 180.5zM568 -343.998h-181l44 205h181zM847 1384l-175 -188h-160l262 287h193l139 -287h-164z" />
    <glyph glyph-name="uni1EAE" unicode="&#x1eae;" horiz-adv-x="1454" 
d="M1069 430h-590l-246 -430h-205l865 1470h225l221 -1470h-217zM579 606h455l-81 647zM1463 2126l-328 -291h-136l243 291h221zM1291 1839l99.002 0.00390625c-33.333 -96.667 -84.333 -168.334 -153 -215.001c-62 -42 -140 -63 -234 -63c-90 0 -155.667 22.5 -197 67.5
s-57 115.167 -47 210.5h98c2.66699 -20.667 5 -35.667 7 -45c5.33301 -20.667 12.333 -38.334 21 -53.001c13.333 -20.667 32.5 -36.834 57.5 -48.501s58.5 -17.5 100.5 -17.5c71.333 0 128.666 19.333 171.999 58c25.333 21.333 50.666 56.666 75.999 105.999z" />
    <glyph glyph-name="uni1EAF" unicode="&#x1eaf;" horiz-adv-x="1175" 
d="M453 745l-168 0.00195312c26 123.333 86.333 215 181 275c87.333 54.667 200 82 338 82c87.333 0 160.333 -15 219 -45c101.333 -50.667 139.333 -135.334 114 -254.001l-131 -615c-8.66699 -43.333 7.33301 -65 48 -65l59 8l-28 -131l-51 -13
c-18 -4.66699 -35.333 -7 -52 -7c-72 0 -119.333 17 -142 51c-18 26 -21.667 63.333 -11 112c-58.667 -50 -113.667 -88 -165 -114c-83.333 -41.333 -170.666 -62 -261.999 -62c-98.667 0 -173.167 28.667 -223.5 86s-65.5 132.666 -45.5 225.999
c15.333 72 45.333 134 90 186c72.667 83.333 175.667 133 309 149l303 37c29.333 2.66699 52 11 68 25c25.333 20.667 43 54.667 53 102c24.667 117.333 -46.333 176 -213 176c-88.667 0 -158.667 -24.333 -210 -73c-30.667 -30 -57.334 -75.333 -80.001 -136zM866 373.002
l37 176c-18 -14 -47.167 -25.667 -87.5 -35s-109.166 -20.166 -206.499 -32.499s-166.166 -32.833 -206.499 -61.5s-65.5 -66.334 -75.5 -113.001c-13.333 -61.333 -7.83301 -108 16.5 -140s69.833 -48 136.5 -48c87.333 0 169.666 24.5 246.999 73.5
s123.666 109.167 138.999 180.5zM790 1458l241 286h226l-332 -286h-135zM1074 1475h98c-33.333 -97.333 -84.333 -169 -153 -215c-62 -42.667 -140 -64 -234 -64c-90 0 -155.667 22.5 -197 67.5s-57 115.5 -47 211.5h98c2.66699 -20.667 5 -35.667 7 -45
c5.33301 -20.667 12.666 -38.667 21.999 -54c13.333 -20 32.333 -35.833 57 -47.5s58.334 -17.5 101.001 -17.5c70.667 0 127.667 19 171 57c25.333 22 51 57.667 77 107z" />
    <glyph glyph-name="uni1EB0" unicode="&#x1eb0;" horiz-adv-x="1454" 
d="M1069 430h-590l-246 -430h-205l865 1470h225l221 -1470h-217zM579 606h455l-81 647zM1030 1868l-204 291h221l119 -291h-136zM1291 1839l99.002 0.00390625c-33.333 -96.667 -84.333 -168.334 -153 -215.001c-62 -42 -140 -63 -234 -63c-90 0 -155.667 22.5 -197 67.5
s-57 115.167 -47 210.5h98c2.66699 -20.667 5 -35.667 7 -45c5.33301 -20.667 12.333 -38.334 21 -53.001c13.333 -20.667 32.5 -36.834 57.5 -48.501s58.5 -17.5 100.5 -17.5c71.333 0 128.666 19.333 171.999 58c25.333 21.333 50.666 56.666 75.999 105.999z" />
    <glyph glyph-name="uni1EB1" unicode="&#x1eb1;" horiz-adv-x="1175" 
d="M453 745l-168 0.00195312c26 123.333 86.333 215 181 275c87.333 54.667 200 82 338 82c87.333 0 160.333 -15 219 -45c101.333 -50.667 139.333 -135.334 114 -254.001l-131 -615c-8.66699 -43.333 7.33301 -65 48 -65l59 8l-28 -131l-51 -13
c-18 -4.66699 -35.333 -7 -52 -7c-72 0 -119.333 17 -142 51c-18 26 -21.667 63.333 -11 112c-58.667 -50 -113.667 -88 -165 -114c-83.333 -41.333 -170.666 -62 -261.999 -62c-98.667 0 -173.167 28.667 -223.5 86s-65.5 132.666 -45.5 225.999
c15.333 72 45.333 134 90 186c72.667 83.333 175.667 133 309 149l303 37c29.333 2.66699 52 11 68 25c25.333 20.667 43 54.667 53 102c24.667 117.333 -46.333 176 -213 176c-88.667 0 -158.667 -24.333 -210 -73c-30.667 -30 -57.334 -75.333 -80.001 -136zM866 373.002
l37 176c-18 -14 -47.167 -25.667 -87.5 -35s-109.166 -20.166 -206.499 -32.499s-166.166 -32.833 -206.499 -61.5s-65.5 -66.334 -75.5 -113.001c-13.333 -61.333 -7.83301 -108 16.5 -140s69.833 -48 136.5 -48c87.333 0 169.666 24.5 246.999 73.5
s123.666 109.167 138.999 180.5zM811 1457l-210 286h225l120 -286h-135zM1074 1475h98c-33.333 -97.333 -84.333 -169 -153 -215c-62 -42.667 -140 -64 -234 -64c-90 0 -155.667 22.5 -197 67.5s-57 115.5 -47 211.5h98c2.66699 -20.667 5 -35.667 7 -45
c5.33301 -20.667 12.666 -38.667 21.999 -54c13.333 -20 32.333 -35.833 57 -47.5s58.334 -17.5 101.001 -17.5c70.667 0 127.667 19 171 57c25.333 22 51 57.667 77 107z" />
    <glyph glyph-name="uni1EB2" unicode="&#x1eb2;" horiz-adv-x="1454" 
d="M1069 430h-590l-246 -430h-205l865 1470h225l221 -1470h-217zM579 606h455l-81 647zM1118 1811h-116.999c11.333 52 25.666 93.333 42.999 124s48.5 59.667 93.5 87s70.833 58 77.5 92c7.33301 33.333 3.5 57.166 -11.5 71.5c-15 14.333 -34.167 21.5 -57.5 21.5
c-36.667 0 -64.334 -10.333 -83.001 -31s-31.334 -46 -38.001 -76l-131 -2c16 74 52 130 108 168c47.333 32.667 100.333 49 159 49c52 0 95.333 -10.333 130 -31c59.333 -34 80.666 -89 63.999 -165c-7.33301 -36 -22.166 -66.167 -44.499 -90.5
s-56.666 -50.833 -102.999 -79.5s-76.166 -74.667 -89.499 -138zM1291 1839l99.002 0.00390625c-33.333 -96.667 -84.333 -168.334 -153 -215.001c-62 -42 -140 -63 -234 -63c-90 0 -155.667 22.5 -197 67.5s-57 115.167 -47 210.5h98c2.66699 -20.667 5 -35.667 7 -45
c5.33301 -20.667 12.333 -38.334 21 -53.001c13.333 -20.667 32.5 -36.834 57.5 -48.501s58.5 -17.5 100.5 -17.5c71.333 0 128.666 19.333 171.999 58c25.333 21.333 50.666 56.666 75.999 105.999z" />
    <glyph glyph-name="uni1EB3" unicode="&#x1eb3;" horiz-adv-x="1175" 
d="M453 745l-168 0.00195312c26 123.333 86.333 215 181 275c87.333 54.667 200 82 338 82c87.333 0 160.333 -15 219 -45c101.333 -50.667 139.333 -135.334 114 -254.001l-131 -615c-8.66699 -43.333 7.33301 -65 48 -65l59 8l-28 -131l-51 -13
c-18 -4.66699 -35.333 -7 -52 -7c-72 0 -119.333 17 -142 51c-18 26 -21.667 63.333 -11 112c-58.667 -50 -113.667 -88 -165 -114c-83.333 -41.333 -170.666 -62 -261.999 -62c-98.667 0 -173.167 28.667 -223.5 86s-65.5 132.666 -45.5 225.999
c15.333 72 45.333 134 90 186c72.667 83.333 175.667 133 309 149l303 37c29.333 2.66699 52 11 68 25c25.333 20.667 43 54.667 53 102c24.667 117.333 -46.333 176 -213 176c-88.667 0 -158.667 -24.333 -210 -73c-30.667 -30 -57.334 -75.333 -80.001 -136zM866 373.002
l37 176c-18 -14 -47.167 -25.667 -87.5 -35s-109.166 -20.166 -206.499 -32.499s-166.166 -32.833 -206.499 -61.5s-65.5 -66.334 -75.5 -113.001c-13.333 -61.333 -7.83301 -108 16.5 -140s69.833 -48 136.5 -48c87.333 0 169.666 24.5 246.999 73.5
s123.666 109.167 138.999 180.5zM924 1469h-120.999c10 47.333 22.667 83 38 107s45.833 50 91.5 78s72.167 59 79.5 93c6.66699 32.667 2.66699 56.167 -12 70.5s-33.667 21.5 -57 21.5c-37.333 0 -65.333 -10.167 -84 -30.5s-31 -45.5 -37 -75.5l-132 -2
c16 73.333 52 129.333 108 168c48 32.667 101.667 49 161 49c51.333 0 94.666 -10.333 129.999 -31c58 -34 79 -89.333 63 -166c-8 -35.333 -23 -65.333 -45 -90s-56 -51.334 -102 -80.001c-24.667 -14.667 -42.667 -29.167 -54 -43.5s-20.333 -37.166 -27 -68.499z
M1074 1475h98c-33.333 -97.333 -84.333 -169 -153 -215c-62 -42.667 -140 -64 -234 -64c-90 0 -155.667 22.5 -197 67.5s-57 115.5 -47 211.5h98c2.66699 -20.667 5 -35.667 7 -45c5.33301 -20.667 12.666 -38.667 21.999 -54c13.333 -20 32.333 -35.833 57 -47.5
s58.334 -17.5 101.001 -17.5c70.667 0 127.667 19 171 57c25.333 22 51 57.667 77 107z" />
    <glyph glyph-name="uni1EB4" unicode="&#x1eb4;" horiz-adv-x="1454" 
d="M1069 430h-590l-246 -430h-205l865 1470h225l221 -1470h-217zM579 606h455l-81 647zM1497 2141l102.003 0.000976562c-20 -64 -52.833 -117.5 -98.5 -160.5s-97.167 -64.5 -154.5 -64.5c-30 0 -67.667 9.33301 -113 28l-49 17c-60.667 22 -100.667 33 -120 33
c-26 0 -47.333 -7.16699 -64 -21.5s-33.334 -37.5 -50.001 -69.5h-98c24 67.333 54.667 118.666 92 153.999c44.667 42.667 100.667 64 168 64c23.333 0 45.666 -2.5 66.999 -7.5s43.333 -12.167 66 -21.5l40 -21c15.333 -6.66699 32 -12.334 50 -17
c18 -4.66699 31 -7 39 -7c35.333 0 63.666 10.333 84.999 31c13.333 13.333 26 34.333 38 63zM1291 1839l99.002 0.00390625c-33.333 -96.667 -84.333 -168.334 -153 -215.001c-62 -42 -140 -63 -234 -63c-90 0 -155.667 22.5 -197 67.5s-57 115.167 -47 210.5h98
c2.66699 -20.667 5 -35.667 7 -45c5.33301 -20.667 12.333 -38.334 21 -53.001c13.333 -20.667 32.5 -36.834 57.5 -48.501s58.5 -17.5 100.5 -17.5c71.333 0 128.666 19.333 171.999 58c25.333 21.333 50.666 56.666 75.999 105.999z" />
    <glyph glyph-name="uni1EB5" unicode="&#x1eb5;" horiz-adv-x="1175" 
d="M453 745l-168 0.00195312c26 123.333 86.333 215 181 275c87.333 54.667 200 82 338 82c87.333 0 160.333 -15 219 -45c101.333 -50.667 139.333 -135.334 114 -254.001l-131 -615c-8.66699 -43.333 7.33301 -65 48 -65l59 8l-28 -131l-51 -13
c-18 -4.66699 -35.333 -7 -52 -7c-72 0 -119.333 17 -142 51c-18 26 -21.667 63.333 -11 112c-58.667 -50 -113.667 -88 -165 -114c-83.333 -41.333 -170.666 -62 -261.999 -62c-98.667 0 -173.167 28.667 -223.5 86s-65.5 132.666 -45.5 225.999
c15.333 72 45.333 134 90 186c72.667 83.333 175.667 133 309 149l303 37c29.333 2.66699 52 11 68 25c25.333 20.667 43 54.667 53 102c24.667 117.333 -46.333 176 -213 176c-88.667 0 -158.667 -24.333 -210 -73c-30.667 -30 -57.334 -75.333 -80.001 -136zM866 373.002
l37 176c-18 -14 -47.167 -25.667 -87.5 -35s-109.166 -20.166 -206.499 -32.499s-166.166 -32.833 -206.499 -61.5s-65.5 -66.334 -75.5 -113.001c-13.333 -61.333 -7.83301 -108 16.5 -140s69.833 -48 136.5 -48c87.333 0 169.666 24.5 246.999 73.5
s123.666 109.167 138.999 180.5zM1275 1760h103.002c-22.667 -63.333 -56.834 -116.166 -102.501 -158.499s-95.834 -63.5 -150.501 -63.5c-16.667 0 -33 1.83301 -49 5.5s-38.667 10.167 -68 19.5l-49 21c-16.667 5.33301 -36.667 11.333 -60 18s-42.333 10 -57 10
c-26 0 -48.167 -7.83301 -66.5 -23.5s-35.166 -37.834 -50.499 -66.501h-99c22.667 65.333 55.667 118.5 99 159.5s97 61.5 161 61.5c23.333 0 45.333 -3 66 -9s43 -13.667 67 -23l42 -17c42.667 -19.333 73 -29 91 -29c35.333 0 63.666 11 84.999 33
c14 14 26.667 34.667 38 62zM1074 1475h98c-33.333 -97.333 -84.333 -169 -153 -215c-62 -42.667 -140 -64 -234 -64c-90 0 -155.667 22.5 -197 67.5s-57 115.5 -47 211.5h98c2.66699 -20.667 5 -35.667 7 -45c5.33301 -20.667 12.666 -38.667 21.999 -54
c13.333 -20 32.333 -35.833 57 -47.5s58.334 -17.5 101.001 -17.5c70.667 0 127.667 19 171 57c25.333 22 51 57.667 77 107z" />
    <glyph glyph-name="uni1EB6" unicode="&#x1eb6;" horiz-adv-x="1454" 
d="M1069 430h-590l-246 -430h-205l865 1470h225l221 -1470h-217zM579 606h455l-81 647zM699 -348h-180l44 205h180zM1291 1839l99.002 0.00390625c-33.333 -96.667 -84.333 -168.334 -153 -215.001c-62 -42 -140 -63 -234 -63c-90 0 -155.667 22.5 -197 67.5
s-57 115.167 -47 210.5h98c2.66699 -20.667 5 -35.667 7 -45c5.33301 -20.667 12.333 -38.334 21 -53.001c13.333 -20.667 32.5 -36.834 57.5 -48.501s58.5 -17.5 100.5 -17.5c71.333 0 128.666 19.333 171.999 58c25.333 21.333 50.666 56.666 75.999 105.999z" />
    <glyph glyph-name="uni1EB7" unicode="&#x1eb7;" horiz-adv-x="1175" 
d="M453 745l-168 0.00195312c26 123.333 86.333 215 181 275c87.333 54.667 200 82 338 82c87.333 0 160.333 -15 219 -45c101.333 -50.667 139.333 -135.334 114 -254.001l-131 -615c-8.66699 -43.333 7.33301 -65 48 -65l59 8l-28 -131l-51 -13
c-18 -4.66699 -35.333 -7 -52 -7c-72 0 -119.333 17 -142 51c-18 26 -21.667 63.333 -11 112c-58.667 -50 -113.667 -88 -165 -114c-83.333 -41.333 -170.666 -62 -261.999 -62c-98.667 0 -173.167 28.667 -223.5 86s-65.5 132.666 -45.5 225.999
c15.333 72 45.333 134 90 186c72.667 83.333 175.667 133 309 149l303 37c29.333 2.66699 52 11 68 25c25.333 20.667 43 54.667 53 102c24.667 117.333 -46.333 176 -213 176c-88.667 0 -158.667 -24.333 -210 -73c-30.667 -30 -57.334 -75.333 -80.001 -136zM866 373.002
l37 176c-18 -14 -47.167 -25.667 -87.5 -35s-109.166 -20.166 -206.499 -32.499s-166.166 -32.833 -206.499 -61.5s-65.5 -66.334 -75.5 -113.001c-13.333 -61.333 -7.83301 -108 16.5 -140s69.833 -48 136.5 -48c87.333 0 169.666 24.5 246.999 73.5
s123.666 109.167 138.999 180.5zM568 -343.998h-181l44 205h181zM1074 1475h98c-33.333 -97.333 -84.333 -169 -153 -215c-62 -42.667 -140 -64 -234 -64c-90 0 -155.667 22.5 -197 67.5s-57 115.5 -47 211.5h98c2.66699 -20.667 5 -35.667 7 -45
c5.33301 -20.667 12.666 -38.667 21.999 -54c13.333 -20 32.333 -35.833 57 -47.5s58.334 -17.5 101.001 -17.5c70.667 0 127.667 19 171 57c25.333 22 51 57.667 77 107z" />
    <glyph glyph-name="uni1EB8" unicode="&#x1eb8;" horiz-adv-x="1454" 
d="M1298 176l-37 -176h-1085l312 1470h1073l-37 -176h-872l-96 -450h803l-37 -176h-803l-105 -492h884zM700 -348h-180l44 205h180z" />
    <glyph glyph-name="uni1EB9" unicode="&#x1eb9;" 
d="M934 336h181.002c-16 -41.333 -41 -84.333 -75 -129c-51.333 -68.667 -111 -122.667 -179 -162c-42 -24.667 -78.333 -41.667 -109 -51c-56 -18 -122.333 -27 -199 -27c-147.333 0 -253.333 50.167 -318 150.5s-80 230.5 -46 390.5c38 177.333 109 318 213 422
c114 114.667 257 172 429 172c150 0 252.167 -55.667 306.5 -167s61.166 -263.333 20.499 -456h-782c-24 -113.333 -16.333 -200.333 23 -261s110.333 -91 213 -91c79.333 0 151.666 24.667 216.999 74c54.667 42 89.667 87 105 135zM406.002 623h598
c20 91.333 13 165 -21 221c-38 65.333 -108 98 -210 98c-82 0 -159.167 -32 -231.5 -96s-117.5 -138.333 -135.5 -223zM586.002 -344h-181l43 205h181z" />
    <glyph glyph-name="uni1EBA" unicode="&#x1eba;" horiz-adv-x="1454" 
d="M1298 176l-37 -176h-1085l312 1470h1073l-37 -176h-872l-96 -450h803l-37 -176h-803l-105 -492h884zM1072 1550l-116.002 0.000976562c11.333 52 25.666 93.333 42.999 124s48.333 59.667 93 87s70.667 58 78 92c6.66699 33.333 2.83398 57.166 -11.499 71.499
s-33.166 21.5 -56.499 21.5c-36.667 0 -64.5 -10.333 -83.5 -31s-31.5 -46 -37.5 -76l-132 -2c16 74 51.667 130 107 168c48.667 32.667 102.334 49 161.001 49c52 0 95.333 -10.333 130 -31c58 -34 79 -89 63 -165c-8 -36 -23 -66.167 -45 -90.5
s-56.167 -50.833 -102.5 -79.5s-76.5 -74.667 -90.5 -138z" />
    <glyph glyph-name="uni1EBB" unicode="&#x1ebb;" 
d="M934 336h181.002c-16 -41.333 -41 -84.333 -75 -129c-51.333 -68.667 -111 -122.667 -179 -162c-42 -24.667 -78.333 -41.667 -109 -51c-56 -18 -122.333 -27 -199 -27c-147.333 0 -253.333 50.167 -318 150.5s-80 230.5 -46 390.5c38 177.333 109 318 213 422
c114 114.667 257 172 429 172c150 0 252.167 -55.667 306.5 -167s61.166 -263.333 20.499 -456h-782c-24 -113.333 -16.333 -200.333 23 -261s110.333 -91 213 -91c79.333 0 151.666 24.667 216.999 74c54.667 42 89.667 87 105 135zM406.002 623h598
c20 91.333 13 165 -21 221c-38 65.333 -108 98 -210 98c-82 0 -159.167 -32 -231.5 -96s-117.5 -138.333 -135.5 -223zM879.002 1178h-121c10.667 47.333 23.667 83 39 107s45.833 50 91.5 78s72.167 59 79.5 93c6.66699 32.667 2.5 56.167 -12.5 70.5
s-34.167 21.5 -57.5 21.5c-36.667 0 -64.334 -10.167 -83.001 -30.5s-31 -45.5 -37 -75.5l-132 -2c15.333 73.333 51.333 129.333 108 168c47.333 32.667 100.333 49 159 49c52 0 95.667 -10.333 131 -31c58.667 -34 79.667 -89.333 63 -166
c-7.33301 -35.333 -22.166 -65.333 -44.499 -90s-56.5 -51.334 -102.5 -80.001c-24.667 -14.667 -42.667 -29.167 -54 -43.5s-20.333 -37.166 -27 -68.499z" />
    <glyph glyph-name="uni1EBC" unicode="&#x1ebc;" horiz-adv-x="1454" 
d="M1298 176l-37 -176h-1085l312 1470h1073l-37 -176h-872l-96 -450h803l-37 -176h-803l-105 -492h884zM1352 1880l102.999 0.00195312c-21.333 -64 -54.5 -117.5 -99.5 -160.5s-96.167 -64.5 -153.5 -64.5c-30 0 -67.667 9.33301 -113 28l-50 17
c-61.333 22 -101.333 33 -120 33c-26 0 -47.333 -7.16699 -64 -21.5s-33 -37.5 -49 -69.5h-99c24 67.333 55 118.666 93 153.999c44 42.667 99.333 64 166 64c23.333 0 45.833 -2.5 67.5 -7.5s43.834 -12.167 66.501 -21.5l41 -21
c14.667 -6.66699 31.167 -12.334 49.5 -17.001s31.5 -7 39.5 -7c35.333 0 63.333 10.333 84 31c13.333 13.333 26 34.333 38 63z" />
    <glyph glyph-name="uni1EBD" unicode="&#x1ebd;" 
d="M934 336h181.002c-16 -41.333 -41 -84.333 -75 -129c-51.333 -68.667 -111 -122.667 -179 -162c-42 -24.667 -78.333 -41.667 -109 -51c-56 -18 -122.333 -27 -199 -27c-147.333 0 -253.333 50.167 -318 150.5s-80 230.5 -46 390.5c38 177.333 109 318 213 422
c114 114.667 257 172 429 172c150 0 252.167 -55.667 306.5 -167s61.166 -263.333 20.499 -456h-782c-24 -113.333 -16.333 -200.333 23 -261s110.333 -91 213 -91c79.333 0 151.666 24.667 216.999 74c54.667 42 89.667 87 105 135zM406.002 623h598
c20 91.333 13 165 -21 221c-38 65.333 -108 98 -210 98c-82 0 -159.167 -32 -231.5 -96s-117.5 -138.333 -135.5 -223zM1130 1479h103.001c-22 -63.333 -55.833 -116.166 -101.5 -158.499s-95.834 -63.5 -150.501 -63.5c-16.667 0 -33 1.83301 -49 5.5
s-38.667 10.167 -68 19.5l-49 21c-16.667 5.33301 -36.667 11.333 -60 18s-42.333 10 -57 10c-26 0 -48.167 -7.83301 -66.5 -23.5s-35.166 -37.834 -50.499 -66.501h-99c22.667 65.333 55.667 118.5 99 159.5s97 61.5 161 61.5c23.333 0 45.333 -3 66 -9
s42.667 -13.667 66 -23l42 -17c43.333 -19.333 74 -29 92 -29c35.333 0 63.666 11 84.999 33c14 14 26.333 34.667 37 62z" />
    <glyph glyph-name="uni1EBE" unicode="&#x1ebe;" horiz-adv-x="1454" 
d="M1298 176l-37 -176h-1085l312 1470h1073l-37 -176h-872l-96 -450h803l-37 -176h-803l-105 -492h884zM1292 1845l242 291h221l-328 -291h-135zM1104 1810l-176 -192h-164l267 291h188l143 -291h-164z" />
    <glyph glyph-name="uni1EBF" unicode="&#x1ebf;" 
d="M934 336h181.002c-16 -41.333 -41 -84.333 -75 -129c-51.333 -68.667 -111 -122.667 -179 -162c-42 -24.667 -78.333 -41.667 -109 -51c-56 -18 -122.333 -27 -199 -27c-147.333 0 -253.333 50.167 -318 150.5s-80 230.5 -46 390.5c38 177.333 109 318 213 422
c114 114.667 257 172 429 172c150 0 252.167 -55.667 306.5 -167s61.166 -263.333 20.499 -456h-782c-24 -113.333 -16.333 -200.333 23 -261s110.333 -91 213 -91c79.333 0 151.666 24.667 216.999 74c54.667 42 89.667 87 105 135zM406.002 623h598
c20 91.333 13 165 -21 221c-38 65.333 -108 98 -210 98c-82 0 -159.167 -32 -231.5 -96s-117.5 -138.333 -135.5 -223zM1042 1418l241 286h226l-332 -286h-135zM846.002 1384l-175 -188h-160l262 287h192l140 -287h-164z" />
    <glyph glyph-name="uni1EC0" unicode="&#x1ec0;" horiz-adv-x="1454" 
d="M1298 176l-37 -176h-1085l312 1470h1073l-37 -176h-872l-96 -450h803l-37 -176h-803l-105 -492h884zM1336 1835l-204 291h221l118 -291h-135zM1104 1810l-176 -192h-164l267 291h188l143 -291h-164z" />
    <glyph glyph-name="uni1EC1" unicode="&#x1ec1;" 
d="M934 336h181.002c-16 -41.333 -41 -84.333 -75 -129c-51.333 -68.667 -111 -122.667 -179 -162c-42 -24.667 -78.333 -41.667 -109 -51c-56 -18 -122.333 -27 -199 -27c-147.333 0 -253.333 50.167 -318 150.5s-80 230.5 -46 390.5c38 177.333 109 318 213 422
c114 114.667 257 172 429 172c150 0 252.167 -55.667 306.5 -167s61.166 -263.333 20.499 -456h-782c-24 -113.333 -16.333 -200.333 23 -261s110.333 -91 213 -91c79.333 0 151.666 24.667 216.999 74c54.667 42 89.667 87 105 135zM406.002 623h598
c20 91.333 13 165 -21 221c-38 65.333 -108 98 -210 98c-82 0 -159.167 -32 -231.5 -96s-117.5 -138.333 -135.5 -223zM1085 1428l-210 286h225l121 -286h-136zM846.002 1384l-175 -188h-160l262 287h192l140 -287h-164z" />
    <glyph glyph-name="uni1EC2" unicode="&#x1ec2;" horiz-adv-x="1454" 
d="M1298 176l-37 -176h-1085l312 1470h1073l-37 -176h-872l-96 -450h803l-37 -176h-803l-105 -492h884zM1447 1801h-116c10.667 52 24.667 93.333 42 124s48.333 59.667 93 87s70.667 58 78 92c7.33301 33.333 3.66602 57.166 -11.001 71.5
c-14.667 14.333 -33.667 21.5 -57 21.5c-36.667 0 -64.334 -10.333 -83.001 -31s-31.334 -46 -38.001 -76l-131 -2c15.333 74 51 130 107 168c48 32.667 101.333 49 160 49c52 0 95.333 -10.333 130 -31c58.667 -34 79.667 -89 63 -165
c-7.33301 -36 -22.166 -66.167 -44.499 -90.5s-56.666 -50.833 -102.999 -79.5s-76.166 -74.667 -89.499 -138zM1104 1810l-176 -192h-164l267 291h188l143 -291h-164z" />
    <glyph glyph-name="uni1EC3" unicode="&#x1ec3;" 
d="M934 336h181.002c-16 -41.333 -41 -84.333 -75 -129c-51.333 -68.667 -111 -122.667 -179 -162c-42 -24.667 -78.333 -41.667 -109 -51c-56 -18 -122.333 -27 -199 -27c-147.333 0 -253.333 50.167 -318 150.5s-80 230.5 -46 390.5c38 177.333 109 318 213 422
c114 114.667 257 172 429 172c150 0 252.167 -55.667 306.5 -167s61.166 -263.333 20.499 -456h-782c-24 -113.333 -16.333 -200.333 23 -261s110.333 -91 213 -91c79.333 0 151.666 24.667 216.999 74c54.667 42 89.667 87 105 135zM406.002 623h598
c20 91.333 13 165 -21 221c-38 65.333 -108 98 -210 98c-82 0 -159.167 -32 -231.5 -96s-117.5 -138.333 -135.5 -223zM1163 1429h-120.999c10 47.333 22.667 83 38 107s45.833 50 91.5 78s72.167 59 79.5 93c6.66699 32.667 2.5 56.167 -12.5 70.5s-34.167 21.5 -57.5 21.5
c-36.667 0 -64.334 -10.167 -83.001 -30.5s-31 -45.5 -37 -75.5l-132 -2c16 73.333 52 129.333 108 168c48 32.667 101.333 49 160 49c52 0 95.333 -10.333 130 -31c58.667 -34 80 -89.333 64 -166c-8 -35.333 -23 -65.333 -45 -90s-56 -51.334 -102 -80.001
c-25.333 -14.667 -43.5 -29.167 -54.5 -43.5s-19.833 -37.166 -26.5 -68.499zM846.003 1384l-175 -188h-160l262 287h192l140 -287h-164z" />
    <glyph glyph-name="uni1EC4" unicode="&#x1ec4;" horiz-adv-x="1454" 
d="M1298 176l-37 -176h-1085l312 1470h1073l-37 -176h-872l-96 -450h803l-37 -176h-803l-105 -492h884zM1503 2171l103.001 0.000976562c-20.667 -64 -53.5 -117.5 -98.5 -160.5s-96.167 -64.5 -153.5 -64.5c-30 0 -67.667 9.33301 -113 28l-50 17
c-61.333 22 -101.333 33 -120 33c-26 0 -47.333 -7.16699 -64 -21.5s-33 -37.5 -49 -69.5h-99c24 67.333 55 118.666 93 153.999c44 42.667 99.333 64 166 64c23.333 0 45.833 -2.5 67.5 -7.5s43.834 -12.167 66.501 -21.5l41 -21c14 -6.66699 30.167 -12.334 48.5 -17
c18.333 -4.66699 31.5 -7 39.5 -7c35.333 0 63.666 10.333 84.999 31c13.333 13.333 25.666 34.333 36.999 63zM1104 1810l-176 -192h-164l267 291h188l143 -291h-164z" />
    <glyph glyph-name="uni1EC5" unicode="&#x1ec5;" 
d="M934 336h181.002c-16 -41.333 -41 -84.333 -75 -129c-51.333 -68.667 -111 -122.667 -179 -162c-42 -24.667 -78.333 -41.667 -109 -51c-56 -18 -122.333 -27 -199 -27c-147.333 0 -253.333 50.167 -318 150.5s-80 230.5 -46 390.5c38 177.333 109 318 213 422
c114 114.667 257 172 429 172c150 0 252.167 -55.667 306.5 -167s61.166 -263.333 20.499 -456h-782c-24 -113.333 -16.333 -200.333 23 -261s110.333 -91 213 -91c79.333 0 151.666 24.667 216.999 74c54.667 42 89.667 87 105 135zM406.002 623h598
c20 91.333 13 165 -21 221c-38 65.333 -108 98 -210 98c-82 0 -159.167 -32 -231.5 -96s-117.5 -138.333 -135.5 -223zM1246 1740h103.001c-22 -63.333 -55.833 -116.166 -101.5 -158.499s-95.834 -63.5 -150.501 -63.5c-16.667 0 -33.167 1.83301 -49.5 5.5
s-39.166 10.167 -68.499 19.5l-49 21c-16.667 5.33301 -36.667 11.333 -60 18s-42.333 10 -57 10c-26 0 -48.167 -7.83301 -66.5 -23.5s-35.166 -37.834 -50.499 -66.501h-99c22.667 65.333 55.667 118.5 99 159.5s97 61.5 161 61.5c23.333 0 45.333 -3 66 -9
s42.667 -13.667 66 -23l43 -17c43.333 -19.333 74 -29 92 -29c35.333 0 63.666 11 84.999 33c13.333 14 25.666 34.667 36.999 62zM846.003 1384l-175 -188h-160l262 287h192l140 -287h-164z" />
    <glyph glyph-name="uni1EC6" unicode="&#x1ec6;" horiz-adv-x="1454" 
d="M1298 176l-37 -176h-1085l312 1470h1073l-37 -176h-872l-96 -450h803l-37 -176h-803l-105 -492h884zM700 -348h-180l44 205h180zM1104 1810l-176 -192h-164l267 291h188l143 -291h-164z" />
    <glyph glyph-name="uni1EC7" unicode="&#x1ec7;" 
d="M934 336h181.002c-16 -41.333 -41 -84.333 -75 -129c-51.333 -68.667 -111 -122.667 -179 -162c-42 -24.667 -78.333 -41.667 -109 -51c-56 -18 -122.333 -27 -199 -27c-147.333 0 -253.333 50.167 -318 150.5s-80 230.5 -46 390.5c38 177.333 109 318 213 422
c114 114.667 257 172 429 172c150 0 252.167 -55.667 306.5 -167s61.166 -263.333 20.499 -456h-782c-24 -113.333 -16.333 -200.333 23 -261s110.333 -91 213 -91c79.333 0 151.666 24.667 216.999 74c54.667 42 89.667 87 105 135zM406.002 623h598
c20 91.333 13 165 -21 221c-38 65.333 -108 98 -210 98c-82 0 -159.167 -32 -231.5 -96s-117.5 -138.333 -135.5 -223zM586.002 -344h-181l43 205h181zM846.002 1384l-175 -188h-160l262 287h192l140 -287h-164z" />
    <glyph glyph-name="uni1EC8" unicode="&#x1ec8;" horiz-adv-x="602" 
d="M697 1470l-312 -1470h-196l312 1470h196zM671 1550l-117.001 0.000976562c11.333 52 25.833 93.333 43.5 124s48.667 59.667 93 87s70.166 58 77.499 92c6.66699 33.333 2.83398 57.166 -11.499 71.499s-33.166 21.5 -56.499 21.5c-36.667 0 -64.5 -10.333 -83.5 -31
s-31.5 -46 -37.5 -76l-132 -2c16 74 52 130 108 168c48 32.667 101.333 49 160 49c52 0 95.333 -10.333 130 -31c58.667 -34 80 -89 64 -165c-8 -36 -23 -66.167 -45 -90.5s-56.167 -50.833 -102.5 -79.5s-76.5 -74.667 -90.5 -138z" />
    <glyph glyph-name="uni1EC9" unicode="&#x1ec9;" horiz-adv-x="487" 
d="M547 1073l-228 -1073h-180l228 1073h180zM538 1178h-120.999c10 47.333 22.833 83 38.5 107s46.167 50 91.5 78s71.333 59 78 93c7.33301 32.667 3.66602 56.167 -11.001 70.5s-33.667 21.5 -57 21.5c-36.667 0 -64.334 -10.167 -83.001 -30.5s-31 -45.5 -37 -75.5
l-132 -2c15.333 73.333 51.333 129.333 108 168c47.333 32.667 100.333 49 159 49c52 0 95.667 -10.333 131 -31c58.667 -34 79.667 -89.333 63 -166c-7.33301 -35.333 -22.166 -65.333 -44.499 -90s-56.5 -51.334 -102.5 -80.001
c-24.667 -14.667 -42.667 -29.167 -54 -43.5s-20.333 -37.166 -27 -68.499z" />
    <glyph glyph-name="uni1ECA" unicode="&#x1eca;" horiz-adv-x="602" 
d="M697 1470l-312 -1470h-197l312 1470h197zM298 -348h-180l44 205h180z" />
    <glyph glyph-name="uni1ECB" unicode="&#x1ecb;" horiz-adv-x="487" 
d="M552 1073l-228 -1073h-181l228 1073h181zM588 1266h-180l44 204h180zM251 -344h-181l44 205h181z" />
    <glyph glyph-name="uni1ECC" unicode="&#x1ecc;" horiz-adv-x="1572" 
d="M1480 737c37.333 176 22.6689 318.667 -43.998 428c-70.667 113.333 -184.334 170 -341.001 170c-156 0 -292.333 -56 -409 -168s-193.334 -255.333 -230.001 -430c-38 -177.333 -23 -321.333 45 -432s181.333 -166 340 -166c156.667 0 293 55.667 409 167
s192.667 255 230 431zM1685 737c-42 -198 -128.666 -367.333 -259.999 -508c-166.667 -180 -374.334 -270 -623.001 -270c-247.333 0 -416 89.333 -506 268c-72 143.333 -87 313.333 -45 510c41.333 195.333 127.666 363.333 258.999 504
c167.333 180 374.666 270 621.999 270c246.667 0 415.334 -89.333 506.001 -268c72.667 -142 88.334 -310.667 47.001 -506zM827.004 -348h-180l44 205h180z" />
    <glyph glyph-name="uni1ECD" unicode="&#x1ecd;" horiz-adv-x="1179" 
d="M187 537c32.667 154 99.6699 283 201.003 387c115.333 118.667 253.666 178 414.999 178c160.667 0 274 -59.333 340 -178c58.667 -105.333 71.667 -234.333 39 -387c-32.667 -152 -100.334 -280.333 -203.001 -385c-116.667 -120.667 -255.334 -181 -416.001 -181
c-160 0 -272.333 59.667 -337 179c-58.667 104.667 -71.667 233.667 -39 387zM371.003 537c-21.333 -101.333 -20.3311 -187.332 3.00195 -257.999c33.333 -101.333 107.333 -152 222 -152c113.333 0 207.666 49.667 282.999 149c55.333 72.667 93.666 159.667 114.999 261
c21.333 100.667 20.666 186.667 -2.00098 258c-33.333 100.667 -107.333 151 -222 151c-113.333 0 -208 -49.667 -284 -149c-55.333 -72.667 -93.666 -159.334 -114.999 -260.001zM588.005 -343.999h-180l43 205h180z" />
    <glyph glyph-name="uni1ECE" unicode="&#x1ece;" horiz-adv-x="1572" 
d="M1480 737c37.333 176 22.6689 318.667 -43.998 428c-70.667 113.333 -184.334 170 -341.001 170c-156 0 -292.333 -56 -409 -168s-193.334 -255.333 -230.001 -430c-38 -177.333 -23 -321.333 45 -432s181.333 -166 340 -166c156.667 0 293 55.667 409 167
s192.667 255 230 431zM1685 737c-42 -198 -128.666 -367.333 -259.999 -508c-166.667 -180 -374.334 -270 -623.001 -270c-247.333 0 -416 89.333 -506 268c-72 143.333 -87 313.333 -45 510c41.333 195.333 127.666 363.333 258.999 504
c167.333 180 374.666 270 621.999 270c246.667 0 415.334 -89.333 506.001 -268c72.667 -142 88.334 -310.667 47.001 -506zM1203 1580l-117.001 0.000976562c10.667 52 24.834 93.333 42.501 124s48.834 59.667 93.501 87s70.667 58 78 92
c7.33301 33.333 3.66602 57.166 -11.001 71.499s-33.667 21.5 -57 21.5c-36.667 0 -64.334 -10.333 -83.001 -31s-31.334 -46 -38.001 -76l-132 -2c15.333 74 51.333 130 108 168c48 32.667 101.333 49 160 49c51.333 0 94.666 -10.333 129.999 -31
c58.667 -34 79.667 -89 63 -165c-7.33301 -36 -22.166 -66.167 -44.499 -90.5s-56.666 -50.833 -102.999 -79.5s-76.166 -74.667 -89.499 -138z" />
    <glyph glyph-name="uni1ECF" unicode="&#x1ecf;" horiz-adv-x="1179" 
d="M187 537c32.667 154 99.6699 283 201.003 387c115.333 118.667 253.666 178 414.999 178c160.667 0 274 -59.333 340 -178c58.667 -105.333 71.667 -234.333 39 -387c-32.667 -152 -100.334 -280.333 -203.001 -385c-116.667 -120.667 -255.334 -181 -416.001 -181
c-160 0 -272.333 59.667 -337 179c-58.667 104.667 -71.667 233.667 -39 387zM371.003 537c-21.333 -101.333 -20.3311 -187.332 3.00195 -257.999c33.333 -101.333 107.333 -152 222 -152c113.333 0 207.666 49.667 282.999 149c55.333 72.667 93.666 159.667 114.999 261
c21.333 100.667 20.666 186.667 -2.00098 258c-33.333 100.667 -107.333 151 -222 151c-113.333 0 -208 -49.667 -284 -149c-55.333 -72.667 -93.666 -159.334 -114.999 -260.001zM879.005 1178h-120.997c10 47.333 22.833 83 38.5 107s46.167 50 91.5 78
s71.666 59 78.999 93c7.33301 32.667 3.5 56.167 -11.5 70.5s-34.167 21.5 -57.5 21.5c-36.667 0 -64.334 -10.167 -83.001 -30.5s-31.334 -45.5 -38.001 -75.5l-131 -2c15.333 73.333 51.333 129.333 108 168c47.333 32.667 100.333 49 159 49c52 0 95.333 -10.333 130 -31
c59.333 -34 80.666 -89.333 63.999 -166c-7.33301 -35.333 -22.166 -65.333 -44.499 -90s-56.5 -51.334 -102.5 -80.001c-25.333 -14.667 -43.5 -29.167 -54.5 -43.5s-19.833 -37.166 -26.5 -68.499z" />
    <glyph glyph-name="uni1ED0" unicode="&#x1ed0;" horiz-adv-x="1572" 
d="M1480 737c37.333 176 22.6689 318.667 -43.998 428c-70.667 113.333 -184.334 170 -341.001 170c-156 0 -292.333 -56 -409 -168s-193.334 -255.333 -230.001 -430c-38 -177.333 -23 -321.333 45 -432s181.333 -166 340 -166c156.667 0 293 55.667 409 167
s192.667 255 230 431zM1685 737c-42 -198 -128.666 -367.333 -259.999 -508c-166.667 -180 -374.334 -270 -623.001 -270c-247.333 0 -416 89.333 -506 268c-72 143.333 -87 313.333 -45 510c41.333 195.333 127.666 363.333 258.999 504
c167.333 180 374.666 270 621.999 270c246.667 0 415.334 -89.333 506.001 -268c72.667 -142 88.334 -310.667 47.001 -506zM1381 1835l242 291h221l-328 -291h-135zM1196 1810l-176 -192h-164l267 291h188l143 -291h-164z" />
    <glyph glyph-name="uni1ED1" unicode="&#x1ed1;" horiz-adv-x="1179" 
d="M187 537c32.667 154 99.6699 283 201.003 387c115.333 118.667 253.666 178 414.999 178c160.667 0 274 -59.333 340 -178c58.667 -105.333 71.667 -234.333 39 -387c-32.667 -152 -100.334 -280.333 -203.001 -385c-116.667 -120.667 -255.334 -181 -416.001 -181
c-160 0 -272.333 59.667 -337 179c-58.667 104.667 -71.667 233.667 -39 387zM371.003 537c-21.333 -101.333 -20.3311 -187.332 3.00195 -257.999c33.333 -101.333 107.333 -152 222 -152c113.333 0 207.666 49.667 282.999 149c55.333 72.667 93.666 159.667 114.999 261
c21.333 100.667 20.666 186.667 -2.00098 258c-33.333 100.667 -107.333 151 -222 151c-113.333 0 -208 -49.667 -284 -149c-55.333 -72.667 -93.666 -159.334 -114.999 -260.001zM1053 1418l241 286h226l-332 -286h-135zM863.005 1384l-175 -188h-160l262 287h193l139 -287
h-163z" />
    <glyph glyph-name="uni1ED2" unicode="&#x1ed2;" horiz-adv-x="1572" 
d="M1480 737c37.333 176 22.6689 318.667 -43.998 428c-70.667 113.333 -184.334 170 -341.001 170c-156 0 -292.333 -56 -409 -168s-193.334 -255.333 -230.001 -430c-38 -177.333 -23 -321.333 45 -432s181.333 -166 340 -166c156.667 0 293 55.667 409 167
s192.667 255 230 431zM1685 737c-42 -198 -128.666 -367.333 -259.999 -508c-166.667 -180 -374.334 -270 -623.001 -270c-247.333 0 -416 89.333 -506 268c-72 143.333 -87 313.333 -45 510c41.333 195.333 127.666 363.333 258.999 504
c167.333 180 374.666 270 621.999 270c246.667 0 415.334 -89.333 506.001 -268c72.667 -142 88.334 -310.667 47.001 -506zM1422 1815l-204 291h221l118 -291h-135zM1196 1810l-176 -192h-164l267 291h188l143 -291h-164z" />
    <glyph glyph-name="uni1ED3" unicode="&#x1ed3;" horiz-adv-x="1179" 
d="M187 537c32.667 154 99.6699 283 201.003 387c115.333 118.667 253.666 178 414.999 178c160.667 0 274 -59.333 340 -178c58.667 -105.333 71.667 -234.333 39 -387c-32.667 -152 -100.334 -280.333 -203.001 -385c-116.667 -120.667 -255.334 -181 -416.001 -181
c-160 0 -272.333 59.667 -337 179c-58.667 104.667 -71.667 233.667 -39 387zM371.003 537c-21.333 -101.333 -20.3311 -187.332 3.00195 -257.999c33.333 -101.333 107.333 -152 222 -152c113.333 0 207.666 49.667 282.999 149c55.333 72.667 93.666 159.667 114.999 261
c21.333 100.667 20.666 186.667 -2.00098 258c-33.333 100.667 -107.333 151 -222 151c-113.333 0 -208 -49.667 -284 -149c-55.333 -72.667 -93.666 -159.334 -114.999 -260.001zM1123 1418l-209 286h225l120 -286h-136zM863.005 1384l-175 -188h-160l262 287h193l139 -287
h-163z" />
    <glyph glyph-name="uni1ED4" unicode="&#x1ed4;" horiz-adv-x="1572" 
d="M1480 737c37.333 176 22.6689 318.667 -43.998 428c-70.667 113.333 -184.334 170 -341.001 170c-156 0 -292.333 -56 -409 -168s-193.334 -255.333 -230.001 -430c-38 -177.333 -23 -321.333 45 -432s181.333 -166 340 -166c156.667 0 293 55.667 409 167
s192.667 255 230 431zM1685 737c-42 -198 -128.666 -367.333 -259.999 -508c-166.667 -180 -374.334 -270 -623.001 -270c-247.333 0 -416 89.333 -506 268c-72 143.333 -87 313.333 -45 510c41.333 195.333 127.666 363.333 258.999 504
c167.333 180 374.666 270 621.999 270c246.667 0 415.334 -89.333 506.001 -268c72.667 -142 88.334 -310.667 47.001 -506zM1513 1811h-116.999c11.333 52 25.666 93.333 42.999 124s48.5 59.667 93.5 87s70.833 58 77.5 92c7.33301 33.333 3.66602 57.166 -11.001 71.5
c-14.667 14.333 -33.667 21.5 -57 21.5c-36.667 0 -64.334 -10.333 -83.001 -31s-31.334 -46 -38.001 -76l-132 -2c16 74 52 130 108 168c48 32.667 101.333 49 160 49c51.333 0 95 -10.333 131 -31c58 -34 78.667 -89 62 -165c-7.33301 -36 -22.166 -66.167 -44.499 -90.5
s-56.666 -50.833 -102.999 -79.5s-76.166 -74.667 -89.499 -138zM1196 1810l-176 -192h-164l267 291h188l143 -291h-164z" />
    <glyph glyph-name="uni1ED5" unicode="&#x1ed5;" horiz-adv-x="1179" 
d="M187 537c32.667 154 99.6699 283 201.003 387c115.333 118.667 253.666 178 414.999 178c160.667 0 274 -59.333 340 -178c58.667 -105.333 71.667 -234.333 39 -387c-32.667 -152 -100.334 -280.333 -203.001 -385c-116.667 -120.667 -255.334 -181 -416.001 -181
c-160 0 -272.333 59.667 -337 179c-58.667 104.667 -71.667 233.667 -39 387zM371.003 537c-21.333 -101.333 -20.3311 -187.332 3.00195 -257.999c33.333 -101.333 107.333 -152 222 -152c113.333 0 207.666 49.667 282.999 149c55.333 72.667 93.666 159.667 114.999 261
c21.333 100.667 20.666 186.667 -2.00098 258c-33.333 100.667 -107.333 151 -222 151c-113.333 0 -208 -49.667 -284 -149c-55.333 -72.667 -93.666 -159.334 -114.999 -260.001zM1189 1409h-120.997c10 47.333 22.833 83 38.5 107s46.167 50 91.5 78s71.666 59 78.999 93
c7.33301 32.667 3.5 56.167 -11.5 70.5s-34.167 21.5 -57.5 21.5c-36.667 0 -64.334 -10.167 -83.001 -30.5s-31.334 -45.5 -38.001 -75.5l-131 -2c15.333 73.333 51.333 129.333 108 168c47.333 32.667 100.333 49 159 49c52 0 95.333 -10.333 130 -31
c59.333 -34 80.666 -89.333 63.999 -166c-7.33301 -35.333 -22.166 -65.333 -44.499 -90s-56.5 -51.334 -102.5 -80.001c-25.333 -14.667 -43.5 -29.167 -54.5 -43.5s-19.833 -37.166 -26.5 -68.499zM863.008 1384l-175 -188h-160l262 287h193l139 -287h-163z" />
    <glyph glyph-name="uni1ED6" unicode="&#x1ed6;" horiz-adv-x="1572" 
d="M1480 737c37.333 176 22.6689 318.667 -43.998 428c-70.667 113.333 -184.334 170 -341.001 170c-156 0 -292.333 -56 -409 -168s-193.334 -255.333 -230.001 -430c-38 -177.333 -23 -321.333 45 -432s181.333 -166 340 -166c156.667 0 293 55.667 409 167
s192.667 255 230 431zM1685 737c-42 -198 -128.666 -367.333 -259.999 -508c-166.667 -180 -374.334 -270 -623.001 -270c-247.333 0 -416 89.333 -506 268c-72 143.333 -87 313.333 -45 510c41.333 195.333 127.666 363.333 258.999 504
c167.333 180 374.666 270 621.999 270c246.667 0 415.334 -89.333 506.001 -268c72.667 -142 88.334 -310.667 47.001 -506zM1594 2151l102 0.000976562c-20 -64 -52.833 -117.5 -98.5 -160.5s-97.167 -64.5 -154.5 -64.5c-30 0 -67.667 9.33301 -113 28l-49 17
c-60.667 22 -100.667 33 -120 33c-26 0 -47.333 -7.16699 -64 -21.5s-33 -37.5 -49 -69.5h-98c23.333 67.333 53.666 118.666 90.999 153.999c44.667 42.667 100.667 64 168 64c22.667 0 44.834 -2.5 66.501 -7.5s43.834 -12.167 66.501 -21.5l40 -21
c15.333 -6.66699 32 -12.334 50 -17c18 -4.66699 31 -7 39 -7c35.333 0 63.666 10.333 84.999 31c13.333 13.333 26 34.333 38 63zM1196 1810l-176 -192h-164l267 291h188l143 -291h-164z" />
    <glyph glyph-name="uni1ED7" unicode="&#x1ed7;" horiz-adv-x="1179" 
d="M187 537c32.667 154 99.6699 283 201.003 387c115.333 118.667 253.666 178 414.999 178c160.667 0 274 -59.333 340 -178c58.667 -105.333 71.667 -234.333 39 -387c-32.667 -152 -100.334 -280.333 -203.001 -385c-116.667 -120.667 -255.334 -181 -416.001 -181
c-160 0 -272.333 59.667 -337 179c-58.667 104.667 -71.667 233.667 -39 387zM371.003 537c-21.333 -101.333 -20.3311 -187.332 3.00195 -257.999c33.333 -101.333 107.333 -152 222 -152c113.333 0 207.666 49.667 282.999 149c55.333 72.667 93.666 159.667 114.999 261
c21.333 100.667 20.666 186.667 -2.00098 258c-33.333 100.667 -107.333 151 -222 151c-113.333 0 -208 -49.667 -284 -149c-55.333 -72.667 -93.666 -159.334 -114.999 -260.001zM1271 1760h103.001c-22 -63.333 -55.833 -116.166 -101.5 -158.499
s-95.834 -63.5 -150.501 -63.5c-16.667 0 -33.167 1.83301 -49.5 5.5s-39.166 10.167 -68.499 19.5l-49 21c-16.667 5.33301 -36.667 11.333 -60 18s-42.333 10 -57 10c-26 0 -48.167 -7.83301 -66.5 -23.5s-35.166 -37.834 -50.499 -66.501h-99
c22.667 65.333 55.667 118.5 99 159.5s97 61.5 161 61.5c23.333 0 45.333 -3 66 -9s42.667 -13.667 66 -23l43 -17c43.333 -19.333 74 -29 92 -29c35.333 0 63.666 11 84.999 33c13.333 14 25.666 34.667 36.999 62zM863.006 1384l-175 -188h-160l262 287h193l139 -287h-163
z" />
    <glyph glyph-name="uni1ED8" unicode="&#x1ed8;" horiz-adv-x="1572" 
d="M1480 737c37.333 176 22.6689 318.667 -43.998 428c-70.667 113.333 -184.334 170 -341.001 170c-156 0 -292.333 -56 -409 -168s-193.334 -255.333 -230.001 -430c-38 -177.333 -23 -321.333 45 -432s181.333 -166 340 -166c156.667 0 293 55.667 409 167
s192.667 255 230 431zM1685 737c-42 -198 -128.666 -367.333 -259.999 -508c-166.667 -180 -374.334 -270 -623.001 -270c-247.333 0 -416 89.333 -506 268c-72 143.333 -87 313.333 -45 510c41.333 195.333 127.666 363.333 258.999 504
c167.333 180 374.666 270 621.999 270c246.667 0 415.334 -89.333 506.001 -268c72.667 -142 88.334 -310.667 47.001 -506zM827.004 -348h-180l44 205h180zM1196 1810l-176 -192h-164l267 291h188l143 -291h-164z" />
    <glyph glyph-name="uni1ED9" unicode="&#x1ed9;" horiz-adv-x="1179" 
d="M187 537c32.667 154 99.6699 283 201.003 387c115.333 118.667 253.666 178 414.999 178c160.667 0 274 -59.333 340 -178c58.667 -105.333 71.667 -234.333 39 -387c-32.667 -152 -100.334 -280.333 -203.001 -385c-116.667 -120.667 -255.334 -181 -416.001 -181
c-160 0 -272.333 59.667 -337 179c-58.667 104.667 -71.667 233.667 -39 387zM371.003 537c-21.333 -101.333 -20.3311 -187.332 3.00195 -257.999c33.333 -101.333 107.333 -152 222 -152c113.333 0 207.666 49.667 282.999 149c55.333 72.667 93.666 159.667 114.999 261
c21.333 100.667 20.666 186.667 -2.00098 258c-33.333 100.667 -107.333 151 -222 151c-113.333 0 -208 -49.667 -284 -149c-55.333 -72.667 -93.666 -159.334 -114.999 -260.001zM588.005 -343.999h-180l43 205h180zM863.005 1384l-175 -188h-160l262 287h193l139 -287
h-163z" />
    <glyph glyph-name="uni1EDA" unicode="&#x1eda;" horiz-adv-x="1572" 
d="M1480 737c37.333 176 22.6689 318.667 -43.998 428c-70.667 113.333 -184.334 170 -341.001 170c-156 0 -292.333 -56 -409 -168s-193.334 -255.333 -230.001 -430c-38 -177.333 -23 -321.333 45 -432s181.333 -166 340 -166c156.667 0 293 55.667 409 167
s192.667 255 230 431zM1003 1614l242 291h221l-328 -291h-135zM1526 1376c85.333 -72 140.338 -172.331 165.005 -300.998c21.333 -106.667 19.333 -219.334 -6 -338.001c-42 -198 -128.667 -367.333 -260 -508c-166.667 -180 -374.334 -270 -623.001 -270
c-247.333 0 -416 89.333 -506 268c-72 143.333 -87 313.333 -45 510c41.333 195.333 127.666 363.333 258.999 504c167.333 180 374.666 270 621.999 270c68 0 129.5 -7.16699 184.5 -21.5s104.833 -35.833 149.5 -64.5c8 1.33301 23.667 9.66602 47 24.999s39 26.333 47 33
c21.333 16 37.166 33.667 47.499 53s18.166 41.333 23.499 66h-115l27 127h197l-39 -181c-8 -38 -36.667 -77.333 -86 -118c-36 -26 -65.667 -44 -89 -54z" />
    <glyph glyph-name="uni1EDB" unicode="&#x1edb;" horiz-adv-x="1179" 
d="M709 1217l241 286h226l-332 -286h-135zM1113 979c7.33301 1.33301 20.0029 8.83398 38.0029 22.501s32.667 25.167 44 34.5c21.333 16.667 37 34.5 47 53.5s17.667 40.833 23 65.5h-115l27 127h197l-38 -180c-8 -38.667 -36.667 -78.334 -86 -119.001l-53.5 -39.5
c-17 -13 -31.167 -21.5 -42.5 -25.5c26 -50.667 41 -109.5 45 -176.5s-1.33301 -135.167 -16 -204.5c-32.667 -152 -100.334 -280.333 -203.001 -385c-116.667 -120.667 -255.334 -181 -416.001 -181c-160 0 -272.333 59.667 -337 179
c-58.667 104.667 -71.667 233.667 -39 387c32.667 154 99.667 283 201 387c115.333 118.667 253.666 178 414.999 178c142 0 245 -41 309 -123zM372.003 537.001c-21.333 -101.333 -20.3311 -187.332 3.00195 -257.999c33.333 -101.333 107.333 -152 222 -152
c113.333 0 207.666 49.667 282.999 149c55.333 72.667 93.666 159.667 114.999 261c21.333 100.667 20.666 186.667 -2.00098 258c-33.333 100.667 -107.333 151 -222 151c-113.333 0 -208 -49.667 -284 -149c-55.333 -72.667 -93.666 -159.334 -114.999 -260.001z" />
    <glyph glyph-name="uni1EDC" unicode="&#x1edc;" horiz-adv-x="1572" 
d="M1480 737c37.333 176 22.6689 318.667 -43.998 428c-70.667 113.333 -184.334 170 -341.001 170c-156 0 -292.333 -56 -409 -168s-193.334 -255.333 -230.001 -430c-38 -177.333 -23 -321.333 45 -432s181.333 -166 340 -166c156.667 0 293 55.667 409 167
s192.667 255 230 431zM1128 1614l-204 291h221l118 -291h-135zM1526 1376c85.333 -72 140.338 -172.331 165.005 -300.998c21.333 -106.667 19.333 -219.334 -6 -338.001c-42 -198 -128.667 -367.333 -260 -508c-166.667 -180 -374.334 -270 -623.001 -270
c-247.333 0 -416 89.333 -506 268c-72 143.333 -87 313.333 -45 510c41.333 195.333 127.666 363.333 258.999 504c167.333 180 374.666 270 621.999 270c68 0 129.5 -7.16699 184.5 -21.5s104.833 -35.833 149.5 -64.5c8 1.33301 23.667 9.66602 47 24.999s39 26.333 47 33
c21.333 16 37.166 33.667 47.499 53s18.166 41.333 23.499 66h-115l27 127h197l-39 -181c-8 -38 -36.667 -77.333 -86 -118c-36 -26 -65.667 -44 -89 -54z" />
    <glyph glyph-name="uni1EDD" unicode="&#x1edd;" horiz-adv-x="1179" 
d="M780 1217l-210 286h226l119 -286h-135zM1113 979c7.33301 1.33301 20.0029 8.83398 38.0029 22.501s32.667 25.167 44 34.5c21.333 16.667 37 34.5 47 53.5s17.667 40.833 23 65.5h-115l27 127h197l-38 -180c-8 -38.667 -36.667 -78.334 -86 -119.001l-53.5 -39.5
c-17 -13 -31.167 -21.5 -42.5 -25.5c26 -50.667 41 -109.5 45 -176.5s-1.33301 -135.167 -16 -204.5c-32.667 -152 -100.334 -280.333 -203.001 -385c-116.667 -120.667 -255.334 -181 -416.001 -181c-160 0 -272.333 59.667 -337 179
c-58.667 104.667 -71.667 233.667 -39 387c32.667 154 99.667 283 201 387c115.333 118.667 253.666 178 414.999 178c142 0 245 -41 309 -123zM372.003 537.001c-21.333 -101.333 -20.3311 -187.332 3.00195 -257.999c33.333 -101.333 107.333 -152 222 -152
c113.333 0 207.666 49.667 282.999 149c55.333 72.667 93.666 159.667 114.999 261c21.333 100.667 20.666 186.667 -2.00098 258c-33.333 100.667 -107.333 151 -222 151c-113.333 0 -208 -49.667 -284 -149c-55.333 -72.667 -93.666 -159.334 -114.999 -260.001z" />
    <glyph glyph-name="uni1EDE" unicode="&#x1ede;" horiz-adv-x="1572" 
d="M1480 737c37.333 176 22.6689 318.667 -43.998 428c-70.667 113.333 -184.334 170 -341.001 170c-156 0 -292.333 -56 -409 -168s-193.334 -255.333 -230.001 -430c-38 -177.333 -23 -321.333 45 -432s181.333 -166 340 -166c156.667 0 293 55.667 409 167
s192.667 255 230 431zM1203 1580l-117.001 0.000976562c10.667 52 24.834 93.333 42.501 124s48.834 59.667 93.501 87s70.667 58 78 92c7.33301 33.333 3.66602 57.166 -11.001 71.499s-33.667 21.5 -57 21.5c-36.667 0 -64.334 -10.333 -83.001 -31
s-31.334 -46 -38.001 -76l-132 -2c15.333 74 51.333 130 108 168c48 32.667 101.333 49 160 49c51.333 0 94.666 -10.333 129.999 -31c58.667 -34 79.667 -89 63 -165c-7.33301 -36 -22.166 -66.167 -44.499 -90.5s-56.666 -50.833 -102.999 -79.5
s-76.166 -74.667 -89.499 -138zM1526 1376c85.333 -72 140.338 -172.331 165.005 -300.998c21.333 -106.667 19.333 -219.334 -6 -338.001c-42 -198 -128.667 -367.333 -260 -508c-166.667 -180 -374.334 -270 -623.001 -270c-247.333 0 -416 89.333 -506 268
c-72 143.333 -87 313.333 -45 510c41.333 195.333 127.666 363.333 258.999 504c167.333 180 374.666 270 621.999 270c68 0 129.5 -7.16699 184.5 -21.5s104.833 -35.833 149.5 -64.5c8 1.33301 23.667 9.66602 47 24.999s39 26.333 47 33
c21.333 16 37.166 33.667 47.499 53s18.166 41.333 23.499 66h-115l27 127h197l-39 -181c-8 -38 -36.667 -77.333 -86 -118c-36 -26 -65.667 -44 -89 -54z" />
    <glyph glyph-name="uni1EDF" unicode="&#x1edf;" horiz-adv-x="1179" 
d="M879 1178h-120.996c10 47.333 22.833 83 38.5 107s46.167 50 91.5 78s71.666 59 78.999 93c7.33301 32.667 3.66602 56.167 -11.001 70.5s-33.667 21.5 -57 21.5c-37.333 0 -65.333 -10.167 -84 -30.5s-31.334 -45.5 -38.001 -75.5l-131 -2
c15.333 73.333 51.333 129.333 108 168c47.333 32.667 100.666 49 159.999 49c51.333 0 94.666 -10.333 129.999 -31c58.667 -34 79.667 -89.333 63 -166c-7.33301 -35.333 -22.166 -65.333 -44.499 -90s-56.5 -51.334 -102.5 -80.001
c-24.667 -14.667 -42.667 -29.167 -54 -43.5s-20.333 -37.166 -27 -68.499zM1113 979c7.33301 1.33301 20.0029 8.83398 38.0029 22.501s32.667 25.167 44 34.5c21.333 16.667 37 34.5 47 53.5s17.667 40.833 23 65.5h-115l27 127h197l-38 -180
c-8 -38.667 -36.667 -78.334 -86 -119.001l-53.5 -39.5c-17 -13 -31.167 -21.5 -42.5 -25.5c26 -50.667 41 -109.5 45 -176.5s-1.33301 -135.167 -16 -204.5c-32.667 -152 -100.334 -280.333 -203.001 -385c-116.667 -120.667 -255.334 -181 -416.001 -181
c-160 0 -272.333 59.667 -337 179c-58.667 104.667 -71.667 233.667 -39 387c32.667 154 99.667 283 201 387c115.333 118.667 253.666 178 414.999 178c142 0 245 -41 309 -123zM372.007 537.001c-21.333 -101.333 -20.3311 -187.332 3.00195 -257.999
c33.333 -101.333 107.333 -152 222 -152c113.333 0 207.666 49.667 282.999 149c55.333 72.667 93.666 159.667 114.999 261c21.333 100.667 20.666 186.667 -2.00098 258c-33.333 100.667 -107.333 151 -222 151c-113.333 0 -208 -49.667 -284 -149
c-55.333 -72.667 -93.666 -159.334 -114.999 -260.001z" />
    <glyph glyph-name="uni1EE0" unicode="&#x1ee0;" horiz-adv-x="1572" 
d="M1480 737c37.333 176 22.6689 318.667 -43.998 428c-70.667 113.333 -184.334 170 -341.001 170c-156 0 -292.333 -56 -409 -168s-193.334 -255.333 -230.001 -430c-38 -177.333 -23 -321.333 45 -432s181.333 -166 340 -166c156.667 0 293 55.667 409 167
s192.667 255 230 431zM1457 1880l101.997 0.00195312c-20.667 -64 -53.667 -117.5 -99 -160.5s-96.666 -64.5 -153.999 -64.5c-30 0 -67.667 9.33301 -113 28l-50 17c-60.667 22 -100.667 33 -120 33c-26 0 -47.333 -7.16699 -64 -21.5s-33 -37.5 -49 -69.5h-98
c24 67.333 54.667 118.666 92 153.999c44 42.667 99.667 64 167 64c22.667 0 44.834 -2.5 66.501 -7.5s43.834 -12.167 66.501 -21.5l41 -21c15.333 -6.66699 32 -12.334 50 -17.001s31 -7 39 -7c35.333 0 63.333 10.333 84 31c14 13.333 27 34.333 39 63zM1526 1376
c85.333 -72 140.338 -172.331 165.005 -300.998c21.333 -106.667 19.333 -219.334 -6 -338.001c-42 -198 -128.667 -367.333 -260 -508c-166.667 -180 -374.334 -270 -623.001 -270c-247.333 0 -416 89.333 -506 268c-72 143.333 -87 313.333 -45 510
c41.333 195.333 127.666 363.333 258.999 504c167.333 180 374.666 270 621.999 270c68 0 129.5 -7.16699 184.5 -21.5s104.833 -35.833 149.5 -64.5c8 1.33301 23.667 9.66602 47 24.999s39 26.333 47 33c21.333 16 37.166 33.667 47.499 53s18.166 41.333 23.499 66h-115
l27 127h197l-39 -181c-8 -38 -36.667 -77.333 -86 -118c-36 -26 -65.667 -44 -89 -54z" />
    <glyph glyph-name="uni1EE1" unicode="&#x1ee1;" horiz-adv-x="1179" 
d="M1131 1479h102c-21.333 -63.333 -55 -116.166 -101 -158.499s-96.333 -63.5 -151 -63.5c-16 0 -32.333 1.83301 -49 5.5s-39.667 10.167 -69 19.5l-48 21l-60 18c-22.667 6.66699 -41.667 10 -57 10c-26 0 -48.167 -7.83301 -66.5 -23.5s-35.166 -37.834 -50.499 -66.501
h-99c22 65.333 54.833 118.5 98.5 159.5s97.5 61.5 161.5 61.5c23.333 0 45.333 -3 66 -9s43 -13.667 67 -23l41 -17c43.333 -19.333 74 -29 92 -29c35.333 0 63.666 11 84.999 33c13.333 14 26 34.667 38 62zM1113 979c7.33301 1.33301 20.0029 8.83398 38.0029 22.501
s32.667 25.167 44 34.5c21.333 16.667 37 34.5 47 53.5s17.667 40.833 23 65.5h-115l27 127h197l-38 -180c-8 -38.667 -36.667 -78.334 -86 -119.001l-53.5 -39.5c-17 -13 -31.167 -21.5 -42.5 -25.5c26 -50.667 41 -109.5 45 -176.5s-1.33301 -135.167 -16 -204.5
c-32.667 -152 -100.334 -280.333 -203.001 -385c-116.667 -120.667 -255.334 -181 -416.001 -181c-160 0 -272.333 59.667 -337 179c-58.667 104.667 -71.667 233.667 -39 387c32.667 154 99.667 283 201 387c115.333 118.667 253.666 178 414.999 178
c142 0 245 -41 309 -123zM372.003 537.001c-21.333 -101.333 -20.3311 -187.332 3.00195 -257.999c33.333 -101.333 107.333 -152 222 -152c113.333 0 207.666 49.667 282.999 149c55.333 72.667 93.666 159.667 114.999 261c21.333 100.667 20.666 186.667 -2.00098 258
c-33.333 100.667 -107.333 151 -222 151c-113.333 0 -208 -49.667 -284 -149c-55.333 -72.667 -93.666 -159.334 -114.999 -260.001z" />
    <glyph glyph-name="uni1EE2" unicode="&#x1ee2;" horiz-adv-x="1572" 
d="M1480 737c37.333 176 22.6689 318.667 -43.998 428c-70.667 113.333 -184.334 170 -341.001 170c-156 0 -292.333 -56 -409 -168s-193.334 -255.333 -230.001 -430c-38 -177.333 -23 -321.333 45 -432s181.333 -166 340 -166c156.667 0 293 55.667 409 167
s192.667 255 230 431zM827.003 -348h-180l44 205h180zM1526 1376c85.333 -72 140.338 -172.331 165.005 -300.998c21.333 -106.667 19.333 -219.334 -6 -338.001c-42 -198 -128.667 -367.333 -260 -508c-166.667 -180 -374.334 -270 -623.001 -270
c-247.333 0 -416 89.333 -506 268c-72 143.333 -87 313.333 -45 510c41.333 195.333 127.666 363.333 258.999 504c167.333 180 374.666 270 621.999 270c68 0 129.5 -7.16699 184.5 -21.5s104.833 -35.833 149.5 -64.5c8 1.33301 23.667 9.66602 47 24.999s39 26.333 47 33
c21.333 16 37.166 33.667 47.499 53s18.166 41.333 23.499 66h-115l27 127h197l-39 -181c-8 -38 -36.667 -77.333 -86 -118c-36 -26 -65.667 -44 -89 -54z" />
    <glyph glyph-name="uni1EE3" unicode="&#x1ee3;" horiz-adv-x="1179" 
d="M588 -344h-180l43 205h180zM1113 979c7.33301 1.33301 20.0029 8.83398 38.0029 22.501s32.667 25.167 44 34.5c21.333 16.667 37 34.5 47 53.5s17.667 40.833 23 65.5h-115l27 127h197l-38 -180c-8 -38.667 -36.667 -78.334 -86 -119.001l-53.5 -39.5
c-17 -13 -31.167 -21.5 -42.5 -25.5c26 -50.667 41 -109.5 45 -176.5s-1.33301 -135.167 -16 -204.5c-32.667 -152 -100.334 -280.333 -203.001 -385c-116.667 -120.667 -255.334 -181 -416.001 -181c-160 0 -272.333 59.667 -337 179
c-58.667 104.667 -71.667 233.667 -39 387c32.667 154 99.667 283 201 387c115.333 118.667 253.666 178 414.999 178c142 0 245 -41 309 -123zM372.003 537.001c-21.333 -101.333 -20.3311 -187.332 3.00195 -257.999c33.333 -101.333 107.333 -152 222 -152
c113.333 0 207.666 49.667 282.999 149c55.333 72.667 93.666 159.667 114.999 261c21.333 100.667 20.666 186.667 -2.00098 258c-33.333 100.667 -107.333 151 -222 151c-113.333 0 -208 -49.667 -284 -149c-55.333 -72.667 -93.666 -159.334 -114.999 -260.001z" />
    <glyph glyph-name="uni1EE4" unicode="&#x1ee4;" horiz-adv-x="1478" 
d="M1421 1470l197.002 -0.000976562l-202 -954c-34.667 -161.333 -110.334 -291.666 -227.001 -390.999c-128.667 -110.667 -289.334 -166 -482.001 -166c-186.667 0 -319 54 -397 162c-68.667 95.333 -87 219 -55 371l208 978h197l-196 -925
c-31.333 -146 -15 -253.333 49 -322c52.667 -56 131.334 -84 236.001 -84c110.667 0 204.667 26.667 282 80c97.333 68.667 161.666 176 192.999 322zM745.002 -348.001h-181l43 205h181z" />
    <glyph glyph-name="uni1EE5" unicode="&#x1ee5;" 
d="M1003 0h-172.001l34 156l-4 4c-51.333 -64.667 -107.166 -113 -167.499 -145s-131.5 -48 -213.5 -48c-92.667 0 -164.667 23.333 -216 70c-65.333 58.667 -85.333 147.334 -60 266.001l164 770h180l-152 -713c-17.333 -82.667 -10.333 -143.334 21 -182.001
c26.667 -34 72.667 -51 138 -51c102.667 0 188.667 39.667 258 119c55.333 64 93 143 113 237l126 590h180zM587.999 -344h-181l44 205h181z" />
    <glyph glyph-name="uni1EE6" unicode="&#x1ee6;" horiz-adv-x="1478" 
d="M1421 1470l197.002 -0.000976562l-202 -954c-34.667 -161.333 -110.334 -291.666 -227.001 -390.999c-128.667 -110.667 -289.334 -166 -482.001 -166c-186.667 0 -319 54 -397 162c-68.667 95.333 -87 219 -55 371l208 978h197l-196 -925
c-31.333 -146 -15 -253.333 49 -322c52.667 -56 131.334 -84 236.001 -84c110.667 0 204.667 26.667 282 80c97.333 68.667 161.666 176 192.999 322zM1133 1580l-117.003 0.000976562c10.667 52 24.834 93.333 42.501 124s48.834 59.667 93.501 87s70.667 58 78 92
c7.33301 33.333 3.5 57.166 -11.5 71.499s-34.167 21.5 -57.5 21.5c-36.667 0 -64.334 -10.333 -83.001 -31s-31.334 -46 -38.001 -76l-131 -2c15.333 74 51 130 107 168c48 32.667 101.333 49 160 49c52 0 95.667 -10.333 131 -31c58 -34 79 -89 63 -165
c-7.33301 -36 -22.166 -66.167 -44.499 -90.5s-56.666 -50.833 -102.999 -79.5s-76.166 -74.667 -89.499 -138z" />
    <glyph glyph-name="uni1EE7" unicode="&#x1ee7;" 
d="M1003 0h-172.001l34 156l-4 4c-51.333 -64.667 -107.166 -113 -167.499 -145s-131.5 -48 -213.5 -48c-92.667 0 -164.667 23.333 -216 70c-65.333 58.667 -85.333 147.334 -60 266.001l164 770h180l-152 -713c-17.333 -82.667 -10.333 -143.334 21 -182.001
c26.667 -34 72.667 -51 138 -51c102.667 0 188.667 39.667 258 119c55.333 64 93 143 113 237l126 590h180zM879.999 1178h-121.001c10 47.333 22.5 83 37.5 107s45.333 50 91 78s72.167 59 79.5 93c6.66699 32.667 2.66699 56.167 -12 70.5s-33.667 21.5 -57 21.5
c-36.667 0 -64.167 -10.167 -82.5 -30.5s-30.833 -45.5 -37.5 -75.5l-131 -2c15.333 73.333 50.666 129.333 105.999 168c48.667 32.667 102.334 49 161.001 49c52 0 95.333 -10.333 130 -31c58.667 -34 80 -89.333 64 -166c-8 -35.333 -23.167 -65.333 -45.5 -90
s-56.166 -51.334 -101.499 -80.001c-25.333 -14.667 -43.5 -29.167 -54.5 -43.5s-19.833 -37.166 -26.5 -68.499z" />
    <glyph glyph-name="uni1EE8" unicode="&#x1ee8;" horiz-adv-x="1478" 
d="M983 1614l242 291h221l-328 -291h-135zM1604 1401c8.66699 2.66699 20.168 7.66406 34.501 14.9971s26.833 14.833 37.5 22.5s19.334 17.334 26.001 29.001s11 22.167 13 31.5l10 49h-115l27 127h197l-38 -180c-8 -38 -37 -77.667 -87 -119
c-18 -13.333 -39.333 -25.666 -64 -36.999l-60 -24l-169 -799c-34.667 -161.333 -110.334 -291.666 -227.001 -390.999c-128.667 -110.667 -289.334 -166 -482.001 -166c-186.667 0 -319 54 -397 162c-68.667 95.333 -87 219 -55 371l208 978h197l-196 -925
c-31.333 -146 -15 -253.333 49 -322c52.667 -56 131.334 -84 236.001 -84c110.667 0 204.667 26.667 282 80c97.333 68.667 161.666 176 192.999 322l197 929h197z" />
    <glyph glyph-name="uni1EE9" unicode="&#x1ee9;" 
d="M710 1217l241 286h225l-331 -286h-135zM1217 1004c9.33301 2.66699 20.998 9.33301 34.998 20c8.66699 8 14.334 13.333 17.001 16c22 16.667 37.333 34.5 46 53.5s16 42.167 22 69.5h-114l27 127h196l-39 -180c-8 -38 -36.667 -77.667 -86 -119
c-42 -31.333 -82.667 -54.333 -122 -69l-196 -922h-172l34 156l-4 4c-51.333 -64.667 -107.166 -113 -167.499 -145s-131.5 -48 -213.5 -48c-92.667 0 -164.667 23.333 -216 70c-65.333 58.667 -85.333 147.334 -60 266.001l164 770h180l-152 -713
c-17.333 -82.667 -10.333 -143.334 21 -182.001c26.667 -34 72.667 -51 138 -51c102.667 0 188.667 39.667 258 119c55.333 64 93 143 113 237l126 590h180z" />
    <glyph glyph-name="uni1EEA" unicode="&#x1eea;" horiz-adv-x="1478" 
d="M1048 1614l-204 291h221l118 -291h-135zM1604 1401c8.66699 2.66699 20.168 7.66406 34.501 14.9971s26.833 14.833 37.5 22.5s19.334 17.334 26.001 29.001s11 22.167 13 31.5l10 49h-115l27 127h197l-38 -180c-8 -38 -37 -77.667 -87 -119
c-18 -13.333 -39.333 -25.666 -64 -36.999l-60 -24l-169 -799c-34.667 -161.333 -110.334 -291.666 -227.001 -390.999c-128.667 -110.667 -289.334 -166 -482.001 -166c-186.667 0 -319 54 -397 162c-68.667 95.333 -87 219 -55 371l208 978h197l-196 -925
c-31.333 -146 -15 -253.333 49 -322c52.667 -56 131.334 -84 236.001 -84c110.667 0 204.667 26.667 282 80c97.333 68.667 161.666 176 192.999 322l197 929h197z" />
    <glyph glyph-name="uni1EEB" unicode="&#x1eeb;" 
d="M780 1217l-209 286h225l119 -286h-135zM1217 1004c9.33301 2.66699 20.998 9.33301 34.998 20c8.66699 8 14.334 13.333 17.001 16c22 16.667 37.333 34.5 46 53.5s16 42.167 22 69.5h-114l27 127h196l-39 -180c-8 -38 -36.667 -77.667 -86 -119
c-42 -31.333 -82.667 -54.333 -122 -69l-196 -922h-172l34 156l-4 4c-51.333 -64.667 -107.166 -113 -167.499 -145s-131.5 -48 -213.5 -48c-92.667 0 -164.667 23.333 -216 70c-65.333 58.667 -85.333 147.334 -60 266.001l164 770h180l-152 -713
c-17.333 -82.667 -10.333 -143.334 21 -182.001c26.667 -34 72.667 -51 138 -51c102.667 0 188.667 39.667 258 119c55.333 64 93 143 113 237l126 590h180z" />
    <glyph glyph-name="uni1EEC" unicode="&#x1eec;" horiz-adv-x="1478" 
d="M1133 1580l-117.003 0.000976562c10.667 52 24.834 93.333 42.501 124s48.834 59.667 93.501 87s70.667 58 78 92c7.33301 33.333 3.5 57.166 -11.5 71.499s-34.167 21.5 -57.5 21.5c-36.667 0 -64.334 -10.333 -83.001 -31s-31.334 -46 -38.001 -76l-131 -2
c15.333 74 51 130 107 168c48 32.667 101.333 49 160 49c52 0 95.667 -10.333 131 -31c58 -34 79 -89 63 -165c-7.33301 -36 -22.166 -66.167 -44.499 -90.5s-56.666 -50.833 -102.999 -79.5s-76.166 -74.667 -89.499 -138zM1604 1401
c8.66699 2.66699 20.168 7.66406 34.501 14.9971s26.833 14.833 37.5 22.5s19.334 17.334 26.001 29.001s11 22.167 13 31.5l10 49h-115l27 127h197l-38 -180c-8 -38 -37 -77.667 -87 -119c-18 -13.333 -39.333 -25.666 -64 -36.999l-60 -24l-169 -799
c-34.667 -161.333 -110.334 -291.666 -227.001 -390.999c-128.667 -110.667 -289.334 -166 -482.001 -166c-186.667 0 -319 54 -397 162c-68.667 95.333 -87 219 -55 371l208 978h197l-196 -925c-31.333 -146 -15 -253.333 49 -322c52.667 -56 131.334 -84 236.001 -84
c110.667 0 204.667 26.667 282 80c97.333 68.667 161.666 176 192.999 322l197 929h197z" />
    <glyph glyph-name="uni1EED" unicode="&#x1eed;" 
d="M880 1178h-121.001c10 47.333 22.5 83 37.5 107s45.333 50 91 78s72.167 59 79.5 93c6.66699 32.667 2.66699 56.167 -12 70.5s-33.667 21.5 -57 21.5c-36.667 0 -64.167 -10.167 -82.5 -30.5s-30.833 -45.5 -37.5 -75.5l-131 -2
c15.333 73.333 50.666 129.333 105.999 168c48.667 32.667 102.334 49 161.001 49c52 0 95.333 -10.333 130 -31c58.667 -34 80 -89.333 64 -166c-8 -35.333 -23.167 -65.333 -45.5 -90s-56.166 -51.334 -101.499 -80.001c-25.333 -14.667 -43.5 -29.167 -54.5 -43.5
s-19.833 -37.166 -26.5 -68.499zM1217 1004c9.33301 2.66699 20.998 9.33301 34.998 20c8.66699 8 14.334 13.333 17.001 16c22 16.667 37.333 34.5 46 53.5s16 42.167 22 69.5h-114l27 127h196l-39 -180c-8 -38 -36.667 -77.667 -86 -119
c-42 -31.333 -82.667 -54.333 -122 -69l-196 -922h-172l34 156l-4 4c-51.333 -64.667 -107.166 -113 -167.499 -145s-131.5 -48 -213.5 -48c-92.667 0 -164.667 23.333 -216 70c-65.333 58.667 -85.333 147.334 -60 266.001l164 770h180l-152 -713
c-17.333 -82.667 -10.333 -143.334 21 -182.001c26.667 -34 72.667 -51 138 -51c102.667 0 188.667 39.667 258 119c55.333 64 93 143 113 237l126 590h180z" />
    <glyph glyph-name="uni1EEE" unicode="&#x1eee;" horiz-adv-x="1478" 
d="M1385 1880l103 0.00195312c-20.667 -64 -53.5 -117.5 -98.5 -160.5s-96.167 -64.5 -153.5 -64.5c-30 0 -67.667 9.33301 -113 28l-50 17c-61.333 22 -101.333 33 -120 33c-26 0 -47.333 -7.16699 -64 -21.5s-33 -37.5 -49 -69.5h-99c24 67.333 55 118.666 93 153.999
c44 42.667 99.333 64 166 64c23.333 0 45.833 -2.5 67.5 -7.5s43.834 -12.167 66.501 -21.5l41 -21c14 -6.66699 30.333 -12.334 49 -17.001s32 -7 40 -7c35.333 0 63.333 10.333 84 31c13.333 13.333 25.666 34.333 36.999 63zM1604 1401
c8.66699 2.66699 20.168 7.66406 34.501 14.9971s26.833 14.833 37.5 22.5s19.334 17.334 26.001 29.001s11 22.167 13 31.5l10 49h-115l27 127h197l-38 -180c-8 -38 -37 -77.667 -87 -119c-18 -13.333 -39.333 -25.666 -64 -36.999l-60 -24l-169 -799
c-34.667 -161.333 -110.334 -291.666 -227.001 -390.999c-128.667 -110.667 -289.334 -166 -482.001 -166c-186.667 0 -319 54 -397 162c-68.667 95.333 -87 219 -55 371l208 978h197l-196 -925c-31.333 -146 -15 -253.333 49 -322c52.667 -56 131.334 -84 236.001 -84
c110.667 0 204.667 26.667 282 80c97.333 68.667 161.666 176 192.999 322l197 929h197z" />
    <glyph glyph-name="uni1EEF" unicode="&#x1eef;" 
d="M1171 1479h102c-21.333 -63.333 -55 -116.166 -101 -158.499s-96 -63.5 -150 -63.5c-16.667 0 -33.167 1.83301 -49.5 5.5s-39.166 10.167 -68.499 19.5l-50 21c-16 5.33301 -35.667 11.333 -59 18s-42.333 10 -57 10c-26 0 -48.167 -7.83301 -66.5 -23.5
s-35.5 -37.834 -51.5 -66.501h-98c22 65.333 54.833 118.5 98.5 159.5s97.5 61.5 161.5 61.5c23.333 0 45.166 -3 65.499 -9s42.5 -13.667 66.5 -23l42 -17c44 -19.333 75 -29 93 -29c35.333 0 63.333 11 84 33c14 14 26.667 34.667 38 62zM1217 1004
c9.33301 2.66699 20.998 9.33301 34.998 20c8.66699 8 14.334 13.333 17.001 16c22 16.667 37.333 34.5 46 53.5s16 42.167 22 69.5h-114l27 127h196l-39 -180c-8 -38 -36.667 -77.667 -86 -119c-42 -31.333 -82.667 -54.333 -122 -69l-196 -922h-172l34 156l-4 4
c-51.333 -64.667 -107.166 -113 -167.499 -145s-131.5 -48 -213.5 -48c-92.667 0 -164.667 23.333 -216 70c-65.333 58.667 -85.333 147.334 -60 266.001l164 770h180l-152 -713c-17.333 -82.667 -10.333 -143.334 21 -182.001c26.667 -34 72.667 -51 138 -51
c102.667 0 188.667 39.667 258 119c55.333 64 93 143 113 237l126 590h180z" />
    <glyph glyph-name="uni1EF0" unicode="&#x1ef0;" horiz-adv-x="1478" 
d="M745 -348h-181l43 205h181zM1604 1401c8.66699 2.66699 20.168 7.66406 34.501 14.9971s26.833 14.833 37.5 22.5s19.334 17.334 26.001 29.001s11 22.167 13 31.5l10 49h-115l27 127h197l-38 -180c-8 -38 -37 -77.667 -87 -119c-18 -13.333 -39.333 -25.666 -64 -36.999
l-60 -24l-169 -799c-34.667 -161.333 -110.334 -291.666 -227.001 -390.999c-128.667 -110.667 -289.334 -166 -482.001 -166c-186.667 0 -319 54 -397 162c-68.667 95.333 -87 219 -55 371l208 978h197l-196 -925c-31.333 -146 -15 -253.333 49 -322
c52.667 -56 131.334 -84 236.001 -84c110.667 0 204.667 26.667 282 80c97.333 68.667 161.666 176 192.999 322l197 929h197z" />
    <glyph glyph-name="uni1EF1" unicode="&#x1ef1;" 
d="M588 -344h-181l44 205h181zM1217 1004c9.33301 2.66699 20.998 9.33301 34.998 20c8.66699 8 14.334 13.333 17.001 16c22 16.667 37.333 34.5 46 53.5s16 42.167 22 69.5h-114l27 127h196l-39 -180c-8 -38 -36.667 -77.667 -86 -119
c-42 -31.333 -82.667 -54.333 -122 -69l-196 -922h-172l34 156l-4 4c-51.333 -64.667 -107.166 -113 -167.499 -145s-131.5 -48 -213.5 -48c-92.667 0 -164.667 23.333 -216 70c-65.333 58.667 -85.333 147.334 -60 266.001l164 770h180l-152 -713
c-17.333 -82.667 -10.333 -143.334 21 -182.001c26.667 -34 72.667 -51 138 -51c102.667 0 188.667 39.667 258 119c55.333 64 93 143 113 237l126 590h180z" />
    <glyph glyph-name="Ygrave" unicode="&#x1ef2;" horiz-adv-x="1454" 
d="M908 594l-126 -594h-197l126 594l-371 876h233l272 -704l572 704h234zM987 1614l-206 291h222l119 -291h-135z" />
    <glyph glyph-name="ygrave" unicode="&#x1ef3;" horiz-adv-x="1085" 
d="M1030 1073l201.002 -0.000976562l-298.5 -522l-310.5 -531c-132 -216.667 -222.833 -347.167 -272.5 -391.5s-131.834 -66.5 -246.501 -66.5c-10.667 0 -19.667 0.666992 -27 2c-18.667 6.66699 -33.334 11.334 -44.001 14.001l35 164c10.667 -4 25.167 -8.5 43.5 -13.5
s37.833 -7.5 58.5 -7.5c44.667 0 79.5 13 104.5 39s72.167 96.333 141.5 211l-163 1102h205l96 -872zM779.002 1217l-210 286h226l119 -286h-135z" />
    <glyph glyph-name="uni1EF4" unicode="&#x1ef4;" horiz-adv-x="1454" 
d="M908 594l-126 -594h-197l126 594l-371 876h233l272 -704l572 704h234zM708 -344h-181l44 205h181z" />
    <glyph glyph-name="uni1EF5" unicode="&#x1ef5;" horiz-adv-x="1085" 
d="M1030 1073l201.002 -0.000976562l-298.5 -522l-310.5 -531c-132 -216.667 -222.833 -347.167 -272.5 -391.5s-131.834 -66.5 -246.501 -66.5c-10.667 0 -19.667 0.666992 -27 2c-18.667 6.66699 -33.334 11.334 -44.001 14.001l35 164c10.667 -4 25.167 -8.5 43.5 -13.5
s37.833 -7.5 58.5 -7.5c44.667 0 79.5 13 104.5 39s72.167 96.333 141.5 211l-163 1102h205l96 -872zM832.002 -324.001h-181l43 205h181z" />
    <glyph glyph-name="uni1EF6" unicode="&#x1ef6;" horiz-adv-x="1454" 
d="M908 594l-126 -594h-197l126 594l-371 876h233l272 -704l572 704h234zM1082 1529l-116.997 0.000976562c10.667 52 24.834 93.333 42.501 124s48.667 59.667 93 87s70.166 58 77.499 92c7.33301 33.333 3.66602 57.166 -11.001 71.499s-33.667 21.5 -57 21.5
c-36.667 0 -64.334 -10.333 -83.001 -31s-31.334 -46 -38.001 -76l-131 -2c15.333 74 51 130 107 168c48 32.667 101.333 49 160 49c52 0 95.333 -10.333 130 -31c58.667 -34 80 -89 64 -165c-7.33301 -36 -22.333 -66.167 -45 -90.5s-57 -50.833 -103 -79.5
s-75.667 -74.667 -89 -138z" />
    <glyph glyph-name="uni1EF7" unicode="&#x1ef7;" horiz-adv-x="1085" 
d="M1030 1073l201.002 -0.000976562l-298.5 -522l-310.5 -531c-132 -216.667 -222.833 -347.167 -272.5 -391.5s-131.834 -66.5 -246.501 -66.5c-10.667 0 -19.667 0.666992 -27 2c-18.667 6.66699 -33.334 11.334 -44.001 14.001l35 164c10.667 -4 25.167 -8.5 43.5 -13.5
s37.833 -7.5 58.5 -7.5c44.667 0 79.5 13 104.5 39s72.167 96.333 141.5 211l-163 1102h205l96 -872zM847.002 1178h-121.001c10 47.333 22.667 83 38 107s45.833 50 91.5 78s72.167 59 79.5 93c7.33301 32.667 3.66602 56.167 -11.001 70.5s-33.667 21.5 -57 21.5
c-36.667 0 -64.334 -10.167 -83.001 -30.5s-31.334 -45.5 -38.001 -75.5l-132 -2c15.333 73.333 51 129.333 107 168c48.667 32.667 102.334 49 161.001 49c52 0 95.333 -10.333 130 -31c58 -34 79 -89.333 63 -166c-7.33301 -35.333 -22.166 -65.333 -44.499 -90
s-56.166 -51.334 -101.499 -80.001c-25.333 -14.667 -43.666 -29.167 -54.999 -43.5s-20.333 -37.166 -27 -68.499z" />
    <glyph glyph-name="uni1EF8" unicode="&#x1ef8;" horiz-adv-x="1454" 
d="M908 594l-126 -594h-197l126 594l-371 876h233l272 -704l572 704h234zM1385 1880l102.001 0.00195312c-20 -64 -52.667 -117.5 -98 -160.5s-96.666 -64.5 -153.999 -64.5c-30 0 -67.667 9.33301 -113 28l-49 17c-61.333 22 -101.333 33 -120 33
c-26 0 -47.333 -7.16699 -64 -21.5s-33.334 -37.5 -50.001 -69.5h-98c24 67.333 54.667 118.666 92 153.999c44.667 42.667 100.334 64 167.001 64c23.333 0 45.833 -2.5 67.5 -7.5s43.5 -12.167 65.5 -21.5l40 -21c15.333 -6.66699 32 -12.334 50 -17.001s31.333 -7 40 -7
c35.333 0 63.666 10.333 84.999 31c13.333 13.333 25.666 34.333 36.999 63z" />
    <glyph glyph-name="uni1EF9" unicode="&#x1ef9;" horiz-adv-x="1085" 
d="M1030 1073l201.002 -0.000976562l-298.5 -522l-310.5 -531c-132 -216.667 -222.833 -347.167 -272.5 -391.5s-131.834 -66.5 -246.501 -66.5c-10.667 0 -19.667 0.666992 -27 2c-18.667 6.66699 -33.334 11.334 -44.001 14.001l35 164c10.667 -4 25.167 -8.5 43.5 -13.5
s37.833 -7.5 58.5 -7.5c44.667 0 79.5 13 104.5 39s72.167 96.333 141.5 211l-163 1102h205l96 -872zM1130 1479h102c-21.333 -63.333 -55 -116.166 -101 -158.499s-96.333 -63.5 -151 -63.5c-16 0 -32.333 1.83301 -49 5.5s-39.667 10.167 -69 19.5l-48 21
c-16.667 5.33301 -36.5 11.333 -59.5 18s-42.167 10 -57.5 10c-26 0 -48.167 -7.83301 -66.5 -23.5s-35.5 -37.834 -51.5 -66.501h-98c22 65.333 54.667 118.5 98 159.5s97.333 61.5 162 61.5c22.667 0 44.5 -3 65.5 -9s43.5 -13.667 67.5 -23l41 -17
c44 -19.333 74.667 -29 92 -29c36 0 64.333 11 85 33c13.333 14 26 34.667 38 62z" />
    <glyph glyph-name="quoteleft" unicode="&#x2018;" horiz-adv-x="487" 
d="M599 1180l-45.999 -217h-213l43 200c18 87.333 48.167 158.333 90.5 213s105.833 91.667 190.5 111l-20 -98c-48.667 -7.33301 -86 -35.333 -112 -84c-18.667 -32 -33.334 -73.667 -44.001 -125h111z" />
    <glyph glyph-name="quoteright" unicode="&#x2019;" horiz-adv-x="487" 
d="M376 1253l46.999 216.999h213l-43 -200c-18 -84.667 -47.667 -153 -89 -205c-46 -58.667 -110 -97 -192 -115l20 94c46.667 7.33301 83.334 35.333 110.001 84c16 30.667 29.333 72.334 40 125.001h-106z" />
    <glyph glyph-name="quotedblleft" unicode="&#x201c;" horiz-adv-x="737" 
d="M881 1180l-45.999 -217h-213l43 200c18 87.333 48.167 158.333 90.5 213s105.833 91.667 190.5 111l-20 -98c-48.667 -7.33301 -86 -35.333 -112 -84c-18.667 -32 -33.334 -73.667 -44.001 -125h111zM541.001 1180l-46 -216.999h-213l43 200
c18 86 48.833 156.667 92.5 212s106.5 92.666 188.5 111.999l-20 -98c-47.333 -7.33301 -84 -35.333 -110 -84c-16.667 -30 -30.667 -71.667 -42 -125h107z" />
    <glyph glyph-name="quotedblright" unicode="&#x201d;" horiz-adv-x="737" 
d="M319 1253l47 217h213l-43 -200c-18 -86 -47 -154.333 -87 -205c-46 -58.667 -110.667 -97 -194 -115l20 94c48 7.33301 85.333 35.333 112 84c18 32 32.333 73.667 43 125h-111zM659 1253l46.999 216.999h213l-43 -200c-18 -84.667 -47.667 -153 -89 -205
c-46 -58.667 -110 -97 -192 -115l20 94c46.667 7.33301 83.334 35.333 110.001 84c16 30.667 29.333 72.334 40 125.001h-106z" />
    <glyph glyph-name="ellipsis" unicode="&#x2026;" horiz-adv-x="1245" 
d="M416 209l-44 -209h-188l44 209h188zM748 209l-44 -209h-188l44 209h188zM1080 209l-44 -209h-188l44 209h188z" />
    <glyph glyph-name=".null" horiz-adv-x="0" 
 />
    <glyph glyph-name="nonmarkingreturn" horiz-adv-x="571" 
 />
    <glyph glyph-name="ugrave" horiz-adv-x="582" 
 />
    <glyph glyph-name="uacute" horiz-adv-x="580" 
 />
    <glyph glyph-name="yacute" horiz-adv-x="629" 
 />
    </font>
</defs>
</svg>
