<svg xmlns="http://www.w3.org/2000/svg">
<defs>
<font id="UTMHelveBold" horiz-adv-x="1175" >
  <font-face 
    font-family="UTM Helve"
    font-weight="700"
    font-stretch="normal"
    units-per-em="2048"
    panose-1="2 4 6 3 5 5 6 2 2 4"
    ascent="1638"
    descent="-410"
    x-height="1090"
    cap-height="1470"
    bbox="-87 -446.001 4942 2443"
    underline-thickness="109"
    underline-position="-143"
    unicode-range="U+0020-U+2026"
  />
<missing-glyph horiz-adv-x="5040" 
d="M3351 2045h10c24.667 -6.66699 37 -24 37 -52c0 -8 -10.667 -27 -32 -57h-28c0 16 9.33301 34 28 54l2 10c-3.33301 8.66699 -6.66602 13.667 -10 15h-9c-5.33301 0 -8.66602 -6.33301 -10 -19h-30c4 32.667 18 49 42 49zM2019 2016l29.001 -31
c0 -10.667 -13.333 -20.667 -40 -30h-19l-59 12l-11 -12l-28 25c7.33301 19.333 21.666 29 42.999 29h11l42 -11h2c6.66699 0 16.667 6 30 18zM468.001 1980h142v-60h-94v-75h89v-59h-89v-129l-5 -5h-49v323zM1155 1980h43l6 -5v-78h30v-52h-30v-188l-6 -5h-49v193h-25v52
h25v78zM1621 1980h41.999l4 -5v-94h3c15.333 16 33.333 24 54 24h2c38.667 0 66.334 -23.667 83.001 -71l2 -39v-143h-52v115c0 53.333 -14 80 -42 80h-7c-28.667 0 -43 -28.667 -43 -86v-109h-51v323zM2200 1980l49 -0.000976562l5 -5v-222c6.66699 -34 21.667 -51 45 -51
c29.333 4.66699 44 24.334 44 59.001v214l5 5h49v-216c0 -56.667 -22 -94 -66 -112c-10 -5.33301 -21.667 -8 -35 -8c-31.333 0 -58.666 18.333 -82 55c-9.33301 16 -14 35 -14 57v224zM2435 1980h159v-60h-56v-268h-53v268h-55v55zM2621 1980l71 0.000976562
c4.66699 -2.66699 32.334 -86.334 83 -251.001h2l80 251h73v-328h-54v242h-2l-74 -242h-44c-2.66699 0 -22 60.667 -58 182l-19 60h-3v-242h-55v328zM3760 1980l52 -0.000976562v-328h-45l-5 5v11l3 2l-3 14c-19.333 -26.667 -45.333 -40 -78 -40
c-44.667 0 -78 30.333 -100 91l-5 39v3c0 62.667 30.667 104.334 92 125.001l23 3c23.333 0 44.333 -10.667 63 -32h3v107zM2057 1928l36 0.00195312l4 -6v-49h-45v-221h-48v23c-15.333 -20.667 -35 -31 -59 -31c-59.333 9.33301 -89 41.666 -89 96.999v156h51v-104

<glyph glyph-name=".notdef" horiz-adv-x="5040" 
d="M3351 2045h10c24.667 -6.66699 37 -24 37 -52c0 -8 -10.667 -27 -32 -57h-28c0 16 9.33301 34 28 54l2 10c-3.33301 8.66699 -6.66602 13.667 -10 15h-9c-5.33301 0 -8.66602 -6.33301 -10 -19h-30c4 32.667 18 49 42 49zM2019 2016l29.001 -31
c0 -10.667 -13.333 -20.667 -40 -30h-19l-59 12l-11 -12l-28 25c7.33301 19.333 21.666 29 42.999 29h11l42 -11h2c6.66699 0 16.667 6 30 18zM468.001 1980h142v-60h-94v-75h89v-59h-89v-129l-5 -5h-49v323zM1155 1980h43l6 -5v-78h30v-52h-30v-188l-6 -5h-49v193h-25v52
h25v78zM1621 1980h41.999l4 -5v-94h3c15.333 16 33.333 24 54 24h2c38.667 0 66.334 -23.667 83.001 -71l2 -39v-143h-52v115c0 53.333 -14 80 -42 80h-7c-28.667 0 -43 -28.667 -43 -86v-109h-51v323zM2200 1980l49 -0.000976562l5 -5v-222c6.66699 -34 21.667 -51 45 -51
c29.333 4.66699 44 24.334 44 59.001v214l5 5h49v-216c0 -56.667 -22 -94 -66 -112c-10 -5.33301 -21.667 -8 -35 -8c-31.333 0 -58.666 18.333 -82 55c-9.33301 16 -14 35 -14 57v224zM2435 1980h159v-60h-56v-268h-53v268h-55v55zM2621 1980l71 0.000976562
c4.66699 -2.66699 32.334 -86.334 83 -251.001h2l80 251h73v-328h-54v242h-2l-74 -242h-44c-2.66699 0 -22 60.667 -58 182l-19 60h-3v-242h-55v328zM3760 1980l52 -0.000976562v-328h-45l-5 5v11l3 2l-3 14c-19.333 -26.667 -45.333 -40 -78 -40
c-44.667 0 -78 30.333 -100 91l-5 39v3c0 62.667 30.667 104.334 92 125.001l23 3c23.333 0 44.333 -10.667 63 -32h3v107zM2057 1928l36 0.00195312l4 -6v-49h-45v-221h-48v23c-15.333 -20.667 -35 -31 -59 -31c-59.333 9.33301 -89 41.666 -89 96.999v156h51v-104
c0 -52.667 8.66699 -81.334 26 -86.001l18 -5h6c17.333 0 30.333 12 39 36l3 26v133h53v25zM3476 1928v-55h-31v-221h-47v25h-2c-10 -22 -29 -33 -57 -33c-45.333 0 -74 26 -86 78l-3 29v146h52v-120c0 -33.333 6.33301 -56 19 -68l21 -7h9c28 0 42 23 42 69v126h27
c2.66699 0 4 9.33301 4 28l3 3h49zM758 1905c45.333 0 79.667 -25.667 103 -77c6 -12 10 -30 12 -54c0 -58.667 -30 -101 -90 -127l-32 -3c-42 0 -75.667 24.333 -101 73c-8 14.667 -12 32 -12 52v10c0 62.667 33.667 104.667 101 126h19zM1011 1905h3
c49.333 0 77 -33.667 83 -101v-152h-51v119c0 50.667 -14 76 -42 76h-5c-29.333 0 -44 -25.333 -44 -76v-119h-52v245h46v-21c20 19.333 40.667 29 62 29zM1466 1905l7 -0.000976562c48 0 83 -29.667 105 -89h-60c-10.667 20.667 -24.667 31 -42 31h-17
c-35.333 -9.33301 -53 -29.666 -53 -60.999l-3 -15c8 -46 28.333 -69 61 -69h9c14.667 0 30.334 9 47.001 27h40l2 3h3l2 -3l2 3l3 -3l2 3l2 -7c-22 -54 -58.667 -81 -110 -81c-50.667 0 -87.334 31.333 -110.001 94l-4 36v3c0 56.667 25.667 96.667 77 120
c10 5.33301 22.333 8 37 8zM3141 1905h1.99902c32.667 0 56 -20 70 -60v-14h-52c0 10.667 -5.33301 16 -16 16h-4c-9.33301 0 -15.666 -4.33301 -18.999 -13v-13c0 -6 22.667 -17.667 68 -35c20 -12.667 30 -32.334 30 -59.001c0 -38.667 -20.333 -65.334 -61 -80.001
l-23 -3c-50.667 8 -76 35.667 -76 83h54c0 -13.333 9 -21.666 27 -24.999h4c12.667 0 20.667 7.66699 24 23c0 14.667 -22.667 29.334 -68 44.001c-22.667 18 -34 37.667 -34 59c0 44 24.667 69.667 74 77zM4203 1905c36.666 0 62.333 -21 77 -63
c4.66602 -12 7 -33.667 7 -65v-125h-52v112c0 55.333 -13.334 83 -40 83h-11c-22 0 -35.334 -18 -40 -54v-141h-52v5h-2l2 2v238h47v-21c16.666 19.333 38 29 64 29zM4432 1905h5c26.666 0 49.666 -13.333 69 -40v18l-3 3l3 11h47v-208c0 -64.667 -28.334 -108.667 -85 -132
l-33 -4h-7c-46.666 0 -81.333 26.667 -104 80h59c16 -14.667 31 -22.334 45 -23.001h13c14.666 0 29 7.33301 43 22c10 8.66699 17.334 26 22 52h-3c-21.334 -26.667 -45.667 -40 -73 -40c-38 0 -70 23.333 -96 70c-6.66602 12 -11.333 33 -14 63
c0 58.667 29 100.334 87 125.001zM3851 1897l53 -0.000976562v-136c4 -39.333 17.333 -59 40 -59h7c30.667 0 46 31 46 93v102h51v-245h-47l-3 10h3l-3 3v5l3 2v3h-4c0 -15.333 -19 -25.666 -57 -30.999h-3c-39.333 0 -67.333 25 -84 75l-2 85v93zM690 1771
c6.66699 -46 27.6689 -69 63.002 -69h7c39.333 9.33301 59 31 59 65v15c-8.66699 43.333 -28.334 65 -59.001 65h-5c-38.667 0 -60.334 -25.333 -65.001 -76zM3630 1774c8.66699 -48 29 -72 61 -72h5c38.667 0 60.667 25 66 75c0 32.667 -17 56 -51 70h-22
c-24.667 0 -43.334 -19 -56 -57zM4374 1774c5.33398 -48 27 -71.999 65 -71.999h5c39.334 8 59 32 59 72c0 40.667 -19.666 65 -59 73h-14c-37.334 -10.667 -56 -31.334 -56 -62.001v-11zM3928 1620h52v-57h-52v57zM1054 1402c28.667 -7.33301 43 -23.667 43 -49v-4
c0 -11.333 -10.667 -31.333 -32 -60h-28c0 16.667 10.333 35.667 31 57v7c0 8 -2.33301 13 -7 15h-12c-6.66699 -2.66699 -10 -9 -10 -19h-28v6c0 21.333 11 36 33 44zM3349 1339c61.333 0 107.333 -33.001 138 -99.001h-60c-24.667 28 -51.334 42 -80 42
c-36.667 0 -65.667 -22.667 -87 -68c-6.66699 -14.667 -10 -30.334 -10 -47.001c0 -52 27 -88.667 81 -110l18 -1c24 0 49 13 75 39h61c-29.333 -64.667 -75.333 -97 -138 -97c-62 0 -109 37.333 -141 112c-6.66699 20.667 -10 41.334 -10 62.001
c0 64.667 30 115.334 90 152.001c19.333 10 40.333 15 63 15zM3664 1339c38 0 72.333 -15.666 103 -46.999c30.667 -34 46 -72.333 46 -115v-20c0 -59.333 -30.333 -108 -91 -146c-22 -8.66699 -43 -13 -63 -13c-59.333 0 -105.333 33.667 -138 101
c-8.66699 22 -13 42 -13 60v18c0 65.333 32.667 115.666 98 150.999c19.333 7.33301 38.666 11 58 11zM2261 1337h2l47 -11h3c7.33301 0 16 3.66699 26 11l18 -36c-12 -12.667 -23.667 -19 -35 -19h-3l-54 10l-20 -7l-20 36c12 10.667 24 16 36 16zM716.002 1334h19
c78.667 0 121.667 -8.66699 129 -26c16.667 -17.333 25 -38 25 -62c-6.66699 -38 -16.667 -57 -30 -57v-6c31.333 -15.333 47 -37.333 47 -66v-18c0 -42 -23 -71.333 -69 -88l-54 -5h-67v328zM2550 1334h53v-217c4 -40.667 19 -61 45 -61c19.333 0 34 13 44 39l3 30v203l4 6
h45l5 -6v-171c0 -78.667 -13.333 -123 -40 -133c-16 -17.333 -37.333 -26 -64 -26c-36.667 0 -67 25.333 -91 76l-4 54v206zM2805 1334h59c2.66699 0 43.334 -79 122 -237h4v237h50l4 -6v-322h-58c-19.333 32 -61 111.333 -125 238h-3v-238h-53v328zM3101 1334h54v-328h-54
v328zM3859 1334l8 0.000976562c103.333 0 161.333 -13.333 174 -40c15.333 -7.33301 31 -32.333 47 -75l4 -36v-11l3 -2c0 -62.667 -27.333 -112.334 -82 -149.001c-23.333 -10 -56.333 -15 -99 -15h-55v328zM4141 1334h153v-60h-103v-75h101v-57h-101v-74l4 -5h99v-57h-157
v322zM3563 1175v-10c0 -50.667 26.333 -86.667 79 -108l19 -1c45.333 0 77.333 28.667 96 86l3 20v15c0 40.667 -20 72 -60 94c-8 5.33301 -21 9 -39 11c-44 0 -76 -27.667 -96 -83zM770.002 1274v-67h9c36 0 54 9.33301 54 28l3 14c-7.33301 16.667 -17 25 -29 25h-37z
M3912 1274v-206.001l2 -3v-2c69.333 0 110 25.333 122 76l2 15v29c0 22.667 -10.667 45.334 -32 68.001c-16.667 15.333 -42.667 23 -78 23h-16zM1041 1259h5c25.333 0 49 -13.333 71 -40v32h49v-245h-49v32c-24 -26.667 -50.667 -40 -80 -40c-50 0 -83.667 32.333 -101 97
l-5 36c0 59.333 28.333 101 85 125zM1314 1259h3c49.333 0 77 -34 83 -102v-151h-51v128c0 44.667 -14 67 -42 67h-10c-22.667 0 -35.667 -20.667 -39 -62v-133h-52v245h47v-21c18.667 19.333 39 29 61 29zM1543 1259h5c30 0 53.667 -13.333 71 -40v32h47v-219
c0 -63.333 -34.667 -105.333 -104 -126h-16c-49.333 0 -85.333 27.333 -108 82h59c17.333 -16.667 32 -25 44 -25h14c34.667 0 56 25.667 64 77c-22 -28 -47.333 -42 -76 -42c-40 0 -73.667 27 -101 81l-7 44v16c0 52.667 28.333 91.667 85 117zM1912 1259l2 0.000976562
c28.667 0 49 -12.333 61 -37h2c21.333 24.667 44.333 37 69 37h4c38 0 64.333 -18.333 79 -55c5.33301 -16.667 8 -31.667 8 -45v-153h-52v138c0 29.333 -7.66699 47.666 -23 54.999l-12 2h-15c-21.333 0 -33.333 -21.667 -36 -65v-130h-52v136c0 39.333 -14.333 59 -43 59
h-8c-21.333 0 -33.333 -19 -36 -57v-138h-54v245h50v-21h2c4 16 22 25.667 54 29zM2282 1259c31.333 0 56.333 -14 75 -42v34h47v-245h-47v32c-24 -26.667 -50 -40 -78 -40c-49.333 0 -83.333 30.667 -102 92l-6 41c0 60 28.333 101.667 85 125zM985.002 1117
c0 -32 20.333 -52.333 61 -61h4c30 0 50.667 15.333 62 46l3 15v22c-8 41.333 -27 62 -57 62h-14c-27.333 0 -47 -19 -59 -57v-27zM1487 1128c0 -32 14.332 -54.667 42.999 -68l18 -4h5c31.333 0 52.333 19 63 57v23c-7.33301 43.333 -26.666 65 -57.999 65h-12
c-33.333 0 -53 -24.333 -59 -73zM2225 1131v-14.001c10 -40.667 29 -61 57 -61h14c38.667 8 58 29.333 58 64v11c0 30 -12.333 51.667 -37 65l-18 5h-10c-42.667 -5.33301 -64 -28.666 -64 -69.999zM770.001 1150v-82c0 -3.33301 2.33301 -5 7 -5c51.333 0 77 15 77 45
c0 22.667 -15.667 36.667 -47 42h-37zM2966 752.999l24 -28l-51 -55c-12 8 -21 16.667 -27 26zM1524 726.999l85 -54c0 -10 -7 -24 -21 -42l-87 54c12 27.333 19.667 41.333 23 42zM2850 692.999h38l55 -60h-54l-21 26l-23 -26h-54c36 40 55.667 60 59 60zM3422 692.999h40
l56 -60h-54l-24 26h-1c0 -3.33301 -6.33301 -12 -19 -26h-54zM622.001 684.999l52 0.00195312c5.33301 -2.66699 21 -48.334 47 -137.001l34 -110c6 5.33301 17.333 38.666 34 99.999l48 147h54v-2l-112 -326h-44zM1159 685.001h51v-54h-51v54zM1354 685.001h46l6 -5v-323
h-52v328zM2317 685.001h45l4 -5v-78h31v-52h-31v-193h-53v193h-26v52h26v78zM2425 685.001h52v-98h2c15.333 15.333 33.333 23 54 23h3c38 0 65 -23.667 81 -71l3 -38v-144h-52v115c0 54 -13 81 -39 81h-10c-28 0 -42 -29 -42 -87v-109h-52v328zM2664 685.001h52v-54h-52v54
zM3028 685.001h44l6 -5v-78h29v-52h-29v-193h-54v193h-27v52h27v78zM3234 685.001h52v-328h-52v328zM3957 685.001h52v-328h-52v328zM4316 685.001h51v-54h-51v54zM1555 610.001h5c55.333 0 92 -34 110 -102l3 -23v-11c0 -55.333 -28.333 -95.333 -85 -120l-35 -5
c-50.667 0 -87.667 32.333 -111 97l-4 32c0 64.667 31 108 93 130zM1811 610.001h4c35.333 0 61.333 -20 78 -60c4.66699 -16.667 7 -43.667 7 -81v-112h-54v146c-4.66699 33.333 -17 50 -37 50h-10c-25.333 0 -39.333 -19 -42 -57v-139h-54v245h49v-21
c17.333 19.333 37 29 59 29zM2046 610.001h4.00098c30 0 51 -13 63 -39h3v31h49v-206c0 -68 -29.667 -113 -89 -135l-28 -3h-5c-48.667 0 -84 27 -106 81h52l37 -20l15 -3h14c33.333 0 53.666 24 60.999 72c-22 -26 -46.333 -39 -73 -39c-41.333 0 -74 25.333 -98 76
c-7.33301 15.333 -11.333 35.333 -12 60c0 56.667 28.667 97.667 86 123zM2866 610.001l2 -0.000976562c54.667 0 91.667 -34.667 111 -104l2 -25l-2 -27h-172c10 -30 25 -45 45 -45l14 -3c19.333 0 35.666 7.33301 49 22h57v-3c-23.333 -50.667 -59.333 -76 -108 -76
c-51.333 0 -88.333 32.333 -111 97l-1 28v8c0 32.667 10.667 62.334 32 89.001c22.667 26 50 39 82 39zM3429 610h5c27.333 0 50.666 -13 70 -39h2v31h47v-245h-47v31h-2c-23.333 -26 -49 -39 -77 -39c-47.333 0 -81 29.667 -101 89l-5 36v14c0 57.333 28 97.333 84 120z
M3711 610l7 -0.000976562c58.667 0 94.334 -42.667 107 -128l-2 -1v-15c0 -43.333 -22 -78.666 -66 -105.999c-14 -7.33301 -29.333 -11 -46 -11c-22.667 0 -44 10.667 -64 32v-99l-5 -5h-49v325h49v-28c20.667 24 43.667 36 69 36zM4151 609.999
c29.334 0 54.334 -13 75 -39v31h49v-245h-49v31c-23.334 -26 -49 -39 -77 -39c-61.333 0 -97.333 44 -108 132c0 56 24.333 96.333 73 121c10 5.33301 22.334 8 37 8zM922.002 601.999h50v-136c2 -40 16 -60 42 -60h5c29.333 0 44 29 44 87v109h52v-245h-47v24h-5
c0 -15.333 -18.667 -26 -56 -32h-3c-36.667 0 -64 22.667 -82 68c-2.66699 23.333 -4 56.333 -4 99v81zM1159 601.999h51v-245h-51v245zM2664 601.999h52v-245h-52v245zM4316 601.999h51v-245h-51v245zM1492 487.999v-15.999c8.66699 -44 28.334 -66 59.001 -66h4
c39.333 0 61.333 25.333 66 76c-8.66699 47.333 -28.334 71 -59.001 71h-11c-39.333 -10.667 -59 -32.334 -59 -65.001zM1987 472c10 -44 29.667 -66 59 -66h11c32 0 51.667 25 59 75v1c-8.66699 47.333 -28.334 71 -59 71h-14c-26 0 -44.667 -19 -56 -57v-24zM2805 506h122
v2c-10.667 30 -30.334 45 -59 45h-7c-23.333 0 -42 -15.667 -56 -47zM3373 474c8.66699 -45.333 29 -68 61 -68h5c34.667 0 56.334 21 65 63v12c-6.66699 48 -25.667 72 -57 72h-16c-37.333 -9.33301 -56 -30.333 -56 -63zM3642 478c8 -48 28.333 -72.001 61 -72.001h3
c33.333 0 55 20 65 60v22c0 28.667 -16.333 50.334 -49 65.001h-22c-31.333 0 -50.666 -24 -58 -72v-3zM4095 471.999c6.66602 -44 28.666 -66 66 -66c28.666 0 49 16 61 48l2 15v16c0 36 -17.334 58.667 -52 68h-18c-28 0 -47.666 -20 -59 -60v-21zM3416 320.999h51v-52
h-51v52zM4137 320.999h51v-52h-51v52zM2733 132.999h4c23.333 0 37.666 -16.667 43 -50v-2c0 -10.667 -8 -24.334 -24 -41.001l-10 -17h-28c0 16.667 9.33301 35.334 28 56.001l3 2v2c-2 12.667 -5 19 -9 19h-10c-5.33301 0 -8.33301 -6.33301 -9 -19h-30
c4 33.333 18 50 42 50zM1546 115.999l52 -60l-26 -19l-52 52zM352.002 78.999h4c50 -32 78.333 -52 85 -60l-20 -37c-58.667 32.667 -88 52 -88 58zM3490 78.999l86 -58l-18 -39c-6.66699 0 -37 18.333 -91 55c10 24 17.667 38 23 42zM4578 75.999l19 -42l-91 -52l-20 39
l92 58v-3zM1204 52.999h51v-19l5 -5h14v-36h-14l-5 -5v-279h-46v31c-22.667 -26.667 -49.667 -40 -81 -40c-48 0 -82 35 -102 105l-3 26c0 68 33.667 111.667 101 131h14c22 0 44 -11 66 -33v59l-6 5h-43v36h49v24zM1480 44.999h40l56 -61h-53l-23 27l-23 -27h-53z
M2641 44.999h33c8 0 29 -20.333 63 -61h-54l-23 27c-12.667 -14 -19 -23 -19 -27h-58v4zM49.002 36.999h160v-60h-56v-268h-50l-4 5v245l2 3v2l-2 2l2 3l-2 2l2 3l-2 3h-54v54zM699.002 36.999h47v-73l2 -2l-2 -3v-3l2 -2l-2 -3v-3l2 -2v-2l-2 -3l2 -3h3
c11.333 16 28.333 24 51 24h3c35.333 0 61 -19.333 77 -58c4.66699 -11.333 7 -25.333 7 -42v-153h-52v127c0 45.333 -13.333 68 -40 68h-8c-28.667 0 -43 -28.667 -43 -86v-109h-52v322zM1297 36.999h47l5 -6v-49h-52v55zM1987 36.999h52v-198l70 115h62l-78 -118l90 -125
v-2h-70c-6.66699 14.667 -31.334 53 -74 115v-115h-52v328zM2271 36.999v-98.999c16 16 33.667 24 53 24c38 0 64.667 -18.667 80 -56c6.66699 -12.667 10 -38.334 10 -77.001v-120h-54v133c0 41.333 -13.667 62 -41 62h-11c-20.667 0 -33 -18.333 -37 -55v-140h-53v314
l-1 3v3l1 2l-1 3l1 3h53zM2458 37h51v-55h-51v55zM3148 37h51v-108c18 22 40.667 33 68 33h3c50 0 85 -31.333 105 -94l5 -37c0 -50 -21.333 -90 -64 -120c-20 -7.33301 -36.333 -11 -49 -11c-27.333 0 -51.333 13.333 -72 40v-31h-47v328zM4275 37h52v-99h2
c15.334 16 33.334 24 54 24h3c40 0 67.334 -24.667 82 -74l2 -41v-138h-52v111c0 54.667 -10.666 82 -32 82l-10 2h-12c-24.666 0 -37 -26.667 -37 -80v-115h-52v328zM329.002 -38h3v-58h-5c-28 0 -42 -19 -42 -57v-138h-53v245h47v-21c12 19.333 28.667 29 50 29z
M564.002 -38c47.333 0 75.999 -29 85.999 -87v-166h-51v136c-4 39.333 -17.667 59 -41 59h-6c-30 0 -45 -28 -45 -84v-111h-52v245h50v-21c16.667 19.333 36.334 29 59.001 29zM1504 -38c48 0 83 -31.333 105 -94l5 -39c-1.33301 -16 -3.66602 -24 -6.99902 -24h-169
c11.333 -31.333 32 -47 62 -47c16 0 32 7 48 21h57c-22 -52.667 -58 -79 -108 -79c-54.667 0 -92.334 35 -113.001 105v37c0 54 29.667 93 89 117zM2657 -38h5c51.333 0 87 -32.333 107 -97l3 -26v-21l-3 -13h-170c12 -31.333 29.667 -47 53 -47h12c14 0 28 7 42 21h59
c-22.667 -52.667 -57.667 -79 -105 -79c-56 0 -94.333 34 -115 102l-2 29c0 62 30.333 104.667 91 128zM2915 -38h3.99902c36 0 62 -20 78 -60c4.66699 -16.667 7 -44 7 -82v-111h-54v138c0 32 -11.667 51 -35 57h-11c-25.333 0 -39.666 -19 -42.999 -57v-138h-54v245h50
v-21c16.667 19.333 36 29 58 29zM3508 -38h6c26.667 0 50 -13.333 70 -40h2v32h47v-245h-47v31h-2c-22.667 -26.667 -48.667 -40 -78 -40c-47.333 0 -81 30 -101 90l-4 37v12c0 54.667 25.667 93.667 77 117c7.33301 4 17.333 6 30 6zM3781 -38h4
c41.333 0 68.666 -26 82 -78l3 -84v-91h-54v138c0 32 -12.667 51 -38 57h-9c-25.333 0 -39.333 -17.333 -42 -52v-143h-54v245h49v-21c17.333 19.333 37 29 59 29zM4133 -38h1c49.334 0 84 -31 104 -93l4 -40c0 -58.667 -28 -100.667 -84 -126l-25 -3
c-27.333 0 -50 11.333 -68 34v-106h-52v326h47v-29c20 24.667 44.334 37 73 37zM4714 -38h5c22.666 0 43.666 -12.333 63 -37c18 24.667 41 37 69 37h6c37.334 0 63.667 -22 79 -66l6 -51v-136h-52v122c0 48.667 -13 73 -39 73h-7c-23.334 0 -37 -16.667 -41 -50v-140l-5 -5
h-48v140c0 28 -10.334 46.333 -31 55h-17c-26.666 0 -40 -25.667 -40 -77v-118h-51v245h47v-21c14.666 19.333 33.333 29 56 29zM359 -46h49l5 -6v-234l-5 -5h-49v245zM1297 -46h52v-245h-52v245zM1649 -46h52v-136c2.66699 -40 17 -60 43 -60h4c29.333 0 44 27 44 81v115
h52v-245h-47v24h-5c-8 -22 -27.667 -33 -59 -33c-34.667 0 -61 21 -79 63c-3.33301 8 -5 19.333 -5 34v157zM2458 -46h51v-245h-51v245zM4515 -46h51v-245h-51v245zM1077 -169c0 -35.333 16.999 -59.666 50.999 -72.999h12c36 0 58 22 66 66v10
c0 35.333 -18 58.666 -54 69.999h-17c-25.333 0 -44.666 -19 -57.999 -57v-16zM1438 -143h122.001c-12 31.333 -29.667 47 -53 47h-7c-28.667 0 -49.334 -14.667 -62.001 -44v-3zM2599 -143h122c-14 31.333 -32 47 -54 47h-7c-30.667 0 -51 -15.667 -61 -47zM3196 -158v-11
c6.66699 -48.667 27 -73 61 -73h5c42.667 5.33301 64 29 64 71v5c0 30 -12.667 51.667 -38 65l-18 5h-14c-40 -9.33301 -60 -30 -60 -62zM3452 -173c9.33301 -46 30 -69 62 -69h11c27.333 0 47 20 59 60v13c-5.33301 48.667 -24 73 -56 73h-17
c-31.333 0 -51 -24.333 -59 -73v-4zM4062 -158v-22c0 -31.333 19.667 -52 59 -62h9c33.334 0 53.667 25.333 61 76c-8.66602 46.667 -28 70 -58 70h-15c-37.333 -11.333 -56 -32 -56 -62z" />
    <glyph glyph-name="space" unicode=" " horiz-adv-x="602" 
 />
    <glyph glyph-name="exclam" unicode="!" horiz-adv-x="716" 
d="M491 291v-291h-299v291h299zM499 1098l-82 -688h-151l-82 688v372h315v-372z" />
    <glyph glyph-name="quotedbl" unicode="&#x22;" horiz-adv-x="1015" 
d="M569 918v552h200v-552h-200zM200 918v552h201v-552h-201z" />
    <glyph glyph-name="numbersign" unicode="#" 
d="M1044 594l-25 -184h-201l-57 -410h-193l58 410h-197l-57 -410h-193l58 410h-201l25 184h200l33 246h-197l25 184h197l57 406h192l-57 -406h201l57 406h193l-58 -406h197l-25 -184h-196l-37 -246h201zM687 840h-200l-33 -246h196z" />
    <glyph glyph-name="dollar" unicode="$" 
d="M1048 1028l-262 0.000976562c0 84.667 -17.667 142.667 -53 174c-26 23.333 -64.333 35 -115 35v-381c92.667 -30 166 -58.333 220 -85s94 -53 120 -79c36.667 -34 65 -74.833 85 -122.5s30 -102.167 30 -163.5c0 -112 -33.667 -209 -101 -291
c-83.333 -101.333 -201.333 -152 -354 -152v-201h-94v201c-165.333 14 -283.833 58.5 -355.5 133.5s-107.5 190.167 -107.5 345.5h270c7.33301 -82 21 -139.333 41 -172c27.333 -43.333 78 -72 152 -86v430c-132.667 36 -229.667 76.333 -291 121
c-92.667 70 -139 167.667 -139 293c0 121.333 34.667 220.333 104 297c78 86 186.667 129 326 129v135h94v-135c117.333 -12 207.333 -39.333 270 -82c106.667 -70.667 160 -185.334 160 -344.001zM524 885.001v352c-56 0 -98.667 -16.333 -128 -49s-44 -69.667 -44 -111
c0 -60 18.333 -106.333 55 -139c28.667 -26 67.667 -43.667 117 -53zM618 578.001v-393.999c45.333 0 83.666 13 114.999 39c43.333 35.333 65 89.333 65 162c0 53.333 -19.667 97.666 -59 132.999c-31.333 27.333 -71.666 47.333 -120.999 60z" />
    <glyph glyph-name="percent" unicode="%" horiz-adv-x="1892" 
d="M1020 348c0 104 36.168 192.167 108.501 264.5s160.166 108.5 263.499 108.5c101.333 0 188.833 -36.167 262.5 -108.5s110.5 -160.5 110.5 -264.5c0 -100.667 -36.833 -188 -110.5 -262s-161.167 -111 -262.5 -111c-102 0 -189.5 35.833 -262.5 107.5
s-109.5 160.167 -109.5 265.5zM1228 348c0 -44.667 16.167 -82.5 48.5 -113.5s70.833 -46.5 115.5 -46.5c44 0 81.667 15.167 113 45.5s47 68.5 47 114.5c0 44 -15.667 82.333 -47 115s-69 49 -113 49c-44.667 0 -83.167 -16 -115.5 -48s-48.5 -70.667 -48.5 -116z
M57.001 1081c0 104 36.167 192.166 108.5 264.499s160.5 108.5 264.5 108.5c102 0 189.5 -36.5 262.5 -109.5s109.5 -160.833 109.5 -263.5c0 -102 -36.5 -189.5 -109.5 -262.5s-160.5 -109.5 -262.5 -109.5c-102.667 0 -190.5 35.833 -263.5 107.5
s-109.5 159.834 -109.5 264.501zM270.001 1081c0 -43.333 15.667 -80.668 47 -112.001s69 -47 113 -47c44.667 0 83.167 15.333 115.5 46s48.5 68.334 48.5 113.001c0 45.333 -16.167 84 -48.5 116s-70.833 48 -115.5 48c-44 0 -81.667 -15.667 -113 -47
s-47 -70.333 -47 -117zM1388 1454l-815 -1495h-151l815 1495h151z" />
    <glyph glyph-name="ampersand" unicode="&#x26;" horiz-adv-x="1544" 
d="M794 1135c0 39.333 -11.332 68.833 -33.999 88.5s-52.334 29.5 -89.001 29.5c-32.667 0 -60.667 -10.167 -84 -30.5s-35 -49.5 -35 -87.5c0 -44 35.667 -105.667 107 -185c43.333 27.333 75.333 54 96 80c26 32.667 39 67.667 39 105zM1171 324l265.999 -324.001h-348
l-98 127c-52 -52 -105.333 -91 -160 -117c-72.667 -34 -160 -51 -262 -51c-135.333 0 -245.666 41.333 -330.999 124s-128 182 -128 298c0 82 16.333 151.667 49 209c44 76.667 122 149 234 217l32 20c-36.667 42.667 -66.667 86.334 -90 131.001
c-30 60.667 -45 119.667 -45 177c0 99.333 36.5 180 109.5 242s167.5 93 283.5 93c92 0 172 -26.333 240 -79c80.667 -63.333 121 -150.333 121 -261c0 -88.667 -32.667 -167.667 -98 -237c-40 -42.667 -89.333 -79.667 -148 -111l209 -258
c19.333 30 35.833 64.833 49.5 104.5s23.167 85.5 28.5 137.5h254c-10 -100 -27.5 -181.667 -52.5 -245s-63.5 -129 -115.5 -197zM843 306.999l-270.001 336c-68.667 -48 -113 -85 -133 -111c-28.667 -35.333 -43 -80.333 -43 -135c0 -42 14.333 -80.667 43 -116
c40.667 -50.667 98.667 -76 174 -76c43.333 0 87 11 131 33c32.667 16 65.334 39 98.001 69z" />
    <glyph glyph-name="quotesingle" unicode="'" horiz-adv-x="507" 
d="M143 918v552h201v-552h-201z" />
    <glyph glyph-name="parenleft" unicode="(" horiz-adv-x="716" 
d="M642 -426h-209c-108.667 146 -191.667 286.667 -249 422c-74 174.667 -111 355 -111 541c0 184 35.333 362.667 106 536c58 138 142.667 281.333 254 430h209c-87.333 -150 -152 -291.333 -194 -424c-53.333 -169.333 -80 -350 -80 -542c0 -194 27.333 -375.667 82 -545
c39.333 -124.667 103.333 -264 192 -418z" />
    <glyph glyph-name="parenright" unicode=")" horiz-adv-x="716" 
d="M40 1503l209 0.000976562c109.333 -146 192.666 -286.667 249.999 -422c73.333 -174.667 110 -353.334 110 -536.001c0 -187.333 -35.333 -367.666 -106 -540.999c-56 -138 -140.667 -281.333 -254 -430h-209c88.667 150 153.667 291.333 195 424
c52.667 169.333 79 351.666 79 546.999c0 192.667 -27 372.667 -81 540c-41.333 124.667 -105.666 264 -192.999 418z" />
    <glyph glyph-name="asterisk" unicode="*" horiz-adv-x="831" 
d="M692 1298l49 -151l-213 -66l139 -196l-127 -90l-139 184l-143 -184l-127 90l139 196l-213 66l45 151l209 -69v241h176v-241z" />
    <glyph glyph-name="plus" unicode="+" horiz-adv-x="1245" 
d="M482 635v401h230v-401h401v-229h-401v-406h-230v406h-401v229h401z" />
    <glyph glyph-name="comma" unicode="," horiz-adv-x="602" 
d="M438 299l-0.000976562 -257.999c0 -118.667 -28.667 -209.334 -86 -272.001c-47.333 -52 -119.666 -89.667 -216.999 -113l-4 106c54.667 20.667 93 42 115 64c38 39.333 57 97.333 57 174h-172v299h307z" />
    <glyph glyph-name="hyphen" unicode="-" horiz-adv-x="716" 
d="M626 709v-267h-569v267h569z" />
    <glyph glyph-name="hyphen" unicode="&#x2010;" horiz-adv-x="716" 
d="M626 709v-267h-569v267h569z" />
    <glyph glyph-name="period" unicode="." horiz-adv-x="602" 
d="M438 299v-299h-307v299h307z" />
    <glyph glyph-name="slash" unicode="/" horiz-adv-x="602" 
d="M640 1511l-467 -1552h-242l467 1552h242z" />
    <glyph glyph-name="zero" unicode="0" 
d="M65 709c0 256.667 41 445 123 565s209 180 381 180s299 -60 381 -180s123 -308.333 123 -565c0 -254 -41 -442.5 -123 -565.5s-209 -184.5 -381 -184.5c-336 0 -504 250 -504 750zM360 709c0 -190 14.667 -323.501 44 -400.501s84.333 -115.5 165 -115.5
s135.667 37.833 165 113.5s44 209.834 44 402.501c0 192 -14.667 326 -44 402s-84.333 114 -165 114s-135.667 -38 -165 -114s-44 -210 -44 -402z" />
    <glyph glyph-name="one" unicode="1" 
d="M143 1004v200.001h41c124 0 217.667 28 281 84c50 45.333 75 100.666 75 165.999h234v-1454h-287v1004h-344z" />
    <glyph glyph-name="two" unicode="2" 
d="M348 942l-279.002 -0.00488281c0 158.667 39 281.667 117 369c84.667 95.333 204.334 143 359.001 143c144.667 0 264 -40.667 358 -122s141 -193.666 141 -336.999c0 -112 -32 -209.667 -96 -293c-44 -57.333 -113 -116.666 -207 -177.999l-178 -125
c-79.333 -58.667 -127.666 -107 -144.999 -145h630v-254h-995c0 106.667 17 195.334 51 266.001c50.667 104 147 208 289 312c118.667 87.333 195 146 229 176c90.667 78.667 136 163.334 136 254.001c0 52.667 -16 98.334 -48 137.001c-36.667 44.667 -87.667 67 -153 67
c-88.667 0 -148.667 -31.333 -180 -94c-19.333 -38 -29 -96.667 -29 -176z" />
    <glyph glyph-name="three" unicode="3" 
d="M438 639l-0.00195312 205h45c66.667 0 117.334 8.66699 152.001 26c60 32 90 88.667 90 170c0 42.667 -10.333 79.667 -31 111c-31.333 49.333 -81.333 74 -150 74c-84.667 0 -142 -33 -172 -99c-16 -35.333 -24 -81.666 -24 -138.999h-266c0 142 38.667 254 116 336
c83.333 87.333 204.333 131 363 131c118.667 0 218.334 -28.667 299.001 -86c100.667 -72 151 -178.333 151 -319c0 -67.333 -18.333 -127 -55 -179c-31.333 -43.333 -70.333 -75.333 -117 -96c71.333 -30 125.333 -74 162 -132s55 -128.667 55 -212
c0 -138 -46 -251 -138 -339s-211 -132 -357 -132c-120 0 -220.333 24 -301 72c-135.333 80.667 -203 219 -203 415h279c0 -62.667 10.667 -114.334 32 -155.001c36 -65.333 96.333 -98 181 -98c61.333 0 112.166 20 152.499 60s60.5 99 60.5 177
c0 88.667 -37.667 148.667 -113 180c-45.333 19.333 -115.666 29 -210.999 29z" />
    <glyph glyph-name="four" unicode="4" 
d="M266 545h364l5 626zM1077 545v-221h-160v-324h-287v324h-573v245l532 885h328v-909h160z" />
    <glyph glyph-name="five" unicode="5" 
d="M409 1188l-53.001 -316c39.333 27.333 71.333 46 96 56c45.333 17.333 100.666 26 165.999 26c112 0 209 -36 291 -108c98 -87.333 147 -208.333 147 -363c0 -130.667 -34 -242.667 -102 -336c-92.667 -125.333 -234.667 -188 -426 -188
c-125.333 0 -231.666 34.667 -318.999 104c-101.333 80.667 -152 189.334 -152 326.001h287c6.66699 -61.333 26.334 -109.333 59.001 -144s79.667 -52 141 -52c68.667 0 122.167 25.167 160.5 75.5s57.5 115.166 57.5 194.499c0 72 -16.667 132 -50 180
c-38 54.667 -92.333 82 -163 82c-45.333 0 -84 -8.83301 -116 -26.5s-57.667 -44.5 -77 -80.5l-254 13l98 799h799v-242h-590z" />
    <glyph glyph-name="six" unicode="6" 
d="M1036 1085l-283 0.000976562c-4 42.667 -20 76.667 -48 102s-68 38 -120 38c-86 0 -149.333 -43 -190 -129c-34 -71.333 -51 -162.333 -51 -273l4 -4c26 34 56 60.667 90 80c50.667 28.667 112 43 184 43c140.667 0 252 -47.667 334 -143c72 -84.667 108 -187 108 -307
c0 -158.667 -43.667 -287.167 -131 -385.5s-202 -147.5 -344 -147.5c-198 0 -340 77 -426 231c-65.333 119.333 -98 286.666 -98 501.999c0 130 9 236.667 27 320c27.333 129.333 77 231 149 305c90 91.333 211.667 137 365 137c44.667 0 91.667 -6 141 -18
c70.667 -18 122 -43.333 154 -76c40.667 -40 70.5 -77.667 89.5 -113s34.167 -89.333 45.5 -162zM778 467.001c0 84.667 -23.332 148.667 -69.999 192c-38 36 -84.333 54 -139 54c-58.667 0 -108 -19.333 -148 -58c-46 -44.667 -69 -108.667 -69 -192
c0 -79.333 20.5 -144.166 61.5 -194.499s95.5 -75.5 163.5 -75.5c57.333 0 103.666 21 138.999 63c41.333 49.333 62 119.666 62 210.999z" />
    <glyph glyph-name="seven" unicode="7" 
d="M1081 1430l-0.000976562 -221.999c-82 -88.667 -148.333 -168.334 -199 -239.001c-94 -131.333 -168.333 -268 -223 -410c-70.667 -182.667 -106 -369 -106 -559h-295c0 176 35.333 354.333 106 535c54.667 137.333 128.334 273 221.001 407
c59.333 84.667 122.333 162.667 189 234h-721l4 254h1024z" />
    <glyph glyph-name="eight" unicode="8" 
d="M573 864c53.333 0 95.998 16.8311 127.998 50.498s48 76.834 48 129.501c0 54.667 -15.667 98.5 -47 131.5s-71.666 49.5 -120.999 49.5c-62.667 0 -111.167 -16.5 -145.5 -49.5s-51.5 -76.833 -51.5 -131.5c0 -47.333 16.833 -89.166 50.5 -125.499
s79.834 -54.5 138.501 -54.5zM1073 433.998c0 -116 -35.667 -217.665 -107 -304.998c-92.667 -113.333 -225 -170 -397 -170c-170.667 0 -301 49 -391 147c-75.333 82 -113 182 -113 300c0 69.333 9 126.666 27 171.999c34 87.333 98.667 152.666 194 195.999
c-58.667 30 -102.667 67.5 -132 112.5s-44 101.833 -44 170.5c0 122.667 42.667 219.5 128 290.5s194.333 106.5 327 106.5c143.333 0 257.333 -37.667 342 -113c77.333 -69.333 116 -157.333 116 -264c0 -66.667 -13.167 -125 -39.5 -175s-68.833 -90 -127.5 -120
c73.333 -36.667 126.333 -79.667 159 -129c38.667 -56 58 -129 58 -219zM777.998 422c0 61.333 -15.001 111.667 -45.001 151c-37.333 49.333 -93.333 74 -168 74c-57.333 0 -104.666 -17 -141.999 -51c-42 -39.333 -63 -97.333 -63 -174c0 -70 19.5 -125.667 58.5 -167
s90.5 -62 154.5 -62c68 0 120.667 25 158 75c31.333 42.667 47 94 47 154z" />
    <glyph glyph-name="nine" unicode="9" 
d="M348 975c0 -101.333 21.667 -172.999 65 -214.999c36 -34 86.667 -51 152 -51c56 0 103 18.333 141 55c45.333 43.333 68 105.333 68 186c0 180.667 -72.333 271 -217 271c-52 0 -95.667 -14.333 -131 -43c-52 -42.667 -78 -110.334 -78 -203.001zM90 336.001
l286.001 0.000976562c8.66699 -50.667 27 -87.167 55 -109.5s65.667 -33.5 113 -33.5c68.667 0 123.334 28.667 164.001 86c49.333 69.333 74 175.666 74 318.999l-4 4c-30 -44.667 -71.667 -77.334 -125 -98.001c-42.667 -16.667 -92.667 -25 -150 -25
c-134.667 0 -242 43.667 -322 131s-120 195.333 -120 324c0 170.667 47 301.667 141 393c87.333 84.667 205.666 127 354.999 127c216.667 0 364.667 -98.333 444 -295c45.333 -110.667 68 -260.667 68 -450c0 -261.333 -55.333 -456.666 -166 -585.999
c-93.333 -109.333 -214.333 -164 -363 -164c-122.667 0 -225.334 34.5 -308.001 103.5s-130 160.167 -142 273.5z" />
    <glyph glyph-name="colon" unicode=":" horiz-adv-x="716" 
d="M495 299v-299h-307v299h307zM495 1049v-299h-307v299h307z" />
    <glyph glyph-name="semicolon" unicode=";" horiz-adv-x="716" 
d="M495 299l-0.000976562 -257.999c0 -118.667 -28.667 -209.334 -86 -272.001c-47.333 -52 -119.666 -89.667 -216.999 -113l-4 106c54.667 20.667 93 42 115 64c38 39.333 57 97.333 57 174h-172v299h307zM494.999 1049v-299h-307v299h307z" />
    <glyph glyph-name="less" unicode="&#x3c;" horiz-adv-x="1245" 
d="M1117 205v-221l-1040 442v184l1040 443v-222l-741 -311z" />
    <glyph glyph-name="equal" unicode="=" horiz-adv-x="1245" 
d="M1113 860v-229h-1032v229h1032zM1113 410v-230h-1032v230h1032z" />
    <glyph glyph-name="greater" unicode="&#x3e;" horiz-adv-x="1245" 
d="M77 205l745 315l-745 311v222l1040 -443v-184l-1040 -442v221z" />
    <glyph glyph-name="question" unicode="?" horiz-adv-x="1314" 
d="M765 426l-270 -0.000976562c0 106.667 11 183.667 33 231c26.667 58.667 85.334 119.667 176.001 183c43.333 30 75.333 61 96 93s31 69 31 111c0 72.667 -22 126.667 -66 162c-35.333 28.667 -79 43 -131 43c-82 0 -142 -27.333 -180 -82
c-27.333 -39.333 -41 -91 -41 -155l-291 -4c0 164.667 54 290 162 376c88.667 71.333 198.667 107 330 107c162 0 291.667 -41 389 -123c90 -76.667 135 -181.667 135 -315c0 -79.333 -21.333 -149 -64 -209c-36.667 -52 -97.334 -108 -182.001 -168
c-48 -35.333 -80 -66.666 -96 -93.999c-20.667 -36 -31 -88 -31 -156zM786 286.999v-287h-299v287h299z" />
    <glyph glyph-name="at" unicode="@" horiz-adv-x="2076" 
d="M1191 770c0 52 -15 94.333 -45 127s-69.667 49 -119 49c-68 0 -125.167 -29 -171.5 -87s-69.5 -121.667 -69.5 -191c0 -53.333 14.667 -96.833 44 -130.5s68 -50.5 116 -50.5c70.667 0 129.167 29.167 175.5 87.5s69.5 123.5 69.5 195.5zM1253 1012l24.001 106h181
l-119 -520c-5.33301 -30 -11 -60 -17 -90c0 -27.333 11 -41 33 -41c58.667 0 112.334 33.833 161.001 101.5s73 153.834 73 258.501c0 162.667 -52.667 290.167 -158 382.5s-240 138.5 -404 138.5c-173.333 0 -313.5 -58.5 -420.5 -175.5s-160.5 -263.5 -160.5 -439.5
c0 -181.333 57 -327.666 171 -438.999s260.333 -167 439 -167c83.333 0 162.166 14.667 236.499 44s138.833 69.333 193.5 120h185c-71.333 -104 -161.666 -185.333 -270.999 -244s-228 -88 -356 -88c-224 0 -413.833 74.5 -569.5 223.5s-233.5 333.833 -233.5 554.5
c0 217.333 77.5 400.666 232.5 549.999s341.167 224 558.5 224c193.333 0 359.666 -57.333 498.999 -172c147.333 -121.333 221 -275.333 221 -462c0 -192.667 -68.667 -346.334 -206 -461.001c-106.667 -88.667 -211.334 -133 -314.001 -133
c-34 0 -62.333 8.83301 -85 26.5s-34 44.167 -34 79.5l-4 4c-27.333 -31.333 -60 -57.5 -98 -78.5s-76.333 -31.5 -115 -31.5c-90 0 -167.667 35.167 -233 105.5s-98 153.833 -98 250.5c0 132.667 40 248 120 346c86 105.333 192 158 318 158
c54.667 0 102.5 -10.333 143.5 -31s76.5 -54 106.5 -100z" />
    <glyph glyph-name="A" unicode="A" horiz-adv-x="1454" 
d="M430 303l-102 -303h-324l524 1470h357l516 -1470h-332l-94 303h-545zM512 557h377l-185 582z" />
    <glyph glyph-name="B" unicode="B" horiz-adv-x="1544" 
d="M155 0v1470h717c160.667 0 280.667 -43.667 360 -131c60 -66.667 90 -148.334 90 -245.001c0 -92 -21.667 -164.333 -65 -217c-26 -32 -64.333 -59.333 -115 -82c84.667 -33.333 145.334 -83.333 182.001 -150c32 -56 48 -125 48 -207c0 -60 -11 -115.5 -33 -166.5
s-53.333 -96.5 -94 -136.5c-50.667 -48 -101.334 -80.667 -152.001 -98c-71.333 -24.667 -176.333 -37 -315 -37h-623zM450 647.001l0.000976562 -393h377c77.333 0 136.166 17.333 176.499 52s60.5 89.667 60.5 165c0 58.667 -21.167 102.667 -63.5 132
s-94.833 44 -157.5 44h-393zM450.001 1217l-0.000976562 -319.999h360c66 0 117.333 12.333 154 37c42 28.667 63 71 63 127c0 57.333 -18.667 97.666 -56 120.999s-93.666 35 -168.999 35h-352z" />
    <glyph glyph-name="C" unicode="C" horiz-adv-x="1544" 
d="M1401 991l-307.002 0.00195312c-20.667 71.333 -46 124 -76 158c-56 64 -138.667 96 -248 96c-95.333 0 -174.666 -33.333 -237.999 -100c-84.667 -88.667 -127 -227.334 -127 -416.001c0 -143.333 28 -259.333 84 -348c64.667 -101.333 158.334 -152 281.001 -152
c84.667 0 155.334 23.667 212.001 71s94 115.333 112 204h307c-32.667 -166.667 -100.334 -297 -203.001 -391c-112 -102.667 -257.333 -154 -436 -154c-200.667 0 -361.334 65.667 -482.001 197c-126.667 137.333 -190 329.666 -190 576.999
c0 248.667 65.667 442.667 197 582c122.667 130.667 282.334 196 479.001 196c202 0 363 -59.333 483 -178c101.333 -100.667 152 -214.667 152 -342z" />
    <glyph glyph-name="D" unicode="D" horiz-adv-x="1544" 
d="M155 0l-0.000976562 1470h651c221.333 0 383.333 -81.667 486 -245c74.667 -120.667 112 -272.334 112 -455.001c0 -198 -41 -365.333 -123 -502c-107.333 -178.667 -269.666 -268 -486.999 -268h-639zM457.999 1217v-963h299c116 0 202.667 52 260 156
c48 86 72 199.333 72 340c0 189.333 -39.667 321 -119 395c-52 48 -124.333 72 -217 72h-295z" />
    <glyph glyph-name="E" unicode="E" horiz-adv-x="1429" 
d="M1236 1470v-258h-778v-311h717v-258h-717v-381h815v-262h-1118v1470h1081z" />
    <glyph glyph-name="F" unicode="F" horiz-adv-x="1314" 
d="M462 618v-618h-307v1470h1049v-258h-742v-331h647v-263h-647z" />
    <glyph glyph-name="G" unicode="G" horiz-adv-x="1658" 
d="M848 545l0.000976562 250.001h614v-795h-205l-32 184c-60.667 -68 -112.667 -116.333 -156 -145c-83.333 -53.333 -184.333 -80 -303 -80c-188.667 0 -345 64.333 -469 193c-138 142 -207 335.667 -207 581c0 217.333 58 397 174 539
c131.333 159.333 313.666 239 546.999 239c204.667 0 367.667 -57.333 489 -172c102.667 -96.667 154 -204.334 154 -323.001h-307c0 42 -26 89 -78 141c-65.333 66.667 -146 100 -242 100c-120 0 -217.667 -40.667 -293 -122c-86 -94.667 -129 -230 -129 -406
c0 -184 44.667 -318.333 134 -403c72 -70 169.333 -105 292 -105c90.667 0 167.667 29 231 87s105.333 137 126 237h-340z" />
    <glyph glyph-name="H" unicode="H" horiz-adv-x="1544" 
d="M1028 659h-574v-659h-307v1470h307v-557h574v557h307v-1470h-307v659z" />
    <glyph glyph-name="I" unicode="I" horiz-adv-x="602" 
d="M438 1470v-1470h-307v1470h307z" />
    <glyph glyph-name="J" unicode="J" 
d="M991 1470l-0.000976562 -1044c0 -154 -38.5 -269.667 -115.5 -347s-189.833 -116 -338.5 -116c-217.333 0 -361 63.667 -431 191c-40.667 74.667 -61 209 -61 403h287c0 -130 9.33301 -216.667 28 -260c24.667 -56 75.334 -84 152.001 -84c72 0 120.333 21 145 63
c18 30.667 27 80.667 27 150v1044h307z" />
    <glyph glyph-name="K" unicode="K" horiz-adv-x="1544" 
d="M487 500v-500h-307v1470h307v-598l561 598h398l-602 -602l634 -868h-393l-454 647z" />
    <glyph glyph-name="L" unicode="L" horiz-adv-x="1314" 
d="M462 1470v-1204h733v-266h-1040v1470h307z" />
    <glyph glyph-name="M" unicode="M" horiz-adv-x="1777" 
d="M1568 1470v-1470h-286v1229l-279 -1229h-303l-266 1229l-4 -1229h-287v1470h446l267 -1159l266 1159h446z" />
    <glyph glyph-name="N" unicode="N" horiz-adv-x="1544" 
d="M1052 1470h287v-1470h-307l-598 1049l-4 -1049h-287v1470h324l581 -1024z" />
    <glyph glyph-name="O" unicode="O" horiz-adv-x="1548" 
d="M86 737c0 209.333 46.333 378.001 139 506.001c72.667 101.333 171.667 174.333 297 219c90 32.667 181 49 273 49c92.667 0 182 -15.667 268 -47c125.333 -46 224.333 -119 297 -219c92.667 -128 139 -297.333 139 -508c0 -208.667 -46.333 -378 -139 -508
c-72.667 -100.667 -171.667 -174.334 -297 -221.001c-88.667 -32.667 -178 -49 -268 -49c-94.667 0 -185 15.667 -271 47c-125.333 46.667 -224.333 119.667 -297 219c-94 131.333 -141 302 -141 512zM393 737.001c0 -185.333 45.667 -323.001 137 -413.001
c70 -68.667 158.333 -103 265 -103c103.333 0 190 34.333 260 103c91.333 90 137 227.667 137 413c0 184.667 -45.667 321.334 -137 410.001c-70 68 -156.667 102 -260 102c-104 0 -191.667 -34 -263 -102c-92.667 -90 -139 -226.667 -139 -410z" />
    <glyph glyph-name="P" unicode="P" horiz-adv-x="1429" 
d="M462 532v-531.999h-307v1470h672c143.333 0 255.5 -41.833 336.5 -125.5s121.5 -198.834 121.5 -345.501c0 -103.333 -28.667 -197.333 -86 -282c-82.667 -123.333 -211 -185 -385 -185h-352zM462 786.001l286.999 -0.000976562c98 0 165 30.333 201 91
c18.667 32.667 28 79 28 139c0 70.667 -21.167 121.834 -63.5 153.501s-111.166 47.5 -206.499 47.5h-246v-431z" />
    <glyph glyph-name="Q" unicode="Q" horiz-adv-x="1658" 
d="M815 401l160 163.999l155 -143c44 79.333 66 184.333 66 315c0 184.667 -45.667 321.334 -137 410.001c-70 68 -156.667 102 -260 102c-104 0 -191.667 -34 -263 -102c-92.667 -90 -139 -226.667 -139 -410c0 -185.333 45.667 -323 137 -413
c70 -68.667 158.333 -103 265 -103c30 0 57.5 3.16699 82.5 9.5s51.833 16.833 80.5 31.5zM1511 60.999l-164 -167.002l-172 167c-62.667 -38 -132 -66 -208 -84c-54.667 -12 -110.667 -18 -168 -18c-94.667 0 -185 15.667 -271 47
c-125.333 46.667 -224.333 119.667 -297 219c-94 131.333 -141 302 -141 512c0 209.333 46.333 378 139 506c72.667 101.333 171.667 174.333 297 219c90 32.667 181 49 273 49c92.667 0 182 -15.667 268 -47c125.333 -46 224.333 -119 297 -219
c92.667 -128 139 -297.333 139 -508c0 -117.333 -13 -218.666 -39 -303.999s-63.333 -158.666 -112 -219.999z" />
    <glyph glyph-name="R" unicode="R" horiz-adv-x="1544" 
d="M155 0v1470h745c170.667 0 296.334 -52.333 377.001 -157c57.333 -75.333 86 -160.666 86 -255.999c0 -83.333 -20.167 -156.833 -60.5 -220.5s-96.5 -107.5 -168.5 -131.5c69.333 -30.667 115.666 -65 138.999 -103c32.667 -53.333 49 -143.333 49 -270
c0 -101.333 1.83301 -171.833 5.5 -211.5s23.834 -66.167 60.501 -79.5v-41h-340c-10.667 38 -18.834 78.167 -24.501 120.5s-8.5 101.833 -8.5 178.5c0 110.667 -11.667 182.334 -35 215.001c-30 42.667 -99 64 -207 64h-315v-578h-303zM458 822.998l361.002 -0.00195312
c81.333 0 141.166 15.833 179.499 47.5s57.5 82.834 57.5 153.501c0 50.667 -13.667 92.334 -41 125.001c-36.667 45.333 -95.334 68 -176.001 68h-381v-394z" />
    <glyph glyph-name="S" unicode="S" horiz-adv-x="1429" 
d="M81 455l294.999 0.00292969c0 -60 17.667 -110 53 -150c53.333 -58.667 139.333 -88 258 -88c88.667 0 157.667 11.667 207 35c66.667 31.333 100 82.666 100 153.999c0 51.333 -24.333 91.333 -73 120c-34.667 20.667 -99 42 -193 64l-160 37
c-156.667 35.333 -263.667 72.666 -321 111.999c-97.333 67.333 -146 173.333 -146 318c0 113.333 35 209.666 105 288.999c96.667 110 250.334 165 461.001 165c200.667 0 352 -56.667 454 -170c79.333 -87.333 119 -189 119 -305h-295
c-6.66699 58.667 -23.667 103.667 -51 135c-49.333 57.333 -132 86 -248 86c-69.333 0 -127.333 -12.667 -174 -38c-56 -32 -84 -78 -84 -138c0 -50 17.667 -88 53 -114c20.667 -15.333 55 -29 103 -41l360 -86c122 -30 211.667 -69 269 -117
c77.333 -65.333 116 -159 116 -281c0 -148.667 -49 -264 -147 -346c-109.333 -91.333 -254 -137 -434 -137c-236.667 0 -408 59.333 -514 178c-75.333 84.667 -113 190.667 -113 318z" />
    <glyph glyph-name="T" unicode="T" horiz-adv-x="1314" 
d="M782 1212v-1212h-308v1212h-446v258h1196v-258h-442z" />
    <glyph glyph-name="U" unicode="U" horiz-adv-x="1478" 
d="M1323 1470v-953.999c0 -190 -54 -331.333 -162 -424c-102.667 -88.667 -250.667 -133 -444 -133c-83.333 0 -161.333 11.667 -234 35c-96.667 31.333 -174.334 79.666 -233.001 144.999c-76.667 88.667 -115 207.667 -115 357v974h315v-954
c0 -96.667 24.667 -170 74 -220s112.333 -75 189 -75c100.667 0 174.834 24 222.501 72s71.5 118.333 71.5 211v966h316z" />
    <glyph glyph-name="V" unicode="V" horiz-adv-x="1429" 
d="M1007 1470h319l-500 -1470h-290l-496 1470h328l315 -1114z" />
    <glyph glyph-name="W" unicode="W" horiz-adv-x="2007" 
d="M450 0l-418.001 1470h328l176 -763.5c26 -117.667 45 -220.834 57 -309.501l33 174c9.33301 53.333 28.333 153.833 57 301.5l119 597.5h328l135 -643c30 -148.667 57.333 -292 82 -430l35.5 173.5c13 62.333 34.5 158 64.5 287l146 612.5h311l-414 -1470h-295l-114 555
c-20.667 96.667 -43 207.834 -67 333.501s-40 211.834 -48 258.501l-47 -254c-23.333 -122.667 -44.666 -229.334 -63.999 -320.001l-118 -573h-287z" />
    <glyph glyph-name="X" unicode="X" horiz-adv-x="1429" 
d="M859 766l480 -766h-377l-279 504l-295 -504h-360l475 754l-446 716h364l262 -475l271 475h352z" />
    <glyph glyph-name="Y" unicode="Y" horiz-adv-x="1429" 
d="M847 553v-553h-307v557l-508 913h360l308 -639l290 639h349z" />
    <glyph glyph-name="Z" unicode="Z" horiz-adv-x="1314" 
d="M1200 262v-262h-1147v262l758 950h-738v258h1123v-241l-770 -967h774z" />
    <glyph glyph-name="bracketleft" unicode="[" horiz-adv-x="716" 
d="M381 1282v-1487h254v-196h-504v1880h504v-197h-254z" />
    <glyph glyph-name="backslash" unicode="\" horiz-adv-x="602" 
d="M398 -41l-467 1552h242l467 -1552h-242z" />
    <glyph glyph-name="bracketright" unicode="]" horiz-adv-x="716" 
d="M303 -205v1487h-254v197h504v-1880h-504v196h254z" />
    <glyph glyph-name="asciicircum" unicode="^" horiz-adv-x="1245" 
d="M351 664h-225l369 766h204l369 -766h-225l-246 536z" />
    <glyph glyph-name="underscore" unicode="_" 
d="M1139 -258h-1139v102h1139v-102z" />
    <glyph glyph-name="grave" unicode="`" horiz-adv-x="716" 
d="M254 1237l-303 299h319l193 -299h-209z" />
    <glyph glyph-name="a" unicode="a" 
d="M1015 803l-0.00195312 -590.001c0 -58.667 5.5 -99.667 16.5 -123s27.5 -38.333 49.5 -45v-45h-311c-11.333 36.667 -18.333 60.834 -21 72.501s-4 31.167 -4 58.5c-44 -46.667 -86.333 -81.334 -127 -104.001c-65.333 -37.333 -140.333 -56 -225 -56
c-91.333 0 -167.333 24.667 -228 74c-69.333 57.333 -104 139.333 -104 246c0 100.667 30 182 90 244c53.333 54 128.333 88.667 225 104l258 37c38.667 6.66699 65.5 16.834 80.5 30.501s22.5 32.167 22.5 55.5c0 53.333 -22 89.333 -66 108
c-28.667 12.667 -69.667 19 -123 19c-64 0 -110.333 -17 -139 -51c-19.333 -22 -31.666 -55.667 -36.999 -101h-278c14.667 152 72 257.333 172 316c73.333 43.333 178.333 65 315 65c110.667 0 202.334 -18.333 275.001 -55c106 -53.333 159 -140 159 -260z
M736.998 392.999l-0.000976562 138.999c-15.333 -13.333 -36.333 -24.166 -63 -32.499s-71.334 -17.5 -134.001 -27.5s-107.667 -24.667 -135 -44c-38 -26 -57 -66.333 -57 -121c0 -44.667 15 -78.667 45 -102c24.667 -19.333 53.334 -29 86.001 -29
c66.667 0 126.334 19.833 179.001 59.5s79 92.167 79 157.5z" />
    <glyph glyph-name="b" unicode="b" horiz-adv-x="1314" 
d="M888 537c0 95.333 -17.666 172.334 -52.999 231.001c-42.667 69.333 -105.667 104 -189 104c-90 0 -155.333 -36 -196 -108c-33.333 -58.667 -50 -140 -50 -244c0 -88.667 19.333 -160.334 58 -215.001c44.667 -64 110 -96 196 -96c83.333 0 145.666 38.333 186.999 115
c31.333 58.667 47 129.667 47 213zM413.001 1470l0.000976562 -520c32.667 46.667 68.667 83 108 109c60 39.333 130.333 59 211 59c126 0 230.667 -46.333 314 -139c91.333 -102.667 137 -243.334 137 -422.001c0 -165.333 -35.667 -300.333 -107 -405
c-82 -120.667 -199.333 -181 -352 -181c-66.667 0 -125.334 12.333 -176.001 37c-60 28.667 -106.333 72.334 -139 131.001l-4 -139h-279v1470h287z" />
    <glyph glyph-name="c" unicode="c" 
d="M782 397l291 0.000976562c-11.333 -96.667 -45.666 -181.334 -102.999 -254.001c-90 -114.667 -222.333 -172 -397 -172c-184.667 0 -320 62.333 -406 187c-65.333 94 -98 213.333 -98 358c0 186 41 330 123 432c90 113.333 223.667 170 401 170
c117.333 0 218.333 -26.667 303 -80c118 -73.333 177 -186 177 -338h-291c-5.33301 44 -20.333 81.667 -45 113c-34.667 42.667 -78.334 64 -131.001 64h-13c-82 0 -142.667 -35.667 -182 -107c-31.333 -56 -47 -125.667 -47 -209c0 -95.333 9.66699 -168.333 29 -219
c34 -88.667 98 -133 192 -133c64 0 115.333 25.333 154 76c28.667 38 43 75.333 43 112z" />
    <glyph glyph-name="d" unicode="d" horiz-adv-x="1314" 
d="M1130 1470v-1470h-283v139c-34 -57.333 -79.667 -99.666 -137 -126.999s-118 -41 -182 -41c-152 0 -268.667 60.333 -350 181c-72.667 106 -109 241 -109 405c0 180 45 320.667 135 422c83.333 92.667 190 139 320 139c82 0 151.667 -19 209 -57
c40.667 -27.333 76 -64.333 106 -111l4 520h287zM364 536.999c0 -80.667 16.332 -151.001 48.999 -211.001c42.667 -78 105.334 -117 188.001 -117c84.667 0 149.667 31.333 195 94c39.333 56 59 128.333 59 217c0 102.667 -16.333 183.334 -49 242.001
c-40.667 73.333 -106 110 -196 110c-86 0 -150.333 -34 -193 -102c-35.333 -57.333 -53 -135 -53 -233z" />
    <glyph glyph-name="e" unicode="e" 
d="M774 319h295c-34 -121.333 -99.667 -212 -197 -272c-80.667 -50.667 -174.667 -76 -282 -76c-166.667 0 -295 43 -385 129c-104 100 -156 256.333 -156 469c0 172 48.333 308.667 145 410c90.667 92.667 215.667 139 375 139c136.667 0 248.667 -37.333 336 -112
c117.333 -101.333 176 -263.333 176 -486v-53h-745c9.33301 -95.333 34.5 -163.5 75.5 -204.5s100.5 -61.5 178.5 -61.5c43.333 0 82.5 10.167 117.5 30.5s57.167 49.5 66.5 87.5zM344 655h442c-8 80.667 -34.667 141 -80 181c-38 32.667 -85 49 -141 49
c-129.333 0 -203 -76.667 -221 -230z" />
    <glyph glyph-name="f" unicode="f" horiz-adv-x="716" 
d="M466 885l0.000976562 -885h-286v885h-160v205h160v90c0 107.333 27.667 186 83 236s134 75 236 75l148 -4v-234h-82c-46.667 0 -74.834 -7.16699 -84.501 -21.5s-14.5 -46.5 -14.5 -96.5v-45h185v-205h-185z" />
    <glyph glyph-name="g" unicode="g" horiz-adv-x="1314" 
d="M859 1090l275 -0.000976562v-1033c0 -143.333 -24.667 -250.333 -74 -321c-84.667 -121.333 -244.334 -182 -479.001 -182c-126 0 -233.333 25.667 -322 77c-102 60 -153 143.333 -153 250h311c8 -35.333 22.333 -60.666 43 -75.999c30 -22.667 82.667 -34 158 -34
c77.333 0 134.833 20 172.5 60s56.5 104.667 56.5 194v131l-4 4c-38 -67.333 -83 -113 -135 -137c-42.667 -20.667 -94.667 -31 -156 -31c-138 0 -249.333 46.333 -334 139c-91.333 101.333 -137 243.333 -137 426c0 180 45 320.667 135 422c83.333 92.667 190 139 320 139
c88.667 0 162.334 -22.333 221.001 -67c38 -28.667 70.667 -69 98 -121zM376 540.999c0 -82 16.333 -149.667 49 -203c41.333 -66.667 101.333 -100 180 -100c87.333 0 151.666 33.333 192.999 100c32.667 53.333 49 125 49 215c0 92.667 -20.333 167.667 -61 225
c-45.333 62.667 -107 94 -185 94c-61.333 0 -111.666 -23 -150.999 -69c-49.333 -58.667 -74 -146 -74 -262z" />
    <glyph glyph-name="h" unicode="h" horiz-adv-x="1314" 
d="M1118 754l-0.000976562 -754.002h-287v664c0 60 -8 105 -24 135c-28.667 52 -82 78 -160 78c-65.333 0 -119.166 -22 -161.499 -66s-63.5 -105.333 -63.5 -184v-627h-287v1470h287v-520c20 46.667 59.833 86.334 119.5 119.001s126.167 49 199.5 49
c112 0 201.333 -30 268 -90c72.667 -65.333 109 -156.666 109 -273.999z" />
    <glyph glyph-name="i" unicode="i" horiz-adv-x="602" 
d="M143 1090h287v-1090h-287v1090zM430 1487v-266h-287v266h287z" />
    <glyph glyph-name="j" unicode="j" horiz-adv-x="602" 
d="M430 1090v-1205c0 -132 -30.667 -221.333 -92 -268c-49.333 -36.667 -136 -55 -260 -55h-70v229h49c31.333 0 53.5 7.83301 66.5 23.5s19.5 40.5 19.5 74.5v1201h287zM430 1487v-266h-287v266h287z" />
    <glyph glyph-name="k" unicode="k" 
d="M430 344v-344h-287v1470h287v-794l360 414h352l-385 -422l394 -668h-344l-258 467z" />
    <glyph glyph-name="l" unicode="l" horiz-adv-x="602" 
d="M430 1470v-1470h-287v1470h287z" />
    <glyph glyph-name="m" unicode="m" horiz-adv-x="1892" 
d="M1692 754v-754.003h-287v664c0 74.667 -14 128.834 -42 162.501s-66 50.5 -114 50.5c-68 0 -117 -19.5 -147 -58.5s-45 -93.5 -45 -163.5v-655h-287v655c0 70 -7 118.667 -21 146c-24 50.667 -74.333 76 -151 76c-64 0 -110 -19.167 -138 -57.5s-42 -90.166 -42 -155.499
v-664h-287v1090h274v-160c28.667 50.667 62.334 91 101.001 121c58.667 44.667 130.334 67 215.001 67c73.333 0 134 -14.333 182 -43c41.333 -24.667 81.666 -67.667 120.999 -129c43.333 62.667 87.666 107 132.999 133s98 39 158 39c112 0 201.333 -30 268 -90
c72.667 -65.333 109 -156.666 109 -273.999z" />
    <glyph glyph-name="n" unicode="n" horiz-adv-x="1314" 
d="M1118 754l0.000976562 -754.001h-287v664c0 60 -8 105 -24 135c-28.667 52 -82 78 -160 78c-65.333 0 -119.166 -22 -161.499 -66s-63.5 -105.333 -63.5 -184v-627h-287v1090h274v-160c33.333 52 67.666 91.667 102.999 119c61.333 46 137.666 69 228.999 69
c112 0 201.333 -30 268 -90c72.667 -65.333 109 -156.666 109 -273.999z" />
    <glyph glyph-name="o" unicode="o" horiz-adv-x="1245" 
d="M1191 545c0 -187.333 -56.001 -332 -168.001 -434c-100.667 -93.333 -230.334 -140 -389.001 -140c-156.667 0 -285.667 46.667 -387 140c-113.333 103.333 -170 248 -170 434c0 186.667 56 331.334 168 434.001c100.667 92.667 230.334 139 389.001 139
s288.334 -46.333 389.001 -139c112 -102.667 168 -247.334 168 -434.001zM895.999 545c0 90 -15.667 162.333 -47 217c-43.333 76.667 -115 115 -215 115c-98 0 -169 -37.667 -213 -113c-32.667 -57.333 -49 -130.333 -49 -219c0 -90 15.667 -162.333 47 -217
c44 -76.667 115.667 -115 215 -115c98.667 0 169.667 37.667 213 113c32.667 57.333 49 130.333 49 219z" />
    <glyph glyph-name="p" unicode="p" horiz-adv-x="1314" 
d="M400 520c0 -88.667 19.334 -160.333 58.001 -215c44.667 -64 110 -96 196 -96c83.333 0 145.666 38.333 186.999 115c31.333 58.667 47 129.667 47 213c0 95.333 -17.667 172.333 -53 231c-42.667 69.333 -105.667 104 -189 104c-90 0 -155.333 -36 -196 -108
c-33.333 -58.667 -50 -140 -50 -244zM400.001 1090l0.000976562 -155.999c38.667 56 77 97.667 115 125c57.333 39.333 129.666 59 216.999 59c126 0 230.667 -46.333 314 -139c91.333 -102.667 137 -243.334 137 -422.001c0 -165.333 -35.667 -300.333 -107 -405
c-82 -120.667 -199.333 -181 -352 -181c-87.333 0 -159 20.667 -215 62c-30 22 -60.667 57.333 -92 106l-4 -565h-287v1516h274z" />
    <glyph glyph-name="q" unicode="q" horiz-adv-x="1314" 
d="M855 1090l274.999 -0.000976562v-1516h-287v561c-60 -109.333 -163.667 -164 -311 -164c-157.333 0 -277.666 63 -360.999 189c-68 102 -102 223.333 -102 364c0 168 37 304.667 111 410c86 122.667 208.667 184 368 184c80.667 0 149 -22.333 205 -67
c34 -27.333 66.667 -67.666 98 -120.999zM363.999 523.999c0 -98 20.5 -174.333 61.5 -229s102.5 -82 184.5 -82c72 0 130.167 27.333 174.5 82s66.5 136.667 66.5 246c0 129.333 -33.333 222 -100 278c-42.667 35.333 -91 53 -145 53c-67.333 0 -121.333 -23 -162 -69
c-53.333 -60 -80 -153 -80 -279z" />
    <glyph glyph-name="r" unicode="r" horiz-adv-x="831" 
d="M131 0l-0.000976562 1090h274v-189c44 72.667 81 122.667 111 150c50.667 44.667 115 67 193 67c24 0 43 -1.33301 57 -4v-291c-12.667 1.33301 -27.5 2.33301 -44.5 3s-29.5 1 -37.5 1c-101.333 0 -173.666 -28 -216.999 -84c-32.667 -42 -49 -100 -49 -174v-569h-287z
" />
    <glyph glyph-name="s" unicode="s" 
d="M1032 758l-282.998 -0.00195312c-8 46 -21.667 78.667 -41 98c-30 30 -80.333 45 -151 45c-70 0 -118.667 -11.667 -146 -35c-20.667 -17.333 -31 -41 -31 -71c0 -44 59 -78.333 177 -103c173.333 -36.667 283 -66 329 -88c119.333 -54.667 179 -140 179 -256
c0 -140.667 -58.333 -243 -175 -307c-84.667 -46.667 -186.334 -70 -305.001 -70c-146 0 -264 26 -354 78c-113.333 65.333 -170 165 -170 299h295c0 -49.333 17 -86.666 51 -111.999c41.333 -32 103.333 -48 186 -48c67.333 0 116.666 13.667 147.999 41
c24.667 20.667 37 45.334 37 74.001c0 45.333 -58 81 -174 107c-178 38 -286.667 66.667 -326 86c-117.333 54.667 -176 140.667 -176 258c0 96.667 30 177 90 241c76.667 82 192.667 123 348 123c138 0 246.667 -21 326 -63c110.667 -58.667 166 -157.667 166 -297z" />
    <glyph glyph-name="t" unicode="t" horiz-adv-x="716" 
d="M454 1384l-0.000976562 -293.999h180v-205h-180v-590c0 -36.667 6.5 -60.834 19.5 -72.501s46.167 -17.5 99.5 -17.5l61 4v-217c-21.333 -2.66699 -45.333 -4 -72 -4h-63h-37c-117.333 0 -197.666 21 -240.999 63c-36 34 -54 92 -54 174v660h-147v205h147v294h287z" />
    <glyph glyph-name="u" unicode="u" horiz-adv-x="1245" 
d="M1126 1090l0.000976562 -1090h-274v156c-72.667 -123.333 -184.667 -185 -336 -185c-114.667 0 -204.334 32.333 -269.001 97c-69.333 68 -104 169.667 -104 305v717h287v-676c0 -76.667 19.667 -131.334 59 -164.001c30 -24.667 73 -37 129 -37c57.333 0 106 17 146 51
c50 44 75 110.333 75 199v627h287z" />
    <glyph glyph-name="v" unicode="v" 
d="M1113 1090l-393 -1090h-303l-389 1090h319l226 -803l233 803h307z" />
    <glyph glyph-name="w" unicode="w" horiz-adv-x="1658" 
d="M1576 1090l-315 -1090h-295l-168 795l-176 -795h-295l-307 1090h307l168 -783l160 783h287l163 -783l177 783h294z" />
    <glyph glyph-name="x" unicode="x" 
d="M737 557l372 -557h-356l-189 328l-188 -328h-344l369 557l-357 533h348l185 -316l180 316h340z" />
    <glyph glyph-name="y" unicode="y" 
d="M1105 1090l-376 -1070c-68.667 -204.667 -125.5 -332.167 -170.5 -382.5s-128.833 -75.5 -251.5 -75.5h-45h-52c-14.667 2.66699 -24.667 4 -30 4v229c8 -2.66699 25.667 -4 53 -4c60 0 101.667 8.33301 125 25c31.333 21.333 52.333 67.666 63 138.999l-401 1135h319
l234 -803l229 803h303z" />
    <glyph glyph-name="z" unicode="z" horiz-adv-x="1060" 
d="M962 856l-549 -618h569v-238h-942v225l561 635h-520v230h881v-234z" />
    <glyph glyph-name="braceleft" unicode="{" horiz-adv-x="831" 
d="M749 -221l0.000976562 -180h-172c-73.333 0 -136.666 21.667 -189.999 65c-64 52 -96 123 -96 213v414c0 56 -24.667 97.667 -74 125c-35.333 20 -75 30 -119 30v189c44 0 83 9.66699 117 29c50.667 28.667 76 71 76 127v409c0 88.667 31.333 159 94 211
c54.667 45.333 118.667 68 192 68h172v-181h-94c-46.667 0 -78.667 -14.333 -96 -43c-12.667 -20 -19 -50.667 -19 -92v-401c-9.33301 -75.333 -42 -132.666 -98 -171.999c-38 -26 -83 -42.333 -135 -49c49.333 -2.66699 93.666 -18.334 132.999 -47.001
c57.333 -41.333 90.666 -101 99.999 -179v-401c0 -39.333 6.33301 -69.333 19 -90c17.333 -30 49.333 -45 96 -45h94z" />
    <glyph glyph-name="bar" unicode="|" horiz-adv-x="602" 
d="M172 -41v1552h229v-1552h-229z" />
    <glyph glyph-name="braceright" unicode="}" horiz-adv-x="831" 
d="M700 635l-0.000976562 -189.001c-43.333 0 -82 -9.33301 -116 -28c-50.667 -28.667 -76 -71 -76 -127v-414c0 -88.667 -31.333 -159 -94 -211c-54.667 -44.667 -119 -67 -193 -67h-172v180h94c46.667 0 78.667 14.333 96 43c12.667 20.667 19 51.334 19 92.001v401
c9.33301 78 42 137 98 177c42.667 30 87.667 45 135 45c-54.667 9.33301 -99 26.333 -133 51c-57.333 40.667 -90.666 98.667 -99.999 174v401c0 40 -6.33301 70 -19 90c-17.333 30 -49.333 45 -96 45h-94v181h172c74 0 137.333 -22 190 -66c64.667 -52 97 -123 97 -213
v-409c0 -56 24.333 -97.667 73 -125c36 -20.667 75.667 -31 119 -31z" />
    <glyph glyph-name="asciitilde" unicode="~" horiz-adv-x="1245" 
d="M998 705l74.001 -185.001c-40.667 -57.333 -75.334 -97.666 -104.001 -120.999c-45.333 -36.667 -96.666 -55 -153.999 -55c-34 0 -66.333 5.16699 -97 15.5s-67.834 27.333 -111.501 51s-78.5 40.5 -104.5 50.5c-41.333 14.667 -84.333 22 -129 22
c-31.333 0 -59.333 -8.66699 -84 -26c-31.333 -23.333 -60.666 -63.666 -87.999 -120.999l-74 184c27.333 53.333 58 93.666 92 120.999c45.333 36.667 99.333 55 162 55c30 0 67 -6.66699 111 -20c31.333 -9.33301 70.666 -24.333 117.999 -45l114 -52.5
c38.667 -17 70.334 -25.5 95.001 -25.5c37.333 0 71.666 15.667 102.999 47c16 16.667 41.667 51.667 77 105z" />
    <glyph glyph-name="dieresis" unicode="&#xa8;" horiz-adv-x="1024" 
 />
    <glyph glyph-name="copyright" unicode="&#xa9;" horiz-adv-x="1568" 
d="M1537 737c0 -234.667 -78.667 -425 -236 -571c-147.333 -138 -328.333 -207 -543 -207c-215.333 0 -396.666 68.333 -543.999 205c-158.667 146 -238 337 -238 573c0 236.667 79.333 427.334 238 572.001c147.333 134.667 328.666 202 543.999 202
c216 0 397 -67.333 543 -202c157.333 -144.667 236 -335.334 236 -572.001zM1311 737c0 173.333 -53.5 315.667 -160.5 427s-237.833 167 -392.5 167c-156.667 0 -288.667 -55 -396 -165s-161 -253 -161 -429c0 -173.333 53 -316.333 159 -429s236 -169 390 -169l8 4
c153.333 -2.66699 283.833 52 391.5 164s161.5 255.333 161.5 430zM971 623.001h185.001c-16.667 -101.333 -59.167 -180.666 -127.5 -237.999s-148.833 -86 -241.5 -86c-126.667 0 -229.334 42.333 -308.001 127s-118 191 -118 319c0 128.667 38.167 234.667 114.5 318
s178.833 125 307.5 125c96.667 0 177.5 -26.667 242.5 -80s105.5 -132 121.5 -236h-176c-9.33301 45.333 -31 79.333 -65 102s-75 34 -123 34c-65.333 0 -116.5 -23.333 -153.5 -70s-55.5 -109.334 -55.5 -188.001c0 -78 19.5 -142.667 58.5 -194s90.5 -77 154.5 -77
c54.667 0 99 12 133 36s51 60 51 108z" />
    <glyph glyph-name="registered" unicode="&#xae;" horiz-adv-x="1568" 
d="M627 672l0.000976562 -353h-176v836h311c113.333 0 196.666 -17.667 249.999 -53c60 -41.333 90 -108.333 90 -201c0 -73.333 -18 -127.833 -54 -163.5s-84.667 -53.5 -146 -53.5l213 -365h-209l-193 353h-86zM627.001 811l160 -0.000976562c44 0 74.667 6 92 18
c23.333 16.667 35 47.667 35 93c0 28.667 -11.667 50.834 -35 66.501s-65 23.5 -125 23.5h-127v-201zM1532 736.999c0 -236 -77.667 -426.999 -233 -572.999c-146 -136.667 -326.333 -205 -541 -205c-216.667 0 -398.667 68.333 -546 205
c-157.333 144.667 -236 335.667 -236 573c0 235.333 78.667 425.333 236 570c147.333 136 329.333 204 546 204c216 0 396.333 -67.333 541 -202c155.333 -144.667 233 -335.334 233 -572.001zM1311 737c0 173.333 -53.5 315.667 -160.5 427s-237.833 167 -392.5 167
c-156.667 0 -288.667 -55 -396 -165s-161 -253 -161 -429c0 -173.333 53 -316.333 159 -429s236 -169 390 -169l8 4c153.333 -2.66699 283.833 52 391.5 164s161.5 255.333 161.5 430z" />
    <glyph glyph-name="acute" unicode="&#xb4;" horiz-adv-x="1024" 
 />
    <glyph glyph-name="paragraph" unicode="&#xb6;" horiz-adv-x="1024" 
d="M929 1435l-0.000976562 -70h-127v-1365h-82v1365h-166v-1365h-84v738c-116 5.33301 -207.833 39.5 -275.5 102.5s-101.5 144.833 -101.5 245.5c0 104.667 35.833 189 107.5 253s166.834 96 285.501 96h443z" />
    <glyph glyph-name="onequarter" unicode="&#xbc;" horiz-adv-x="1777" 
d="M1044 324h238l4 372zM1466 868v-540h103v-144h-103v-184h-192v184h-377v152l348 532h221zM278 -41l877 1495h160l-873 -1495h-164zM53 1176v127.001h29c82 0 142.667 17 182 51c31.333 27.333 47 60.666 47 99.999h176v-872h-209v594h-225z" />
    <glyph glyph-name="onehalf" unicode="&#xbd;" horiz-adv-x="1777" 
d="M278 -41l877 1495h160l-873 -1495h-164zM53 1176v127.001h29c82 0 142.667 17 182 51c31.333 27.333 47 60.666 47 99.999h176v-872h-209v594h-225zM1171 565.001l-180.002 0.000976562c0 123.333 41 210.666 123 261.999c52 33.333 114.667 50 188 50
c94.667 0 172.334 -24.667 233.001 -74s91 -117.666 91 -204.999c0 -68 -20 -128 -60 -180c-26.667 -37.333 -67.334 -72.333 -122.001 -105s-100.667 -62.667 -138 -90c-27.333 -20 -47.666 -38.333 -60.999 -55h381v-168h-643c0 62.667 11.667 117.334 35 164.001
c32.667 65.333 90.667 126.666 174 183.999c77.333 52 127 87 149 105c58.667 47.333 88 98.333 88 153v8c0 22 -9.33301 42.667 -28 62c-24.667 24.667 -55 37 -91 37c-57.333 0 -96.666 -18.667 -117.999 -56c-14 -22.667 -21 -53.334 -21 -92.001z" />
    <glyph glyph-name="threequarters" unicode="&#xbe;" horiz-adv-x="1777" 
d="M1109 328h230l4 360zM1535 868v-540h103v-144h-103v-184h-196v184h-373v152l348 532h221zM368 -41l876 1495h160l-872 -1495h-164zM32 848l183.999 0.00195312c0 -36.667 7 -66 21 -88c22 -34 60 -51 114 -51c42.667 0 75.334 9.5 98.001 28.5s34 51.833 34 98.5
c0 61.333 -33 99.333 -99 114c-24.667 5.33301 -58.667 8 -102 8v132h29c44.667 0 76.667 4 96 12c36.667 16 55 47.333 55 94c0 27.333 -5.33301 49.333 -16 66c-18 27.333 -49.667 41 -95 41c-42 0 -73.5 -11.333 -94.5 -34s-31.5 -53.667 -31.5 -93h-177
c0 84.667 26.667 152.167 80 202.5s132 75.5 236 75.5c76 0 140 -17 192 -51c66 -42.667 99 -106.334 99 -191.001c0 -42 -11 -77.333 -33 -106s-48 -49.334 -78 -62.001c45.333 -16 79.833 -42.167 103.5 -78.5s35.5 -79.5 35.5 -129.5c0 -82 -29.667 -149 -89 -201
s-136 -78 -230 -78c-80.667 0 -147 13.667 -199 41c-88.667 48 -133 131.333 -133 250z" />
    <glyph glyph-name="Agrave" unicode="&#xc0;" horiz-adv-x="1454" 
d="M430 303l-102 -303h-324l524 1470h357l516 -1470h-332l-94 303h-545zM512 557h377l-185 582zM592 1618l-303 299h315l193 -299h-205z" />
    <glyph glyph-name="Aacute" unicode="&#xc1;" horiz-adv-x="1454" 
d="M430 303l-102 -303h-324l524 1470h357l516 -1470h-332l-94 303h-545zM512 557h377l-185 582zM1096 1917l-304 -299h-204l192 299h316z" />
    <glyph glyph-name="Acircumflex" unicode="&#xc2;" horiz-adv-x="1454" 
d="M430 303l-102 -303h-324l524 1470h357l516 -1470h-332l-94 303h-545zM512 557h377l-185 582zM829 1917l234 -299h-230l-131 168l-131 -168h-229l233 299h254z" />
    <glyph glyph-name="Atilde" unicode="&#xc3;" horiz-adv-x="1454" 
d="M430 303l-102 -303h-324l524 1470h357l516 -1470h-332l-94 303h-545zM512 557h377l-185 582zM975 1892h135.001c-8 -40.667 -18.333 -75.334 -31 -104.001c-40.667 -94 -105.334 -141 -194.001 -141c-23.333 0 -46.666 2.66699 -69.999 8s-51.666 13.5 -84.999 24.5
l-101 32.5c-18 5.33301 -32.333 8 -43 8c-33.333 0 -58.666 -11.333 -75.999 -34c-11.333 -15.333 -19 -34 -23 -56h-131c5.33301 30 12.5 57 21.5 81s23.333 50.333 43 79s42.5 50.334 68.5 65.001c33.333 19.333 72.333 29 117 29c31.333 0 80.666 -13.667 147.999 -41
c61.333 -22 103.666 -33 126.999 -33c28.667 0 50.167 8 64.5 24s24.166 35.333 29.499 58z" />
    <glyph glyph-name="Egrave" unicode="&#xc8;" horiz-adv-x="1429" 
d="M1236 1470v-258h-778v-311h717v-258h-717v-381h815v-262h-1118v1470h1081zM637 1618l-303 299h316l192 -299h-205z" />
    <glyph glyph-name="Eacute" unicode="&#xc9;" horiz-adv-x="1429" 
d="M1236 1470v-258h-778v-311h717v-258h-717v-381h815v-262h-1118v1470h1081zM1055 1917l-303 -299h-205l193 299h315z" />
    <glyph glyph-name="Ecircumflex" unicode="&#xca;" horiz-adv-x="1429" 
d="M1236 1470v-258h-778v-311h717v-258h-717v-381h815v-262h-1118v1470h1081zM841 1917l234 -299h-230l-131 168l-131 -168h-229l233 299h254z" />
    <glyph glyph-name="Igrave" unicode="&#xcc;" horiz-adv-x="602" 
d="M439 1470v-1470h-308v1470h308zM231 1618l-303 299h315l193 -299h-205z" />
    <glyph glyph-name="Iacute" unicode="&#xcd;" horiz-adv-x="602" 
d="M438 1470v-1470h-307v1470h307zM677 1917l-303 -299h-205l192 299h316z" />
    <glyph glyph-name="Ograve" unicode="&#xd2;" horiz-adv-x="1548" 
d="M86 737c0 209.333 46.333 378.001 139 506.001c72.667 101.333 171.667 174.333 297 219c90 32.667 181 49 273 49c92.667 0 182 -15.667 268 -47c125.333 -46 224.333 -119 297 -219c92.667 -128 139 -297.333 139 -508c0 -208.667 -46.333 -378 -139 -508
c-72.667 -100.667 -171.667 -174.334 -297 -221.001c-88.667 -32.667 -178 -49 -268 -49c-94.667 0 -185 15.667 -271 47c-125.333 46.667 -224.333 119.667 -297 219c-94 131.333 -141 302 -141 512zM393 737.001c0 -185.333 45.667 -323.001 137 -413.001
c70 -68.667 158.333 -103 265 -103c103.333 0 190 34.333 260 103c91.333 90 137 227.667 137 413c0 184.667 -45.667 321.334 -137 410.001c-70 68 -156.667 102 -260 102c-104 0 -191.667 -34 -263 -102c-92.667 -90 -139 -226.667 -139 -410zM757 1618l-303 299h315
l193 -299h-205z" />
    <glyph glyph-name="Oacute" unicode="&#xd3;" horiz-adv-x="1548" 
d="M86 737c0 209.333 46.333 378.001 139 506.001c72.667 101.333 171.667 174.333 297 219c90 32.667 181 49 273 49c92.667 0 182 -15.667 268 -47c125.333 -46 224.333 -119 297 -219c92.667 -128 139 -297.333 139 -508c0 -208.667 -46.333 -378 -139 -508
c-72.667 -100.667 -171.667 -174.334 -297 -221.001c-88.667 -32.667 -178 -49 -268 -49c-94.667 0 -185 15.667 -271 47c-125.333 46.667 -224.333 119.667 -297 219c-94 131.333 -141 302 -141 512zM393 737.001c0 -185.333 45.667 -323.001 137 -413.001
c70 -68.667 158.333 -103 265 -103c103.333 0 190 34.333 260 103c91.333 90 137 227.667 137 413c0 184.667 -45.667 321.334 -137 410.001c-70 68 -156.667 102 -260 102c-104 0 -191.667 -34 -263 -102c-92.667 -90 -139 -226.667 -139 -410zM1055 1917l-303 -299h-205
l193 299h315z" />
    <glyph glyph-name="Ocircumflex" unicode="&#xd4;" horiz-adv-x="1548" 
d="M86 737c0 209.333 46.333 378.001 139 506.001c72.667 101.333 171.667 174.333 297 219c90 32.667 181 49 273 49c92.667 0 182 -15.667 268 -47c125.333 -46 224.333 -119 297 -219c92.667 -128 139 -297.333 139 -508c0 -208.667 -46.333 -378 -139 -508
c-72.667 -100.667 -171.667 -174.334 -297 -221.001c-88.667 -32.667 -178 -49 -268 -49c-94.667 0 -185 15.667 -271 47c-125.333 46.667 -224.333 119.667 -297 219c-94 131.333 -141 302 -141 512zM393 737.001c0 -185.333 45.667 -323.001 137 -413.001
c70 -68.667 158.333 -103 265 -103c103.333 0 190 34.333 260 103c91.333 90 137 227.667 137 413c0 184.667 -45.667 321.334 -137 410.001c-70 68 -156.667 102 -260 102c-104 0 -191.667 -34 -263 -102c-92.667 -90 -139 -226.667 -139 -410zM920 1917l233 -299h-229
l-131 168l-132 -168h-229l234 299h254z" />
    <glyph glyph-name="Otilde" unicode="&#xd5;" horiz-adv-x="1548" 
d="M86 737c0 209.333 46.333 378.001 139 506.001c72.667 101.333 171.667 174.333 297 219c90 32.667 181 49 273 49c92.667 0 182 -15.667 268 -47c125.333 -46 224.333 -119 297 -219c92.667 -128 139 -297.333 139 -508c0 -208.667 -46.333 -378 -139 -508
c-72.667 -100.667 -171.667 -174.334 -297 -221.001c-88.667 -32.667 -178 -49 -268 -49c-94.667 0 -185 15.667 -271 47c-125.333 46.667 -224.333 119.667 -297 219c-94 131.333 -141 302 -141 512zM393 737.001c0 -185.333 45.667 -323.001 137 -413.001
c70 -68.667 158.333 -103 265 -103c103.333 0 190 34.333 260 103c91.333 90 137 227.667 137 413c0 184.667 -45.667 321.334 -137 410.001c-70 68 -156.667 102 -260 102c-104 0 -191.667 -34 -263 -102c-92.667 -90 -139 -226.667 -139 -410zM1034 1892h135.002
c-8 -40.667 -18 -75.334 -30 -104.001c-41.333 -94 -106.333 -141 -195 -141c-23.333 0 -46.5 2.66699 -69.5 8s-51.333 13.5 -85 24.5l-101.5 32.5c-18 5.33301 -32.333 8 -43 8c-32.667 0 -58 -11.333 -76 -34c-10.667 -15.333 -18 -34 -22 -56h-131
c5.33301 30 12.5 57 21.5 81s23.333 50.333 43 79s42.5 50.334 68.5 65.001c32.667 19.333 71.667 29 117 29c31.333 0 80.333 -13.667 147 -41c61.333 -22 103.666 -33 126.999 -33c28.667 0 50.167 8 64.5 24s24.166 35.333 29.499 58z" />
    <glyph glyph-name="Ugrave" unicode="&#xd9;" horiz-adv-x="1478" 
d="M1323 1470v-953.999c0 -190 -54 -331.333 -162 -424c-102.667 -88.667 -250.667 -133 -444 -133c-83.333 0 -161.333 11.667 -234 35c-96.667 31.333 -174.334 79.666 -233.001 144.999c-76.667 88.667 -115 207.667 -115 357v974h315v-954
c0 -96.667 24.667 -170 74 -220s112.333 -75 189 -75c100.667 0 174.834 24 222.501 72s71.5 118.333 71.5 211v966h316zM677 1618l-303 299h315l193 -299h-205z" />
    <glyph glyph-name="Uacute" unicode="&#xda;" horiz-adv-x="1478" 
d="M1323 1470v-953.999c0 -190 -54 -331.333 -162 -424c-102.667 -88.667 -250.667 -133 -444 -133c-83.333 0 -161.333 11.667 -234 35c-96.667 31.333 -174.334 79.666 -233.001 144.999c-76.667 88.667 -115 207.667 -115 357v974h315v-954
c0 -96.667 24.667 -170 74 -220s112.333 -75 189 -75c100.667 0 174.834 24 222.501 72s71.5 118.333 71.5 211v966h316zM1119 1917l-303 -299h-205l192 299h316z" />
    <glyph glyph-name="Yacute" unicode="&#xdd;" horiz-adv-x="1429" 
d="M847 553v-553h-307v557l-508 913h360l308 -639l290 639h349zM1078 1917l-303 -299h-205l193 299h315z" />
    <glyph glyph-name="agrave" unicode="&#xe0;" 
d="M1015 803l-0.00195312 -590.001c0 -58.667 5.5 -99.667 16.5 -123s27.5 -38.333 49.5 -45v-45h-311c-11.333 36.667 -18.333 60.834 -21 72.501s-4 31.167 -4 58.5c-44 -46.667 -86.333 -81.334 -127 -104.001c-65.333 -37.333 -140.333 -56 -225 -56
c-91.333 0 -167.333 24.667 -228 74c-69.333 57.333 -104 139.333 -104 246c0 100.667 30 182 90 244c53.333 54 128.333 88.667 225 104l258 37c38.667 6.66699 65.5 16.834 80.5 30.501s22.5 32.167 22.5 55.5c0 53.333 -22 89.333 -66 108
c-28.667 12.667 -69.667 19 -123 19c-64 0 -110.333 -17 -139 -51c-19.333 -22 -31.666 -55.667 -36.999 -101h-278c14.667 152 72 257.333 172 316c73.333 43.333 178.333 65 315 65c110.667 0 202.334 -18.333 275.001 -55c106 -53.333 159 -140 159 -260z
M736.998 392.999l-0.000976562 138.999c-15.333 -13.333 -36.333 -24.166 -63 -32.499s-71.334 -17.5 -134.001 -27.5s-107.667 -24.667 -135 -44c-38 -26 -57 -66.333 -57 -121c0 -44.667 15 -78.667 45 -102c24.667 -19.333 53.334 -29 86.001 -29
c66.667 0 126.334 19.833 179.001 59.5s79 92.167 79 157.5zM470.997 1237l-299 299h315l192 -299h-208z" />
    <glyph glyph-name="aacute" unicode="&#xe1;" 
d="M1015 803l-0.00195312 -590.001c0 -58.667 5.5 -99.667 16.5 -123s27.5 -38.333 49.5 -45v-45h-311c-11.333 36.667 -18.333 60.834 -21 72.501s-4 31.167 -4 58.5c-44 -46.667 -86.333 -81.334 -127 -104.001c-65.333 -37.333 -140.333 -56 -225 -56
c-91.333 0 -167.333 24.667 -228 74c-69.333 57.333 -104 139.333 -104 246c0 100.667 30 182 90 244c53.333 54 128.333 88.667 225 104l258 37c38.667 6.66699 65.5 16.834 80.5 30.501s22.5 32.167 22.5 55.5c0 53.333 -22 89.333 -66 108
c-28.667 12.667 -69.667 19 -123 19c-64 0 -110.333 -17 -139 -51c-19.333 -22 -31.666 -55.667 -36.999 -101h-278c14.667 152 72 257.333 172 316c73.333 43.333 178.333 65 315 65c110.667 0 202.334 -18.333 275.001 -55c106 -53.333 159 -140 159 -260z
M736.998 392.999l-0.000976562 138.999c-15.333 -13.333 -36.333 -24.166 -63 -32.499s-71.334 -17.5 -134.001 -27.5s-107.667 -24.667 -135 -44c-38 -26 -57 -66.333 -57 -121c0 -44.667 15 -78.667 45 -102c24.667 -19.333 53.334 -29 86.001 -29
c66.667 0 126.334 19.833 179.001 59.5s79 92.167 79 157.5zM429.997 1237l192 299h315l-299 -299h-208z" />
    <glyph glyph-name="acircumflex" unicode="&#xe2;" 
d="M1015 803l-0.00195312 -590.001c0 -58.667 5.5 -99.667 16.5 -123s27.5 -38.333 49.5 -45v-45h-311c-11.333 36.667 -18.333 60.834 -21 72.501s-4 31.167 -4 58.5c-44 -46.667 -86.333 -81.334 -127 -104.001c-65.333 -37.333 -140.333 -56 -225 -56
c-91.333 0 -167.333 24.667 -228 74c-69.333 57.333 -104 139.333 -104 246c0 100.667 30 182 90 244c53.333 54 128.333 88.667 225 104l258 37c38.667 6.66699 65.5 16.834 80.5 30.501s22.5 32.167 22.5 55.5c0 53.333 -22 89.333 -66 108
c-28.667 12.667 -69.667 19 -123 19c-64 0 -110.333 -17 -139 -51c-19.333 -22 -31.666 -55.667 -36.999 -101h-278c14.667 152 72 257.333 172 316c73.333 43.333 178.333 65 315 65c110.667 0 202.334 -18.333 275.001 -55c106 -53.333 159 -140 159 -260z
M736.998 392.999l-0.000976562 138.999c-15.333 -13.333 -36.333 -24.166 -63 -32.499s-71.334 -17.5 -134.001 -27.5s-107.667 -24.667 -135 -44c-38 -26 -57 -66.333 -57 -121c0 -44.667 15 -78.667 45 -102c24.667 -19.333 53.334 -29 86.001 -29
c66.667 0 126.334 19.833 179.001 59.5s79 92.167 79 157.5zM678.997 1516l234 -299h-234l-131 167l-127 -167h-233l233 299h258z" />
    <glyph glyph-name="atilde" unicode="&#xe3;" 
d="M1015 803l-0.00195312 -590.001c0 -58.667 5.5 -99.667 16.5 -123s27.5 -38.333 49.5 -45v-45h-311c-11.333 36.667 -18.333 60.834 -21 72.501s-4 31.167 -4 58.5c-44 -46.667 -86.333 -81.334 -127 -104.001c-65.333 -37.333 -140.333 -56 -225 -56
c-91.333 0 -167.333 24.667 -228 74c-69.333 57.333 -104 139.333 -104 246c0 100.667 30 182 90 244c53.333 54 128.333 88.667 225 104l258 37c38.667 6.66699 65.5 16.834 80.5 30.501s22.5 32.167 22.5 55.5c0 53.333 -22 89.333 -66 108
c-28.667 12.667 -69.667 19 -123 19c-64 0 -110.333 -17 -139 -51c-19.333 -22 -31.666 -55.667 -36.999 -101h-278c14.667 152 72 257.333 172 316c73.333 43.333 178.333 65 315 65c110.667 0 202.334 -18.333 275.001 -55c106 -53.333 159 -140 159 -260z
M736.998 392.999l-0.000976562 138.999c-15.333 -13.333 -36.333 -24.166 -63 -32.499s-71.334 -17.5 -134.001 -27.5s-107.667 -24.667 -135 -44c-38 -26 -57 -66.333 -57 -121c0 -44.667 15 -78.667 45 -102c24.667 -19.333 53.334 -29 86.001 -29
c66.667 0 126.334 19.833 179.001 59.5s79 92.167 79 157.5zM822.997 1503h131.004c-10.667 -78 -35.834 -138.5 -75.501 -181.5s-88.167 -64.5 -145.5 -64.5c-23.333 0 -46.666 2.83301 -69.999 8.5s-49 12.834 -77 21.501s-52.667 16.667 -74 24
c-40 13.333 -67.333 20 -82 20c-30 0 -54 -11.667 -72 -35c-10.667 -14.667 -18.334 -33 -23.001 -55h-131c7.33301 35.333 13 59.333 17 72c9.33301 30 23 58 41 84c23.333 30 50 53.833 80 71.5s66 26.5 108 26.5c30 0 57.333 -4 82 -12
c27.333 -12.667 49.333 -22.334 66 -29.001c61.333 -22 103.666 -33 126.999 -33c31.333 0 54.166 7.83301 68.499 23.5s24.166 35.167 29.499 58.5z" />
    <glyph glyph-name="egrave" unicode="&#xe8;" 
d="M774 319h295c-34 -121.333 -99.667 -212 -197 -272c-80.667 -50.667 -174.667 -76 -282 -76c-166.667 0 -295 43 -385 129c-104 100 -156 256.333 -156 469c0 172 48.333 308.667 145 410c90.667 92.667 215.667 139 375 139c136.667 0 248.667 -37.333 336 -112
c117.333 -101.333 176 -263.333 176 -486v-53h-745c9.33301 -95.333 34.5 -163.5 75.5 -204.5s100.5 -61.5 178.5 -61.5c43.333 0 82.5 10.167 117.5 30.5s57.167 49.5 66.5 87.5zM344 655h442c-8 80.667 -34.667 141 -80 181c-38 32.667 -85 49 -141 49
c-129.333 0 -203 -76.667 -221 -230zM471 1237l-299 299h315l193 -299h-209z" />
    <glyph glyph-name="eacute" unicode="&#xe9;" 
d="M774 319h295c-34 -121.333 -99.667 -212 -197 -272c-80.667 -50.667 -174.667 -76 -282 -76c-166.667 0 -295 43 -385 129c-104 100 -156 256.333 -156 469c0 172 48.333 308.667 145 410c90.667 92.667 215.667 139 375 139c136.667 0 248.667 -37.333 336 -112
c117.333 -101.333 176 -263.333 176 -486v-53h-745c9.33301 -95.333 34.5 -163.5 75.5 -204.5s100.5 -61.5 178.5 -61.5c43.333 0 82.5 10.167 117.5 30.5s57.167 49.5 66.5 87.5zM344 655h442c-8 80.667 -34.667 141 -80 181c-38 32.667 -85 49 -141 49
c-129.333 0 -203 -76.667 -221 -230zM430 1237l192 299h316l-299 -299h-209z" />
    <glyph glyph-name="ecircumflex" unicode="&#xea;" 
d="M774 319h295c-34 -121.333 -99.667 -212 -197 -272c-80.667 -50.667 -174.667 -76 -282 -76c-166.667 0 -295 43 -385 129c-104 100 -156 256.333 -156 469c0 172 48.333 308.667 145 410c90.667 92.667 215.667 139 375 139c136.667 0 248.667 -37.333 336 -112
c117.333 -101.333 176 -263.333 176 -486v-53h-745c9.33301 -95.333 34.5 -163.5 75.5 -204.5s100.5 -61.5 178.5 -61.5c43.333 0 82.5 10.167 117.5 30.5s57.167 49.5 66.5 87.5zM344 655h442c-8 80.667 -34.667 141 -80 181c-38 32.667 -85 49 -141 49
c-129.333 0 -203 -76.667 -221 -230zM680 1516l233 -299h-233l-131 167l-127 -167h-234l234 299h258z" />
    <glyph glyph-name="igrave" unicode="&#xec;" horiz-adv-x="602" 
d="M143 1090h287v-1090h-287v1090zM212 1237l-299 299h315l193 -299h-209z" />
    <glyph glyph-name="iacute" unicode="&#xed;" horiz-adv-x="602" 
d="M143 1090h287v-1090h-287v1090zM126 1237l193 299h315l-299 -299h-209z" />
    <glyph glyph-name="ograve" unicode="&#xf2;" horiz-adv-x="1245" 
d="M1191 545c0 -187.333 -56.001 -332 -168.001 -434c-100.667 -93.333 -230.334 -140 -389.001 -140c-156.667 0 -285.667 46.667 -387 140c-113.333 103.333 -170 248 -170 434c0 186.667 56 331.334 168 434.001c100.667 92.667 230.334 139 389.001 139
s288.334 -46.333 389.001 -139c112 -102.667 168 -247.334 168 -434.001zM895.999 545c0 90 -15.667 162.333 -47 217c-43.333 76.667 -115 115 -215 115c-98 0 -169 -37.667 -213 -113c-32.667 -57.333 -49 -130.333 -49 -219c0 -90 15.667 -162.333 47 -217
c44 -76.667 115.667 -115 215 -115c98.667 0 169.667 37.667 213 113c32.667 57.333 49 130.333 49 219zM534.999 1237l-299 299h316l192 -299h-209z" />
    <glyph glyph-name="oacute" unicode="&#xf3;" horiz-adv-x="1245" 
d="M1191 545c0 -187.333 -56.001 -332 -168.001 -434c-100.667 -93.333 -230.334 -140 -389.001 -140c-156.667 0 -285.667 46.667 -387 140c-113.333 103.333 -170 248 -170 434c0 186.667 56 331.334 168 434.001c100.667 92.667 230.334 139 389.001 139
s288.334 -46.333 389.001 -139c112 -102.667 168 -247.334 168 -434.001zM895.999 545c0 90 -15.667 162.333 -47 217c-43.333 76.667 -115 115 -215 115c-98 0 -169 -37.667 -213 -113c-32.667 -57.333 -49 -130.333 -49 -219c0 -90 15.667 -162.333 47 -217
c44 -76.667 115.667 -115 215 -115c98.667 0 169.667 37.667 213 113c32.667 57.333 49 130.333 49 219zM428.999 1237l193 299h315l-299 -299h-209z" />
    <glyph glyph-name="ocircumflex" unicode="&#xf4;" horiz-adv-x="1245" 
d="M1191 545c0 -187.333 -56.001 -332 -168.001 -434c-100.667 -93.333 -230.334 -140 -389.001 -140c-156.667 0 -285.667 46.667 -387 140c-113.333 103.333 -170 248 -170 434c0 186.667 56 331.334 168 434.001c100.667 92.667 230.334 139 389.001 139
s288.334 -46.333 389.001 -139c112 -102.667 168 -247.334 168 -434.001zM895.999 545c0 90 -15.667 162.333 -47 217c-43.333 76.667 -115 115 -215 115c-98 0 -169 -37.667 -213 -113c-32.667 -57.333 -49 -130.333 -49 -219c0 -90 15.667 -162.333 47 -217
c44 -76.667 115.667 -115 215 -115c98.667 0 169.667 37.667 213 113c32.667 57.333 49 130.333 49 219zM762.999 1516l234 -299h-234l-131 167l-127 -167h-233l233 299h258z" />
    <glyph glyph-name="otilde" unicode="&#xf5;" horiz-adv-x="1245" 
d="M1191 545c0 -187.333 -56.001 -332 -168.001 -434c-100.667 -93.333 -230.334 -140 -389.001 -140c-156.667 0 -285.667 46.667 -387 140c-113.333 103.333 -170 248 -170 434c0 186.667 56 331.334 168 434.001c100.667 92.667 230.334 139 389.001 139
s288.334 -46.333 389.001 -139c112 -102.667 168 -247.334 168 -434.001zM895.999 545c0 90 -15.667 162.333 -47 217c-43.333 76.667 -115 115 -215 115c-98 0 -169 -37.667 -213 -113c-32.667 -57.333 -49 -130.333 -49 -219c0 -90 15.667 -162.333 47 -217
c44 -76.667 115.667 -115 215 -115c98.667 0 169.667 37.667 213 113c32.667 57.333 49 130.333 49 219zM877.999 1503h130.998c-11.333 -78 -36.666 -138.5 -75.999 -181.5s-87.666 -64.5 -144.999 -64.5c-23.333 0 -46.666 2.83301 -69.999 8.5s-49 12.834 -77 21.501
l-75 24c-39.333 13.333 -66.333 20 -81 20c-30.667 0 -54.667 -11.667 -72 -35c-11.333 -14.667 -19 -33 -23 -55h-131c7.33301 35.333 13 59.333 17 72c9.33301 30 23 58 41 84c22.667 30 49.167 53.833 79.5 71.5s66.5 26.5 108.5 26.5c30 0 57.333 -4 82 -12
c27.333 -12.667 49 -22.334 65 -29.001c62 -22 104.333 -33 127 -33c32 0 55.167 7.83301 69.5 23.5s24.166 35.167 29.499 58.5z" />
    <glyph glyph-name="divide" unicode="&#xf7;" horiz-adv-x="1706" 
 />
    <glyph glyph-name="glyph216" unicode="&#xf9;" horiz-adv-x="1245" 
d="M1126 1090l0.000976562 -1090h-274v156c-72.667 -123.333 -184.667 -185 -336 -185c-114.667 0 -204.334 32.333 -269.001 97c-69.333 68 -104 169.667 -104 305v717h287v-676c0 -76.667 19.667 -131.334 59 -164.001c30 -24.667 73 -37 129 -37c57.333 0 106 17 146 51
c50 44 75 110.333 75 199v627h287zM582.001 1237l-299 299h315l193 -299h-209z" />
    <glyph glyph-name="glyph217" unicode="&#xfa;" horiz-adv-x="1245" 
d="M1126 1090l0.000976562 -1090h-274v156c-72.667 -123.333 -184.667 -185 -336 -185c-114.667 0 -204.334 32.333 -269.001 97c-69.333 68 -104 169.667 -104 305v717h287v-676c0 -76.667 19.667 -131.334 59 -164.001c30 -24.667 73 -37 129 -37c57.333 0 106 17 146 51
c50 44 75 110.333 75 199v627h287zM494.001 1237l192 299h316l-299 -299h-209z" />
    <glyph glyph-name="glyph234" unicode="&#xfd;" 
d="M1105 1090l-376 -1070c-68.667 -204.667 -125.5 -332.167 -170.5 -382.5s-128.833 -75.5 -251.5 -75.5h-45h-52c-14.667 2.66699 -24.667 4 -30 4v229c8 -2.66699 25.667 -4 53 -4c60 0 101.667 8.33301 125 25c31.333 21.333 52.333 67.666 63 138.999l-401 1135h319
l234 -803l229 803h303zM476 1237l192 299h315l-299 -299h-208z" />
    <glyph glyph-name="Abreve" unicode="&#x102;" horiz-adv-x="1454" 
d="M430 303l-102 -303h-324l524 1470h357l516 -1470h-332l-94 303h-545zM512 557h377l-185 582zM913 1913l135.001 0.000976562c-9.33301 -98.667 -48 -174.334 -116 -227.001c-62.667 -48 -145.334 -72 -248.001 -72c-118.667 0 -206.667 39.667 -264 119
c-36 48.667 -57.333 108.667 -64 180h135c10 -42.667 23.667 -72.667 41 -90c34.667 -36 89.334 -54 164.001 -54c58.667 0 103.667 7.66699 135 23c45.333 22 72.666 62.333 81.999 121z" />
    <glyph glyph-name="abreve" unicode="&#x103;" 
d="M1015 803l-0.00195312 -590.001c0 -58.667 5.5 -99.667 16.5 -123s27.5 -38.333 49.5 -45v-45h-311c-11.333 36.667 -18.333 60.834 -21 72.501s-4 31.167 -4 58.5c-44 -46.667 -86.333 -81.334 -127 -104.001c-65.333 -37.333 -140.333 -56 -225 -56
c-91.333 0 -167.333 24.667 -228 74c-69.333 57.333 -104 139.333 -104 246c0 100.667 30 182 90 244c53.333 54 128.333 88.667 225 104l258 37c38.667 6.66699 65.5 16.834 80.5 30.501s22.5 32.167 22.5 55.5c0 53.333 -22 89.333 -66 108
c-28.667 12.667 -69.667 19 -123 19c-64 0 -110.333 -17 -139 -51c-19.333 -22 -31.666 -55.667 -36.999 -101h-278c14.667 152 72 257.333 172 316c73.333 43.333 178.333 65 315 65c110.667 0 202.334 -18.333 275.001 -55c106 -53.333 159 -140 159 -260z
M736.998 392.999l-0.000976562 138.999c-15.333 -13.333 -36.333 -24.166 -63 -32.499s-71.334 -17.5 -134.001 -27.5s-107.667 -24.667 -135 -44c-38 -26 -57 -66.333 -57 -121c0 -44.667 15 -78.667 45 -102c24.667 -19.333 53.334 -29 86.001 -29
c66.667 0 126.334 19.833 179.001 59.5s79 92.167 79 157.5zM781.997 1511h135c-9.33301 -98 -48.333 -173.667 -117 -227c-62.667 -48 -145 -72 -247 -72c-119.333 0 -207.666 39.667 -264.999 119c-35.333 49.333 -56.333 109.333 -63 180h135c9.33301 -42 23 -72 41 -90
c34 -35.333 88.667 -53 164 -53c58.667 0 103.667 7.66699 135 23c45.333 21.333 72.666 61.333 81.999 120z" />
    <glyph glyph-name="Ccaron" unicode="&#x10c;" horiz-adv-x="1274" 
 />
    <glyph glyph-name="ccaron" unicode="&#x10d;" horiz-adv-x="922" 
 />
    <glyph glyph-name="Dslash" unicode="&#x110;" horiz-adv-x="1544" 
d="M155 647l-94 0.000976562v254h94v569h651c221.333 0 383.333 -81.667 486 -245c74.667 -120.667 112 -272.334 112 -455.001c0 -198 -40.667 -365.333 -122 -502c-108 -178.667 -270.667 -268 -488 -268h-639v647zM458 1217v-316h340v-254h-340v-393h299
c116 0 202.667 52 260 156c48 86 72 199.333 72 340c0 189.333 -39.667 321 -119 395c-52 48 -124.333 72 -217 72h-295z" />
    <glyph glyph-name="dcroat" unicode="&#x111;" horiz-adv-x="1314" 
d="M843 1389v80.999h287v-81h69v-201h-69v-1188h-283v139c-34 -57.333 -79.667 -99.666 -137 -126.999s-118 -41 -182 -41c-152 0 -268.667 60.333 -350 181c-72.667 106 -109 241 -109 405c0 180 45 320.667 135 422c83.333 92.667 190 139 320 139
c82 0 151.667 -19 209 -57c40.667 -27.333 76 -64.333 106 -111l4 238h-303v201h303zM364 536.999c0 -80.667 16.332 -151.001 48.999 -211.001c42.667 -78 105.334 -117 188.001 -117c84.667 0 149.667 31.333 195 94c39.333 56 59 128.333 59 217
c0 102.667 -16.333 183.334 -49 242.001c-40.667 73.333 -106 110 -196 110c-86 0 -150.333 -34 -193 -102c-35.333 -57.333 -53 -135 -53 -233z" />
    <glyph glyph-name="Itilde" unicode="&#x128;" horiz-adv-x="602" 
d="M438 1470v-1470h-307v1470h307zM549 1892h136c-8.66699 -40.667 -19 -75.334 -31 -104.001c-40.667 -94 -105.667 -141 -195 -141c-22.667 0 -45.667 2.66699 -69 8s-51.666 13.5 -84.999 24.5l-102 32.5c-17.333 5.33301 -31.666 8 -42.999 8
c-32.667 0 -57.667 -11.333 -75 -34c-11.333 -15.333 -19 -34 -23 -56h-131c5.33301 30 12.5 57 21.5 81s23.333 50.333 43 79s42.5 50.334 68.5 65.001c32.667 19.333 71.667 29 117 29c31.333 0 80.333 -13.667 147 -41c61.333 -22 103.666 -33 126.999 -33
c28.667 0 50.167 8 64.5 24s24.166 35.333 29.499 58z" />
    <glyph glyph-name="itilde" unicode="&#x129;" horiz-adv-x="602" 
d="M144 1090h286v-1090h-286v1090zM564 1503h132.002c-11.333 -78 -36.833 -138.5 -76.5 -181.5s-88.167 -64.5 -145.5 -64.5c-22.667 0 -45.667 2.83301 -69 8.5s-49 12.834 -77 21.501l-75 24c-39.333 13.333 -66.666 20 -81.999 20c-30 0 -53.667 -11.667 -71 -35
c-11.333 -14.667 -19 -33 -23 -55h-131c6.66699 35.333 12 59.333 16 72c10 30 23.667 58 41 84c23.333 30 50 53.833 80 71.5s66.333 26.5 109 26.5c30 0 57.333 -4 82 -12c27.333 -12.667 49 -22.334 65 -29.001c61.333 -22 103.666 -33 126.999 -33
c31.333 0 54.166 7.83301 68.499 23.5s24.166 35.167 29.499 58.5z" />
    <glyph glyph-name="Utilde" unicode="&#x168;" horiz-adv-x="1478" 
d="M1323 1470v-953.999c0 -190 -54 -331.333 -162 -424c-102.667 -88.667 -250.667 -133 -444 -133c-83.333 0 -161.333 11.667 -234 35c-96.667 31.333 -174.334 79.666 -233.001 144.999c-76.667 88.667 -115 207.667 -115 357v974h315v-954
c0 -96.667 24.667 -170 74 -220s112.333 -75 189 -75c100.667 0 174.834 24 222.501 72s71.5 118.333 71.5 211v966h316zM1034 1892h135.001c-8 -40.667 -18 -75.334 -30 -104.001c-41.333 -94 -106.333 -141 -195 -141c-23.333 0 -46.5 2.66699 -69.5 8
s-51.333 13.5 -85 24.5l-101.5 32.5c-18 5.33301 -32.333 8 -43 8c-32.667 0 -58 -11.333 -76 -34c-10.667 -15.333 -18 -34 -22 -56h-131c5.33301 30 12.333 57 21 81s23 50.333 43 79s43 50.334 69 65.001c32.667 19.333 71.334 29 116.001 29
c32 0 81.333 -13.667 148 -41c61.333 -22 103.666 -33 126.999 -33c28.667 0 50.167 8 64.5 24s24.166 35.333 29.499 58z" />
    <glyph glyph-name="utilde" unicode="&#x169;" horiz-adv-x="1245" 
d="M1126 1090l0.000976562 -1090h-274v156c-72.667 -123.333 -184.667 -185 -336 -185c-114.667 0 -204.334 32.333 -269.001 97c-69.333 68 -104 169.667 -104 305v717h287v-676c0 -76.667 19.667 -131.334 59 -164.001c30 -24.667 73 -37 129 -37c57.333 0 106 17 146 51
c50 44 75 110.333 75 199v627h287zM906.001 1503h131.003c-10.667 -78 -35.834 -138.5 -75.501 -181.5s-88.167 -64.5 -145.5 -64.5c-23.333 0 -46.5 2.83301 -69.5 8.5s-48.5 12.834 -76.5 21.501l-75 24c-39.333 13.333 -66.666 20 -81.999 20c-30 0 -54 -11.667 -72 -35
c-10.667 -14.667 -18 -33 -22 -55h-131c6.66699 35.333 12 59.333 16 72c9.33301 30 23 58 41 84c23.333 30 50 53.833 80 71.5s66 26.5 108 26.5c30.667 0 58 -4 82 -12c27.333 -12.667 49.333 -22.334 66 -29.001c61.333 -22 103.666 -33 126.999 -33
c31.333 0 54.166 7.83301 68.499 23.5s24.166 35.167 29.499 58.5z" />
    <glyph glyph-name="Ohorn" unicode="&#x1a0;" horiz-adv-x="1548" 
d="M1249 1364c28.667 14.667 50.832 38.832 66.499 72.499s23.5 66.834 23.5 99.501h-106v168h242v-172c0 -56 -8.33301 -101 -25 -135c-22 -45.333 -61.667 -82.333 -119 -111c54.667 -60 96.334 -134.667 125.001 -224s43 -197.666 43 -324.999
c0 -208.667 -46.333 -378 -139 -508c-72.667 -100.667 -171.667 -174.334 -297 -221.001c-88.667 -32.667 -178 -49 -268 -49c-94.667 0 -185 15.667 -271 47c-125.333 46.667 -224.333 119.667 -297 219c-94 131.333 -141 302 -141 512c0 209.333 46.333 378 139 506
c72.667 101.333 171.667 174.333 297 219c90 32.667 181 49 273 49c72 0 140 -8 204 -24c94.667 -24.667 178 -65.667 250 -123zM392.998 736.998c0 -185.333 45.667 -323.001 137 -413.001c70 -68.667 158.333 -103 265 -103c103.333 0 190 34.333 260 103
c91.333 90 137 227.667 137 413c0 184.667 -45.667 321.334 -137 410.001c-70 68 -156.667 102 -260 102c-104 0 -191.667 -34 -263 -102c-92.667 -90 -139 -226.667 -139 -410z" />
    <glyph glyph-name="ohorn" unicode="&#x1a1;" horiz-adv-x="1245" 
d="M995 987c28.667 15.333 50.167 37.999 64.5 67.999s21.5 60.667 21.5 92h-107v168h242v-172c0 -50.667 -10.333 -92 -31 -124s-61 -63 -121 -93c84.667 -97.333 127 -224.333 127 -381c0 -187.333 -56 -332 -168 -434c-100.667 -93.333 -230.334 -140 -389.001 -140
c-156.667 0 -285.667 46.667 -387 140c-113.333 103.333 -170 248 -170 434c0 186.667 56 331.334 168 434.001c100.667 92.667 230.334 139 389.001 139c65.333 0 128.5 -11.167 189.5 -33.5s118.167 -54.833 171.5 -97.5zM896 544.999c0 90 -15.667 162.333 -47 217
c-43.333 76.667 -115 115 -215 115c-98 0 -169 -37.667 -213 -113c-32.667 -57.333 -49 -130.333 -49 -219c0 -90 15.667 -162.333 47 -217c44 -76.667 115.667 -115 215 -115c98.667 0 169.667 37.667 213 113c32.667 57.333 49 130.333 49 219z" />
    <glyph glyph-name="Uhorn" unicode="&#x1af;" horiz-adv-x="1478" 
d="M1323 1409c27.333 15.333 44.333 32.168 51 50.501s10 45.166 10 80.499h-106v168h241v-172c0 -101.333 -65.333 -184.666 -196 -249.999v-770c0 -190 -54 -331.333 -162 -424c-102.667 -88.667 -250.667 -133 -444 -133c-83.333 0 -161.333 11.667 -234 35
c-96.667 31.333 -174.334 79.666 -233.001 144.999c-76.667 88.667 -115 207.667 -115 357v974h315v-954c0 -96.667 24.667 -170 74 -220s112.333 -75 189 -75c100.667 0 174.834 24 222.501 72s71.5 118.333 71.5 211v966h316v-61z" />
    <glyph glyph-name="uhorn" unicode="&#x1b0;" horiz-adv-x="1245" 
d="M1126 1057c27.333 14.667 44.334 32.002 51.001 52.002s10 47.667 10 83h-106v168h242v-172c0 -46.667 -16.5 -88.334 -49.5 -125.001s-82.167 -71.667 -147.5 -105v-958h-274v156c-72.667 -123.333 -184.667 -185 -336 -185c-114.667 0 -204.334 32.333 -269.001 97
c-69.333 68 -104 169.667 -104 305v717h287v-676c0 -76.667 19.667 -131.334 59 -164.001c30 -24.667 73 -37 129 -37c57.333 0 106 17 146 51c50 44 75 110.333 75 199v627h287v-33z" />
    <glyph glyph-name="uni1EA0" unicode="&#x1ea0;" horiz-adv-x="1454" 
d="M430 303l-102 -303h-324l524 1470h357l516 -1470h-332l-94 303h-545zM512 557h377l-185 582zM831 -123v-237h-258v237h258z" />
    <glyph glyph-name="uni1EA1" unicode="&#x1ea1;" 
d="M1015 803l-0.00195312 -590.001c0 -58.667 5.5 -99.667 16.5 -123s27.5 -38.333 49.5 -45v-45h-311c-11.333 36.667 -18.333 60.834 -21 72.501s-4 31.167 -4 58.5c-44 -46.667 -86.333 -81.334 -127 -104.001c-65.333 -37.333 -140.333 -56 -225 -56
c-91.333 0 -167.333 24.667 -228 74c-69.333 57.333 -104 139.333 -104 246c0 100.667 30 182 90 244c53.333 54 128.333 88.667 225 104l258 37c38.667 6.66699 65.5 16.834 80.5 30.501s22.5 32.167 22.5 55.5c0 53.333 -22 89.333 -66 108
c-28.667 12.667 -69.667 19 -123 19c-64 0 -110.333 -17 -139 -51c-19.333 -22 -31.666 -55.667 -36.999 -101h-278c14.667 152 72 257.333 172 316c73.333 43.333 178.333 65 315 65c110.667 0 202.334 -18.333 275.001 -55c106 -53.333 159 -140 159 -260z
M736.998 392.999l-0.000976562 138.999c-15.333 -13.333 -36.333 -24.166 -63 -32.499s-71.334 -17.5 -134.001 -27.5s-107.667 -24.667 -135 -44c-38 -26 -57 -66.333 -57 -121c0 -44.667 15 -78.667 45 -102c24.667 -19.333 53.334 -29 86.001 -29
c66.667 0 126.334 19.833 179.001 59.5s79 92.167 79 157.5zM690.997 -123.002v-237h-258v237h258z" />
    <glyph glyph-name="uni1EA2" unicode="&#x1ea2;" horiz-adv-x="1454" 
d="M430 303l-102 -303h-324l524 1470h357l516 -1470h-332l-94 303h-545zM512 557h377l-185 582zM781 1606l-146 -0.000976562c0 63.333 5.83301 111.333 17.5 144s36.667 62.5 75 89.5s57.5 54.833 57.5 83.5s-7.5 49 -22.5 61s-32.5 18 -52.5 18
c-31.333 0 -53 -8.66699 -65 -26s-18 -44.333 -18 -81l-160 -3c0 88.667 25.667 153.334 77 194.001c43.333 34.667 96 52 158 52c54.667 0 102.667 -10.667 144 -32c71.333 -36.667 107 -96 107 -178c0 -38.667 -9.16699 -71.167 -27.5 -97.5s-47 -53.333 -86 -81
s-58.5 -75.5 -58.5 -143.5z" />
    <glyph glyph-name="uni1EA3" unicode="&#x1ea3;" 
d="M1015 803l-0.00195312 -590.001c0 -58.667 5.5 -99.667 16.5 -123s27.5 -38.333 49.5 -45v-45h-311c-11.333 36.667 -18.333 60.834 -21 72.501s-4 31.167 -4 58.5c-44 -46.667 -86.333 -81.334 -127 -104.001c-65.333 -37.333 -140.333 -56 -225 -56
c-91.333 0 -167.333 24.667 -228 74c-69.333 57.333 -104 139.333 -104 246c0 100.667 30 182 90 244c53.333 54 128.333 88.667 225 104l258 37c38.667 6.66699 65.5 16.834 80.5 30.501s22.5 32.167 22.5 55.5c0 53.333 -22 89.333 -66 108
c-28.667 12.667 -69.667 19 -123 19c-64 0 -110.333 -17 -139 -51c-19.333 -22 -31.666 -55.667 -36.999 -101h-278c14.667 152 72 257.333 172 316c73.333 43.333 178.333 65 315 65c110.667 0 202.334 -18.333 275.001 -55c106 -53.333 159 -140 159 -260z
M736.998 392.999l-0.000976562 138.999c-15.333 -13.333 -36.333 -24.166 -63 -32.499s-71.334 -17.5 -134.001 -27.5s-107.667 -24.667 -135 -44c-38 -26 -57 -66.333 -57 -121c0 -44.667 15 -78.667 45 -102c24.667 -19.333 53.334 -29 86.001 -29
c66.667 0 126.334 19.833 179.001 59.5s79 92.167 79 157.5zM609.997 1178l-146 -0.00195312c0 63.333 6 111.333 18 144s37 62.334 75 89.001s57 54.667 57 84c0 28.667 -7.33301 49 -22 61s-32 18 -52 18c-32 0 -54 -8.66699 -66 -26s-18 -44.333 -18 -81l-160 -3
c0 88.667 26 153.334 78 194.001c43.333 34.667 96 52 158 52c54 0 101.667 -10.667 143 -32c71.333 -36.667 107 -96 107 -178c0 -38.667 -9.16699 -71.167 -27.5 -97.5s-47 -53.333 -86 -81s-58.5 -75.5 -58.5 -143.5z" />
    <glyph glyph-name="uni1EA4" unicode="&#x1ea4;" horiz-adv-x="1454" 
d="M430 303l-102 -303h-324l524 1470h357l516 -1470h-332l-94 303h-545zM512 557h377l-185 582zM1438 2166l-304 -299h-204l192 299h316zM829 1917l234 -299h-230l-131 168l-131 -168h-229l233 299h254z" />
    <glyph glyph-name="uni1EA5" unicode="&#x1ea5;" 
d="M1015 803l-0.00195312 -590.001c0 -58.667 5.5 -99.667 16.5 -123s27.5 -38.333 49.5 -45v-45h-311c-11.333 36.667 -18.333 60.834 -21 72.501s-4 31.167 -4 58.5c-44 -46.667 -86.333 -81.334 -127 -104.001c-65.333 -37.333 -140.333 -56 -225 -56
c-91.333 0 -167.333 24.667 -228 74c-69.333 57.333 -104 139.333 -104 246c0 100.667 30 182 90 244c53.333 54 128.333 88.667 225 104l258 37c38.667 6.66699 65.5 16.834 80.5 30.501s22.5 32.167 22.5 55.5c0 53.333 -22 89.333 -66 108
c-28.667 12.667 -69.667 19 -123 19c-64 0 -110.333 -17 -139 -51c-19.333 -22 -31.666 -55.667 -36.999 -101h-278c14.667 152 72 257.333 172 316c73.333 43.333 178.333 65 315 65c110.667 0 202.334 -18.333 275.001 -55c106 -53.333 159 -140 159 -260z
M736.998 392.999l-0.000976562 138.999c-15.333 -13.333 -36.333 -24.166 -63 -32.499s-71.334 -17.5 -134.001 -27.5s-107.667 -24.667 -135 -44c-38 -26 -57 -66.333 -57 -121c0 -44.667 15 -78.667 45 -102c24.667 -19.333 53.334 -29 86.001 -29
c66.667 0 126.334 19.833 179.001 59.5s79 92.167 79 157.5zM780.997 1431l192 299h315l-299 -299h-208zM678.997 1516l234 -299h-234l-131 167l-127 -167h-233l233 299h258z" />
    <glyph glyph-name="uni1EA6" unicode="&#x1ea6;" horiz-adv-x="1454" 
d="M430 303l-102 -303h-324l524 1470h357l516 -1470h-332l-94 303h-545zM512 557h377l-185 582zM971 1867l-303 299h315l193 -299h-205zM829 1917l234 -299h-230l-131 168l-131 -168h-229l233 299h254z" />
    <glyph glyph-name="uni1EA7" unicode="&#x1ea7;" 
d="M1015 803l-0.00195312 -590.001c0 -58.667 5.5 -99.667 16.5 -123s27.5 -38.333 49.5 -45v-45h-311c-11.333 36.667 -18.333 60.834 -21 72.501s-4 31.167 -4 58.5c-44 -46.667 -86.333 -81.334 -127 -104.001c-65.333 -37.333 -140.333 -56 -225 -56
c-91.333 0 -167.333 24.667 -228 74c-69.333 57.333 -104 139.333 -104 246c0 100.667 30 182 90 244c53.333 54 128.333 88.667 225 104l258 37c38.667 6.66699 65.5 16.834 80.5 30.501s22.5 32.167 22.5 55.5c0 53.333 -22 89.333 -66 108
c-28.667 12.667 -69.667 19 -123 19c-64 0 -110.333 -17 -139 -51c-19.333 -22 -31.666 -55.667 -36.999 -101h-278c14.667 152 72 257.333 172 316c73.333 43.333 178.333 65 315 65c110.667 0 202.334 -18.333 275.001 -55c106 -53.333 159 -140 159 -260z
M736.998 392.999l-0.000976562 138.999c-15.333 -13.333 -36.333 -24.166 -63 -32.499s-71.334 -17.5 -134.001 -27.5s-107.667 -24.667 -135 -44c-38 -26 -57 -66.333 -57 -121c0 -44.667 15 -78.667 45 -102c24.667 -19.333 53.334 -29 86.001 -29
c66.667 0 126.334 19.833 179.001 59.5s79 92.167 79 157.5zM840.997 1422l-299 299h315l192 -299h-208zM678.997 1516l234 -299h-234l-131 167l-127 -167h-233l233 299h258z" />
    <glyph glyph-name="uni1EA8" unicode="&#x1ea8;" horiz-adv-x="1454" 
d="M430 303l-102 -303h-324l524 1470h357l516 -1470h-332l-94 303h-545zM512 557h377l-185 582zM1067 1865h-146c0 63.333 5.83301 111.333 17.5 144s36.667 62.5 75 89.5s57.5 54.833 57.5 83.5s-7.5 49 -22.5 61s-32.5 18 -52.5 18c-31.333 0 -53 -8.66699 -65 -26
s-18 -44.333 -18 -81l-160 -3c0 88.667 25.667 153.334 77 194c43.333 34.667 96 52 158 52c54.667 0 102.667 -10.667 144 -32c71.333 -36.667 107 -96 107 -178c0 -38.667 -9.16699 -71.167 -27.5 -97.5s-47 -53.333 -86 -81s-58.5 -75.5 -58.5 -143.5zM829 1917l234 -299
h-230l-131 168l-131 -168h-229l233 299h254z" />
    <glyph glyph-name="uni1EA9" unicode="&#x1ea9;" 
d="M1015 803l-0.00195312 -590.001c0 -58.667 5.5 -99.667 16.5 -123s27.5 -38.333 49.5 -45v-45h-311c-11.333 36.667 -18.333 60.834 -21 72.501s-4 31.167 -4 58.5c-44 -46.667 -86.333 -81.334 -127 -104.001c-65.333 -37.333 -140.333 -56 -225 -56
c-91.333 0 -167.333 24.667 -228 74c-69.333 57.333 -104 139.333 -104 246c0 100.667 30 182 90 244c53.333 54 128.333 88.667 225 104l258 37c38.667 6.66699 65.5 16.834 80.5 30.501s22.5 32.167 22.5 55.5c0 53.333 -22 89.333 -66 108
c-28.667 12.667 -69.667 19 -123 19c-64 0 -110.333 -17 -139 -51c-19.333 -22 -31.666 -55.667 -36.999 -101h-278c14.667 152 72 257.333 172 316c73.333 43.333 178.333 65 315 65c110.667 0 202.334 -18.333 275.001 -55c106 -53.333 159 -140 159 -260z
M736.998 392.999l-0.000976562 138.999c-15.333 -13.333 -36.333 -24.166 -63 -32.499s-71.334 -17.5 -134.001 -27.5s-107.667 -24.667 -135 -44c-38 -26 -57 -66.333 -57 -121c0 -44.667 15 -78.667 45 -102c24.667 -19.333 53.334 -29 86.001 -29
c66.667 0 126.334 19.833 179.001 59.5s79 92.167 79 157.5zM978.997 1390l-146 -0.00195312c0 63.333 6 111.333 18 144s37 62.334 75 89.001s57 54.667 57 84c0 28.667 -7.33301 49 -22 61s-32 18 -52 18c-32 0 -54 -8.66699 -66 -26s-18 -44.333 -18 -81l-160 -3
c0 88.667 26 153.334 78 194.001c43.333 34.667 96 52 158 52c54 0 101.667 -10.667 143 -32c71.333 -36.667 107 -96 107 -178c0 -38.667 -9.16699 -71.167 -27.5 -97.5s-47 -53.333 -86 -81s-58.5 -75.5 -58.5 -143.5zM678.997 1516l234 -299h-234l-131 167l-127 -167
h-233l233 299h258z" />
    <glyph glyph-name="uni1EAA" unicode="&#x1eaa;" horiz-adv-x="1454" 
d="M430 303l-102 -303h-324l524 1470h357l516 -1470h-332l-94 303h-545zM512 557h377l-185 582zM1012 2233h135.001c-8 -40.667 -18.333 -75.334 -31 -104c-40.667 -94 -105.334 -141 -194.001 -141c-23.333 0 -46.666 2.66699 -69.999 8s-51.666 13.5 -84.999 24.5
l-101 32.5c-18 5.33301 -32.333 8 -43 8c-33.333 0 -58.666 -11.333 -75.999 -34c-11.333 -15.333 -19 -34 -23 -56h-131c5.33301 30 12.5 57 21.5 81s23.333 50.333 43 79s42.5 50.334 68.5 65c33.333 19.333 72.333 29 117 29c31.333 0 80.666 -13.667 147.999 -41
c61.333 -22 103.666 -33 126.999 -33c28.667 0 50.167 8 64.5 24s24.166 35.333 29.499 58zM829.001 1917l234 -299h-230l-131 168l-131 -168h-229l233 299h254z" />
    <glyph glyph-name="uni1EAB" unicode="&#x1eab;" 
d="M1015 803l-0.00195312 -590.001c0 -58.667 5.5 -99.667 16.5 -123s27.5 -38.333 49.5 -45v-45h-311c-11.333 36.667 -18.333 60.834 -21 72.501s-4 31.167 -4 58.5c-44 -46.667 -86.333 -81.334 -127 -104.001c-65.333 -37.333 -140.333 -56 -225 -56
c-91.333 0 -167.333 24.667 -228 74c-69.333 57.333 -104 139.333 -104 246c0 100.667 30 182 90 244c53.333 54 128.333 88.667 225 104l258 37c38.667 6.66699 65.5 16.834 80.5 30.501s22.5 32.167 22.5 55.5c0 53.333 -22 89.333 -66 108
c-28.667 12.667 -69.667 19 -123 19c-64 0 -110.333 -17 -139 -51c-19.333 -22 -31.666 -55.667 -36.999 -101h-278c14.667 152 72 257.333 172 316c73.333 43.333 178.333 65 315 65c110.667 0 202.334 -18.333 275.001 -55c106 -53.333 159 -140 159 -260z
M736.998 392.999l-0.000976562 138.999c-15.333 -13.333 -36.333 -24.166 -63 -32.499s-71.334 -17.5 -134.001 -27.5s-107.667 -24.667 -135 -44c-38 -26 -57 -66.333 -57 -121c0 -44.667 15 -78.667 45 -102c24.667 -19.333 53.334 -29 86.001 -29
c66.667 0 126.334 19.833 179.001 59.5s79 92.167 79 157.5zM859.997 1808h131.004c-10.667 -78 -35.834 -138.5 -75.501 -181.5s-88.167 -64.5 -145.5 -64.5c-23.333 0 -46.666 2.83301 -69.999 8.5s-49 12.834 -77 21.501s-52.667 16.667 -74 24
c-40 13.333 -67.333 20 -82 20c-30 0 -54 -11.667 -72 -35c-10.667 -14.667 -18.334 -33 -23.001 -55h-131c7.33301 35.333 13 59.333 17 72c9.33301 30 23 58 41 84c23.333 30 50 53.833 80 71.5s66 26.5 108 26.5c30 0 57.333 -4 82 -12
c27.333 -12.667 49.333 -22.334 66 -29.001c61.333 -22 103.666 -33 126.999 -33c31.333 0 54.166 7.83301 68.499 23.5s24.166 35.167 29.499 58.5zM679.001 1516l234 -299h-234l-131 167l-127 -167h-233l233 299h258z" />
    <glyph glyph-name="uni1EAC" unicode="&#x1eac;" horiz-adv-x="1454" 
d="M430 303l-102 -303h-324l524 1470h357l516 -1470h-332l-94 303h-545zM512 557h377l-185 582zM831 -123v-237h-258v237h258zM829 1917l234 -299h-230l-131 168l-131 -168h-229l233 299h254z" />
    <glyph glyph-name="uni1EAD" unicode="&#x1ead;" 
d="M1015 803l-0.00195312 -590.001c0 -58.667 5.5 -99.667 16.5 -123s27.5 -38.333 49.5 -45v-45h-311c-11.333 36.667 -18.333 60.834 -21 72.501s-4 31.167 -4 58.5c-44 -46.667 -86.333 -81.334 -127 -104.001c-65.333 -37.333 -140.333 -56 -225 -56
c-91.333 0 -167.333 24.667 -228 74c-69.333 57.333 -104 139.333 -104 246c0 100.667 30 182 90 244c53.333 54 128.333 88.667 225 104l258 37c38.667 6.66699 65.5 16.834 80.5 30.501s22.5 32.167 22.5 55.5c0 53.333 -22 89.333 -66 108
c-28.667 12.667 -69.667 19 -123 19c-64 0 -110.333 -17 -139 -51c-19.333 -22 -31.666 -55.667 -36.999 -101h-278c14.667 152 72 257.333 172 316c73.333 43.333 178.333 65 315 65c110.667 0 202.334 -18.333 275.001 -55c106 -53.333 159 -140 159 -260z
M736.998 392.999l-0.000976562 138.999c-15.333 -13.333 -36.333 -24.166 -63 -32.499s-71.334 -17.5 -134.001 -27.5s-107.667 -24.667 -135 -44c-38 -26 -57 -66.333 -57 -121c0 -44.667 15 -78.667 45 -102c24.667 -19.333 53.334 -29 86.001 -29
c66.667 0 126.334 19.833 179.001 59.5s79 92.167 79 157.5zM690.997 -123.002v-237h-258v237h258zM678.997 1516l234 -299h-234l-131 167l-127 -167h-233l233 299h258z" />
    <glyph glyph-name="uni1EAE" unicode="&#x1eae;" horiz-adv-x="1454" 
d="M430 303l-102 -303h-324l524 1470h357l516 -1470h-332l-94 303h-545zM512 557h377l-185 582zM1096 2213l-304 -299h-204l192 299h316zM913 1913l135.001 0.000976562c-9.33301 -98.667 -48 -174.334 -116 -227.001c-62.667 -48 -145.334 -72 -248.001 -72
c-118.667 0 -206.667 39.667 -264 119c-36 48.667 -57.333 108.667 -64 180h135c10 -42.667 23.667 -72.667 41 -90c34.667 -36 89.334 -54 164.001 -54c58.667 0 103.667 7.66699 135 23c45.333 22 72.666 62.333 81.999 121z" />
    <glyph glyph-name="uni1EAF" unicode="&#x1eaf;" 
d="M1015 803l-0.00195312 -590.001c0 -58.667 5.5 -99.667 16.5 -123s27.5 -38.333 49.5 -45v-45h-311c-11.333 36.667 -18.333 60.834 -21 72.501s-4 31.167 -4 58.5c-44 -46.667 -86.333 -81.334 -127 -104.001c-65.333 -37.333 -140.333 -56 -225 -56
c-91.333 0 -167.333 24.667 -228 74c-69.333 57.333 -104 139.333 -104 246c0 100.667 30 182 90 244c53.333 54 128.333 88.667 225 104l258 37c38.667 6.66699 65.5 16.834 80.5 30.501s22.5 32.167 22.5 55.5c0 53.333 -22 89.333 -66 108
c-28.667 12.667 -69.667 19 -123 19c-64 0 -110.333 -17 -139 -51c-19.333 -22 -31.666 -55.667 -36.999 -101h-278c14.667 152 72 257.333 172 316c73.333 43.333 178.333 65 315 65c110.667 0 202.334 -18.333 275.001 -55c106 -53.333 159 -140 159 -260z
M736.998 392.999l-0.000976562 138.999c-15.333 -13.333 -36.333 -24.166 -63 -32.499s-71.334 -17.5 -134.001 -27.5s-107.667 -24.667 -135 -44c-38 -26 -57 -66.333 -57 -121c0 -44.667 15 -78.667 45 -102c24.667 -19.333 53.334 -29 86.001 -29
c66.667 0 126.334 19.833 179.001 59.5s79 92.167 79 157.5zM466.997 1486l192 299h315l-299 -299h-208zM781.997 1511h135c-9.33301 -98 -48.333 -173.667 -117 -227c-62.667 -48 -145 -72 -247 -72c-119.333 0 -207.666 39.667 -264.999 119
c-35.333 49.333 -56.333 109.333 -63 180h135c9.33301 -42 23 -72 41 -90c34 -35.333 88.667 -53 164 -53c58.667 0 103.667 7.66699 135 23c45.333 21.333 72.666 61.333 81.999 120z" />
    <glyph glyph-name="uni1EB0" unicode="&#x1eb0;" horiz-adv-x="1454" 
d="M430 303l-102 -303h-324l524 1470h357l516 -1470h-332l-94 303h-545zM512 557h377l-185 582zM648 1923l-303 299h315l193 -299h-205zM913 1913l135.001 0.000976562c-9.33301 -98.667 -48 -174.334 -116 -227.001c-62.667 -48 -145.334 -72 -248.001 -72
c-118.667 0 -206.667 39.667 -264 119c-36 48.667 -57.333 108.667 -64 180h135c10 -42.667 23.667 -72.667 41 -90c34.667 -36 89.334 -54 164.001 -54c58.667 0 103.667 7.66699 135 23c45.333 22 72.666 62.333 81.999 121z" />
    <glyph glyph-name="uni1EB1" unicode="&#x1eb1;" 
d="M1015 803l-0.00195312 -590.001c0 -58.667 5.5 -99.667 16.5 -123s27.5 -38.333 49.5 -45v-45h-311c-11.333 36.667 -18.333 60.834 -21 72.501s-4 31.167 -4 58.5c-44 -46.667 -86.333 -81.334 -127 -104.001c-65.333 -37.333 -140.333 -56 -225 -56
c-91.333 0 -167.333 24.667 -228 74c-69.333 57.333 -104 139.333 -104 246c0 100.667 30 182 90 244c53.333 54 128.333 88.667 225 104l258 37c38.667 6.66699 65.5 16.834 80.5 30.501s22.5 32.167 22.5 55.5c0 53.333 -22 89.333 -66 108
c-28.667 12.667 -69.667 19 -123 19c-64 0 -110.333 -17 -139 -51c-19.333 -22 -31.666 -55.667 -36.999 -101h-278c14.667 152 72 257.333 172 316c73.333 43.333 178.333 65 315 65c110.667 0 202.334 -18.333 275.001 -55c106 -53.333 159 -140 159 -260z
M736.998 392.999l-0.000976562 138.999c-15.333 -13.333 -36.333 -24.166 -63 -32.499s-71.334 -17.5 -134.001 -27.5s-107.667 -24.667 -135 -44c-38 -26 -57 -66.333 -57 -121c0 -44.667 15 -78.667 45 -102c24.667 -19.333 53.334 -29 86.001 -29
c66.667 0 126.334 19.833 179.001 59.5s79 92.167 79 157.5zM507.997 1487l-299 299h315l192 -299h-208zM781.997 1511h135c-9.33301 -98 -48.333 -173.667 -117 -227c-62.667 -48 -145 -72 -247 -72c-119.333 0 -207.666 39.667 -264.999 119
c-35.333 49.333 -56.333 109.333 -63 180h135c9.33301 -42 23 -72 41 -90c34 -35.333 88.667 -53 164 -53c58.667 0 103.667 7.66699 135 23c45.333 21.333 72.666 61.333 81.999 120z" />
    <glyph glyph-name="uni1EB2" unicode="&#x1eb2;" horiz-adv-x="1454" 
d="M430 303l-102 -303h-324l524 1470h357l516 -1470h-332l-94 303h-545zM512 557h377l-185 582zM790 1911h-146c0 63.333 5.83301 111.333 17.5 144s36.667 62.5 75 89.5s57.5 54.833 57.5 83.5s-7.5 49 -22.5 61s-32.5 18 -52.5 18c-31.333 0 -53 -8.66699 -65 -26
s-18 -44.333 -18 -81l-160 -3c0 88.667 25.667 153.334 77 194c43.333 34.667 96 52 158 52c54.667 0 102.667 -10.667 144 -32c71.333 -36.667 107 -96 107 -178c0 -38.667 -9.16699 -71.167 -27.5 -97.5s-47 -53.333 -86 -81s-58.5 -75.5 -58.5 -143.5zM913 1913
l135.001 0.000976562c-9.33301 -98.667 -48 -174.334 -116 -227.001c-62.667 -48 -145.334 -72 -248.001 -72c-118.667 0 -206.667 39.667 -264 119c-36 48.667 -57.333 108.667 -64 180h135c10 -42.667 23.667 -72.667 41 -90c34.667 -36 89.334 -54 164.001 -54
c58.667 0 103.667 7.66699 135 23c45.333 22 72.666 62.333 81.999 121z" />
    <glyph glyph-name="uni1EB3" unicode="&#x1eb3;" 
d="M1015 803l-0.00195312 -590.001c0 -58.667 5.5 -99.667 16.5 -123s27.5 -38.333 49.5 -45v-45h-311c-11.333 36.667 -18.333 60.834 -21 72.501s-4 31.167 -4 58.5c-44 -46.667 -86.333 -81.334 -127 -104.001c-65.333 -37.333 -140.333 -56 -225 -56
c-91.333 0 -167.333 24.667 -228 74c-69.333 57.333 -104 139.333 -104 246c0 100.667 30 182 90 244c53.333 54 128.333 88.667 225 104l258 37c38.667 6.66699 65.5 16.834 80.5 30.501s22.5 32.167 22.5 55.5c0 53.333 -22 89.333 -66 108
c-28.667 12.667 -69.667 19 -123 19c-64 0 -110.333 -17 -139 -51c-19.333 -22 -31.666 -55.667 -36.999 -101h-278c14.667 152 72 257.333 172 316c73.333 43.333 178.333 65 315 65c110.667 0 202.334 -18.333 275.001 -55c106 -53.333 159 -140 159 -260z
M736.998 392.999l-0.000976562 138.999c-15.333 -13.333 -36.333 -24.166 -63 -32.499s-71.334 -17.5 -134.001 -27.5s-107.667 -24.667 -135 -44c-38 -26 -57 -66.333 -57 -121c0 -44.667 15 -78.667 45 -102c24.667 -19.333 53.334 -29 86.001 -29
c66.667 0 126.334 19.833 179.001 59.5s79 92.167 79 157.5zM645.997 1464l-146 -0.00195312c0 63.333 6 111.333 18 144s37 62.334 75 89.001s57 54.667 57 84c0 28.667 -7.33301 49 -22 61s-32 18 -52 18c-32 0 -54 -8.66699 -66 -26s-18 -44.333 -18 -81l-160 -3
c0 88.667 26 153.334 78 194.001c43.333 34.667 96 52 158 52c54 0 101.667 -10.667 143 -32c71.333 -36.667 107 -96 107 -178c0 -38.667 -9.16699 -71.167 -27.5 -97.5s-47 -53.333 -86 -81s-58.5 -75.5 -58.5 -143.5zM781.997 1511h135
c-9.33301 -98 -48.333 -173.667 -117 -227c-62.667 -48 -145 -72 -247 -72c-119.333 0 -207.666 39.667 -264.999 119c-35.333 49.333 -56.333 109.333 -63 180h135c9.33301 -42 23 -72 41 -90c34 -35.333 88.667 -53 164 -53c58.667 0 103.667 7.66699 135 23
c45.333 21.333 72.666 61.333 81.999 120z" />
    <glyph glyph-name="uni1EB4" unicode="&#x1eb4;" horiz-adv-x="1454" 
d="M430 303l-102 -303h-324l524 1470h357l516 -1470h-332l-94 303h-545zM512 557h377l-185 582zM1012 2233h135.001c-8 -40.667 -18.333 -75.334 -31 -104c-40.667 -94 -105.334 -141 -194.001 -141c-23.333 0 -46.666 2.66699 -69.999 8s-51.666 13.5 -84.999 24.5
l-101 32.5c-18 5.33301 -32.333 8 -43 8c-33.333 0 -58.666 -11.333 -75.999 -34c-11.333 -15.333 -19 -34 -23 -56h-131c5.33301 30 12.5 57 21.5 81s23.333 50.333 43 79s42.5 50.334 68.5 65c33.333 19.333 72.333 29 117 29c31.333 0 80.666 -13.667 147.999 -41
c61.333 -22 103.666 -33 126.999 -33c28.667 0 50.167 8 64.5 24s24.166 35.333 29.499 58zM913.001 1913l135.001 0.000976562c-9.33301 -98.667 -48 -174.334 -116 -227.001c-62.667 -48 -145.334 -72 -248.001 -72c-118.667 0 -206.667 39.667 -264 119
c-36 48.667 -57.333 108.667 -64 180h135c10 -42.667 23.667 -72.667 41 -90c34.667 -36 89.334 -54 164.001 -54c58.667 0 103.667 7.66699 135 23c45.333 22 72.666 62.333 81.999 121z" />
    <glyph glyph-name="uni1EB5" unicode="&#x1eb5;" 
d="M1015 803l-0.00195312 -590.001c0 -58.667 5.5 -99.667 16.5 -123s27.5 -38.333 49.5 -45v-45h-311c-11.333 36.667 -18.333 60.834 -21 72.501s-4 31.167 -4 58.5c-44 -46.667 -86.333 -81.334 -127 -104.001c-65.333 -37.333 -140.333 -56 -225 -56
c-91.333 0 -167.333 24.667 -228 74c-69.333 57.333 -104 139.333 -104 246c0 100.667 30 182 90 244c53.333 54 128.333 88.667 225 104l258 37c38.667 6.66699 65.5 16.834 80.5 30.501s22.5 32.167 22.5 55.5c0 53.333 -22 89.333 -66 108
c-28.667 12.667 -69.667 19 -123 19c-64 0 -110.333 -17 -139 -51c-19.333 -22 -31.666 -55.667 -36.999 -101h-278c14.667 152 72 257.333 172 316c73.333 43.333 178.333 65 315 65c110.667 0 202.334 -18.333 275.001 -55c106 -53.333 159 -140 159 -260z
M736.998 392.999l-0.000976562 138.999c-15.333 -13.333 -36.333 -24.166 -63 -32.499s-71.334 -17.5 -134.001 -27.5s-107.667 -24.667 -135 -44c-38 -26 -57 -66.333 -57 -121c0 -44.667 15 -78.667 45 -102c24.667 -19.333 53.334 -29 86.001 -29
c66.667 0 126.334 19.833 179.001 59.5s79 92.167 79 157.5zM915.997 1836h131.004c-10.667 -78 -35.834 -138.5 -75.501 -181.5s-88.167 -64.5 -145.5 -64.5c-23.333 0 -46.666 2.83301 -69.999 8.5s-49 12.834 -77 21.501s-52.667 16.667 -74 24
c-40 13.333 -67.333 20 -82 20c-30 0 -54 -11.667 -72 -35c-10.667 -14.667 -18.334 -33 -23.001 -55h-131c7.33301 35.333 13 59.333 17 72c9.33301 30 23 58 41 84c23.333 30 50 53.833 80 71.5s66 26.5 108 26.5c30 0 57.333 -4 82 -12
c27.333 -12.667 49.333 -22.334 66 -29.001c61.333 -22 103.666 -33 126.999 -33c31.333 0 54.166 7.83301 68.499 23.5s24.166 35.167 29.499 58.5zM782.001 1511h135c-9.33301 -98 -48.333 -173.667 -117 -227c-62.667 -48 -145 -72 -247 -72
c-119.333 0 -207.666 39.667 -264.999 119c-35.333 49.333 -56.333 109.333 -63 180h135c9.33301 -42 23 -72 41 -90c34 -35.333 88.667 -53 164 -53c58.667 0 103.667 7.66699 135 23c45.333 21.333 72.666 61.333 81.999 120z" />
    <glyph glyph-name="uni1EB6" unicode="&#x1eb6;" horiz-adv-x="1454" 
d="M430 303l-102 -303h-324l524 1470h357l516 -1470h-332l-94 303h-545zM512 557h377l-185 582zM831 -123v-237h-258v237h258zM913 1913l135.001 0.000976562c-9.33301 -98.667 -48 -174.334 -116 -227.001c-62.667 -48 -145.334 -72 -248.001 -72
c-118.667 0 -206.667 39.667 -264 119c-36 48.667 -57.333 108.667 -64 180h135c10 -42.667 23.667 -72.667 41 -90c34.667 -36 89.334 -54 164.001 -54c58.667 0 103.667 7.66699 135 23c45.333 22 72.666 62.333 81.999 121z" />
    <glyph glyph-name="uni1EB7" unicode="&#x1eb7;" 
d="M1015 803l-0.00195312 -590.001c0 -58.667 5.5 -99.667 16.5 -123s27.5 -38.333 49.5 -45v-45h-311c-11.333 36.667 -18.333 60.834 -21 72.501s-4 31.167 -4 58.5c-44 -46.667 -86.333 -81.334 -127 -104.001c-65.333 -37.333 -140.333 -56 -225 -56
c-91.333 0 -167.333 24.667 -228 74c-69.333 57.333 -104 139.333 -104 246c0 100.667 30 182 90 244c53.333 54 128.333 88.667 225 104l258 37c38.667 6.66699 65.5 16.834 80.5 30.501s22.5 32.167 22.5 55.5c0 53.333 -22 89.333 -66 108
c-28.667 12.667 -69.667 19 -123 19c-64 0 -110.333 -17 -139 -51c-19.333 -22 -31.666 -55.667 -36.999 -101h-278c14.667 152 72 257.333 172 316c73.333 43.333 178.333 65 315 65c110.667 0 202.334 -18.333 275.001 -55c106 -53.333 159 -140 159 -260z
M736.998 392.999l-0.000976562 138.999c-15.333 -13.333 -36.333 -24.166 -63 -32.499s-71.334 -17.5 -134.001 -27.5s-107.667 -24.667 -135 -44c-38 -26 -57 -66.333 -57 -121c0 -44.667 15 -78.667 45 -102c24.667 -19.333 53.334 -29 86.001 -29
c66.667 0 126.334 19.833 179.001 59.5s79 92.167 79 157.5zM690.997 -123.002v-237h-258v237h258zM781.997 1511h135c-9.33301 -98 -48.333 -173.667 -117 -227c-62.667 -48 -145 -72 -247 -72c-119.333 0 -207.666 39.667 -264.999 119
c-35.333 49.333 -56.333 109.333 -63 180h135c9.33301 -42 23 -72 41 -90c34 -35.333 88.667 -53 164 -53c58.667 0 103.667 7.66699 135 23c45.333 21.333 72.666 61.333 81.999 120z" />
    <glyph glyph-name="uni1EB8" unicode="&#x1eb8;" horiz-adv-x="1429" 
d="M1236 1470v-258h-778v-311h717v-258h-717v-381h815v-262h-1118v1470h1081zM831 -123v-237h-258v237h258z" />
    <glyph glyph-name="uni1EB9" unicode="&#x1eb9;" 
d="M774 319h295c-34 -121.333 -99.667 -212 -197 -272c-80.667 -50.667 -174.667 -76 -282 -76c-166.667 0 -295 43 -385 129c-104 100 -156 256.333 -156 469c0 172 48.333 308.667 145 410c90.667 92.667 215.667 139 375 139c136.667 0 248.667 -37.333 336 -112
c117.333 -101.333 176 -263.333 176 -486v-53h-745c9.33301 -95.333 34.5 -163.5 75.5 -204.5s100.5 -61.5 178.5 -61.5c43.333 0 82.5 10.167 117.5 30.5s57.167 49.5 66.5 87.5zM344 655h442c-8 80.667 -34.667 141 -80 181c-38 32.667 -85 49 -141 49
c-129.333 0 -203 -76.667 -221 -230zM691 -123v-237h-258v237h258z" />
    <glyph glyph-name="uni1EBA" unicode="&#x1eba;" horiz-adv-x="1429" 
d="M1236 1470v-258h-778v-311h717v-258h-717v-381h815v-262h-1118v1470h1081zM785 1606l-146 -0.000976562c0 63.333 6 111.333 18 144s37 62.5 75 89.5s57 54.833 57 83.5s-7.33301 49 -22 61s-32 18 -52 18c-32 0 -54 -8.66699 -66 -26s-18 -44.333 -18 -81l-160 -3
c0 88.667 26 153.334 78 194.001c43.333 34.667 96 52 158 52c54 0 101.667 -10.667 143 -32c71.333 -36.667 107 -96 107 -178c0 -38.667 -9.16699 -71.167 -27.5 -97.5s-47 -53.333 -86 -81s-58.5 -75.5 -58.5 -143.5z" />
    <glyph glyph-name="uni1EBB" unicode="&#x1ebb;" 
d="M774 319h295c-34 -121.333 -99.667 -212 -197 -272c-80.667 -50.667 -174.667 -76 -282 -76c-166.667 0 -295 43 -385 129c-104 100 -156 256.333 -156 469c0 172 48.333 308.667 145 410c90.667 92.667 215.667 139 375 139c136.667 0 248.667 -37.333 336 -112
c117.333 -101.333 176 -263.333 176 -486v-53h-745c9.33301 -95.333 34.5 -163.5 75.5 -204.5s100.5 -61.5 178.5 -61.5c43.333 0 82.5 10.167 117.5 30.5s57.167 49.5 66.5 87.5zM344 655h442c-8 80.667 -34.667 141 -80 181c-38 32.667 -85 49 -141 49
c-129.333 0 -203 -76.667 -221 -230zM610 1178l-145.001 -0.00195312c0 63.333 5.83301 111.333 17.5 144s36.667 62.334 75 89.001s57.5 54.667 57.5 84c0 28.667 -7.5 49 -22.5 61s-32.5 18 -52.5 18c-31.333 0 -53.166 -8.66699 -65.499 -26s-18.5 -44.333 -18.5 -81
l-159 -3c0 88.667 25.667 153.334 77 194.001c43.333 34.667 96 52 158 52c54.667 0 102.667 -10.667 144 -32c70.667 -36.667 106 -96 106 -178c0 -38.667 -9.16699 -71.167 -27.5 -97.5s-47 -53.333 -86 -81s-58.5 -75.5 -58.5 -143.5z" />
    <glyph glyph-name="uni1EBC" unicode="&#x1ebc;" horiz-adv-x="1429" 
d="M1236 1470v-258h-778v-311h717v-258h-717v-381h815v-262h-1118v1470h1081zM974 1892h135.002c-8 -40.667 -18 -75.334 -30 -104.001c-41.333 -94 -106.333 -141 -195 -141c-23.333 0 -46.5 2.66699 -69.5 8s-51.333 13.5 -85 24.5l-101.5 32.5
c-18 5.33301 -32.333 8 -43 8c-32.667 0 -58 -11.333 -76 -34c-10.667 -15.333 -18 -34 -22 -56h-131c5.33301 30 12.5 57 21.5 81s23.333 50.333 43 79s42.5 50.334 68.5 65.001c32.667 19.333 71.667 29 117 29c31.333 0 80.333 -13.667 147 -41
c61.333 -22 103.666 -33 126.999 -33c28.667 0 50.167 8 64.5 24s24.166 35.333 29.499 58z" />
    <glyph glyph-name="uni1EBD" unicode="&#x1ebd;" 
d="M774 319h295c-34 -121.333 -99.667 -212 -197 -272c-80.667 -50.667 -174.667 -76 -282 -76c-166.667 0 -295 43 -385 129c-104 100 -156 256.333 -156 469c0 172 48.333 308.667 145 410c90.667 92.667 215.667 139 375 139c136.667 0 248.667 -37.333 336 -112
c117.333 -101.333 176 -263.333 176 -486v-53h-745c9.33301 -95.333 34.5 -163.5 75.5 -204.5s100.5 -61.5 178.5 -61.5c43.333 0 82.5 10.167 117.5 30.5s57.167 49.5 66.5 87.5zM344 655h442c-8 80.667 -34.667 141 -80 181c-38 32.667 -85 49 -141 49
c-129.333 0 -203 -76.667 -221 -230zM823 1503h131.004c-10.667 -78 -35.834 -138.5 -75.501 -181.5s-88.167 -64.5 -145.5 -64.5c-23.333 0 -46.5 2.83301 -69.5 8.5s-48.5 12.834 -76.5 21.501l-75 24c-40 13.333 -67.333 20 -82 20c-30 0 -54 -11.667 -72 -35
c-10.667 -14.667 -18 -33 -22 -55h-131c6.66699 35.333 12 59.333 16 72c9.33301 30 23 58 41 84c23.333 30 50 53.833 80 71.5s66 26.5 108 26.5c30 0 57.333 -4 82 -12c27.333 -12.667 49.333 -22.334 66 -29.001c61.333 -22 103.666 -33 126.999 -33
c31.333 0 54.166 7.83301 68.499 23.5s24.166 35.167 29.499 58.5z" />
    <glyph glyph-name="uni1EBE" unicode="&#x1ebe;" horiz-adv-x="1429" 
d="M1236 1470v-258h-778v-311h717v-258h-717v-381h815v-262h-1118v1470h1081zM1424 2167l-303 -299h-205l193 299h315zM841 1917l234 -299h-230l-131 168l-131 -168h-229l233 299h254z" />
    <glyph glyph-name="uni1EBF" unicode="&#x1ebf;" 
d="M774 319h295c-34 -121.333 -99.667 -212 -197 -272c-80.667 -50.667 -174.667 -76 -282 -76c-166.667 0 -295 43 -385 129c-104 100 -156 256.333 -156 469c0 172 48.333 308.667 145 410c90.667 92.667 215.667 139 375 139c136.667 0 248.667 -37.333 336 -112
c117.333 -101.333 176 -263.333 176 -486v-53h-745c9.33301 -95.333 34.5 -163.5 75.5 -204.5s100.5 -61.5 178.5 -61.5c43.333 0 82.5 10.167 117.5 30.5s57.167 49.5 66.5 87.5zM344 655h442c-8 80.667 -34.667 141 -80 181c-38 32.667 -85 49 -141 49
c-129.333 0 -203 -76.667 -221 -230zM790 1431l192 299h316l-299 -299h-209zM680 1516l233 -299h-233l-131 167l-127 -167h-234l234 299h258z" />
    <glyph glyph-name="uni1EC0" unicode="&#x1ec0;" horiz-adv-x="1429" 
d="M1236 1470v-258h-778v-311h717v-258h-717v-381h815v-262h-1118v1470h1081zM997 1867l-303 299h316l192 -299h-205zM841 1917l234 -299h-230l-131 168l-131 -168h-229l233 299h254z" />
    <glyph glyph-name="uni1EC1" unicode="&#x1ec1;" 
d="M774 319h295c-34 -121.333 -99.667 -212 -197 -272c-80.667 -50.667 -174.667 -76 -282 -76c-166.667 0 -295 43 -385 129c-104 100 -156 256.333 -156 469c0 172 48.333 308.667 145 410c90.667 92.667 215.667 139 375 139c136.667 0 248.667 -37.333 336 -112
c117.333 -101.333 176 -263.333 176 -486v-53h-745c9.33301 -95.333 34.5 -163.5 75.5 -204.5s100.5 -61.5 178.5 -61.5c43.333 0 82.5 10.167 117.5 30.5s57.167 49.5 66.5 87.5zM344 655h442c-8 80.667 -34.667 141 -80 181c-38 32.667 -85 49 -141 49
c-129.333 0 -203 -76.667 -221 -230zM812 1430l-299 299h315l193 -299h-209zM680 1516l233 -299h-233l-131 167l-127 -167h-234l234 299h258z" />
    <glyph glyph-name="uni1EC2" unicode="&#x1ec2;" horiz-adv-x="1429" 
d="M1236 1470v-258h-778v-311h717v-258h-717v-381h815v-262h-1118v1470h1081zM1075 1843h-146c0 63.333 6 111.333 18 144s37 62.5 75 89.5s57 54.833 57 83.5s-7.33301 49 -22 61s-32 18 -52 18c-32 0 -54 -8.66699 -66 -26s-18 -44.333 -18 -81l-160 -3
c0 88.667 26 153.334 78 194c43.333 34.667 96 52 158 52c54 0 101.667 -10.667 143 -32c71.333 -36.667 107 -96 107 -178c0 -38.667 -9.16699 -71.167 -27.5 -97.5s-47 -53.333 -86 -81s-58.5 -75.5 -58.5 -143.5zM841 1917l234 -299h-230l-131 168l-131 -168h-229
l233 299h254z" />
    <glyph glyph-name="uni1EC3" unicode="&#x1ec3;" 
d="M774 319h295c-34 -121.333 -99.667 -212 -197 -272c-80.667 -50.667 -174.667 -76 -282 -76c-166.667 0 -295 43 -385 129c-104 100 -156 256.333 -156 469c0 172 48.333 308.667 145 410c90.667 92.667 215.667 139 375 139c136.667 0 248.667 -37.333 336 -112
c117.333 -101.333 176 -263.333 176 -486v-53h-745c9.33301 -95.333 34.5 -163.5 75.5 -204.5s100.5 -61.5 178.5 -61.5c43.333 0 82.5 10.167 117.5 30.5s57.167 49.5 66.5 87.5zM344 655h442c-8 80.667 -34.667 141 -80 181c-38 32.667 -85 49 -141 49
c-129.333 0 -203 -76.667 -221 -230zM952 1408l-145.001 -0.00195312c0 63.333 5.83301 111.333 17.5 144s36.667 62.334 75 89.001s57.5 54.667 57.5 84c0 28.667 -7.5 49 -22.5 61s-32.5 18 -52.5 18c-31.333 0 -53.166 -8.66699 -65.499 -26s-18.5 -44.333 -18.5 -81
l-159 -3c0 88.667 25.667 153.334 77 194.001c43.333 34.667 96 52 158 52c54.667 0 102.667 -10.667 144 -32c70.667 -36.667 106 -96 106 -178c0 -38.667 -9.16699 -71.167 -27.5 -97.5s-47 -53.333 -86 -81s-58.5 -75.5 -58.5 -143.5zM679.999 1516l233 -299h-233
l-131 167l-127 -167h-234l234 299h258z" />
    <glyph glyph-name="uni1EC4" unicode="&#x1ec4;" horiz-adv-x="1429" 
d="M1236 1470v-258h-778v-311h717v-258h-717v-381h815v-262h-1118v1470h1081zM1029 2224h135.002c-8 -40.667 -18 -75.334 -30 -104c-41.333 -94 -106.333 -141 -195 -141c-23.333 0 -46.5 2.66699 -69.5 8s-51.333 13.5 -85 24.5l-101.5 32.5c-18 5.33301 -32.333 8 -43 8
c-32.667 0 -58 -11.333 -76 -34c-10.667 -15.333 -18 -34 -22 -56h-131c5.33301 30 12.5 57 21.5 81s23.333 50.333 43 79s42.5 50.334 68.5 65c32.667 19.333 71.667 29 117 29c31.333 0 80.333 -13.667 147 -41c61.333 -22 103.666 -33 126.999 -33
c28.667 0 50.167 8 64.5 24s24.166 35.333 29.499 58zM841.002 1917l234 -299h-230l-131 168l-131 -168h-229l233 299h254z" />
    <glyph glyph-name="uni1EC5" unicode="&#x1ec5;" 
d="M774 319h295c-34 -121.333 -99.667 -212 -197 -272c-80.667 -50.667 -174.667 -76 -282 -76c-166.667 0 -295 43 -385 129c-104 100 -156 256.333 -156 469c0 172 48.333 308.667 145 410c90.667 92.667 215.667 139 375 139c136.667 0 248.667 -37.333 336 -112
c117.333 -101.333 176 -263.333 176 -486v-53h-745c9.33301 -95.333 34.5 -163.5 75.5 -204.5s100.5 -61.5 178.5 -61.5c43.333 0 82.5 10.167 117.5 30.5s57.167 49.5 66.5 87.5zM344 655h442c-8 80.667 -34.667 141 -80 181c-38 32.667 -85 49 -141 49
c-129.333 0 -203 -76.667 -221 -230zM851 1808h131.004c-10.667 -78 -35.834 -138.5 -75.501 -181.5s-88.167 -64.5 -145.5 -64.5c-23.333 0 -46.5 2.83301 -69.5 8.5s-48.5 12.834 -76.5 21.501l-75 24c-40 13.333 -67.333 20 -82 20c-30 0 -54 -11.667 -72 -35
c-10.667 -14.667 -18 -33 -22 -55h-131c6.66699 35.333 12 59.333 16 72c9.33301 30 23 58 41 84c23.333 30 50 53.833 80 71.5s66 26.5 108 26.5c30 0 57.333 -4 82 -12c27.333 -12.667 49.333 -22.334 66 -29.001c61.333 -22 103.666 -33 126.999 -33
c31.333 0 54.166 7.83301 68.499 23.5s24.166 35.167 29.499 58.5zM680.004 1516l233 -299h-233l-131 167l-127 -167h-234l234 299h258z" />
    <glyph glyph-name="uni1EC6" unicode="&#x1ec6;" horiz-adv-x="1429" 
d="M1236 1470v-258h-778v-311h717v-258h-717v-381h815v-262h-1118v1470h1081zM831 -123v-237h-258v237h258zM841 1917l234 -299h-230l-131 168l-131 -168h-229l233 299h254z" />
    <glyph glyph-name="uni1EC7" unicode="&#x1ec7;" 
d="M774 319h295c-34 -121.333 -99.667 -212 -197 -272c-80.667 -50.667 -174.667 -76 -282 -76c-166.667 0 -295 43 -385 129c-104 100 -156 256.333 -156 469c0 172 48.333 308.667 145 410c90.667 92.667 215.667 139 375 139c136.667 0 248.667 -37.333 336 -112
c117.333 -101.333 176 -263.333 176 -486v-53h-745c9.33301 -95.333 34.5 -163.5 75.5 -204.5s100.5 -61.5 178.5 -61.5c43.333 0 82.5 10.167 117.5 30.5s57.167 49.5 66.5 87.5zM344 655h442c-8 80.667 -34.667 141 -80 181c-38 32.667 -85 49 -141 49
c-129.333 0 -203 -76.667 -221 -230zM691 -123v-237h-258v237h258zM680 1516l233 -299h-233l-131 167l-127 -167h-234l234 299h258z" />
    <glyph glyph-name="uni1EC8" unicode="&#x1ec8;" horiz-adv-x="602" 
d="M438 1470v-1470h-307v1470h307zM347 1606l-146 -0.000976562c0 63.333 5.83301 111.333 17.5 144s36.667 62.5 75 89.5s57.5 54.833 57.5 83.5s-7.5 49 -22.5 61s-32.5 18 -52.5 18c-31.333 0 -53 -8.66699 -65 -26s-18 -44.333 -18 -81l-160 -3
c0 88.667 25.667 153.334 77 194.001c43.333 34.667 96 52 158 52c54.667 0 102.667 -10.667 144 -32c71.333 -36.667 107 -96 107 -178c0 -38.667 -9.16699 -71.167 -27.5 -97.5s-47 -53.333 -86 -81s-58.5 -75.5 -58.5 -143.5z" />
    <glyph glyph-name="uni1EC9" unicode="&#x1ec9;" horiz-adv-x="602" 
d="M143 1090h287v-1090h-287v1090zM380 1178l-146 -0.00195312c0 63.333 5.83301 111.333 17.5 144s36.667 62.334 75 89.001s57.5 54.667 57.5 84c0 28.667 -7.5 49 -22.5 61s-32.5 18 -52.5 18c-31.333 0 -53 -8.66699 -65 -26s-18 -44.333 -18 -81l-160 -3
c0 88.667 25.667 153.334 77 194.001c43.333 34.667 96 52 158 52c54.667 0 102.667 -10.667 144 -32c71.333 -36.667 107 -96 107 -178c0 -38.667 -9.16699 -71.167 -27.5 -97.5s-47 -53.333 -86 -81s-58.5 -75.5 -58.5 -143.5z" />
    <glyph glyph-name="uni1ECA" unicode="&#x1eca;" horiz-adv-x="602" 
d="M438 1470v-1470h-307v1470h307zM414 -123v-237h-258v237h258z" />
    <glyph glyph-name="uni1ECB" unicode="&#x1ecb;" horiz-adv-x="602" 
d="M143 1090h287v-1090h-287v1090zM430 1487v-266h-287v266h287zM415 -123v-237h-258v237h258z" />
    <glyph glyph-name="uni1ECC" unicode="&#x1ecc;" horiz-adv-x="1548" 
d="M86 737c0 209.333 46.333 378.001 139 506.001c72.667 101.333 171.667 174.333 297 219c90 32.667 181 49 273 49c92.667 0 182 -15.667 268 -47c125.333 -46 224.333 -119 297 -219c92.667 -128 139 -297.333 139 -508c0 -208.667 -46.333 -378 -139 -508
c-72.667 -100.667 -171.667 -174.334 -297 -221.001c-88.667 -32.667 -178 -49 -268 -49c-94.667 0 -185 15.667 -271 47c-125.333 46.667 -224.333 119.667 -297 219c-94 131.333 -141 302 -141 512zM393 737.001c0 -185.333 45.667 -323.001 137 -413.001
c70 -68.667 158.333 -103 265 -103c103.333 0 190 34.333 260 103c91.333 90 137 227.667 137 413c0 184.667 -45.667 321.334 -137 410.001c-70 68 -156.667 102 -260 102c-104 0 -191.667 -34 -263 -102c-92.667 -90 -139 -226.667 -139 -410zM922 -123v-237h-258v237h258
z" />
    <glyph glyph-name="uni1ECD" unicode="&#x1ecd;" horiz-adv-x="1245" 
d="M1191 545c0 -187.333 -56.001 -332 -168.001 -434c-100.667 -93.333 -230.334 -140 -389.001 -140c-156.667 0 -285.667 46.667 -387 140c-113.333 103.333 -170 248 -170 434c0 186.667 56 331.334 168 434.001c100.667 92.667 230.334 139 389.001 139
s288.334 -46.333 389.001 -139c112 -102.667 168 -247.334 168 -434.001zM895.999 545c0 90 -15.667 162.333 -47 217c-43.333 76.667 -115 115 -215 115c-98 0 -169 -37.667 -213 -113c-32.667 -57.333 -49 -130.333 -49 -219c0 -90 15.667 -162.333 47 -217
c44 -76.667 115.667 -115 215 -115c98.667 0 169.667 37.667 213 113c32.667 57.333 49 130.333 49 219zM762.999 -123v-237h-258v237h258z" />
    <glyph glyph-name="uni1ECE" unicode="&#x1ece;" horiz-adv-x="1548" 
d="M86 737c0 209.333 46.333 378.001 139 506.001c72.667 101.333 171.667 174.333 297 219c90 32.667 181 49 273 49c92.667 0 182 -15.667 268 -47c125.333 -46 224.333 -119 297 -219c92.667 -128 139 -297.333 139 -508c0 -208.667 -46.333 -378 -139 -508
c-72.667 -100.667 -171.667 -174.334 -297 -221.001c-88.667 -32.667 -178 -49 -268 -49c-94.667 0 -185 15.667 -271 47c-125.333 46.667 -224.333 119.667 -297 219c-94 131.333 -141 302 -141 512zM393 737.001c0 -185.333 45.667 -323.001 137 -413.001
c70 -68.667 158.333 -103 265 -103c103.333 0 190 34.333 260 103c91.333 90 137 227.667 137 413c0 184.667 -45.667 321.334 -137 410.001c-70 68 -156.667 102 -260 102c-104 0 -191.667 -34 -263 -102c-92.667 -90 -139 -226.667 -139 -410zM863 1606
l-145.001 -0.000976562c0 63.333 5.83301 111.333 17.5 144s36.667 62.5 75 89.5s57.5 54.833 57.5 83.5s-7.5 49 -22.5 61s-32.5 18 -52.5 18c-31.333 0 -53.166 -8.66699 -65.499 -26s-18.5 -44.333 -18.5 -81l-159 -3c0 88.667 25.667 153.334 77 194.001
c43.333 34.667 96 52 158 52c54.667 0 102.667 -10.667 144 -32c70.667 -36.667 106 -96 106 -178c0 -38.667 -9.16699 -71.167 -27.5 -97.5s-47 -53.333 -86 -81s-58.5 -75.5 -58.5 -143.5z" />
    <glyph glyph-name="uni1ECF" unicode="&#x1ecf;" horiz-adv-x="1245" 
d="M1191 545c0 -187.333 -56.001 -332 -168.001 -434c-100.667 -93.333 -230.334 -140 -389.001 -140c-156.667 0 -285.667 46.667 -387 140c-113.333 103.333 -170 248 -170 434c0 186.667 56 331.334 168 434.001c100.667 92.667 230.334 139 389.001 139
s288.334 -46.333 389.001 -139c112 -102.667 168 -247.334 168 -434.001zM895.999 545c0 90 -15.667 162.333 -47 217c-43.333 76.667 -115 115 -215 115c-98 0 -169 -37.667 -213 -113c-32.667 -57.333 -49 -130.333 -49 -219c0 -90 15.667 -162.333 47 -217
c44 -76.667 115.667 -115 215 -115c98.667 0 169.667 37.667 213 113c32.667 57.333 49 130.333 49 219zM692.999 1178l-146 -0.00195312c0 63.333 5.83301 111.333 17.5 144s36.667 62.334 75 89.001s57.5 54.667 57.5 84c0 28.667 -7.5 49 -22.5 61s-32.5 18 -52.5 18
c-31.333 0 -53 -8.66699 -65 -26s-18 -44.333 -18 -81l-160 -3c0 88.667 25.667 153.334 77 194.001c43.333 34.667 96 52 158 52c54.667 0 102.667 -10.667 144 -32c71.333 -36.667 107 -96 107 -178c0 -38.667 -9.16699 -71.167 -27.5 -97.5s-47 -53.333 -86 -81
s-58.5 -75.5 -58.5 -143.5z" />
    <glyph glyph-name="uni1ED0" unicode="&#x1ed0;" horiz-adv-x="1548" 
d="M86 737c0 209.333 46.333 378.001 139 506.001c72.667 101.333 171.667 174.333 297 219c90 32.667 181 49 273 49c92.667 0 182 -15.667 268 -47c125.333 -46 224.333 -119 297 -219c92.667 -128 139 -297.333 139 -508c0 -208.667 -46.333 -378 -139 -508
c-72.667 -100.667 -171.667 -174.334 -297 -221.001c-88.667 -32.667 -178 -49 -268 -49c-94.667 0 -185 15.667 -271 47c-125.333 46.667 -224.333 119.667 -297 219c-94 131.333 -141 302 -141 512zM393 737.001c0 -185.333 45.667 -323.001 137 -413.001
c70 -68.667 158.333 -103 265 -103c103.333 0 190 34.333 260 103c91.333 90 137 227.667 137 413c0 184.667 -45.667 321.334 -137 410.001c-70 68 -156.667 102 -260 102c-104 0 -191.667 -34 -263 -102c-92.667 -90 -139 -226.667 -139 -410zM1508 2166l-303 -299h-205
l193 299h315zM920 1917l233 -299h-229l-131 168l-132 -168h-229l234 299h254z" />
    <glyph glyph-name="uni1ED1" unicode="&#x1ed1;" horiz-adv-x="1245" 
d="M1191 545c0 -187.333 -56.001 -332 -168.001 -434c-100.667 -93.333 -230.334 -140 -389.001 -140c-156.667 0 -285.667 46.667 -387 140c-113.333 103.333 -170 248 -170 434c0 186.667 56 331.334 168 434.001c100.667 92.667 230.334 139 389.001 139
s288.334 -46.333 389.001 -139c112 -102.667 168 -247.334 168 -434.001zM895.999 545c0 90 -15.667 162.333 -47 217c-43.333 76.667 -115 115 -215 115c-98 0 -169 -37.667 -213 -113c-32.667 -57.333 -49 -130.333 -49 -219c0 -90 15.667 -162.333 47 -217
c44 -76.667 115.667 -115 215 -115c98.667 0 169.667 37.667 213 113c32.667 57.333 49 130.333 49 219zM853.999 1431l193 299h315l-299 -299h-209zM762.999 1516l234 -299h-234l-131 167l-127 -167h-233l233 299h258z" />
    <glyph glyph-name="uni1ED2" unicode="&#x1ed2;" horiz-adv-x="1548" 
d="M86 737c0 209.333 46.333 378.001 139 506.001c72.667 101.333 171.667 174.333 297 219c90 32.667 181 49 273 49c92.667 0 182 -15.667 268 -47c125.333 -46 224.333 -119 297 -219c92.667 -128 139 -297.333 139 -508c0 -208.667 -46.333 -378 -139 -508
c-72.667 -100.667 -171.667 -174.334 -297 -221.001c-88.667 -32.667 -178 -49 -268 -49c-94.667 0 -185 15.667 -271 47c-125.333 46.667 -224.333 119.667 -297 219c-94 131.333 -141 302 -141 512zM393 737.001c0 -185.333 45.667 -323.001 137 -413.001
c70 -68.667 158.333 -103 265 -103c103.333 0 190 34.333 260 103c91.333 90 137 227.667 137 413c0 184.667 -45.667 321.334 -137 410.001c-70 68 -156.667 102 -260 102c-104 0 -191.667 -34 -263 -102c-92.667 -90 -139 -226.667 -139 -410zM1053 1867l-303 299h315
l193 -299h-205zM920 1917l233 -299h-229l-131 168l-132 -168h-229l234 299h254z" />
    <glyph glyph-name="uni1ED3" unicode="&#x1ed3;" horiz-adv-x="1245" 
d="M1191 545c0 -187.333 -56.001 -332 -168.001 -434c-100.667 -93.333 -230.334 -140 -389.001 -140c-156.667 0 -285.667 46.667 -387 140c-113.333 103.333 -170 248 -170 434c0 186.667 56 331.334 168 434.001c100.667 92.667 230.334 139 389.001 139
s288.334 -46.333 389.001 -139c112 -102.667 168 -247.334 168 -434.001zM895.999 545c0 90 -15.667 162.333 -47 217c-43.333 76.667 -115 115 -215 115c-98 0 -169 -37.667 -213 -113c-32.667 -57.333 -49 -130.333 -49 -219c0 -90 15.667 -162.333 47 -217
c44 -76.667 115.667 -115 215 -115c98.667 0 169.667 37.667 213 113c32.667 57.333 49 130.333 49 219zM922.999 1432l-299 299h316l192 -299h-209zM762.999 1516l234 -299h-234l-131 167l-127 -167h-233l233 299h258z" />
    <glyph glyph-name="uni1ED4" unicode="&#x1ed4;" horiz-adv-x="1548" 
d="M86 737c0 209.333 46.333 378.001 139 506.001c72.667 101.333 171.667 174.333 297 219c90 32.667 181 49 273 49c92.667 0 182 -15.667 268 -47c125.333 -46 224.333 -119 297 -219c92.667 -128 139 -297.333 139 -508c0 -208.667 -46.333 -378 -139 -508
c-72.667 -100.667 -171.667 -174.334 -297 -221.001c-88.667 -32.667 -178 -49 -268 -49c-94.667 0 -185 15.667 -271 47c-125.333 46.667 -224.333 119.667 -297 219c-94 131.333 -141 302 -141 512zM393 737.001c0 -185.333 45.667 -323.001 137 -413.001
c70 -68.667 158.333 -103 265 -103c103.333 0 190 34.333 260 103c91.333 90 137 227.667 137 413c0 184.667 -45.667 321.334 -137 410.001c-70 68 -156.667 102 -260 102c-104 0 -191.667 -34 -263 -102c-92.667 -90 -139 -226.667 -139 -410zM1167 1846h-145.001
c0 63.333 5.83301 111.333 17.5 144s36.667 62.5 75 89.5s57.5 54.833 57.5 83.5s-7.5 49 -22.5 61s-32.5 18 -52.5 18c-31.333 0 -53.166 -8.66699 -65.499 -26s-18.5 -44.333 -18.5 -81l-159 -3c0 88.667 25.667 153.334 77 194c43.333 34.667 96 52 158 52
c54.667 0 102.667 -10.667 144 -32c70.667 -36.667 106 -96 106 -178c0 -38.667 -9.16699 -71.167 -27.5 -97.5s-47 -53.333 -86 -81s-58.5 -75.5 -58.5 -143.5zM919.999 1917l233 -299h-229l-131 168l-132 -168h-229l234 299h254z" />
    <glyph glyph-name="uni1ED5" unicode="&#x1ed5;" horiz-adv-x="1245" 
d="M1191 545c0 -187.333 -56.001 -332 -168.001 -434c-100.667 -93.333 -230.334 -140 -389.001 -140c-156.667 0 -285.667 46.667 -387 140c-113.333 103.333 -170 248 -170 434c0 186.667 56 331.334 168 434.001c100.667 92.667 230.334 139 389.001 139
s288.334 -46.333 389.001 -139c112 -102.667 168 -247.334 168 -434.001zM895.999 545c0 90 -15.667 162.333 -47 217c-43.333 76.667 -115 115 -215 115c-98 0 -169 -37.667 -213 -113c-32.667 -57.333 -49 -130.333 -49 -219c0 -90 15.667 -162.333 47 -217
c44 -76.667 115.667 -115 215 -115c98.667 0 169.667 37.667 213 113c32.667 57.333 49 130.333 49 219zM1035 1409l-146 -0.00195312c0 63.333 5.83301 111.333 17.5 144s36.667 62.334 75 89.001s57.5 54.667 57.5 84c0 28.667 -7.5 49 -22.5 61s-32.5 18 -52.5 18
c-31.333 0 -53 -8.66699 -65 -26s-18 -44.333 -18 -81l-160 -3c0 88.667 25.667 153.334 77 194.001c43.333 34.667 96 52 158 52c54.667 0 102.667 -10.667 144 -32c71.333 -36.667 107 -96 107 -178c0 -38.667 -9.16699 -71.167 -27.5 -97.5s-47 -53.333 -86 -81
s-58.5 -75.5 -58.5 -143.5zM762.999 1516l234 -299h-234l-131 167l-127 -167h-233l233 299h258z" />
    <glyph glyph-name="uni1ED6" unicode="&#x1ed6;" horiz-adv-x="1548" 
d="M86 737c0 209.333 46.333 378.001 139 506.001c72.667 101.333 171.667 174.333 297 219c90 32.667 181 49 273 49c92.667 0 182 -15.667 268 -47c125.333 -46 224.333 -119 297 -219c92.667 -128 139 -297.333 139 -508c0 -208.667 -46.333 -378 -139 -508
c-72.667 -100.667 -171.667 -174.334 -297 -221.001c-88.667 -32.667 -178 -49 -268 -49c-94.667 0 -185 15.667 -271 47c-125.333 46.667 -224.333 119.667 -297 219c-94 131.333 -141 302 -141 512zM393 737.001c0 -185.333 45.667 -323.001 137 -413.001
c70 -68.667 158.333 -103 265 -103c103.333 0 190 34.333 260 103c91.333 90 137 227.667 137 413c0 184.667 -45.667 321.334 -137 410.001c-70 68 -156.667 102 -260 102c-104 0 -191.667 -34 -263 -102c-92.667 -90 -139 -226.667 -139 -410zM1099 2215h135.002
c-8 -40.667 -18 -75.334 -30 -104c-41.333 -94 -106.333 -141 -195 -141c-23.333 0 -46.5 2.66699 -69.5 8s-51.333 13.5 -85 24.5l-101.5 32.5c-18 5.33301 -32.333 8 -43 8c-32.667 0 -58 -11.333 -76 -34c-10.667 -15.333 -18 -34 -22 -56h-131
c5.33301 30 12.5 57 21.5 81s23.333 50.333 43 79s42.5 50.334 68.5 65c32.667 19.333 71.667 29 117 29c31.333 0 80.333 -13.667 147 -41c61.333 -22 103.666 -33 126.999 -33c28.667 0 50.167 8 64.5 24s24.166 35.333 29.499 58zM920.002 1917l233 -299h-229l-131 168
l-132 -168h-229l234 299h254z" />
    <glyph glyph-name="uni1ED7" unicode="&#x1ed7;" horiz-adv-x="1245" 
d="M1191 545c0 -187.333 -56.001 -332 -168.001 -434c-100.667 -93.333 -230.334 -140 -389.001 -140c-156.667 0 -285.667 46.667 -387 140c-113.333 103.333 -170 248 -170 434c0 186.667 56 331.334 168 434.001c100.667 92.667 230.334 139 389.001 139
s288.334 -46.333 389.001 -139c112 -102.667 168 -247.334 168 -434.001zM895.999 545c0 90 -15.667 162.333 -47 217c-43.333 76.667 -115 115 -215 115c-98 0 -169 -37.667 -213 -113c-32.667 -57.333 -49 -130.333 -49 -219c0 -90 15.667 -162.333 47 -217
c44 -76.667 115.667 -115 215 -115c98.667 0 169.667 37.667 213 113c32.667 57.333 49 130.333 49 219zM933.999 1800h130.998c-11.333 -78 -36.666 -138.5 -75.999 -181.5s-87.666 -64.5 -144.999 -64.5c-23.333 0 -46.666 2.83301 -69.999 8.5s-49 12.834 -77 21.501
l-75 24c-39.333 13.333 -66.333 20 -81 20c-30.667 0 -54.667 -11.667 -72 -35c-11.333 -14.667 -19 -33 -23 -55h-131c7.33301 35.333 13 59.333 17 72c9.33301 30 23 58 41 84c22.667 30 49.167 53.833 79.5 71.5s66.5 26.5 108.5 26.5c30 0 57.333 -4 82 -12
c27.333 -12.667 49 -22.334 65 -29.001c62 -22 104.333 -33 127 -33c32 0 55.167 7.83301 69.5 23.5s24.166 35.167 29.499 58.5zM762.997 1516l234 -299h-234l-131 167l-127 -167h-233l233 299h258z" />
    <glyph glyph-name="uni1ED8" unicode="&#x1ed8;" horiz-adv-x="1548" 
d="M86 737c0 209.333 46.333 378.001 139 506.001c72.667 101.333 171.667 174.333 297 219c90 32.667 181 49 273 49c92.667 0 182 -15.667 268 -47c125.333 -46 224.333 -119 297 -219c92.667 -128 139 -297.333 139 -508c0 -208.667 -46.333 -378 -139 -508
c-72.667 -100.667 -171.667 -174.334 -297 -221.001c-88.667 -32.667 -178 -49 -268 -49c-94.667 0 -185 15.667 -271 47c-125.333 46.667 -224.333 119.667 -297 219c-94 131.333 -141 302 -141 512zM393 737.001c0 -185.333 45.667 -323.001 137 -413.001
c70 -68.667 158.333 -103 265 -103c103.333 0 190 34.333 260 103c91.333 90 137 227.667 137 413c0 184.667 -45.667 321.334 -137 410.001c-70 68 -156.667 102 -260 102c-104 0 -191.667 -34 -263 -102c-92.667 -90 -139 -226.667 -139 -410zM922 -123v-237h-258v237h258
zM920 1917l233 -299h-229l-131 168l-132 -168h-229l234 299h254z" />
    <glyph glyph-name="uni1ED9" unicode="&#x1ed9;" horiz-adv-x="1245" 
d="M1191 545c0 -187.333 -56.001 -332 -168.001 -434c-100.667 -93.333 -230.334 -140 -389.001 -140c-156.667 0 -285.667 46.667 -387 140c-113.333 103.333 -170 248 -170 434c0 186.667 56 331.334 168 434.001c100.667 92.667 230.334 139 389.001 139
s288.334 -46.333 389.001 -139c112 -102.667 168 -247.334 168 -434.001zM895.999 545c0 90 -15.667 162.333 -47 217c-43.333 76.667 -115 115 -215 115c-98 0 -169 -37.667 -213 -113c-32.667 -57.333 -49 -130.333 -49 -219c0 -90 15.667 -162.333 47 -217
c44 -76.667 115.667 -115 215 -115c98.667 0 169.667 37.667 213 113c32.667 57.333 49 130.333 49 219zM762.999 -123v-237h-258v237h258zM762.999 1516l234 -299h-234l-131 167l-127 -167h-233l233 299h258z" />
    <glyph glyph-name="uni1EDA" unicode="&#x1eda;" horiz-adv-x="1548" 
d="M393 737c0 -185.333 45.667 -323.001 137 -413.001c70 -68.667 158.333 -103 265 -103c103.333 0 190 34.333 260 103c91.333 90 137 227.667 137 413c0 184.667 -45.667 321.334 -137 410.001c-70 68 -156.667 102 -260 102c-104 0 -191.667 -34 -263 -102
c-92.667 -90 -139 -226.667 -139 -410zM1055 1917l-303 -299h-205l193 299h315zM1249 1364c28.667 14.667 50.832 38.832 66.499 72.499s23.5 66.834 23.5 99.501h-106v168h242v-172c0 -56 -8.33301 -101 -25 -135c-22 -45.333 -61.667 -82.333 -119 -111
c54.667 -60 96.334 -134.667 125.001 -224s43 -197.666 43 -324.999c0 -208.667 -46.333 -378 -139 -508c-72.667 -100.667 -171.667 -174.334 -297 -221.001c-88.667 -32.667 -178 -49 -268 -49c-94.667 0 -185 15.667 -271 47c-125.333 46.667 -224.333 119.667 -297 219
c-94 131.333 -141 302 -141 512c0 209.333 46.333 378 139 506c72.667 101.333 171.667 174.333 297 219c90 32.667 181 49 273 49c72 0 140 -8 204 -24c94.667 -24.667 178 -65.667 250 -123z" />
    <glyph glyph-name="uni1EDB" unicode="&#x1edb;" horiz-adv-x="1245" 
d="M896 545c0 90 -15.667 162.333 -47 217c-43.333 76.667 -115 115 -215 115c-98 0 -169 -37.667 -213 -113c-32.667 -57.333 -49 -130.333 -49 -219c0 -90 15.667 -162.333 47 -217c44 -76.667 115.667 -115 215 -115c98.667 0 169.667 37.667 213 113
c32.667 57.333 49 130.333 49 219zM429 1237l193 299h315l-299 -299h-209zM995 987c28.667 15.333 50.167 37.999 64.5 67.999s21.5 60.667 21.5 92h-107v168h242v-172c0 -50.667 -10.333 -92 -31 -124s-61 -63 -121 -93c84.667 -97.333 127 -224.333 127 -381
c0 -187.333 -56 -332 -168 -434c-100.667 -93.333 -230.334 -140 -389.001 -140c-156.667 0 -285.667 46.667 -387 140c-113.333 103.333 -170 248 -170 434c0 186.667 56 331.334 168 434.001c100.667 92.667 230.334 139 389.001 139c65.333 0 128.5 -11.167 189.5 -33.5
s118.167 -54.833 171.5 -97.5z" />
    <glyph glyph-name="uni1EDC" unicode="&#x1edc;" horiz-adv-x="1548" 
d="M393 737c0 -185.333 45.667 -323.001 137 -413.001c70 -68.667 158.333 -103 265 -103c103.333 0 190 34.333 260 103c91.333 90 137 227.667 137 413c0 184.667 -45.667 321.334 -137 410.001c-70 68 -156.667 102 -260 102c-104 0 -191.667 -34 -263 -102
c-92.667 -90 -139 -226.667 -139 -410zM757 1618l-303 299h315l193 -299h-205zM1249 1364c28.667 14.667 50.832 38.832 66.499 72.499s23.5 66.834 23.5 99.501h-106v168h242v-172c0 -56 -8.33301 -101 -25 -135c-22 -45.333 -61.667 -82.333 -119 -111
c54.667 -60 96.334 -134.667 125.001 -224s43 -197.666 43 -324.999c0 -208.667 -46.333 -378 -139 -508c-72.667 -100.667 -171.667 -174.334 -297 -221.001c-88.667 -32.667 -178 -49 -268 -49c-94.667 0 -185 15.667 -271 47c-125.333 46.667 -224.333 119.667 -297 219
c-94 131.333 -141 302 -141 512c0 209.333 46.333 378 139 506c72.667 101.333 171.667 174.333 297 219c90 32.667 181 49 273 49c72 0 140 -8 204 -24c94.667 -24.667 178 -65.667 250 -123z" />
    <glyph glyph-name="uni1EDD" unicode="&#x1edd;" horiz-adv-x="1245" 
d="M896 545c0 90 -15.667 162.333 -47 217c-43.333 76.667 -115 115 -215 115c-98 0 -169 -37.667 -213 -113c-32.667 -57.333 -49 -130.333 -49 -219c0 -90 15.667 -162.333 47 -217c44 -76.667 115.667 -115 215 -115c98.667 0 169.667 37.667 213 113
c32.667 57.333 49 130.333 49 219zM535 1237l-299 299h316l192 -299h-209zM995 987c28.667 15.333 50.167 37.999 64.5 67.999s21.5 60.667 21.5 92h-107v168h242v-172c0 -50.667 -10.333 -92 -31 -124s-61 -63 -121 -93c84.667 -97.333 127 -224.333 127 -381
c0 -187.333 -56 -332 -168 -434c-100.667 -93.333 -230.334 -140 -389.001 -140c-156.667 0 -285.667 46.667 -387 140c-113.333 103.333 -170 248 -170 434c0 186.667 56 331.334 168 434.001c100.667 92.667 230.334 139 389.001 139c65.333 0 128.5 -11.167 189.5 -33.5
s118.167 -54.833 171.5 -97.5z" />
    <glyph glyph-name="uni1EDE" unicode="&#x1ede;" horiz-adv-x="1548" 
d="M393 737c0 -185.333 45.667 -323.001 137 -413.001c70 -68.667 158.333 -103 265 -103c103.333 0 190 34.333 260 103c91.333 90 137 227.667 137 413c0 184.667 -45.667 321.334 -137 410.001c-70 68 -156.667 102 -260 102c-104 0 -191.667 -34 -263 -102
c-92.667 -90 -139 -226.667 -139 -410zM863 1606l-145.001 -0.000976562c0 63.333 5.83301 111.333 17.5 144s36.667 62.5 75 89.5s57.5 54.833 57.5 83.5s-7.5 49 -22.5 61s-32.5 18 -52.5 18c-31.333 0 -53.166 -8.66699 -65.499 -26s-18.5 -44.333 -18.5 -81l-159 -3
c0 88.667 25.667 153.334 77 194.001c43.333 34.667 96 52 158 52c54.667 0 102.667 -10.667 144 -32c70.667 -36.667 106 -96 106 -178c0 -38.667 -9.16699 -71.167 -27.5 -97.5s-47 -53.333 -86 -81s-58.5 -75.5 -58.5 -143.5zM1249 1364
c28.667 14.667 50.832 38.832 66.499 72.499s23.5 66.834 23.5 99.501h-106v168h242v-172c0 -56 -8.33301 -101 -25 -135c-22 -45.333 -61.667 -82.333 -119 -111c54.667 -60 96.334 -134.667 125.001 -224s43 -197.666 43 -324.999c0 -208.667 -46.333 -378 -139 -508
c-72.667 -100.667 -171.667 -174.334 -297 -221.001c-88.667 -32.667 -178 -49 -268 -49c-94.667 0 -185 15.667 -271 47c-125.333 46.667 -224.333 119.667 -297 219c-94 131.333 -141 302 -141 512c0 209.333 46.333 378 139 506c72.667 101.333 171.667 174.333 297 219
c90 32.667 181 49 273 49c72 0 140 -8 204 -24c94.667 -24.667 178 -65.667 250 -123z" />
    <glyph glyph-name="uni1EDF" unicode="&#x1edf;" horiz-adv-x="1245" 
d="M896 545c0 90 -15.667 162.333 -47 217c-43.333 76.667 -115 115 -215 115c-98 0 -169 -37.667 -213 -113c-32.667 -57.333 -49 -130.333 -49 -219c0 -90 15.667 -162.333 47 -217c44 -76.667 115.667 -115 215 -115c98.667 0 169.667 37.667 213 113
c32.667 57.333 49 130.333 49 219zM693 1178l-146 -0.00195312c0 63.333 5.83301 111.333 17.5 144s36.667 62.334 75 89.001s57.5 54.667 57.5 84c0 28.667 -7.5 49 -22.5 61s-32.5 18 -52.5 18c-31.333 0 -53 -8.66699 -65 -26s-18 -44.333 -18 -81l-160 -3
c0 88.667 25.667 153.334 77 194.001c43.333 34.667 96 52 158 52c54.667 0 102.667 -10.667 144 -32c71.333 -36.667 107 -96 107 -178c0 -38.667 -9.16699 -71.167 -27.5 -97.5s-47 -53.333 -86 -81s-58.5 -75.5 -58.5 -143.5zM995 986.998
c28.667 15.333 50.167 37.999 64.5 67.999s21.5 60.667 21.5 92h-107v168h242v-172c0 -50.667 -10.333 -92 -31 -124s-61 -63 -121 -93c84.667 -97.333 127 -224.333 127 -381c0 -187.333 -56 -332 -168 -434c-100.667 -93.333 -230.334 -140 -389.001 -140
c-156.667 0 -285.667 46.667 -387 140c-113.333 103.333 -170 248 -170 434c0 186.667 56 331.334 168 434.001c100.667 92.667 230.334 139 389.001 139c65.333 0 128.5 -11.167 189.5 -33.5s118.167 -54.833 171.5 -97.5z" />
    <glyph glyph-name="uni1EE0" unicode="&#x1ee0;" horiz-adv-x="1548" 
d="M393 737c0 -185.333 45.667 -323.001 137 -413.001c70 -68.667 158.333 -103 265 -103c103.333 0 190 34.333 260 103c91.333 90 137 227.667 137 413c0 184.667 -45.667 321.334 -137 410.001c-70 68 -156.667 102 -260 102c-104 0 -191.667 -34 -263 -102
c-92.667 -90 -139 -226.667 -139 -410zM1034 1892h135.002c-8 -40.667 -18 -75.334 -30 -104.001c-41.333 -94 -106.333 -141 -195 -141c-23.333 0 -46.5 2.66699 -69.5 8s-51.333 13.5 -85 24.5l-101.5 32.5c-18 5.33301 -32.333 8 -43 8c-32.667 0 -58 -11.333 -76 -34
c-10.667 -15.333 -18 -34 -22 -56h-131c5.33301 30 12.5 57 21.5 81s23.333 50.333 43 79s42.5 50.334 68.5 65.001c32.667 19.333 71.667 29 117 29c31.333 0 80.333 -13.667 147 -41c61.333 -22 103.666 -33 126.999 -33c28.667 0 50.167 8 64.5 24
s24.166 35.333 29.499 58zM1249 1364c28.667 14.667 50.832 38.832 66.499 72.499s23.5 66.834 23.5 99.501h-106v168h242v-172c0 -56 -8.33301 -101 -25 -135c-22 -45.333 -61.667 -82.333 -119 -111c54.667 -60 96.334 -134.667 125.001 -224s43 -197.666 43 -324.999
c0 -208.667 -46.333 -378 -139 -508c-72.667 -100.667 -171.667 -174.334 -297 -221.001c-88.667 -32.667 -178 -49 -268 -49c-94.667 0 -185 15.667 -271 47c-125.333 46.667 -224.333 119.667 -297 219c-94 131.333 -141 302 -141 512c0 209.333 46.333 378 139 506
c72.667 101.333 171.667 174.333 297 219c90 32.667 181 49 273 49c72 0 140 -8 204 -24c94.667 -24.667 178 -65.667 250 -123z" />
    <glyph glyph-name="uni1EE1" unicode="&#x1ee1;" horiz-adv-x="1245" 
d="M896 545c0 90 -15.667 162.333 -47 217c-43.333 76.667 -115 115 -215 115c-98 0 -169 -37.667 -213 -113c-32.667 -57.333 -49 -130.333 -49 -219c0 -90 15.667 -162.333 47 -217c44 -76.667 115.667 -115 215 -115c98.667 0 169.667 37.667 213 113
c32.667 57.333 49 130.333 49 219zM878 1503h130.998c-11.333 -78 -36.666 -138.5 -75.999 -181.5s-87.666 -64.5 -144.999 -64.5c-23.333 0 -46.666 2.83301 -69.999 8.5s-49 12.834 -77 21.501l-75 24c-39.333 13.333 -66.333 20 -81 20
c-30.667 0 -54.667 -11.667 -72 -35c-11.333 -14.667 -19 -33 -23 -55h-131c7.33301 35.333 13 59.333 17 72c9.33301 30 23 58 41 84c22.667 30 49.167 53.833 79.5 71.5s66.5 26.5 108.5 26.5c30 0 57.333 -4 82 -12c27.333 -12.667 49 -22.334 65 -29.001
c62 -22 104.333 -33 127 -33c32 0 55.167 7.83301 69.5 23.5s24.166 35.167 29.499 58.5zM994.998 987c28.667 15.333 50.167 37.999 64.5 67.999s21.5 60.667 21.5 92h-107v168h242v-172c0 -50.667 -10.333 -92 -31 -124s-61 -63 -121 -93
c84.667 -97.333 127 -224.333 127 -381c0 -187.333 -56 -332 -168 -434c-100.667 -93.333 -230.334 -140 -389.001 -140c-156.667 0 -285.667 46.667 -387 140c-113.333 103.333 -170 248 -170 434c0 186.667 56 331.334 168 434.001
c100.667 92.667 230.334 139 389.001 139c65.333 0 128.5 -11.167 189.5 -33.5s118.167 -54.833 171.5 -97.5z" />
    <glyph glyph-name="uni1EE2" unicode="&#x1ee2;" horiz-adv-x="1548" 
d="M393 737c0 -185.333 45.667 -323.001 137 -413.001c70 -68.667 158.333 -103 265 -103c103.333 0 190 34.333 260 103c91.333 90 137 227.667 137 413c0 184.667 -45.667 321.334 -137 410.001c-70 68 -156.667 102 -260 102c-104 0 -191.667 -34 -263 -102
c-92.667 -90 -139 -226.667 -139 -410zM922 -123.001v-237h-258v237h258zM1249 1364c28.667 14.667 50.832 38.832 66.499 72.499s23.5 66.834 23.5 99.501h-106v168h242v-172c0 -56 -8.33301 -101 -25 -135c-22 -45.333 -61.667 -82.333 -119 -111
c54.667 -60 96.334 -134.667 125.001 -224s43 -197.666 43 -324.999c0 -208.667 -46.333 -378 -139 -508c-72.667 -100.667 -171.667 -174.334 -297 -221.001c-88.667 -32.667 -178 -49 -268 -49c-94.667 0 -185 15.667 -271 47c-125.333 46.667 -224.333 119.667 -297 219
c-94 131.333 -141 302 -141 512c0 209.333 46.333 378 139 506c72.667 101.333 171.667 174.333 297 219c90 32.667 181 49 273 49c72 0 140 -8 204 -24c94.667 -24.667 178 -65.667 250 -123z" />
    <glyph glyph-name="uni1EE3" unicode="&#x1ee3;" horiz-adv-x="1245" 
d="M896 545c0 90 -15.667 162.333 -47 217c-43.333 76.667 -115 115 -215 115c-98 0 -169 -37.667 -213 -113c-32.667 -57.333 -49 -130.333 -49 -219c0 -90 15.667 -162.333 47 -217c44 -76.667 115.667 -115 215 -115c98.667 0 169.667 37.667 213 113
c32.667 57.333 49 130.333 49 219zM763 -123v-237h-258v237h258zM995 987c28.667 15.333 50.167 37.999 64.5 67.999s21.5 60.667 21.5 92h-107v168h242v-172c0 -50.667 -10.333 -92 -31 -124s-61 -63 -121 -93c84.667 -97.333 127 -224.333 127 -381
c0 -187.333 -56 -332 -168 -434c-100.667 -93.333 -230.334 -140 -389.001 -140c-156.667 0 -285.667 46.667 -387 140c-113.333 103.333 -170 248 -170 434c0 186.667 56 331.334 168 434.001c100.667 92.667 230.334 139 389.001 139c65.333 0 128.5 -11.167 189.5 -33.5
s118.167 -54.833 171.5 -97.5z" />
    <glyph glyph-name="uni1EE4" unicode="&#x1ee4;" horiz-adv-x="1478" 
d="M1323 1470v-953.999c0 -190 -54 -331.333 -162 -424c-102.667 -88.667 -250.667 -133 -444 -133c-83.333 0 -161.333 11.667 -234 35c-96.667 31.333 -174.334 79.666 -233.001 144.999c-76.667 88.667 -115 207.667 -115 357v974h315v-954
c0 -96.667 24.667 -170 74 -220s112.333 -75 189 -75c100.667 0 174.834 24 222.501 72s71.5 118.333 71.5 211v966h316zM858 -122.999v-237h-258v237h258z" />
    <glyph glyph-name="uni1EE5" unicode="&#x1ee5;" horiz-adv-x="1245" 
d="M1126 1090l0.000976562 -1090h-274v156c-72.667 -123.333 -184.667 -185 -336 -185c-114.667 0 -204.334 32.333 -269.001 97c-69.333 68 -104 169.667 -104 305v717h287v-676c0 -76.667 19.667 -131.334 59 -164.001c30 -24.667 73 -37 129 -37c57.333 0 106 17 146 51
c50 44 75 110.333 75 199v627h287zM799.001 -122.999v-237h-259v237h259z" />
    <glyph glyph-name="uni1EE6" unicode="&#x1ee6;" horiz-adv-x="1478" 
d="M1323 1470v-953.999c0 -190 -54 -331.333 -162 -424c-102.667 -88.667 -250.667 -133 -444 -133c-83.333 0 -161.333 11.667 -234 35c-96.667 31.333 -174.334 79.666 -233.001 144.999c-76.667 88.667 -115 207.667 -115 357v974h315v-954
c0 -96.667 24.667 -170 74 -220s112.333 -75 189 -75c100.667 0 174.834 24 222.501 72s71.5 118.333 71.5 211v966h316zM817 1606l-145 -0.000976562c0 63.333 5.83301 111.333 17.5 144s36.667 62.5 75 89.5s57.5 54.833 57.5 83.5s-7.5 49 -22.5 61s-32.5 18 -52.5 18
c-32 0 -54 -8.66699 -66 -26s-18 -44.333 -18 -81l-159 -3c0 88.667 25.667 153.334 77 194.001c43.333 34.667 96 52 158 52c54 0 102 -10.667 144 -32c70.667 -36.667 106 -96 106 -178c0 -38.667 -9.16699 -71.167 -27.5 -97.5s-47 -53.333 -86 -81
s-58.5 -75.5 -58.5 -143.5z" />
    <glyph glyph-name="uni1EE7" unicode="&#x1ee7;" horiz-adv-x="1245" 
d="M1126 1090l0.000976562 -1090h-274v156c-72.667 -123.333 -184.667 -185 -336 -185c-114.667 0 -204.334 32.333 -269.001 97c-69.333 68 -104 169.667 -104 305v717h287v-676c0 -76.667 19.667 -131.334 59 -164.001c30 -24.667 73 -37 129 -37c57.333 0 106 17 146 51
c50 44 75 110.333 75 199v627h287zM711.001 1178l-145 -0.00195312c0 63.333 5.83301 111.333 17.5 144s36.667 62.334 75 89.001s57.5 54.667 57.5 84c0 28.667 -7.5 49 -22.5 61s-32.5 18 -52.5 18c-32 0 -54 -8.66699 -66 -26s-18 -44.333 -18 -81l-159 -3
c0 88.667 25.667 153.334 77 194.001c43.333 34.667 96 52 158 52c54 0 101.667 -10.667 143 -32c71.333 -36.667 107 -96 107 -178c0 -38.667 -9.16699 -71.167 -27.5 -97.5s-47 -53.333 -86 -81s-58.5 -75.5 -58.5 -143.5z" />
    <glyph glyph-name="uni1EE8" unicode="&#x1ee8;" horiz-adv-x="1478" 
d="M1119 1917l-303 -299h-205l192 299h316zM1323 1409c27.333 15.333 44.333 32.168 51 50.501s10 45.166 10 80.499h-106v168h241v-172c0 -101.333 -65.333 -184.666 -196 -249.999v-770c0 -190 -54 -331.333 -162 -424c-102.667 -88.667 -250.667 -133 -444 -133
c-83.333 0 -161.333 11.667 -234 35c-96.667 31.333 -174.334 79.666 -233.001 144.999c-76.667 88.667 -115 207.667 -115 357v974h315v-954c0 -96.667 24.667 -170 74 -220s112.333 -75 189 -75c100.667 0 174.834 24 222.501 72s71.5 118.333 71.5 211v966h316v-61z" />
    <glyph glyph-name="uni1EE9" unicode="&#x1ee9;" horiz-adv-x="1245" 
d="M494 1237l192 299h316l-299 -299h-209zM1126 1057c27.333 14.667 44.334 32.002 51.001 52.002s10 47.667 10 83h-106v168h242v-172c0 -46.667 -16.5 -88.334 -49.5 -125.001s-82.167 -71.667 -147.5 -105v-958h-274v156c-72.667 -123.333 -184.667 -185 -336 -185
c-114.667 0 -204.334 32.333 -269.001 97c-69.333 68 -104 169.667 -104 305v717h287v-676c0 -76.667 19.667 -131.334 59 -164.001c30 -24.667 73 -37 129 -37c57.333 0 106 17 146 51c50 44 75 110.333 75 199v627h287v-33z" />
    <glyph glyph-name="uni1EEA" unicode="&#x1eea;" horiz-adv-x="1478" 
d="M677 1618l-303 299h315l193 -299h-205zM1323 1409c27.333 15.333 44.333 32.168 51 50.501s10 45.166 10 80.499h-106v168h241v-172c0 -101.333 -65.333 -184.666 -196 -249.999v-770c0 -190 -54 -331.333 -162 -424c-102.667 -88.667 -250.667 -133 -444 -133
c-83.333 0 -161.333 11.667 -234 35c-96.667 31.333 -174.334 79.666 -233.001 144.999c-76.667 88.667 -115 207.667 -115 357v974h315v-954c0 -96.667 24.667 -170 74 -220s112.333 -75 189 -75c100.667 0 174.834 24 222.501 72s71.5 118.333 71.5 211v966h316v-61z" />
    <glyph glyph-name="uni1EEB" unicode="&#x1eeb;" horiz-adv-x="1245" 
d="M582 1237l-299 299h315l193 -299h-209zM1126 1057c27.333 14.667 44.334 32.002 51.001 52.002s10 47.667 10 83h-106v168h242v-172c0 -46.667 -16.5 -88.334 -49.5 -125.001s-82.167 -71.667 -147.5 -105v-958h-274v156c-72.667 -123.333 -184.667 -185 -336 -185
c-114.667 0 -204.334 32.333 -269.001 97c-69.333 68 -104 169.667 -104 305v717h287v-676c0 -76.667 19.667 -131.334 59 -164.001c30 -24.667 73 -37 129 -37c57.333 0 106 17 146 51c50 44 75 110.333 75 199v627h287v-33z" />
    <glyph glyph-name="uni1EEC" unicode="&#x1eec;" horiz-adv-x="1478" 
d="M817 1606l-145 -0.000976562c0 63.333 5.83301 111.333 17.5 144s36.667 62.5 75 89.5s57.5 54.833 57.5 83.5s-7.5 49 -22.5 61s-32.5 18 -52.5 18c-32 0 -54 -8.66699 -66 -26s-18 -44.333 -18 -81l-159 -3c0 88.667 25.667 153.334 77 194.001
c43.333 34.667 96 52 158 52c54 0 102 -10.667 144 -32c70.667 -36.667 106 -96 106 -178c0 -38.667 -9.16699 -71.167 -27.5 -97.5s-47 -53.333 -86 -81s-58.5 -75.5 -58.5 -143.5zM1323 1409c27.333 15.333 44.333 32.168 51 50.501s10 45.166 10 80.499h-106v168h241
v-172c0 -101.333 -65.333 -184.666 -196 -249.999v-770c0 -190 -54 -331.333 -162 -424c-102.667 -88.667 -250.667 -133 -444 -133c-83.333 0 -161.333 11.667 -234 35c-96.667 31.333 -174.334 79.666 -233.001 144.999c-76.667 88.667 -115 207.667 -115 357v974h315
v-954c0 -96.667 24.667 -170 74 -220s112.333 -75 189 -75c100.667 0 174.834 24 222.501 72s71.5 118.333 71.5 211v966h316v-61z" />
    <glyph glyph-name="uni1EED" unicode="&#x1eed;" horiz-adv-x="1245" 
d="M711 1178l-145 -0.00195312c0 63.333 5.83301 111.333 17.5 144s36.667 62.334 75 89.001s57.5 54.667 57.5 84c0 28.667 -7.5 49 -22.5 61s-32.5 18 -52.5 18c-32 0 -54 -8.66699 -66 -26s-18 -44.333 -18 -81l-159 -3c0 88.667 25.667 153.334 77 194.001
c43.333 34.667 96 52 158 52c54 0 101.667 -10.667 143 -32c71.333 -36.667 107 -96 107 -178c0 -38.667 -9.16699 -71.167 -27.5 -97.5s-47 -53.333 -86 -81s-58.5 -75.5 -58.5 -143.5zM1126 1057c27.333 14.667 44.334 32.002 51.001 52.002s10 47.667 10 83h-106v168h242
v-172c0 -46.667 -16.5 -88.334 -49.5 -125.001s-82.167 -71.667 -147.5 -105v-958h-274v156c-72.667 -123.333 -184.667 -185 -336 -185c-114.667 0 -204.334 32.333 -269.001 97c-69.333 68 -104 169.667 -104 305v717h287v-676c0 -76.667 19.667 -131.334 59 -164.001
c30 -24.667 73 -37 129 -37c57.333 0 106 17 146 51c50 44 75 110.333 75 199v627h287v-33z" />
    <glyph glyph-name="uni1EEE" unicode="&#x1eee;" horiz-adv-x="1478" 
d="M1034 1892h135.001c-8 -40.667 -18 -75.334 -30 -104.001c-41.333 -94 -106.333 -141 -195 -141c-23.333 0 -46.5 2.66699 -69.5 8s-51.333 13.5 -85 24.5l-101.5 32.5c-18 5.33301 -32.333 8 -43 8c-32.667 0 -58 -11.333 -76 -34c-10.667 -15.333 -18 -34 -22 -56h-131
c5.33301 30 12.333 57 21 81s23 50.333 43 79s43 50.334 69 65.001c32.667 19.333 71.334 29 116.001 29c32 0 81.333 -13.667 148 -41c61.333 -22 103.666 -33 126.999 -33c28.667 0 50.167 8 64.5 24s24.166 35.333 29.499 58zM1323 1409
c27.333 15.333 44.333 32.168 51 50.501s10 45.166 10 80.499h-106v168h241v-172c0 -101.333 -65.333 -184.666 -196 -249.999v-770c0 -190 -54 -331.333 -162 -424c-102.667 -88.667 -250.667 -133 -444 -133c-83.333 0 -161.333 11.667 -234 35
c-96.667 31.333 -174.334 79.666 -233.001 144.999c-76.667 88.667 -115 207.667 -115 357v974h315v-954c0 -96.667 24.667 -170 74 -220s112.333 -75 189 -75c100.667 0 174.834 24 222.501 72s71.5 118.333 71.5 211v966h316v-61z" />
    <glyph glyph-name="uni1EEF" unicode="&#x1eef;" horiz-adv-x="1245" 
d="M906 1503h131.003c-10.667 -78 -35.834 -138.5 -75.501 -181.5s-88.167 -64.5 -145.5 -64.5c-23.333 0 -46.5 2.83301 -69.5 8.5s-48.5 12.834 -76.5 21.501l-75 24c-39.333 13.333 -66.666 20 -81.999 20c-30 0 -54 -11.667 -72 -35c-10.667 -14.667 -18 -33 -22 -55
h-131c6.66699 35.333 12 59.333 16 72c9.33301 30 23 58 41 84c23.333 30 50 53.833 80 71.5s66 26.5 108 26.5c30.667 0 58 -4 82 -12c27.333 -12.667 49.333 -22.334 66 -29.001c61.333 -22 103.666 -33 126.999 -33c31.333 0 54.166 7.83301 68.499 23.5
s24.166 35.167 29.499 58.5zM1126 1057c27.333 14.667 44.334 32.002 51.001 52.002s10 47.667 10 83h-106v168h242v-172c0 -46.667 -16.5 -88.334 -49.5 -125.001s-82.167 -71.667 -147.5 -105v-958h-274v156c-72.667 -123.333 -184.667 -185 -336 -185
c-114.667 0 -204.334 32.333 -269.001 97c-69.333 68 -104 169.667 -104 305v717h287v-676c0 -76.667 19.667 -131.334 59 -164.001c30 -24.667 73 -37 129 -37c57.333 0 106 17 146 51c50 44 75 110.333 75 199v627h287v-33z" />
    <glyph glyph-name="uni1EF0" unicode="&#x1ef0;" horiz-adv-x="1478" 
d="M858 -123v-237h-258v237h258zM1323 1409c27.333 15.333 44.333 32.168 51 50.501s10 45.166 10 80.499h-106v168h241v-172c0 -101.333 -65.333 -184.666 -196 -249.999v-770c0 -190 -54 -331.333 -162 -424c-102.667 -88.667 -250.667 -133 -444 -133
c-83.333 0 -161.333 11.667 -234 35c-96.667 31.333 -174.334 79.666 -233.001 144.999c-76.667 88.667 -115 207.667 -115 357v974h315v-954c0 -96.667 24.667 -170 74 -220s112.333 -75 189 -75c100.667 0 174.834 24 222.501 72s71.5 118.333 71.5 211v966h316v-61z" />
    <glyph glyph-name="uni1EF1" unicode="&#x1ef1;" horiz-adv-x="1245" 
d="M799 -123v-237h-259v237h259zM1126 1057c27.333 14.667 44.334 32.002 51.001 52.002s10 47.667 10 83h-106v168h242v-172c0 -46.667 -16.5 -88.334 -49.5 -125.001s-82.167 -71.667 -147.5 -105v-958h-274v156c-72.667 -123.333 -184.667 -185 -336 -185
c-114.667 0 -204.334 32.333 -269.001 97c-69.333 68 -104 169.667 -104 305v717h287v-676c0 -76.667 19.667 -131.334 59 -164.001c30 -24.667 73 -37 129 -37c57.333 0 106 17 146 51c50 44 75 110.333 75 199v627h287v-33z" />
    <glyph glyph-name="Ygrave" unicode="&#x1ef2;" horiz-adv-x="1429" 
d="M847 553v-553h-307v557l-508 913h360l308 -639l290 639h349zM676 1618l-303 299h316l192 -299h-205z" />
    <glyph glyph-name="ygrave" unicode="&#x1ef3;" 
d="M1105 1090l-376 -1070c-68.667 -204.667 -125.5 -332.167 -170.5 -382.5s-128.833 -75.5 -251.5 -75.5h-45h-52c-14.667 2.66699 -24.667 4 -30 4v229c8 -2.66699 25.667 -4 53 -4c60 0 101.667 8.33301 125 25c31.333 21.333 52.333 67.666 63 138.999l-401 1135h319
l234 -803l229 803h303zM489 1237l-299 299h315l192 -299h-208z" />
    <glyph glyph-name="uni1EF4" unicode="&#x1ef4;" horiz-adv-x="1429" 
d="M847 553v-553h-307v557l-508 913h360l308 -639l290 639h349zM824 -106v-238h-258v238h258z" />
    <glyph glyph-name="uni1EF5" unicode="&#x1ef5;" 
d="M1105 1090l-376 -1070c-68.667 -204.667 -125.5 -332.167 -170.5 -382.5s-128.833 -75.5 -251.5 -75.5h-45h-52c-14.667 2.66699 -24.667 4 -30 4v229c8 -2.66699 25.667 -4 53 -4c60 0 101.667 8.33301 125 25c31.333 21.333 52.333 67.666 63 138.999l-401 1135h319
l234 -803l229 803h303zM1019 -110.999v-237h-258v237h258z" />
    <glyph glyph-name="uni1EF6" unicode="&#x1ef6;" horiz-adv-x="1429" 
d="M847 553v-553h-307v557l-508 913h360l308 -639l290 639h349zM778 1606l-146 -0.000976562c0 63.333 5.83301 111.333 17.5 144s36.667 62.5 75 89.5s57.5 54.833 57.5 83.5s-7.5 49 -22.5 61s-32.5 18 -52.5 18c-31.333 0 -53 -8.66699 -65 -26s-18 -44.333 -18 -81
l-160 -3c0 88.667 25.667 153.334 77 194.001c43.333 34.667 96 52 158 52c54.667 0 102.667 -10.667 144 -32c71.333 -36.667 107 -96 107 -178c0 -38.667 -9.16699 -71.167 -27.5 -97.5s-47 -53.333 -86 -81s-58.5 -75.5 -58.5 -143.5z" />
    <glyph glyph-name="uni1EF7" unicode="&#x1ef7;" 
d="M1105 1090l-376 -1070c-68.667 -204.667 -125.5 -332.167 -170.5 -382.5s-128.833 -75.5 -251.5 -75.5h-45h-52c-14.667 2.66699 -24.667 4 -30 4v229c8 -2.66699 25.667 -4 53 -4c60 0 101.667 8.33301 125 25c31.333 21.333 52.333 67.666 63 138.999l-401 1135h319
l234 -803l229 803h303zM675 1178l-146 -0.00195312c0 63.333 6 111.333 18 144s37 62.334 75 89.001s57 54.667 57 84c0 28.667 -7.33301 49 -22 61s-32 18 -52 18c-32 0 -54 -8.66699 -66 -26s-18 -44.333 -18 -81l-160 -3c0 88.667 26 153.334 78 194.001
c43.333 34.667 96 52 158 52c54 0 101.667 -10.667 143 -32c71.333 -36.667 107 -96 107 -178c0 -38.667 -9.16699 -71.167 -27.5 -97.5s-47 -53.333 -86 -81s-58.5 -75.5 -58.5 -143.5z" />
    <glyph glyph-name="uni1EF8" unicode="&#x1ef8;" horiz-adv-x="1429" 
d="M847 553v-553h-307v557l-508 913h360l308 -639l290 639h349zM968 1892h136c-8.66699 -40.667 -19 -75.334 -31 -104.001c-41.333 -94 -106.333 -141 -195 -141c-22.667 0 -45.667 2.66699 -69 8s-51.666 13.5 -84.999 24.5l-102 32.5
c-17.333 5.33301 -31.666 8 -42.999 8c-32.667 0 -57.667 -11.333 -75 -34c-11.333 -15.333 -19 -34 -23 -56h-131c5.33301 30 12.5 57 21.5 81s23.333 50.333 43 79s42.5 50.334 68.5 65.001c32.667 19.333 71.667 29 117 29c31.333 0 80.333 -13.667 147 -41
c61.333 -22 103.666 -33 126.999 -33c28.667 0 50.167 8 64.5 24s24.166 35.333 29.499 58z" />
    <glyph glyph-name="uni1EF9" unicode="&#x1ef9;" 
d="M1105 1090l-376 -1070c-68.667 -204.667 -125.5 -332.167 -170.5 -382.5s-128.833 -75.5 -251.5 -75.5h-45h-52c-14.667 2.66699 -24.667 4 -30 4v229c8 -2.66699 25.667 -4 53 -4c60 0 101.667 8.33301 125 25c31.333 21.333 52.333 67.666 63 138.999l-401 1135h319
l234 -803l229 803h303zM851 1503h131.004c-10.667 -78 -35.834 -138.5 -75.501 -181.5s-88.167 -64.5 -145.5 -64.5c-23.333 0 -46.5 2.83301 -69.5 8.5s-48.5 12.834 -76.5 21.501l-75 24c-40 13.333 -67.333 20 -82 20c-30 0 -54 -11.667 -72 -35
c-10.667 -14.667 -18 -33 -22 -55h-131c6.66699 35.333 12 59.333 16 72c9.33301 30 23 58 41 84c23.333 30 50 53.833 80 71.5s66 26.5 108 26.5c30 0 57.333 -4 82 -12c27.333 -12.667 49.333 -22.334 66 -29.001c61.333 -22 103.666 -33 126.999 -33
c31.333 0 54.166 7.83301 68.499 23.5s24.166 35.167 29.499 58.5z" />
    <glyph glyph-name="quoteleft" unicode="&#x2018;" horiz-adv-x="602" 
d="M430 1192v-262h-287v209c0 114.667 32 202.667 96 264c44 42 105 71.333 183 88v-107c-62 -18.667 -104.333 -45.667 -127 -81c-16.667 -26 -25 -63 -25 -111h160z" />
    <glyph glyph-name="quoteright" unicode="&#x2019;" horiz-adv-x="602" 
d="M143 1212l0.000976562 258.001h287v-208c0 -114.667 -32.333 -202.334 -97 -263.001c-43.333 -40.667 -105.333 -69.334 -186 -86.001v103c61.333 20.667 103.666 49.334 126.999 86.001c16.667 26 25 62.667 25 110h-156z" />
    <glyph glyph-name="quotedblleft" unicode="&#x201c;" horiz-adv-x="1060" 
d="M418 1192v-262h-287v209c0 114.667 32 202.667 96 264c44 42 106.333 71.333 187 88v-107c-62 -18.667 -104.333 -45.667 -127 -81c-16.667 -26 -25 -63 -25 -111h156zM893 1192l-0.000976562 -262h-287v209c0 114.667 32 202.667 96 264c44 42 106.333 71.333 187 88
v-107c-61.333 -18.667 -103.666 -45.667 -126.999 -81c-16.667 -26 -25 -63 -25 -111h156z" />
    <glyph glyph-name="quotedblright" unicode="&#x201d;" horiz-adv-x="1060" 
d="M131 1212l0.000976562 258.001h287v-208c0 -114.667 -32.333 -202.334 -97 -263.001c-43.333 -40.667 -104 -69.334 -182 -86.001v103c61.333 20.667 103.666 49.334 126.999 86.001c16.667 26 25 62.667 25 110h-160zM606.001 1212l0.000976562 258.001h287v-208
c0 -114.667 -32 -202.334 -96 -263.001c-44 -40.667 -105 -69.334 -183 -86.001v103c61.333 20.667 103.666 49.334 126.999 86.001c16.667 26 25 62.667 25 110h-160z" />
    <glyph glyph-name="ellipsis" unicode="&#x2026;" horiz-adv-x="1130" 
d="M270 238v-238h-258v238h258zM671 238v-238h-258v238h258zM1073 238v-238h-258v238h258zM1073 238v-238h-258v238h258z" />
    <glyph glyph-name=".null" horiz-adv-x="0" 
 />
    <glyph glyph-name="nonmarkingreturn" horiz-adv-x="571" 
 />
    <glyph glyph-name="ugrave" horiz-adv-x="582" 
 />
    <glyph glyph-name="uacute" horiz-adv-x="580" 
 />
    <glyph glyph-name="yacute" horiz-adv-x="629" 
 />
    </font>
</defs>
</svg>
