<svg xmlns="http://www.w3.org/2000/svg">
<defs>
<font id="UTMHelve" horiz-adv-x="1200" >
  <font-face 
    font-family="UTM Helve"
    font-weight="400"
    font-stretch="normal"
    units-per-em="2048"
    panose-1="2 4 6 3 5 5 6 2 2 4"
    ascent="1638"
    descent="-410"
    x-height="1073"
    cap-height="1470"
    bbox="-81.999 -450.998 4942 2335"
    underline-thickness="109"
    underline-position="-143"
    unicode-range="U+0020-U+2026"
  />
<missing-glyph horiz-adv-x="5040" 
d="M3351 2045h10c24.667 -6.66699 37 -24 37 -52c0 -8 -10.667 -27 -32 -57h-28c0 16 9.33301 34 28 54l2 10c-3.33301 8.66699 -6.66602 13.667 -10 15h-9c-5.33301 0 -8.66602 -6.33301 -10 -19h-30c4 32.667 18 49 42 49zM2019 2016l29.001 -31
c0 -10.667 -13.333 -20.667 -40 -30h-19l-59 12l-11 -12l-28 25c7.33301 19.333 21.666 29 42.999 29h11l42 -11h2c6.66699 0 16.667 6 30 18zM468.001 1980h142v-60h-94v-75h89v-59h-89v-129l-5 -5h-49v323zM1155 1980h43l6 -5v-78h30v-52h-30v-188l-6 -5h-49v193h-25v52
h25v78zM1621 1980h41.999l4 -5v-94h3c15.333 16 33.333 24 54 24h2c38.667 0 66.334 -23.667 83.001 -71l2 -39v-143h-52v115c0 53.333 -14 80 -42 80h-7c-28.667 0 -43 -28.667 -43 -86v-109h-51v323zM2200 1980l49 -0.000976562l5 -5v-222c6.66699 -34 21.667 -51 45 -51
c29.333 4.66699 44 24.334 44 59.001v214l5 5h49v-216c0 -56.667 -22 -94 -66 -112c-10 -5.33301 -21.667 -8 -35 -8c-31.333 0 -58.666 18.333 -82 55c-9.33301 16 -14 35 -14 57v224zM2435 1980h159v-60h-56v-268h-53v268h-55v55zM2621 1980l71 0.000976562
c4.66699 -2.66699 32.334 -86.334 83 -251.001h2l80 251h73v-328h-54v242h-2l-74 -242h-44c-2.66699 0 -22 60.667 -58 182l-19 60h-3v-242h-55v328zM3760 1980l52 -0.000976562v-328h-45l-5 5v11l3 2l-3 14c-19.333 -26.667 -45.333 -40 -78 -40
c-44.667 0 -78 30.333 -100 91l-5 39v3c0 62.667 30.667 104.334 92 125.001l23 3c23.333 0 44.333 -10.667 63 -32h3v107zM2057 1928l36 0.00195312l4 -6v-49h-45v-221h-48v23c-15.333 -20.667 -35 -31 -59 -31c-59.333 9.33301 -89 41.666 -89 96.999v156h51v-104

<glyph glyph-name=".notdef" horiz-adv-x="5040" 
d="M3351 2045h10c24.667 -6.66699 37 -24 37 -52c0 -8 -10.667 -27 -32 -57h-28c0 16 9.33301 34 28 54l2 10c-3.33301 8.66699 -6.66602 13.667 -10 15h-9c-5.33301 0 -8.66602 -6.33301 -10 -19h-30c4 32.667 18 49 42 49zM2019 2016l29.001 -31
c0 -10.667 -13.333 -20.667 -40 -30h-19l-59 12l-11 -12l-28 25c7.33301 19.333 21.666 29 42.999 29h11l42 -11h2c6.66699 0 16.667 6 30 18zM468.001 1980h142v-60h-94v-75h89v-59h-89v-129l-5 -5h-49v323zM1155 1980h43l6 -5v-78h30v-52h-30v-188l-6 -5h-49v193h-25v52
h25v78zM1621 1980h41.999l4 -5v-94h3c15.333 16 33.333 24 54 24h2c38.667 0 66.334 -23.667 83.001 -71l2 -39v-143h-52v115c0 53.333 -14 80 -42 80h-7c-28.667 0 -43 -28.667 -43 -86v-109h-51v323zM2200 1980l49 -0.000976562l5 -5v-222c6.66699 -34 21.667 -51 45 -51
c29.333 4.66699 44 24.334 44 59.001v214l5 5h49v-216c0 -56.667 -22 -94 -66 -112c-10 -5.33301 -21.667 -8 -35 -8c-31.333 0 -58.666 18.333 -82 55c-9.33301 16 -14 35 -14 57v224zM2435 1980h159v-60h-56v-268h-53v268h-55v55zM2621 1980l71 0.000976562
c4.66699 -2.66699 32.334 -86.334 83 -251.001h2l80 251h73v-328h-54v242h-2l-74 -242h-44c-2.66699 0 -22 60.667 -58 182l-19 60h-3v-242h-55v328zM3760 1980l52 -0.000976562v-328h-45l-5 5v11l3 2l-3 14c-19.333 -26.667 -45.333 -40 -78 -40
c-44.667 0 -78 30.333 -100 91l-5 39v3c0 62.667 30.667 104.334 92 125.001l23 3c23.333 0 44.333 -10.667 63 -32h3v107zM2057 1928l36 0.00195312l4 -6v-49h-45v-221h-48v23c-15.333 -20.667 -35 -31 -59 -31c-59.333 9.33301 -89 41.666 -89 96.999v156h51v-104
c0 -52.667 8.66699 -81.334 26 -86.001l18 -5h6c17.333 0 30.333 12 39 36l3 26v133h53v25zM3476 1928v-55h-31v-221h-47v25h-2c-10 -22 -29 -33 -57 -33c-45.333 0 -74 26 -86 78l-3 29v146h52v-120c0 -33.333 6.33301 -56 19 -68l21 -7h9c28 0 42 23 42 69v126h27
c2.66699 0 4 9.33301 4 28l3 3h49zM758 1905c45.333 0 79.667 -25.667 103 -77c6 -12 10 -30 12 -54c0 -58.667 -30 -101 -90 -127l-32 -3c-42 0 -75.667 24.333 -101 73c-8 14.667 -12 32 -12 52v10c0 62.667 33.667 104.667 101 126h19zM1011 1905h3
c49.333 0 77 -33.667 83 -101v-152h-51v119c0 50.667 -14 76 -42 76h-5c-29.333 0 -44 -25.333 -44 -76v-119h-52v245h46v-21c20 19.333 40.667 29 62 29zM1466 1905l7 -0.000976562c48 0 83 -29.667 105 -89h-60c-10.667 20.667 -24.667 31 -42 31h-17
c-35.333 -9.33301 -53 -29.666 -53 -60.999l-3 -15c8 -46 28.333 -69 61 -69h9c14.667 0 30.334 9 47.001 27h40l2 3h3l2 -3l2 3l3 -3l2 3l2 -7c-22 -54 -58.667 -81 -110 -81c-50.667 0 -87.334 31.333 -110.001 94l-4 36v3c0 56.667 25.667 96.667 77 120
c10 5.33301 22.333 8 37 8zM3141 1905h1.99902c32.667 0 56 -20 70 -60v-14h-52c0 10.667 -5.33301 16 -16 16h-4c-9.33301 0 -15.666 -4.33301 -18.999 -13v-13c0 -6 22.667 -17.667 68 -35c20 -12.667 30 -32.334 30 -59.001c0 -38.667 -20.333 -65.334 -61 -80.001
l-23 -3c-50.667 8 -76 35.667 -76 83h54c0 -13.333 9 -21.666 27 -24.999h4c12.667 0 20.667 7.66699 24 23c0 14.667 -22.667 29.334 -68 44.001c-22.667 18 -34 37.667 -34 59c0 44 24.667 69.667 74 77zM4203 1905c36.666 0 62.333 -21 77 -63
c4.66602 -12 7 -33.667 7 -65v-125h-52v112c0 55.333 -13.334 83 -40 83h-11c-22 0 -35.334 -18 -40 -54v-141h-52v5h-2l2 2v238h47v-21c16.666 19.333 38 29 64 29zM4432 1905h5c26.666 0 49.666 -13.333 69 -40v18l-3 3l3 11h47v-208c0 -64.667 -28.334 -108.667 -85 -132
l-33 -4h-7c-46.666 0 -81.333 26.667 -104 80h59c16 -14.667 31 -22.334 45 -23.001h13c14.666 0 29 7.33301 43 22c10 8.66699 17.334 26 22 52h-3c-21.334 -26.667 -45.667 -40 -73 -40c-38 0 -70 23.333 -96 70c-6.66602 12 -11.333 33 -14 63
c0 58.667 29 100.334 87 125.001zM3851 1897l53 -0.000976562v-136c4 -39.333 17.333 -59 40 -59h7c30.667 0 46 31 46 93v102h51v-245h-47l-3 10h3l-3 3v5l3 2v3h-4c0 -15.333 -19 -25.666 -57 -30.999h-3c-39.333 0 -67.333 25 -84 75l-2 85v93zM690 1771
c6.66699 -46 27.6689 -69 63.002 -69h7c39.333 9.33301 59 31 59 65v15c-8.66699 43.333 -28.334 65 -59.001 65h-5c-38.667 0 -60.334 -25.333 -65.001 -76zM3630 1774c8.66699 -48 29 -72 61 -72h5c38.667 0 60.667 25 66 75c0 32.667 -17 56 -51 70h-22
c-24.667 0 -43.334 -19 -56 -57zM4374 1774c5.33398 -48 27 -71.999 65 -71.999h5c39.334 8 59 32 59 72c0 40.667 -19.666 65 -59 73h-14c-37.334 -10.667 -56 -31.334 -56 -62.001v-11zM3928 1620h52v-57h-52v57zM1054 1402c28.667 -7.33301 43 -23.667 43 -49v-4
c0 -11.333 -10.667 -31.333 -32 -60h-28c0 16.667 10.333 35.667 31 57v7c0 8 -2.33301 13 -7 15h-12c-6.66699 -2.66699 -10 -9 -10 -19h-28v6c0 21.333 11 36 33 44zM3349 1339c61.333 0 107.333 -33.001 138 -99.001h-60c-24.667 28 -51.334 42 -80 42
c-36.667 0 -65.667 -22.667 -87 -68c-6.66699 -14.667 -10 -30.334 -10 -47.001c0 -52 27 -88.667 81 -110l18 -1c24 0 49 13 75 39h61c-29.333 -64.667 -75.333 -97 -138 -97c-62 0 -109 37.333 -141 112c-6.66699 20.667 -10 41.334 -10 62.001
c0 64.667 30 115.334 90 152.001c19.333 10 40.333 15 63 15zM3664 1339c38 0 72.333 -15.666 103 -46.999c30.667 -34 46 -72.333 46 -115v-20c0 -59.333 -30.333 -108 -91 -146c-22 -8.66699 -43 -13 -63 -13c-59.333 0 -105.333 33.667 -138 101
c-8.66699 22 -13 42 -13 60v18c0 65.333 32.667 115.666 98 150.999c19.333 7.33301 38.666 11 58 11zM2261 1337h2l47 -11h3c7.33301 0 16 3.66699 26 11l18 -36c-12 -12.667 -23.667 -19 -35 -19h-3l-54 10l-20 -7l-20 36c12 10.667 24 16 36 16zM716.002 1334h19
c78.667 0 121.667 -8.66699 129 -26c16.667 -17.333 25 -38 25 -62c-6.66699 -38 -16.667 -57 -30 -57v-6c31.333 -15.333 47 -37.333 47 -66v-18c0 -42 -23 -71.333 -69 -88l-54 -5h-67v328zM2550 1334h53v-217c4 -40.667 19 -61 45 -61c19.333 0 34 13 44 39l3 30v203l4 6
h45l5 -6v-171c0 -78.667 -13.333 -123 -40 -133c-16 -17.333 -37.333 -26 -64 -26c-36.667 0 -67 25.333 -91 76l-4 54v206zM2805 1334h59c2.66699 0 43.334 -79 122 -237h4v237h50l4 -6v-322h-58c-19.333 32 -61 111.333 -125 238h-3v-238h-53v328zM3101 1334h54v-328h-54
v328zM3859 1334l8 0.000976562c103.333 0 161.333 -13.333 174 -40c15.333 -7.33301 31 -32.333 47 -75l4 -36v-11l3 -2c0 -62.667 -27.333 -112.334 -82 -149.001c-23.333 -10 -56.333 -15 -99 -15h-55v328zM4141 1334h153v-60h-103v-75h101v-57h-101v-74l4 -5h99v-57h-157
v322zM3563 1175v-10c0 -50.667 26.333 -86.667 79 -108l19 -1c45.333 0 77.333 28.667 96 86l3 20v15c0 40.667 -20 72 -60 94c-8 5.33301 -21 9 -39 11c-44 0 -76 -27.667 -96 -83zM770.002 1274v-67h9c36 0 54 9.33301 54 28l3 14c-7.33301 16.667 -17 25 -29 25h-37z
M3912 1274v-206.001l2 -3v-2c69.333 0 110 25.333 122 76l2 15v29c0 22.667 -10.667 45.334 -32 68.001c-16.667 15.333 -42.667 23 -78 23h-16zM1041 1259h5c25.333 0 49 -13.333 71 -40v32h49v-245h-49v32c-24 -26.667 -50.667 -40 -80 -40c-50 0 -83.667 32.333 -101 97
l-5 36c0 59.333 28.333 101 85 125zM1314 1259h3c49.333 0 77 -34 83 -102v-151h-51v128c0 44.667 -14 67 -42 67h-10c-22.667 0 -35.667 -20.667 -39 -62v-133h-52v245h47v-21c18.667 19.333 39 29 61 29zM1543 1259h5c30 0 53.667 -13.333 71 -40v32h47v-219
c0 -63.333 -34.667 -105.333 -104 -126h-16c-49.333 0 -85.333 27.333 -108 82h59c17.333 -16.667 32 -25 44 -25h14c34.667 0 56 25.667 64 77c-22 -28 -47.333 -42 -76 -42c-40 0 -73.667 27 -101 81l-7 44v16c0 52.667 28.333 91.667 85 117zM1912 1259l2 0.000976562
c28.667 0 49 -12.333 61 -37h2c21.333 24.667 44.333 37 69 37h4c38 0 64.333 -18.333 79 -55c5.33301 -16.667 8 -31.667 8 -45v-153h-52v138c0 29.333 -7.66699 47.666 -23 54.999l-12 2h-15c-21.333 0 -33.333 -21.667 -36 -65v-130h-52v136c0 39.333 -14.333 59 -43 59
h-8c-21.333 0 -33.333 -19 -36 -57v-138h-54v245h50v-21h2c4 16 22 25.667 54 29zM2282 1259c31.333 0 56.333 -14 75 -42v34h47v-245h-47v32c-24 -26.667 -50 -40 -78 -40c-49.333 0 -83.333 30.667 -102 92l-6 41c0 60 28.333 101.667 85 125zM985.002 1117
c0 -32 20.333 -52.333 61 -61h4c30 0 50.667 15.333 62 46l3 15v22c-8 41.333 -27 62 -57 62h-14c-27.333 0 -47 -19 -59 -57v-27zM1487 1128c0 -32 14.332 -54.667 42.999 -68l18 -4h5c31.333 0 52.333 19 63 57v23c-7.33301 43.333 -26.666 65 -57.999 65h-12
c-33.333 0 -53 -24.333 -59 -73zM2225 1131v-14.001c10 -40.667 29 -61 57 -61h14c38.667 8 58 29.333 58 64v11c0 30 -12.333 51.667 -37 65l-18 5h-10c-42.667 -5.33301 -64 -28.666 -64 -69.999zM770.001 1150v-82c0 -3.33301 2.33301 -5 7 -5c51.333 0 77 15 77 45
c0 22.667 -15.667 36.667 -47 42h-37zM2966 752.999l24 -28l-51 -55c-12 8 -21 16.667 -27 26zM1524 726.999l85 -54c0 -10 -7 -24 -21 -42l-87 54c12 27.333 19.667 41.333 23 42zM2850 692.999h38l55 -60h-54l-21 26l-23 -26h-54c36 40 55.667 60 59 60zM3422 692.999h40
l56 -60h-54l-24 26h-1c0 -3.33301 -6.33301 -12 -19 -26h-54zM622.001 684.999l52 0.00195312c5.33301 -2.66699 21 -48.334 47 -137.001l34 -110c6 5.33301 17.333 38.666 34 99.999l48 147h54v-2l-112 -326h-44zM1159 685.001h51v-54h-51v54zM1354 685.001h46l6 -5v-323
h-52v328zM2317 685.001h45l4 -5v-78h31v-52h-31v-193h-53v193h-26v52h26v78zM2425 685.001h52v-98h2c15.333 15.333 33.333 23 54 23h3c38 0 65 -23.667 81 -71l3 -38v-144h-52v115c0 54 -13 81 -39 81h-10c-28 0 -42 -29 -42 -87v-109h-52v328zM2664 685.001h52v-54h-52v54
zM3028 685.001h44l6 -5v-78h29v-52h-29v-193h-54v193h-27v52h27v78zM3234 685.001h52v-328h-52v328zM3957 685.001h52v-328h-52v328zM4316 685.001h51v-54h-51v54zM1555 610.001h5c55.333 0 92 -34 110 -102l3 -23v-11c0 -55.333 -28.333 -95.333 -85 -120l-35 -5
c-50.667 0 -87.667 32.333 -111 97l-4 32c0 64.667 31 108 93 130zM1811 610.001h4c35.333 0 61.333 -20 78 -60c4.66699 -16.667 7 -43.667 7 -81v-112h-54v146c-4.66699 33.333 -17 50 -37 50h-10c-25.333 0 -39.333 -19 -42 -57v-139h-54v245h49v-21
c17.333 19.333 37 29 59 29zM2046 610.001h4.00098c30 0 51 -13 63 -39h3v31h49v-206c0 -68 -29.667 -113 -89 -135l-28 -3h-5c-48.667 0 -84 27 -106 81h52l37 -20l15 -3h14c33.333 0 53.666 24 60.999 72c-22 -26 -46.333 -39 -73 -39c-41.333 0 -74 25.333 -98 76
c-7.33301 15.333 -11.333 35.333 -12 60c0 56.667 28.667 97.667 86 123zM2866 610.001l2 -0.000976562c54.667 0 91.667 -34.667 111 -104l2 -25l-2 -27h-172c10 -30 25 -45 45 -45l14 -3c19.333 0 35.666 7.33301 49 22h57v-3c-23.333 -50.667 -59.333 -76 -108 -76
c-51.333 0 -88.333 32.333 -111 97l-1 28v8c0 32.667 10.667 62.334 32 89.001c22.667 26 50 39 82 39zM3429 610h5c27.333 0 50.666 -13 70 -39h2v31h47v-245h-47v31h-2c-23.333 -26 -49 -39 -77 -39c-47.333 0 -81 29.667 -101 89l-5 36v14c0 57.333 28 97.333 84 120z
M3711 610l7 -0.000976562c58.667 0 94.334 -42.667 107 -128l-2 -1v-15c0 -43.333 -22 -78.666 -66 -105.999c-14 -7.33301 -29.333 -11 -46 -11c-22.667 0 -44 10.667 -64 32v-99l-5 -5h-49v325h49v-28c20.667 24 43.667 36 69 36zM4151 609.999
c29.334 0 54.334 -13 75 -39v31h49v-245h-49v31c-23.334 -26 -49 -39 -77 -39c-61.333 0 -97.333 44 -108 132c0 56 24.333 96.333 73 121c10 5.33301 22.334 8 37 8zM922.002 601.999h50v-136c2 -40 16 -60 42 -60h5c29.333 0 44 29 44 87v109h52v-245h-47v24h-5
c0 -15.333 -18.667 -26 -56 -32h-3c-36.667 0 -64 22.667 -82 68c-2.66699 23.333 -4 56.333 -4 99v81zM1159 601.999h51v-245h-51v245zM2664 601.999h52v-245h-52v245zM4316 601.999h51v-245h-51v245zM1492 487.999v-15.999c8.66699 -44 28.334 -66 59.001 -66h4
c39.333 0 61.333 25.333 66 76c-8.66699 47.333 -28.334 71 -59.001 71h-11c-39.333 -10.667 -59 -32.334 -59 -65.001zM1987 472c10 -44 29.667 -66 59 -66h11c32 0 51.667 25 59 75v1c-8.66699 47.333 -28.334 71 -59 71h-14c-26 0 -44.667 -19 -56 -57v-24zM2805 506h122
v2c-10.667 30 -30.334 45 -59 45h-7c-23.333 0 -42 -15.667 -56 -47zM3373 474c8.66699 -45.333 29 -68 61 -68h5c34.667 0 56.334 21 65 63v12c-6.66699 48 -25.667 72 -57 72h-16c-37.333 -9.33301 -56 -30.333 -56 -63zM3642 478c8 -48 28.333 -72.001 61 -72.001h3
c33.333 0 55 20 65 60v22c0 28.667 -16.333 50.334 -49 65.001h-22c-31.333 0 -50.666 -24 -58 -72v-3zM4095 471.999c6.66602 -44 28.666 -66 66 -66c28.666 0 49 16 61 48l2 15v16c0 36 -17.334 58.667 -52 68h-18c-28 0 -47.666 -20 -59 -60v-21zM3416 320.999h51v-52
h-51v52zM4137 320.999h51v-52h-51v52zM2733 132.999h4c23.333 0 37.666 -16.667 43 -50v-2c0 -10.667 -8 -24.334 -24 -41.001l-10 -17h-28c0 16.667 9.33301 35.334 28 56.001l3 2v2c-2 12.667 -5 19 -9 19h-10c-5.33301 0 -8.33301 -6.33301 -9 -19h-30
c4 33.333 18 50 42 50zM1546 115.999l52 -60l-26 -19l-52 52zM352.002 78.999h4c50 -32 78.333 -52 85 -60l-20 -37c-58.667 32.667 -88 52 -88 58zM3490 78.999l86 -58l-18 -39c-6.66699 0 -37 18.333 -91 55c10 24 17.667 38 23 42zM4578 75.999l19 -42l-91 -52l-20 39
l92 58v-3zM1204 52.999h51v-19l5 -5h14v-36h-14l-5 -5v-279h-46v31c-22.667 -26.667 -49.667 -40 -81 -40c-48 0 -82 35 -102 105l-3 26c0 68 33.667 111.667 101 131h14c22 0 44 -11 66 -33v59l-6 5h-43v36h49v24zM1480 44.999h40l56 -61h-53l-23 27l-23 -27h-53z
M2641 44.999h33c8 0 29 -20.333 63 -61h-54l-23 27c-12.667 -14 -19 -23 -19 -27h-58v4zM49.002 36.999h160v-60h-56v-268h-50l-4 5v245l2 3v2l-2 2l2 3l-2 2l2 3l-2 3h-54v54zM699.002 36.999h47v-73l2 -2l-2 -3v-3l2 -2l-2 -3v-3l2 -2v-2l-2 -3l2 -3h3
c11.333 16 28.333 24 51 24h3c35.333 0 61 -19.333 77 -58c4.66699 -11.333 7 -25.333 7 -42v-153h-52v127c0 45.333 -13.333 68 -40 68h-8c-28.667 0 -43 -28.667 -43 -86v-109h-52v322zM1297 36.999h47l5 -6v-49h-52v55zM1987 36.999h52v-198l70 115h62l-78 -118l90 -125
v-2h-70c-6.66699 14.667 -31.334 53 -74 115v-115h-52v328zM2271 36.999v-98.999c16 16 33.667 24 53 24c38 0 64.667 -18.667 80 -56c6.66699 -12.667 10 -38.334 10 -77.001v-120h-54v133c0 41.333 -13.667 62 -41 62h-11c-20.667 0 -33 -18.333 -37 -55v-140h-53v314
l-1 3v3l1 2l-1 3l1 3h53zM2458 37h51v-55h-51v55zM3148 37h51v-108c18 22 40.667 33 68 33h3c50 0 85 -31.333 105 -94l5 -37c0 -50 -21.333 -90 -64 -120c-20 -7.33301 -36.333 -11 -49 -11c-27.333 0 -51.333 13.333 -72 40v-31h-47v328zM4275 37h52v-99h2
c15.334 16 33.334 24 54 24h3c40 0 67.334 -24.667 82 -74l2 -41v-138h-52v111c0 54.667 -10.666 82 -32 82l-10 2h-12c-24.666 0 -37 -26.667 -37 -80v-115h-52v328zM329.002 -38h3v-58h-5c-28 0 -42 -19 -42 -57v-138h-53v245h47v-21c12 19.333 28.667 29 50 29z
M564.002 -38c47.333 0 75.999 -29 85.999 -87v-166h-51v136c-4 39.333 -17.667 59 -41 59h-6c-30 0 -45 -28 -45 -84v-111h-52v245h50v-21c16.667 19.333 36.334 29 59.001 29zM1504 -38c48 0 83 -31.333 105 -94l5 -39c-1.33301 -16 -3.66602 -24 -6.99902 -24h-169
c11.333 -31.333 32 -47 62 -47c16 0 32 7 48 21h57c-22 -52.667 -58 -79 -108 -79c-54.667 0 -92.334 35 -113.001 105v37c0 54 29.667 93 89 117zM2657 -38h5c51.333 0 87 -32.333 107 -97l3 -26v-21l-3 -13h-170c12 -31.333 29.667 -47 53 -47h12c14 0 28 7 42 21h59
c-22.667 -52.667 -57.667 -79 -105 -79c-56 0 -94.333 34 -115 102l-2 29c0 62 30.333 104.667 91 128zM2915 -38h3.99902c36 0 62 -20 78 -60c4.66699 -16.667 7 -44 7 -82v-111h-54v138c0 32 -11.667 51 -35 57h-11c-25.333 0 -39.666 -19 -42.999 -57v-138h-54v245h50
v-21c16.667 19.333 36 29 58 29zM3508 -38h6c26.667 0 50 -13.333 70 -40h2v32h47v-245h-47v31h-2c-22.667 -26.667 -48.667 -40 -78 -40c-47.333 0 -81 30 -101 90l-4 37v12c0 54.667 25.667 93.667 77 117c7.33301 4 17.333 6 30 6zM3781 -38h4
c41.333 0 68.666 -26 82 -78l3 -84v-91h-54v138c0 32 -12.667 51 -38 57h-9c-25.333 0 -39.333 -17.333 -42 -52v-143h-54v245h49v-21c17.333 19.333 37 29 59 29zM4133 -38h1c49.334 0 84 -31 104 -93l4 -40c0 -58.667 -28 -100.667 -84 -126l-25 -3
c-27.333 0 -50 11.333 -68 34v-106h-52v326h47v-29c20 24.667 44.334 37 73 37zM4714 -38h5c22.666 0 43.666 -12.333 63 -37c18 24.667 41 37 69 37h6c37.334 0 63.667 -22 79 -66l6 -51v-136h-52v122c0 48.667 -13 73 -39 73h-7c-23.334 0 -37 -16.667 -41 -50v-140l-5 -5
h-48v140c0 28 -10.334 46.333 -31 55h-17c-26.666 0 -40 -25.667 -40 -77v-118h-51v245h47v-21c14.666 19.333 33.333 29 56 29zM359 -46h49l5 -6v-234l-5 -5h-49v245zM1297 -46h52v-245h-52v245zM1649 -46h52v-136c2.66699 -40 17 -60 43 -60h4c29.333 0 44 27 44 81v115
h52v-245h-47v24h-5c-8 -22 -27.667 -33 -59 -33c-34.667 0 -61 21 -79 63c-3.33301 8 -5 19.333 -5 34v157zM2458 -46h51v-245h-51v245zM4515 -46h51v-245h-51v245zM1077 -169c0 -35.333 16.999 -59.666 50.999 -72.999h12c36 0 58 22 66 66v10
c0 35.333 -18 58.666 -54 69.999h-17c-25.333 0 -44.666 -19 -57.999 -57v-16zM1438 -143h122.001c-12 31.333 -29.667 47 -53 47h-7c-28.667 0 -49.334 -14.667 -62.001 -44v-3zM2599 -143h122c-14 31.333 -32 47 -54 47h-7c-30.667 0 -51 -15.667 -61 -47zM3196 -158v-11
c6.66699 -48.667 27 -73 61 -73h5c42.667 5.33301 64 29 64 71v5c0 30 -12.667 51.667 -38 65l-18 5h-14c-40 -9.33301 -60 -30 -60 -62zM3452 -173c9.33301 -46 30 -69 62 -69h11c27.333 0 47 20 59 60v13c-5.33301 48.667 -24 73 -56 73h-17
c-31.333 0 -51 -24.333 -59 -73v-4zM4062 -158v-22c0 -31.333 19.667 -52 59 -62h9c33.334 0 53.667 25.333 61 76c-8.66602 46.667 -28 70 -58 70h-15c-37.333 -11.333 -56 -32 -56 -62z" />
    <glyph glyph-name="space" unicode=" " horiz-adv-x="602" 
 />
    <glyph glyph-name="exclam" unicode="!" horiz-adv-x="602" 
d="M385 209v-209h-201v209h201zM336 352h-103l-49 635v483h201v-483z" />
    <glyph glyph-name="quotedbl" unicode="&#x22;" horiz-adv-x="786" 
d="M143 950v520h152v-520h-152zM434 950v520h151v-520h-151z" />
    <glyph glyph-name="numbersign" unicode="#" 
d="M794 430l-57 -430h-135l57 430h-254l-61 -430h-135l61 430h-213l20 131h209l41 291h-213l21 127h209l61 430h135l-57 -430h254l57 430h140l-62 -430h213l-20 -127h-209l-41 -291h209l-17 -131h-213zM716 852h-253l-41 -291h258z" />
    <glyph glyph-name="dollar" unicode="$" 
d="M520 840l0.000976562 466.999c-76.667 0 -136.834 -22.667 -180.501 -68s-65.5 -102 -65.5 -170c0 -65.333 25.333 -118.666 76 -159.999c43.333 -34 100 -57 170 -69zM614.001 630.999l0.000976562 -520.001c87.333 0 155.666 26.333 204.999 79
c43.333 46.667 65 106.334 65 179.001c0 56 -15 104.333 -45 145s-68.333 68.667 -115 84zM1032 1069l-176 -0.00390625c-7.33301 64 -25.333 113.333 -54 148c-38 44.667 -100.667 74.667 -188 90v-488c129.333 -38 218 -68.667 266 -92c122.667 -61.333 184 -170 184 -326
c0 -155.333 -53.667 -272.666 -161 -351.999c-82 -60 -178.333 -90 -289 -90v-197h-94v197c-138 0 -245.333 34.667 -322 104c-88.667 82 -133 207 -133 375h180c0 -109.333 19.833 -187.166 59.5 -233.499s111.5 -77.5 215.5 -93.5v544
c-170.667 41.333 -286 95.333 -346 162c-53.333 60 -80 140 -80 240c0 110.667 40.5 205.167 121.5 283.5s182.5 117.5 304.5 117.5v131h94v-131c106.667 -9.33301 192.667 -34.666 258 -75.999c106.667 -65.333 160 -169.666 160 -312.999z" />
    <glyph glyph-name="percent" unicode="%" horiz-adv-x="1912" 
d="M81 1077c0 98.667 33.499 181.333 100.499 248s149.5 100 247.5 100c97.333 0 179.666 -33.667 246.999 -101s101 -149.666 101 -246.999c0 -96.667 -33.667 -178.834 -101 -246.501s-149.666 -101.5 -246.999 -101.5c-95.333 0 -177.166 33.5 -245.499 100.5
s-102.5 149.5 -102.5 247.5zM223.999 1077c0 -61.333 19.5 -110.833 58.5 -148.5s87.833 -56.5 146.5 -56.5c60 0 109.167 19.833 147.5 59.5s57.5 88.167 57.5 145.5s-19.833 105.833 -59.5 145.5s-88.167 59.5 -145.5 59.5s-105.833 -19.833 -145.5 -59.5
s-59.5 -88.167 -59.5 -145.5zM1044 335.999c0 98 33.332 180.501 99.999 247.501s149.334 100.5 248.001 100.5c96.667 0 178.834 -33.833 246.501 -101.5s101.5 -149.834 101.5 -246.501c0 -97.333 -33.833 -180.333 -101.5 -249s-149.834 -103 -246.501 -103
c-96 0 -178 34 -246 102s-102 151.333 -102 250zM1187 336c0 -61.333 19.5 -110.833 58.5 -148.5s87.833 -56.5 146.5 -56.5c60 0 109.167 19.833 147.5 59.5s57.5 88.167 57.5 145.5s-19.833 105.833 -59.5 145.5s-88.167 59.5 -145.5 59.5s-105.833 -19.833 -145.5 -59.5
s-59.5 -88.167 -59.5 -145.5zM1371 1442l-811 -1483h-110l807 1483h114z" />
    <glyph glyph-name="ampersand" unicode="&#x26;" horiz-adv-x="1454" 
d="M856 291l-331.999 405c-94 -60 -156 -107 -186 -141c-45.333 -50.667 -68 -112.667 -68 -186c0 -82 34.333 -145.667 103 -191c51.333 -34 105.666 -51 162.999 -51c134 0 240.667 54.667 320 164zM586.001 901c57.333 38 97.333 70.668 120 98.001
c42.667 48 64 100 64 156c0 58.667 -18.333 101.667 -55 129c-27.333 20.667 -61 31 -101 31c-65.333 0 -113 -20.667 -143 -62c-19.333 -27.333 -29 -60 -29 -98c0 -40.667 17 -87.667 51 -141c24.667 -38.667 55.667 -76.334 93 -113.001zM1061 319.001l261.998 -319h-234
l-139 168c-56 -65.333 -112.667 -113 -170 -143c-72 -38.667 -157.333 -58 -256 -58c-159.333 0 -277.333 50.667 -354 152c-53.333 70.667 -80 149.667 -80 237c0 104 22.167 188.167 66.5 252.5s132.833 134.5 265.5 210.5c-57.333 71.333 -96.333 126 -117 164
c-26 49.333 -39 102.666 -39 159.999c0 91.333 29.333 167 88 227c65.333 66.667 152 100 260 100c109.333 0 194 -32 254 -96c52 -54.667 78 -123.667 78 -207c0 -91.333 -30 -171.666 -90 -240.999c-34 -40 -92.667 -88 -176 -144l270 -319
c16.667 44.667 28.334 80.667 35.001 108s14.334 67.666 23.001 120.999h172c0 -49.333 -10.333 -105.666 -31 -168.999s-50 -131.333 -88 -204z" />
    <glyph glyph-name="quotesingle" unicode="'" horiz-adv-x="417" 
d="M122 950v520h147v-520h-147z" />
    <glyph glyph-name="parenleft" unicode="(" horiz-adv-x="737" 
d="M487 1503l122.998 0.00195312c-69.333 -130.667 -118.333 -230.334 -147 -299.001c-46.667 -108 -80.167 -214.167 -100.5 -318.5s-30.5 -237.166 -30.5 -398.499c0 -106 11.833 -208.833 35.5 -308.5s56.834 -199.5 99.501 -299.5c26 -60 75 -161.667 147 -305h-123
c-121.333 181.333 -206.666 333.666 -255.999 456.999c-64 159.333 -96 328 -96 506c0 173.333 30 339.666 90 498.999c54.667 143.333 140.667 299 258 467z" />
    <glyph glyph-name="parenright" unicode=")" horiz-adv-x="737" 
d="M196 -426l-123 0.00195312c66.667 126.667 116 227 148 301c46 108 79.333 214.5 100 319.5s31 238.167 31 399.5c0 106.667 -11.667 209.167 -35 307.5s-57 197.166 -101 296.499c-25.333 61.333 -74.333 163 -147 305h123c82 -122.667 144 -224.334 186 -305.001
c53.333 -100.667 94.333 -204.667 123 -312s43 -221 43 -341c0 -174.667 -30 -342 -90 -502c-54.667 -144.667 -140.667 -301 -258 -469z" />
    <glyph glyph-name="asterisk" unicode="*" horiz-adv-x="856" 
d="M81 1212l41 111l213 -78v225h123v-225l217 78l41 -111l-221 -69l135 -189l-98 -69l-136 192l-131 -192l-102 69l139 189z" />
    <glyph glyph-name="plus" unicode="+" horiz-adv-x="1269" 
d="M523 594v442h152v-442h442v-152h-442v-442h-152v442h-442v152h442z" />
    <glyph glyph-name="comma" unicode="," horiz-adv-x="602" 
d="M180 0v217.001h213v-201c0 -118.667 -30 -205.334 -90 -260.001c-32.667 -30 -73.667 -49.667 -123 -59v94c39.333 4 68 27.333 86 70c13.333 32.667 20 79 20 139h-106z" />
    <glyph glyph-name="hyphen" unicode="-" horiz-adv-x="737" 
d="M594 659v-184h-504v184h504z" />
    <glyph glyph-name="hyphen" unicode="&#x2010;" horiz-adv-x="737" 
d="M594 659v-184h-504v184h504z" />
    <glyph glyph-name="period" unicode="." horiz-adv-x="602" 
d="M393 217v-217h-213v217h213z" />
    <glyph glyph-name="slash" unicode="/" horiz-adv-x="602" 
d="M607 1511l-504 -1552h-139l508 1552h135z" />
    <glyph glyph-name="zero" unicode="0" 
d="M872 700c0 187.333 -24.6689 330.5 -74.002 429.5s-125.666 148.5 -228.999 148.5c-100 0 -174.833 -50.5 -224.5 -151.5s-74.5 -243.167 -74.5 -426.5c0 -185.333 24.5 -327.833 73.5 -427.5s124.167 -149.5 225.5 -149.5c100.667 0 176.334 50.167 227.001 150.5
s76 242.5 76 426.5zM1064 700c0 -193.333 -30.667 -353.667 -92 -481c-84.667 -173.333 -219 -260 -403 -260c-184.667 0 -318.667 86 -402 258c-60 124 -90 285 -90 483c0 195.333 30 356 90 482c83.333 173.333 217.333 260 402 260c184 0 318.333 -86 403 -258
c61.333 -126 92 -287.333 92 -484z" />
    <glyph glyph-name="one" unicode="1" 
d="M736 1442l0.000976562 -1442h-192v1024h-336v143c122.667 0 208.667 15.667 258 47c57.333 37.333 99.666 113.333 126.999 228h143z" />
    <glyph glyph-name="two" unicode="2" 
d="M270 926l-180 -0.000976562c0 203.333 63.333 347.333 190 432c83.333 56 186.666 84 309.999 84c128 0 235 -39 321 -117s129 -182.333 129 -313c0 -116 -37.667 -214.333 -113 -295c-51.333 -56 -142 -119 -272 -189l-151 -82c-84.667 -46 -149 -98.333 -193 -157
c-30 -41.333 -47.667 -80.333 -53 -117h782v-172h-987c0 140.667 32 259.334 96 356.001c52 79.333 133.333 151.666 244 216.999l188 111c96 53.333 159.667 96.333 191 129c50.667 53.333 76 122.333 76 207c0 66.667 -21.333 124 -64 172c-52 57.333 -126.333 86 -223 86
c-91.333 0 -161.666 -28 -210.999 -84c-53.333 -61.333 -80 -150.666 -80 -267.999z" />
    <glyph glyph-name="three" unicode="3" 
d="M458 664v155.001l94 -4c78 0 141 17 189 51c57.333 41.333 86 103.666 86 186.999c0 56 -17 103.667 -51 143c-48 54.667 -119.667 82 -215 82c-110.667 0 -188.667 -39 -234 -117c-30 -50.667 -45 -114 -45 -190h-176c0 128 30 232.333 90 313
c79.333 105.333 203.666 158 372.999 158c138 0 246.833 -35.167 326.5 -105.5s119.5 -162.166 119.5 -275.499c0 -83.333 -20.333 -152.333 -61 -207c-32.667 -44 -73.667 -73.333 -123 -88c74.667 -26 131.334 -64.333 170.001 -115c44.667 -58.667 67 -133.667 67 -225
c0 -130 -40 -237.333 -120 -322c-93.333 -96.667 -225.333 -145 -396 -145c-50 0 -97 5.5 -141 16.5s-85.667 27.5 -125 49.5c-75.333 39.333 -130.333 96.166 -165 170.499s-52 156.5 -52 246.5h188c0 -88.667 17.333 -158.334 52 -209.001
c50 -73.333 135.333 -110 256 -110c92.667 0 167.667 26 225 78s86 118.667 86 200c0 106.667 -40.333 181.334 -121 224.001c-53.333 28.667 -125 43 -215 43z" />
    <glyph glyph-name="four" unicode="4" 
d="M1073 352h-213v-352h-180v352h-627v176l659 914h148v-934h213v-156zM217 508h463v651z" />
    <glyph glyph-name="five" unicode="5" 
d="M364 1233l-61 -393.002c35.333 26 72.666 46.333 111.999 61c50.667 19.333 106 29 166 29c126 0 234 -39.667 324 -119c98 -86 147 -200.667 147 -344c0 -121.333 -30 -225.666 -90 -312.999c-90 -130 -233.333 -195 -430 -195c-116 0 -212.333 26 -289 78
c-102 68 -161.333 175.667 -178 323h188c8.66699 -81.333 39.834 -141.833 93.501 -181.5s123.834 -59.5 210.501 -59.5c91.333 0 164.666 31.333 219.999 94s83 140.334 83 233.001c0 101.333 -30.167 180 -90.5 236s-136.833 84 -229.5 84c-105.333 0 -194 -45 -266 -135
l-156 8l111 770h745v-176h-610z" />
    <glyph glyph-name="six" unicode="6" 
d="M1031 1057h-176.003c-13.333 68 -38.666 120.333 -75.999 157c-42 42.667 -100 64 -174 64c-122.667 0 -214.667 -69.667 -276 -209c-42.667 -96.667 -64 -204.667 -64 -324l5 -4c26.667 48 64 87 112 117c62.667 40 138.334 60 227.001 60
c110.667 0 207.667 -33 291 -99c106.667 -83.333 160 -202 160 -356c0 -74 -10.5 -139.667 -31.5 -197s-54.833 -111.166 -101.5 -161.499s-92.334 -85.833 -137.001 -106.5c-57.333 -26 -134 -39 -230 -39c-65.333 0 -128 15 -188 45
c-75.333 36.667 -136.666 92.667 -183.999 168c-41.333 64 -70.166 136.667 -86.499 218s-24.5 175.333 -24.5 282c0 199.333 34.667 366.666 104 501.999c93.333 178.667 236 268 428 268c104 0 195 -27.333 273 -82c99.333 -70 149 -171 149 -303zM289.997 442
c0 -84.667 24 -157 72 -217c54.667 -68 131.667 -102 231 -102c84.667 0 153 30.667 205 92s78 141.333 78 240c0 77.333 -20.667 143.333 -62 198c-52 70 -128.333 105 -229 105c-97.333 0 -170.833 -29.333 -220.5 -88s-74.5 -134.667 -74.5 -228z" />
    <glyph glyph-name="seven" unicode="7" 
d="M77 1233l-0.000976562 176h995v-156c-61.333 -65.333 -125.333 -147.666 -192 -246.999c-91.333 -136.667 -168.666 -279.334 -231.999 -428.001c-80 -190 -136.667 -382.667 -170 -578h-196c24.667 195.333 93.667 410.333 207 645c108.667 224 235 420 379 588h-791z
" />
    <glyph glyph-name="eight" unicode="8" 
d="M1007 1069c0 -88.667 -22.666 -160.331 -67.999 -214.998c-27.333 -34 -66.333 -63.333 -117 -88c89.333 -36.667 153.666 -91.334 192.999 -164.001c30 -54.667 45 -116 45 -184c0 -128.667 -38.333 -234.667 -115 -318c-87.333 -94 -211.333 -141 -372 -141
c-57.333 0 -111.333 7 -162 21c-71.333 18.667 -133.666 50 -186.999 94c-64 48.667 -107 110.667 -129 186c-12 41.333 -18 92.666 -18 153.999c0 86 21.167 158.333 63.5 217s103.166 103.667 182.499 135c-131.333 48 -197 140.667 -197 278c0 97.333 30 182 90 254
c79.333 96 195.333 144 348 144c146.667 0 260 -41 340 -123c68.667 -70 103 -153.333 103 -250zM569.001 676.003c-96 0 -171.333 -27.334 -226 -82.001c-48.667 -49.333 -73 -110.666 -73 -183.999c0 -74 19.667 -136.333 59 -187c53.333 -66.667 136 -100 248 -100
c82 0 146.667 17 194 51c64.667 46.667 97 121 97 223c0 92 -28 161.5 -84 208.5s-127.667 70.5 -215 70.5zM564.001 831.002c76.667 0 138.833 22.668 186.5 68.001s71.5 100.666 71.5 165.999c0 53.333 -18.333 99 -55 137c-49.333 50.667 -121 76 -215 76
c-86 0 -149.333 -25.333 -190 -76c-31.333 -39.333 -47 -89 -47 -149c0 -66 24.5 -119.5 73.5 -160.5s107.5 -61.5 175.5 -61.5z" />
    <glyph glyph-name="nine" unicode="9" 
d="M541 483c-135.333 0 -245.002 41.334 -329.002 124.001s-126 195.667 -126 339c0 139.333 39 254.666 117 345.999c84.667 100 200 150 346 150c200.667 0 342 -82 424 -246c53.333 -106.667 80 -247.334 80 -422.001c0 -96.667 -8.33301 -190 -25 -280
c-27.333 -152 -73.666 -271.667 -138.999 -359c-87.333 -117.333 -206.333 -176 -357 -176c-151.333 0 -265.333 47 -342 141c-58.667 72.667 -88 155.334 -88 248.001h181c0 -73.333 22.5 -131.166 67.5 -173.499s104.167 -63.5 177.5 -63.5c98.667 0 175 42.667 229 128
s92.333 222.666 115 411.999l-4 4c-26 -53.333 -69.667 -95.333 -131 -126s-126.666 -46 -195.999 -46zM564.998 643.001c68.667 0 126.668 19.001 174.001 57.001c70 56 105 146.333 105 271c0 90 -22.667 161.667 -68 215c-52 61.333 -126.333 92 -223 92
c-84.667 0 -152.334 -29.333 -203.001 -88s-76 -137.334 -76 -236.001c0 -121.333 33.667 -207.333 101 -258c46 -35.333 109.333 -53 190 -53z" />
    <glyph glyph-name="colon" unicode=":" horiz-adv-x="602" 
d="M393 217v-217h-213v217h213zM393 1057v-217h-213v217h213z" />
    <glyph glyph-name="semicolon" unicode=";" horiz-adv-x="602" 
d="M180 0v217.001h213v-201c0 -118.667 -30 -205.334 -90 -260.001c-32.667 -30 -73.667 -49.667 -123 -59v94c39.333 4 68 27.333 86 70c13.333 32.667 20 79 20 139h-106zM393 840.001h-213v217h213v-217z" />
    <glyph glyph-name="less" unicode="&#x3c;" horiz-adv-x="1269" 
d="M1097 188v-163l-999 421v144l999 426v-164l-798 -332z" />
    <glyph glyph-name="equal" unicode="=" horiz-adv-x="1269" 
d="M1117 799v-148h-1036v148h1036zM1117 385v-147h-1036v147h1036z" />
    <glyph glyph-name="greater" unicode="&#x3e;" horiz-adv-x="1269" 
d="M98 852v164l999 -426v-144l-999 -421v163l799 332z" />
    <glyph glyph-name="question" unicode="?" 
d="M294 1012h-179.999c0 110.667 14.333 194 43 250c24.667 47.333 65 92.333 121 135c83.333 62.667 181.666 94 294.999 94c121.333 0 222.333 -34 303 -102c87.333 -74 131 -173.667 131 -299c0 -66 -14.333 -122.667 -43 -170c-23.333 -40 -73.333 -96.667 -150 -170
c-56 -54.667 -92 -92.334 -108 -113.001c-48 -61.333 -72 -141.333 -72 -240l4 -20h-180c0 130.667 22.667 229.667 68 297c17.333 27.333 57.5 73.333 120.5 138s101.167 105.334 114.5 122.001c35.333 44.667 53 100.667 53 168c0 56 -16.333 105 -49 147
c-44.667 57.333 -110 86 -196 86c-88.667 0 -156.667 -26.833 -204 -80.5s-71 -134.5 -71 -242.5zM651.001 209v-209h-197v209h197z" />
    <glyph glyph-name="at" unicode="@" horiz-adv-x="1509" 
d="M1277 836c0 51.333 -16.332 95.5 -48.999 132.5s-72.334 55.5 -119.001 55.5c-87.333 0 -162.333 -45 -225 -135c-57.333 -82 -86 -169.333 -86 -262c0 -60 15.667 -108.5 47 -145.5s73 -55.5 125 -55.5c82 0 155 47.667 219 143c58.667 87.333 88 176.333 88 267z
M1339 1012l40.998 127h139l-121 -420c-42 -143.333 -63 -226 -63 -248c0 -38 15 -57 45 -57c69.333 0 135 46.333 197 139s93 193.667 93 303c0 160 -55.167 288 -165.5 384s-246.166 144 -407.499 144c-180 0 -328.833 -63.333 -446.5 -190s-176.5 -281.667 -176.5 -465
c0 -181.333 61.167 -333.166 183.5 -455.499s274.166 -183.5 455.499 -183.5c96 0 188 20.833 276 62.5s161.333 98.834 220 171.501h139c-68 -113.333 -158.667 -202.5 -272 -267.5s-235.666 -97.5 -366.999 -97.5c-219.333 0 -404.5 75.5 -555.5 226.5
s-226.5 336.167 -226.5 555.5c0 213.333 75.167 395 225.5 545s331.833 225 544.5 225c195.333 0 361.666 -60.333 498.999 -181s206 -273.334 206 -458.001c0 -170.667 -59 -316 -177 -436c-102 -104.667 -205.667 -157 -311 -157c-38 0 -69.333 10.833 -94 32.5
s-37 54.5 -37 98.5l-4 -4c-35.333 -36 -72.333 -65 -111 -87c-47.333 -26.667 -92.333 -40 -135 -40c-87.333 0 -159.666 32 -216.999 96s-86 141 -86 231c0 147.333 43 276.333 129 387c92.667 118.667 208 178 346 178c50.667 0 95.834 -12.833 135.501 -38.5
s72.5 -65.834 98.5 -120.501z" />
    <glyph glyph-name="A" unicode="A" horiz-adv-x="1454" 
d="M978 430h-590l-155 -430h-205l553 1470h225l533 -1470h-217zM450 606h455l-218 647z" />
    <glyph glyph-name="B" unicode="B" horiz-adv-x="1454" 
d="M352 1303l0.000976562 -455h356c101.333 0 176.333 17 225 51c54.667 38 82 100 82 186c0 72.667 -22.333 126 -67 160c-50.667 38.667 -129.334 58 -236.001 58h-360zM151.001 0v1470h647c131.333 0 235 -36 311 -108c71.333 -66.667 107 -153.334 107 -260.001
c0 -61.333 -12.333 -115.333 -37 -162c-32.667 -62.667 -86 -111 -160 -145c78 -34.667 134 -68.334 168 -101.001c66 -64 99 -150.667 99 -260c0 -124 -42.333 -225.667 -127 -305c-92 -86 -216.333 -129 -373 -129h-635zM352.001 688.002v-516.001h422
c102 0 179.333 23.5 232 70.5s79 112.167 79 195.5c0 94.667 -37 162.334 -111 203.001c-56 31.333 -133.667 47 -233 47h-389z" />
    <glyph glyph-name="C" unicode="C" horiz-adv-x="1568" 
d="M1380 1028l-192.002 -0.000976562c-23.333 114.667 -80.666 198 -171.999 250c-67.333 38 -146.666 57 -237.999 57c-140.667 0 -254.667 -48.333 -342 -145c-94 -105.333 -141 -252 -141 -440c0 -187.333 35.333 -332.333 106 -435c82 -117.333 209 -176 381 -176
c88.667 0 166.667 24 234 72c94 68 156.667 178 188 330h193c-27.333 -186 -98 -329.5 -212 -430.5s-257.667 -151.5 -431 -151.5c-186 0 -338.333 60 -457 180c-138 140.667 -207 342.667 -207 606c0 228 61.833 412.667 185.5 554s291.167 212 502.5 212
c177.333 0 321.333 -49.667 432 -149c97.333 -87.333 154 -198.666 170 -333.999z" />
    <glyph glyph-name="D" unicode="D" horiz-adv-x="1568" 
d="M167 0v1470h594c190 0 340.5 -65.167 451.5 -195.5s166.5 -302.5 166.5 -516.5c0 -200.667 -43.667 -368 -131 -502c-110.667 -170.667 -275.667 -256 -495 -256h-586zM364 1303l-0.000976562 -1131h385c130.667 0 234.334 49.5 311.001 148.5s115 240.5 115 424.5
c0 182 -38.667 320.5 -116 415.5s-185 142.5 -323 142.5h-372z" />
    <glyph glyph-name="E" unicode="E" horiz-adv-x="1454" 
d="M1261 176v-176h-1085v1470h1073v-176h-872v-450h803v-176h-803v-492h884z" />
    <glyph glyph-name="F" unicode="F" horiz-adv-x="1314" 
d="M377 668v-668h-201v1470h1020v-176h-819v-450h721v-176h-721z" />
    <glyph glyph-name="G" unicode="G" horiz-adv-x="1683" 
d="M798 618l0.00292969 167.999h643v-786h-126l-50 193c-48.667 -70 -116.834 -126.5 -204.501 -169.5s-180.5 -64.5 -278.5 -64.5c-114.667 0 -212.334 18.333 -293.001 55c-56 26 -108.667 63.667 -158 113c-98 92.667 -164.667 203.334 -200 332.001
c-22 79.333 -33 176.333 -33 291c0 199.333 56 370.666 168 513.999c128 164.667 304 247 528 247c152 0 285.333 -39.333 400 -118c129.333 -88.667 203.666 -211.667 222.999 -369h-193c-27.333 116 -88 200 -182 252c-70.667 39.333 -156 59 -256 59
c-139.333 0 -253.333 -51 -342 -153c-94 -109.333 -141 -257.666 -141 -444.999c0 -176 32.667 -314.333 98 -415c82 -127.333 213 -191 393 -191c52 0 98 4.66699 138 14c60 15.333 113.667 42 161 80c61.333 48 105 106 131 174c22 58.667 33 131.667 33 219h-459z" />
    <glyph glyph-name="H" unicode="H" horiz-adv-x="1568" 
d="M1126 864v606h196v-1470h-196v688h-770v-688h-197v1470h197v-606h770z" />
    <glyph glyph-name="I" unicode="I" horiz-adv-x="602" 
d="M385 1470v-1470h-197v1470h197z" />
    <glyph glyph-name="J" unicode="J" horiz-adv-x="1085" 
d="M36 475l184.001 -0.000976562v-102c0 -84.667 19.167 -146.167 57.5 -184.5s93.166 -57.5 164.499 -57.5c87.333 0 150 24 188 72c32.667 40.667 49 101.334 49 182.001v1085h197v-1073c0 -156.667 -46 -272.667 -138 -348c-72 -60 -166.667 -90 -284 -90
c-153.333 0 -266 44.333 -338 133c-53.333 65.333 -80 144 -80 236v147z" />
    <glyph glyph-name="K" unicode="K" horiz-adv-x="1454" 
d="M356 516v-516h-201v1470h201v-712l712 712h275l-615 -593l631 -877h-258l-516 737z" />
    <glyph glyph-name="L" unicode="L" 
d="M356 1470v-1294h745v-176h-946v1470h201z" />
    <glyph glyph-name="M" unicode="M" horiz-adv-x="1798" 
d="M1560 0h-192v1237l-414 -1237h-197l-413 1233v-1233h-193v1470h283l422 -1241l421 1241h283v-1470z" />
    <glyph glyph-name="N" unicode="N" horiz-adv-x="1568" 
d="M1130 1470h192v-1470h-221l-749 1188l-4 -1188h-193v1470h238l733 -1187z" />
    <glyph glyph-name="O" unicode="O" horiz-adv-x="1572" 
d="M1323 737c0 176 -44.999 318.667 -134.999 428c-94.667 113.333 -220.334 170 -377.001 170c-156 0 -280.333 -56 -373 -168s-139 -255.333 -139 -430c0 -177.333 45.667 -321.333 137 -432s216.333 -166 375 -166c156.667 0 281.167 55.667 373.5 167
s138.5 255 138.5 431zM1528 737c0 -198 -50.667 -367.333 -152 -508c-128 -180 -316.333 -270 -565 -270c-247.333 0 -435 89.333 -563 268c-102.667 143.333 -154 313.333 -154 510c0 195.333 50.667 363.333 152 504c129.333 180 317.666 270 564.999 270
c246.667 0 434.334 -89.333 563.001 -268c102.667 -142 154 -310.667 154 -506z" />
    <glyph glyph-name="P" unicode="P" horiz-adv-x="1454" 
d="M377 1303v-512h393c96.667 0 169 19 217 57c54.667 43.333 82 113 82 209c0 87.333 -28 151.333 -84 192c-48 36 -117 54 -207 54h-401zM377 623l-0.000976562 -623h-201v1470h664c132 0 237.333 -38.5 316 -115.5s118 -176.167 118 -297.5
c0 -117.333 -32.333 -215 -97 -293c-77.333 -94 -189.666 -141 -336.999 -141h-463z" />
    <glyph glyph-name="Q" unicode="Q" horiz-adv-x="1683" 
d="M859 303l103.001 123l184 -143c52 50 92.333 115 121 195s43 166.333 43 259c0 176 -45 318.667 -135 428c-94.667 113.333 -220.334 170 -377.001 170c-156 0 -280.333 -56 -373 -168s-139 -255.333 -139 -430c0 -177.333 45.667 -321.333 137 -432
s216.333 -166 375 -166c80.667 0 153 15 217 45zM1502 4l-101.999 -118.998l-225 176c-98.667 -68 -224.334 -102 -377.001 -102c-247.333 0 -435 89.333 -563 268c-102.667 143.333 -154 313.333 -154 510c0 195.333 50.667 363.333 152 504
c129.333 180 317.666 270 564.999 270c246.667 0 434.334 -89.333 563.001 -268c102.667 -142 154 -310.667 154 -506c0 -104.667 -16 -204.334 -48 -299.001c-36.667 -110.667 -91.667 -203.334 -165 -278.001z" />
    <glyph glyph-name="R" unicode="R" horiz-adv-x="1568" 
d="M381 631l0.00195312 -631h-201v1470h680c139.333 0 250 -26.333 332 -79c100.667 -66 151 -170.667 151 -314c0 -98 -21.667 -177 -65 -237c-28.667 -41.333 -75.334 -79.666 -140.001 -114.999c59.333 -26 99.666 -51.333 120.999 -76c37.333 -43.333 56 -111 56 -203
l12 -266c0 -42 4.5 -72.333 13.5 -91s29.167 -37.334 60.5 -56.001v-33h-242c-12 36.667 -21.167 96 -27.5 178s-9.5 145.667 -9.5 191c0 100.667 -24.667 171 -74 211c-42 34 -104.667 51 -188 51h-479zM381.002 1303v-500.001h458c90.667 0 159 15 205 45
c62.667 40.667 94 110.334 94 209.001c0 98 -31.333 167 -94 207c-40.667 26 -96.667 39 -168 39h-495z" />
    <glyph glyph-name="S" unicode="S" horiz-adv-x="1454" 
d="M1228 1040l-184.002 0.00292969c0 105.333 -40.333 184 -121 236c-65.333 42 -146.333 63 -243 63c-90.667 0 -162.667 -14.333 -216 -43c-80 -42 -120 -113.667 -120 -215c0 -56 17.667 -99.667 53 -131c26 -23.333 65.667 -41 119 -53l422 -98
c102 -24.667 180.333 -66.334 235 -125.001c64 -68.667 96 -158 96 -268c0 -158.667 -64 -277 -192 -355c-101.333 -61.333 -228.333 -92 -381 -92c-121.333 0 -221.666 16.333 -300.999 49c-48 19.333 -96.667 50.666 -146 93.999c-56 52 -94.5 108.333 -115.5 169
s-31.5 128.667 -31.5 204h184c0 -121.333 43.667 -212 131 -272c70 -48 161.667 -72 275 -72c130.667 0 230.334 25.333 299.001 76c57.333 42 86 100 86 174c0 75.333 -20.833 129.666 -62.5 162.999s-124.5 65 -248.5 95l-304 70c-80 20 -143.333 48.667 -190 86
c-80.667 62.667 -121 150 -121 262c0 126.667 39 231 117 313c90 94 219 141 387 141c225.333 0 385 -58 479 -174c62.667 -77.333 94 -176.333 94 -297z" />
    <glyph glyph-name="T" unicode="T" horiz-adv-x="1314" 
d="M28 1294v176h1196v-176h-500v-1294h-196v1294h-500z" />
    <glyph glyph-name="U" unicode="U" horiz-adv-x="1478" 
d="M1109 1470l196.999 -0.000976562v-954c0 -161.333 -47.667 -291.666 -143 -390.999c-105.333 -110.667 -254.333 -166 -447 -166c-186.667 0 -330.667 54 -432 162c-88.667 95.333 -133 219 -133 371v978h197v-925c0 -146 39.333 -253.333 118 -322
c64.667 -56 149.334 -84 254.001 -84c110.667 0 199 26.667 265 80c82.667 68.667 124 176 124 322v929z" />
    <glyph glyph-name="V" unicode="V" horiz-adv-x="1454" 
d="M1101 1470h225l-536 -1470h-213l-537 1470h221l422 -1253z" />
    <glyph glyph-name="W" unicode="W" horiz-adv-x="2027" 
d="M626 0h-209l-385 1470h217l275 -1196l331 1196h217l332 -1196l279 1196h217l-385 -1470h-209l-336 1221z" />
    <glyph glyph-name="X" unicode="X" horiz-adv-x="1454" 
d="M810 754l516 -754h-246l-393 606l-409 -606h-238l524 754l-491 716h250l372 -561l373 561h238z" />
    <glyph glyph-name="Y" unicode="Y" horiz-adv-x="1454" 
d="M782 594v-594h-197v594l-557 876h233l422 -704l422 704h234z" />
    <glyph glyph-name="Z" unicode="Z" horiz-adv-x="1314" 
d="M1204 176v-176h-1155v168l901 1126h-835v176h1089v-172l-905 -1122h905z" />
    <glyph glyph-name="bracketleft" unicode="[" horiz-adv-x="602" 
d="M291 1335v-1593h221v-143h-381v1880h381v-144h-221z" />
    <glyph glyph-name="backslash" unicode="\" horiz-adv-x="602" 
d="M500 -41l-504 1552h139l504 -1552h-139z" />
    <glyph glyph-name="bracketright" unicode="]" horiz-adv-x="602" 
d="M278 -258v1593h-221v144h385v-1880h-385v143h221z" />
    <glyph glyph-name="asciicircum" unicode="^" horiz-adv-x="1015" 
d="M992 541h-160l-348 704l-352 -704h-160l438 868h148z" />
    <glyph glyph-name="underscore" unicode="_" 
d="M1139 -258h-1139v102h1139v-102z" />
    <glyph glyph-name="grave" unicode="`" horiz-adv-x="737" 
d="M294 1217l-266 286h221l185 -286h-140z" />
    <glyph glyph-name="a" unicode="a" horiz-adv-x="1175" 
d="M294 745l-167.998 0.00195312c0 123.333 41 215 123 275c75.333 54.667 182 82 320 82c87.333 0 163.666 -15 228.999 -45c112 -50.667 168 -135.334 168 -254.001v-615c0 -43.333 20.333 -65 61 -65l58 8v-131l-48.5 -13c-17 -4.66699 -33.833 -7 -50.5 -7
c-72 0 -123 17 -153 51c-23.333 26 -35 63.333 -35 112c-48 -50 -95 -88 -141 -114c-74 -41.333 -156.667 -62 -248 -62c-98.667 0 -179.334 28.667 -242.001 86s-94 132.666 -94 225.999c0 72 17 134 51 186c54.667 83.333 147 133 277 149l295 37
c28.667 2.66699 49.667 11 63 25c20.667 20.667 31 54.667 31 102c0 117.333 -83.333 176 -250 176c-88.667 0 -153.667 -24.333 -195 -73c-24 -30 -41 -75.333 -51 -136zM786.002 373.002l-0.000976562 176c-15.333 -14 -42.166 -25.667 -80.499 -35
s-104.833 -20.166 -199.5 -32.499s-159.167 -32.833 -193.5 -61.5s-51.5 -66.334 -51.5 -113.001c0 -61.333 15.5 -108 46.5 -140s79.833 -48 146.5 -48c87.333 0 164.5 24.5 231.5 73.5s100.5 109.167 100.5 180.5z" />
    <glyph glyph-name="b" unicode="b" 
d="M290 0h-172v1470h180v-532c80.667 109.333 186 164 316 164c137.333 0 247 -51.333 329 -154c78 -96.667 117 -223 117 -379c0 -156.667 -32.667 -289 -98 -397c-83.333 -136.667 -207.666 -205 -372.999 -205c-82 0 -149.667 20 -203 60
c-32.667 24 -63.334 60 -92.001 108zM872 541c0 106 -13.667 189.333 -41 250c-46.667 100.667 -130 151 -250 151c-116 0 -197.333 -54 -244 -162c-31.333 -72 -47 -169.667 -47 -293c0 -126.667 34.667 -222 104 -286c53.333 -49.333 117 -74 191 -74
c95.333 0 167 37.5 215 112.5s72 175.5 72 301.5z" />
    <glyph glyph-name="c" unicode="c" horiz-adv-x="1085" 
d="M979 713l-177.001 0.000976562c-10.667 72 -37.167 128.167 -79.5 168.5s-100.5 60.5 -174.5 60.5c-100.667 0 -177 -43 -229 -129c-43.333 -74 -65 -166 -65 -276c0 -116.667 17.667 -208.334 53 -275.001c47.333 -90 127.666 -135 240.999 -135
c60.667 0 114.834 22.5 162.501 67.5s78.167 107.167 91.5 186.5h177c-12.667 -108 -49 -198 -109 -270c-79.333 -96 -189.333 -144 -330 -144c-147.333 0 -264 50.167 -350 150.5s-129 230.5 -129 390.5c0 177.333 41 318 123 422c90 114.667 221 172 393 172
c128.667 0 228.334 -41.667 299.001 -125c58.667 -68.667 93 -156.667 103 -264z" />
    <glyph glyph-name="d" unicode="d" 
d="M1023 1470l-0.000976562 -1470h-172v147c-36.667 -65.333 -85 -113 -145 -143c-48 -24.667 -102 -37 -162 -37c-165.333 0 -289.666 67.667 -372.999 203c-65.333 106.667 -98 239.667 -98 399c0 156 39.333 283.833 118 383.5s188 149.5 328 149.5
c84.667 0 156.667 -22 216 -66c30 -21.333 64.667 -59.333 104 -114l4 12v536h180zM256.999 541c0 -123.333 25.001 -223.167 75.001 -299.5s122 -114.5 216 -114.5c74 0 137 24 189 72c68 62.667 102 158.667 102 288c0 123.333 -15 220.333 -45 291
c-46.667 109.333 -127.334 164 -242.001 164c-121.333 0 -205.333 -49.667 -252 -149c-28.667 -62 -43 -146 -43 -252z" />
    <glyph glyph-name="e" unicode="e" 
d="M863 336h181.001c-7.33301 -41.333 -23.333 -84.333 -48 -129c-36.667 -68.667 -85 -122.667 -145 -162c-36.667 -24.667 -69.334 -41.667 -98.001 -51c-52 -18 -116.333 -27 -193 -27c-147.333 0 -264 50.167 -350 150.5s-129 230.5 -129 390.5
c0 177.333 41 318 123 422c90 114.667 221 172 393 172c150 0 264 -55.667 342 -167s117 -263.333 117 -456h-782c0 -113.333 26.167 -200.333 78.5 -261s129.833 -91 232.5 -91c79.333 0 146.333 24.667 201 74c46 42 71.667 87 77 135zM274.001 623h598
c0 91.333 -22.667 165 -68 221c-52 65.333 -129 98 -231 98c-82 0 -152.333 -32 -211 -96s-88 -138.333 -88 -223z" />
    <glyph glyph-name="f" unicode="f" horiz-adv-x="602" 
d="M536 922h-180v-922h-181v922h-147v151h147v184c0 156 93 234 279 234h37.5c11.667 0 26.5 -1.33301 44.5 -4v-160l-74 4c-70.667 0 -106 -42.333 -106 -127v-131h180v-151z" />
    <glyph glyph-name="g" unicode="g" 
d="M269 541c0 -124.667 24.332 -224.833 72.999 -300.5s120 -113.5 214 -113.5c75.333 0 139 24 191 72c69.333 64 104 160 104 288c0 122 -15.667 219 -47 291c-48 109.333 -129.333 164 -244 164c-121.333 0 -204.666 -49.667 -249.999 -149
c-27.333 -60.667 -41 -144.667 -41 -252zM1023 1073l-0.00195312 -982.999c0 -140.667 -21 -250 -63 -328c-76.667 -142 -222.334 -213 -437.001 -213c-94 0 -173 17.333 -237 52c-98.667 53.333 -156 142.666 -172 267.999h180c10.667 -56 36.834 -98.667 78.501 -128
s96.167 -44 163.5 -44c130.667 0 219.334 45 266.001 135c27.333 53.333 41 131.333 41 234v57l-4 -8c-27.333 -44 -63 -78.333 -107 -103c-52 -30 -112 -45 -180 -45c-165.333 0 -289.666 67.667 -372.999 203c-65.333 106.667 -98 239.667 -98 399
c0 154.667 40 282.167 120 382.5s188.667 150.5 326 150.5c86 0 158.667 -22 218 -66c34 -26 68 -64 102 -114l4 151h172z" />
    <glyph glyph-name="h" unicode="h" 
d="M1007 729v-729.002h-180v700c0 82 -13.667 141 -41 177c-32.667 43.333 -90 65 -172 65c-84.667 0 -153 -25.333 -205 -76c-62.667 -61.333 -94 -154.666 -94 -279.999v-586h-180v1470h180v-540c41.333 50.667 79 87.334 113 110.001c60 41.333 127.667 62 203 62
c104.667 0 188.667 -23.333 252 -70c82.667 -61.333 124 -162.333 124 -303z" />
    <glyph glyph-name="i" unicode="i" horiz-adv-x="487" 
d="M319 1073v-1073h-180v1073h180zM319 1266h-180v204h180v-204z" />
    <glyph glyph-name="j" unicode="j" horiz-adv-x="487" 
d="M320 1073l-0.00195312 -1233c0 -72 -12.333 -128 -37 -168c-42 -68 -121 -102 -237 -102h-29h-24c-11.333 2.66699 -19.666 4 -24.999 4v156h37c54.667 0 90.834 7.5 108.501 22.5s26.5 51.167 26.5 108.5v1212h180zM319.998 1470v-204h-180v204h180z" />
    <glyph glyph-name="k" unicode="k" horiz-adv-x="1085" 
d="M594 672l434 -672h-234l-331 541l-152 -135v-406h-172v1470h172v-852l463 455h229z" />
    <glyph glyph-name="l" unicode="l" horiz-adv-x="487" 
d="M319 1470v-1470h-180v1470h180z" />
    <glyph glyph-name="m" unicode="m" horiz-adv-x="1798" 
d="M135 0l-0.000976562 1073h168v-151c38 48.667 74 85.334 108 110.001c64.667 46.667 138 70 220 70c64 0 118.5 -12.667 163.5 -38s85.833 -70 122.5 -134c54.667 60 100 101 136 123c52.667 32.667 116.667 49 192 49c82 0 151.667 -22 209 -66
c82 -62.667 123 -161 123 -295v-741h-180v692c0 80.667 -13.667 140.667 -41 180c-33.333 46.667 -86.666 70 -159.999 70c-74 0 -134.167 -28.333 -180.5 -85s-69.5 -124 -69.5 -202v-655h-180v741c0 53.333 -11.667 97.666 -35 132.999c-30 45.333 -74.333 68 -133 68
c-70 0 -129.333 -22.667 -178 -68c-70 -62.667 -105 -158.667 -105 -288v-586h-180z" />
    <glyph glyph-name="n" unicode="n" 
d="M1007 729l0.000976562 -729h-180v659c0 98.667 -15.667 169 -47 211c-35.333 48 -96 72 -182 72c-70 0 -129.333 -22.667 -178 -68c-70 -62.667 -105 -158.667 -105 -288v-586h-180v1073h168v-151c38 47.333 75 84 111 110c65.333 46.667 137.666 70 216.999 70
c104.667 0 188.667 -23.333 252 -70c82.667 -61.333 124 -162.333 124 -303z" />
    <glyph glyph-name="o" unicode="o" horiz-adv-x="1179" 
d="M73 537c0 154 39.667 283 119 387c90 118.667 215.667 178 377 178c160.667 0 286.667 -59.333 378 -178c80.667 -105.333 121 -234.333 121 -387c0 -152 -40.333 -280.333 -121 -385c-91.333 -120.667 -217.333 -181 -378 -181c-160 0 -285 59.667 -375 179
c-80.667 104.667 -121 233.667 -121 387zM257 537c0 -101.333 19.333 -187.332 58 -257.999c54.667 -101.333 139.334 -152 254.001 -152c113.333 0 197.333 49.667 252 149c39.333 72.667 59 159.667 59 261c0 100.667 -19 186.667 -57 258
c-54.667 100.667 -139.334 151 -254.001 151c-113.333 0 -197.333 -49.667 -252 -149c-40 -72.667 -60 -159.334 -60 -260.001z" />
    <glyph glyph-name="p" unicode="p" 
d="M290 487c0 -126.667 34.667 -222 104 -286c53.333 -49.333 117 -74 191 -74c95.333 0 167 37.5 215 112.5s72 175.5 72 301.5c0 106 -13.667 189.333 -41 250c-46.667 100.667 -130 151 -250 151c-116 0 -197.333 -54 -244 -162c-31.333 -72 -47 -169.667 -47 -293z
M118 -426l-0.000976562 1499h172v-151c38 51.333 72.667 88.666 104 111.999c62 45.333 135.333 68 220 68c137.333 0 247 -51.333 329 -154c78 -96.667 117 -223 117 -379c0 -156.667 -32.667 -289 -98 -397c-83.333 -136.667 -207.666 -205 -372.999 -205
c-68 0 -125.667 13.333 -173 40s-85.333 62.667 -114 108l-4 -541h-180z" />
    <glyph glyph-name="q" unicode="q" 
d="M1011 1073l-0.000976562 -1499h-180v541c-27.333 -44 -63 -78.333 -107 -103c-52 -30 -112 -45 -180 -45c-165.333 0 -289.666 67.667 -372.999 203c-65.333 106.667 -98 239.667 -98 399c0 156 39.333 283.833 118 383.5s188 149.5 328 149.5
c84.667 0 156.667 -22 216 -66c30 -21.333 64.667 -59.333 104 -114l4 151h168zM838.999 487c0 123.333 -14.999 220.332 -44.999 290.999c-46.667 109.333 -127.334 164 -242.001 164c-121.333 0 -205.333 -49.667 -252 -149c-28.667 -62 -43 -146 -43 -252
c0 -123.333 25 -223.166 75 -299.499s122 -114.5 216 -114.5c74 0 137 24 189 72c68 62.667 102 158.667 102 288z" />
    <glyph glyph-name="r" unicode="r" horiz-adv-x="737" 
d="M339 623l-0.000976562 -623h-180v1073h168v-180c40.667 66.667 84.334 117 131.001 151c52 38.667 110.667 58 176 58c22 0 37 -1.33301 45 -4v-189h-65c-82 0 -148.333 -27.333 -199 -82s-76 -122.667 -76 -204z" />
    <glyph glyph-name="s" unicode="s" horiz-adv-x="1085" 
d="M917 766l-176.001 -0.000976562c0 48 -13.667 86.333 -41 115c-42.667 43.333 -113.667 65 -213 65c-65.333 0 -117.166 -14 -155.499 -42s-57.5 -64.333 -57.5 -109c0 -41.333 15 -71.333 45 -90c23.333 -15.333 74 -33.333 152 -54l180 -45
c109.333 -26 186.5 -60.833 231.5 -104.5s67.5 -102.834 67.5 -177.501c0 -109.333 -39.333 -196.166 -118 -260.499s-180 -96.5 -304 -96.5c-187.333 0 -317.666 46.333 -390.999 139c-48 60.667 -72 140 -72 238h176c0 -78 26.667 -134.667 80 -170
c48 -31.333 115.667 -47 203 -47c70.667 0 128 13 172 39c49.333 30 74 73 74 129c0 40.667 -14.833 71.334 -44.5 92.001s-85.834 42 -168.501 64l-209 49c-79.333 20 -139 49.333 -179 88c-44.667 43.333 -67 101.333 -67 174c0 110.667 41 196.667 123 258
c72 54.667 166 82 282 82c127.333 0 227.5 -31.5 300.5 -94.5s109.5 -143.5 109.5 -241.5z" />
    <glyph glyph-name="t" unicode="t" horiz-adv-x="602" 
d="M528 922l-172 0.000976562v-697c0 -35.333 13 -59 39 -71c14.667 -7.33301 37 -11 67 -11h66v-143l-135 -16c-83.333 0 -142.333 22.333 -177 67c-27.333 35.333 -41 90.666 -41 165.999v705h-147v151h147v299h181v-299h172v-151z" />
    <glyph glyph-name="u" unicode="u" 
d="M1003 0h-172v156l-4 4c-38 -64.667 -83.667 -113 -137 -145s-121 -48 -203 -48c-92.667 0 -169.667 23.333 -231 70c-78 58.667 -117 147.334 -117 266.001v770h180v-713c0 -82.667 20 -143.334 60 -182.001c34 -34 83.667 -51 149 -51c102.667 0 180 39.667 232 119
c42 64 63 143 63 237v590h180v-1073z" />
    <glyph glyph-name="v" unicode="v" horiz-adv-x="1085" 
d="M811 1073h196l-405 -1073h-193l-393 1073h209l278 -872z" />
    <glyph glyph-name="w" unicode="w" horiz-adv-x="1568" 
d="M524 0h-185l-311 1073h197l204 -844l213 844h201l209 -844l221 844h180l-311 -1073h-188l-217 831z" />
    <glyph glyph-name="x" unicode="x" horiz-adv-x="1085" 
d="M626 553l377 -553h-229l-267 406l-258 -406h-225l377 553l-361 520h234l246 -377l249 377h222z" />
    <glyph glyph-name="y" unicode="y" horiz-adv-x="1085" 
d="M802 1073l200.999 -0.000976562l-187.5 -522l-197.5 -531c-86 -216.667 -149.167 -347.167 -189.5 -391.5s-117.833 -66.5 -232.5 -66.5c-10.667 0 -19.667 0.666992 -27 2c-20 6.66699 -35.667 11.334 -47 14.001v164c11.333 -4 26.833 -8.5 46.5 -13.5
s39.834 -7.5 60.501 -7.5c44.667 0 76.667 13 96 39s51.333 96.333 96 211l-397 1102h205l282 -872z" />
    <glyph glyph-name="z" unicode="z" horiz-adv-x="1085" 
d="M942 926l-639 -774h659v-152h-897v143l643 779h-594v151h828v-147z" />
    <glyph glyph-name="braceleft" unicode="{" horiz-adv-x="737" 
d="M86 479l-0.000976562 122.999c46.667 0 86.334 25 119.001 75s49 112.333 49 187v353c0 80 20.5 143.667 61.5 191s90.167 71 147.5 71h135v-131h-90c-32.667 0 -56.5 -15.167 -71.5 -45.5s-22.5 -71.166 -22.5 -122.499v-349c0 -87.333 -24.667 -159 -74 -215
c-35.333 -40.667 -71 -64.334 -107 -71.001c26 -10 50.667 -25 74 -45c71.333 -60 107 -144.667 107 -254v-348c0 -49.333 7.5 -89.666 22.5 -120.999s38.833 -47 71.5 -47h90v-131h-135c-56 0 -104 22.333 -144 67c-43.333 49.333 -65 114.333 -65 195v352
c0 78 -16 141.833 -48 191.5s-72 74.5 -120 74.5z" />
    <glyph glyph-name="bar" unicode="|" horiz-adv-x="577" 
d="M192 -41v1552h152v-1552h-152z" />
    <glyph glyph-name="braceright" unicode="}" horiz-adv-x="737" 
d="M598 602v-123.001c-48 0 -87.333 -24.833 -118 -74.5s-46 -113.5 -46 -191.5v-352c0 -80.667 -20.833 -144.5 -62.5 -191.5s-90.5 -70.5 -146.5 -70.5h-139v131h90c34 0 58.167 15.333 72.5 46s21.5 71.334 21.5 122.001v348c0 92.667 24.667 167 74 223
c31.333 35.333 67 59.333 107 72c-23.333 6.66699 -48 21 -74 43c-71.333 60 -107 142.333 -107 247v349c0 51.333 -6 90 -18 116c-16.667 34.667 -42 52 -76 52h-90v131h139c56 0 104.833 -23.667 146.5 -71s62.5 -111 62.5 -191v-353c0 -77.333 15 -140.333 45 -189
s69.667 -73 119 -73z" />
    <glyph glyph-name="asciitilde" unicode="~" horiz-adv-x="1269" 
d="M998 668l74.0029 -115c-34 -53.333 -72.5 -96 -115.5 -128s-90.5 -48 -142.5 -48c-26 0 -53.667 4.33301 -83 13s-71.333 27.334 -126 56.001c-40.667 23.333 -75.334 40 -104.001 50c-40 13.333 -83 20 -129 20c-41.333 0 -77 -15 -107 -45
c-24.667 -24.667 -46.334 -58.667 -65.001 -102l-74 114c27.333 53.333 58 93.666 92 120.999c45.333 36.667 99.333 55 162 55c32.667 0 68.167 -5.66699 106.5 -17s79.166 -27.333 122.499 -48c52 -22 95.833 -39.833 131.5 -53.5s61.5 -20.5 77.5 -20.5
c35.333 0 69.666 15.667 102.999 47c14.667 15.333 40.334 49 77.001 101z" />
    <glyph glyph-name="dieresis" unicode="&#xa8;" horiz-adv-x="1024" 
 />
    <glyph glyph-name="copyright" unicode="&#xa9;" horiz-adv-x="1642" 
d="M806 -41c-215.333 0 -400.169 74.5 -554.502 223.5s-231.5 333.833 -231.5 554.5c0 220 76.833 404 230.5 552s338.834 222 555.501 222c214.667 0 398.834 -74 552.501 -222s230.5 -332 230.5 -552c0 -220.667 -76.5 -405.5 -229.5 -554.5s-337.5 -223.5 -553.5 -223.5z
M175.997 737c0 -185.333 60.667 -339.5 182 -462.5s270.666 -184.5 447.999 -184.5c178 0 327 61.5 447 184.5s180 277.167 180 462.5c0 183.333 -60 336.333 -180 459s-269 184 -447 184c-177.333 0 -326.666 -61.333 -447.999 -184s-182 -275.667 -182 -459zM1077 594
l139.001 -0.00195312c-20.667 -101.333 -65.834 -182 -135.501 -242s-151.5 -90 -245.5 -90c-138 0 -249 45.5 -333 136.5s-126 205.167 -126 342.5c0 136.667 41 249.334 123 338.001s191.333 133 328 133c102.667 0 189 -27.167 259 -81.5s112 -133.5 126 -237.5h-135
c-12.667 56 -41.167 100.667 -85.5 134s-99.166 50 -164.499 50c-94 0 -166.667 -30.667 -218 -92s-77 -142.666 -77 -243.999c0 -96.667 27.333 -178.167 82 -244.5s128.334 -99.5 221.001 -99.5c61.333 0 114.166 18.5 158.499 55.5s72.166 84.167 83.499 141.5z" />
    <glyph glyph-name="registered" unicode="&#xae;" horiz-adv-x="1642" 
d="M806 -41c-215.333 0 -400.169 74.5 -554.502 223.5s-231.5 333.833 -231.5 554.5c0 220 76.833 404 230.5 552s338.834 222 555.501 222c214.667 0 398.834 -74 552.501 -222s230.5 -332 230.5 -552c0 -220.667 -76.5 -405.5 -229.5 -554.5s-337.5 -223.5 -553.5 -223.5z
M175.997 737c0 -185.333 60.667 -339.5 182 -462.5s270.666 -184.5 447.999 -184.5c178 0 327 61.5 447 184.5s180 277.167 180 462.5c0 183.333 -60 336.333 -180 459s-269 184 -447 184c-177.333 0 -326.666 -61.333 -447.999 -184s-182 -275.667 -182 -459zM642.997 676
v-385.001h-136v893h340c108 0 187.667 -20.167 239 -60.5s77 -104.833 77 -193.5c0 -75.333 -20.833 -133.166 -62.5 -173.499s-97.5 -64.5 -167.5 -72.5l254 -393h-151l-238 385h-155zM642.997 790.999l163 -0.000976562c92 0 151.333 11.833 178 35.5
s40 60.834 40 111.501s-18.167 85.167 -54.5 103.5s-83.833 27.5 -142.5 27.5h-184v-278z" />
    <glyph glyph-name="acute" unicode="&#xb4;" horiz-adv-x="1024" 
 />
    <glyph glyph-name="paragraph" unicode="&#xb6;" horiz-adv-x="1024" 
d="M929 1435l-0.000976562 -70h-127v-1365h-82v1365h-166v-1365h-84v738c-116 5.33301 -207.833 39.5 -275.5 102.5s-101.5 144.833 -101.5 245.5c0 104.667 35.833 189 107.5 253s166.834 96 285.501 96h443z" />
    <glyph glyph-name="onequarter" unicode="&#xbc;" horiz-adv-x="1798" 
d="M860 193v122l421 549h132v-553h135v-118h-135v-193h-132v193h-421zM1281 311v385l-294 -385h294zM1339 1442l-905 -1483h-119l905 1483h119zM372 1188h-221v90c82 0 138 9 168 27c36.667 21.333 64 67 82 137h110v-864h-139v610z" />
    <glyph glyph-name="onehalf" unicode="&#xbd;" horiz-adv-x="1798" 
d="M1266 1442l-906 -1483h-118l905 1483h119zM311 1184h-221v94c82 0 138 9 168 27c36.667 21.333 64 67 82 137h115v-864h-144v606zM1085 557l-122.999 -0.000976562c0 121.333 41 207.333 123 258c53.333 32.667 120.333 49 201 49c87.333 0 159 -23.167 215 -69.5
s84 -109.166 84 -188.499c0 -70.667 -24 -130 -72 -178c-31.333 -31.333 -89.333 -69 -174 -113l-90 -45c-46 -26 -82 -50.333 -108 -73c-18 -16.667 -36.667 -40 -56 -70h500v-127h-655c0 84.667 20.333 156.334 61 215.001c34 49.333 84.667 92.333 152 129l123 66
c65.333 35.333 107.666 61.666 126.999 78.999c32.667 32 49 72.333 49 121v8c0 34.667 -12.333 62.667 -37 84c-31.333 28.667 -76.333 43 -135 43c-74 0 -126 -25 -156 -75c-19.333 -31.333 -29 -69 -29 -113z" />
    <glyph glyph-name="threequarters" unicode="&#xbe;" horiz-adv-x="1798" 
d="M971 193v122l421 549h132v-553h135v-118h-135v-193h-132v193h-421zM1098 311h294v385zM1458 1442l-905 -1483h-115l905 1483h115zM94 840h138.999c0 -46.667 9.66699 -83 29 -109c28.667 -39.333 77.667 -59 147 -59c62 0 110.333 11.833 145 35.5s52 60.834 52 111.501
c0 62.667 -25.333 105 -76 127c-31.333 14 -77 21 -137 21h-45v102h53c52 0 91 9 117 27c34 22.667 51 60 51 112c0 30 -8.66699 54 -26 72c-27.333 28.667 -73.333 43 -138 43c-61.333 0 -105.666 -18.333 -132.999 -55c-20.667 -27.333 -31 -63.666 -31 -108.999h-127
c0 76.667 21.333 139.667 64 189c53.333 62.667 136 94 248 94c88.667 0 158.5 -21.5 209.5 -64.5s76.5 -98.167 76.5 -165.5c0 -50 -13.333 -91.667 -40 -125c-22 -26.667 -48 -43.667 -78 -51c47.333 -14.667 85 -38.834 113 -72.501s42 -77.834 42 -132.501
c0 -76 -26.667 -139.333 -80 -190c-62.667 -58.667 -150.667 -88 -264 -88c-64 0 -121.333 13.667 -172 41c-47.333 23.333 -82.333 56.5 -105 99.5s-34 91.833 -34 146.5z" />
    <glyph glyph-name="Agrave" unicode="&#xc0;" horiz-adv-x="1454" 
d="M978 430h-590l-155 -430h-205l553 1470h225l533 -1470h-217zM450 606h455l-218 647zM614 1614l-267 291h222l180 -291h-135z" />
    <glyph glyph-name="Aacute" unicode="&#xc1;" horiz-adv-x="1454" 
d="M978 430h-590l-155 -430h-205l553 1470h225l533 -1470h-217zM450 606h455l-218 647zM628 1614l181 291h221l-266 -291h-136z" />
    <glyph glyph-name="Acircumflex" unicode="&#xc2;" horiz-adv-x="1454" 
d="M978 430h-590l-155 -430h-205l553 1470h225l533 -1470h-217zM450 606h455l-218 647zM683 1810l-135 -192h-164l205 291h189l204 -291h-163z" />
    <glyph glyph-name="Atilde" unicode="&#xc3;" horiz-adv-x="1454" 
d="M978 430h-590l-155 -430h-205l553 1470h225l533 -1470h-217zM450 606h455l-218 647zM952 1880l102 0.00195312c-6.66699 -64 -28.167 -117.5 -64.5 -160.5s-83.166 -64.5 -140.499 -64.5c-30 0 -69.667 9.33301 -119 28l-53 17c-65.333 22 -107.666 33 -126.999 33
c-26 0 -45.833 -7.16699 -59.5 -21.5s-25.167 -37.5 -34.5 -69.5h-98c9.33301 67.333 29 118.666 59 153.999c35.333 42.667 86.666 64 153.999 64c23.333 0 46.166 -2.5 68.499 -7.5s45.833 -12.167 70.5 -21.5l45 -21c16.667 -6.66699 34.5 -12.334 53.5 -17.001
s32.5 -7 40.5 -7c35.333 0 61.333 10.333 78 31c10.667 13.333 19 34.333 25 63z" />
    <glyph glyph-name="Egrave" unicode="&#xc8;" horiz-adv-x="1454" 
d="M1261 176v-176h-1085v1470h1073v-176h-872v-450h803v-176h-803v-492h884zM695 1614l-266 291h221l180 -291h-135z" />
    <glyph glyph-name="Eacute" unicode="&#xc9;" horiz-adv-x="1454" 
d="M1261 176v-176h-1085v1470h1073v-176h-872v-450h803v-176h-803v-492h884zM619 1614l180 291h221l-266 -291h-135z" />
    <glyph glyph-name="Ecircumflex" unicode="&#xca;" horiz-adv-x="1454" 
d="M1261 176v-176h-1085v1470h1073v-176h-872v-450h803v-176h-803v-492h884zM719 1810l-135 -192h-164l205 291h188l205 -291h-164z" />
    <glyph glyph-name="Igrave" unicode="&#xcc;" horiz-adv-x="602" 
d="M385 1470v-1470h-197v1470h197zM253 1614l-266 291h221l180 -291h-135z" />
    <glyph glyph-name="Iacute" unicode="&#xcd;" horiz-adv-x="602" 
d="M385 1470v-1470h-197v1470h197zM188 1614l180 291h221l-266 -291h-135z" />
    <glyph glyph-name="Ograve" unicode="&#xd2;" horiz-adv-x="1572" 
d="M1323 737c0 176 -44.999 318.667 -134.999 428c-94.667 113.333 -220.334 170 -377.001 170c-156 0 -280.333 -56 -373 -168s-139 -255.333 -139 -430c0 -177.333 45.667 -321.333 137 -432s216.333 -166 375 -166c156.667 0 281.167 55.667 373.5 167
s138.5 255 138.5 431zM1528 737c0 -198 -50.667 -367.333 -152 -508c-128 -180 -316.333 -270 -565 -270c-247.333 0 -435 89.333 -563 268c-102.667 143.333 -154 313.333 -154 510c0 195.333 50.667 363.333 152 504c129.333 180 317.666 270 564.999 270
c246.667 0 434.334 -89.333 563.001 -268c102.667 -142 154 -310.667 154 -506zM785.001 1614l-266 291h221l180 -291h-135z" />
    <glyph glyph-name="Oacute" unicode="&#xd3;" horiz-adv-x="1572" 
d="M1323 737c0 176 -44.999 318.667 -134.999 428c-94.667 113.333 -220.334 170 -377.001 170c-156 0 -280.333 -56 -373 -168s-139 -255.333 -139 -430c0 -177.333 45.667 -321.333 137 -432s216.333 -166 375 -166c156.667 0 281.167 55.667 373.5 167
s138.5 255 138.5 431zM1528 737c0 -198 -50.667 -367.333 -152 -508c-128 -180 -316.333 -270 -565 -270c-247.333 0 -435 89.333 -563 268c-102.667 143.333 -154 313.333 -154 510c0 195.333 50.667 363.333 152 504c129.333 180 317.666 270 564.999 270
c246.667 0 434.334 -89.333 563.001 -268c102.667 -142 154 -310.667 154 -506zM660.001 1614l180 291h221l-266 -291h-135z" />
    <glyph glyph-name="Ocircumflex" unicode="&#xd4;" horiz-adv-x="1572" 
d="M1323 737c0 176 -44.999 318.667 -134.999 428c-94.667 113.333 -220.334 170 -377.001 170c-156 0 -280.333 -56 -373 -168s-139 -255.333 -139 -430c0 -177.333 45.667 -321.333 137 -432s216.333 -166 375 -166c156.667 0 281.167 55.667 373.5 167
s138.5 255 138.5 431zM1528 737c0 -198 -50.667 -367.333 -152 -508c-128 -180 -316.333 -270 -565 -270c-247.333 0 -435 89.333 -563 268c-102.667 143.333 -154 313.333 -154 510c0 195.333 50.667 363.333 152 504c129.333 180 317.666 270 564.999 270
c246.667 0 434.334 -89.333 563.001 -268c102.667 -142 154 -310.667 154 -506zM811.001 1810l-135 -192h-164l205 291h188l205 -291h-164z" />
    <glyph glyph-name="Otilde" unicode="&#xd5;" horiz-adv-x="1572" 
d="M1323 737c0 176 -44.999 318.667 -134.999 428c-94.667 113.333 -220.334 170 -377.001 170c-156 0 -280.333 -56 -373 -168s-139 -255.333 -139 -430c0 -177.333 45.667 -321.333 137 -432s216.333 -166 375 -166c156.667 0 281.167 55.667 373.5 167
s138.5 255 138.5 431zM1528 737c0 -198 -50.667 -367.333 -152 -508c-128 -180 -316.333 -270 -565 -270c-247.333 0 -435 89.333 -563 268c-102.667 143.333 -154 313.333 -154 510c0 195.333 50.667 363.333 152 504c129.333 180 317.666 270 564.999 270
c246.667 0 434.334 -89.333 563.001 -268c102.667 -142 154 -310.667 154 -506zM1057 1880l101.997 0.00195312c-6.66699 -64 -28.167 -117.5 -64.5 -160.5s-83.166 -64.5 -140.499 -64.5c-30 0 -69.667 9.33301 -119 28l-53 17c-65.333 22 -107.666 33 -126.999 33
c-26 0 -45.833 -7.16699 -59.5 -21.5s-25.167 -37.5 -34.5 -69.5h-98c9.33301 67.333 29 118.666 59 153.999c35.333 42.667 86.666 64 153.999 64c22.667 0 45.334 -2.5 68.001 -7.5s46.334 -12.167 71.001 -21.5l45 -21c16.667 -6.66699 34.5 -12.334 53.5 -17.001
s32.5 -7 40.5 -7c35.333 0 61.333 10.333 78 31c10.667 13.333 19 34.333 25 63z" />
    <glyph glyph-name="Ugrave" unicode="&#xd9;" horiz-adv-x="1478" 
d="M1109 1470l196.999 -0.000976562v-954c0 -161.333 -47.667 -291.666 -143 -390.999c-105.333 -110.667 -254.333 -166 -447 -166c-186.667 0 -330.667 54 -432 162c-88.667 95.333 -133 219 -133 371v978h197v-925c0 -146 39.333 -253.333 118 -322
c64.667 -56 149.334 -84 254.001 -84c110.667 0 199 26.667 265 80c82.667 68.667 124 176 124 322v929zM704.999 1614l-266 291h221l180 -291h-135z" />
    <glyph glyph-name="Uacute" unicode="&#xda;" horiz-adv-x="1478" 
d="M1109 1470l196.999 -0.000976562v-954c0 -161.333 -47.667 -291.666 -143 -390.999c-105.333 -110.667 -254.333 -166 -447 -166c-186.667 0 -330.667 54 -432 162c-88.667 95.333 -133 219 -133 371v978h197v-925c0 -146 39.333 -253.333 118 -322
c64.667 -56 149.334 -84 254.001 -84c110.667 0 199 26.667 265 80c82.667 68.667 124 176 124 322v929zM639.999 1614l180 291h221l-266 -291h-135z" />
    <glyph glyph-name="Yacute" unicode="&#xdd;" horiz-adv-x="1454" 
d="M782 594v-594h-197v594l-557 876h233l422 -704l422 704h234zM609 1614l181 291h221l-266 -291h-136z" />
    <glyph glyph-name="agrave" unicode="&#xe0;" horiz-adv-x="1175" 
d="M294 745l-167.998 0.00195312c0 123.333 41 215 123 275c75.333 54.667 182 82 320 82c87.333 0 163.666 -15 228.999 -45c112 -50.667 168 -135.334 168 -254.001v-615c0 -43.333 20.333 -65 61 -65l58 8v-131l-48.5 -13c-17 -4.66699 -33.833 -7 -50.5 -7
c-72 0 -123 17 -153 51c-23.333 26 -35 63.333 -35 112c-48 -50 -95 -88 -141 -114c-74 -41.333 -156.667 -62 -248 -62c-98.667 0 -179.334 28.667 -242.001 86s-94 132.666 -94 225.999c0 72 17 134 51 186c54.667 83.333 147 133 277 149l295 37
c28.667 2.66699 49.667 11 63 25c20.667 20.667 31 54.667 31 102c0 117.333 -83.333 176 -250 176c-88.667 0 -153.667 -24.333 -195 -73c-24 -30 -41 -75.333 -51 -136zM786.002 373.002l-0.000976562 176c-15.333 -14 -42.166 -25.667 -80.499 -35
s-104.833 -20.166 -199.5 -32.499s-159.167 -32.833 -193.5 -61.5s-51.5 -66.334 -51.5 -113.001c0 -61.333 15.5 -108 46.5 -140s79.833 -48 146.5 -48c87.333 0 164.5 24.5 231.5 73.5s100.5 109.167 100.5 180.5zM511.001 1217l-271 286h225l181 -286h-135z" />
    <glyph glyph-name="aacute" unicode="&#xe1;" horiz-adv-x="1175" 
d="M294 745l-167.998 0.00195312c0 123.333 41 215 123 275c75.333 54.667 182 82 320 82c87.333 0 163.666 -15 228.999 -45c112 -50.667 168 -135.334 168 -254.001v-615c0 -43.333 20.333 -65 61 -65l58 8v-131l-48.5 -13c-17 -4.66699 -33.833 -7 -50.5 -7
c-72 0 -123 17 -153 51c-23.333 26 -35 63.333 -35 112c-48 -50 -95 -88 -141 -114c-74 -41.333 -156.667 -62 -248 -62c-98.667 0 -179.334 28.667 -242.001 86s-94 132.666 -94 225.999c0 72 17 134 51 186c54.667 83.333 147 133 277 149l295 37
c28.667 2.66699 49.667 11 63 25c20.667 20.667 31 54.667 31 102c0 117.333 -83.333 176 -250 176c-88.667 0 -153.667 -24.333 -195 -73c-24 -30 -41 -75.333 -51 -136zM786.002 373.002l-0.000976562 176c-15.333 -14 -42.166 -25.667 -80.499 -35
s-104.833 -20.166 -199.5 -32.499s-159.167 -32.833 -193.5 -61.5s-51.5 -66.334 -51.5 -113.001c0 -61.333 15.5 -108 46.5 -140s79.833 -48 146.5 -48c87.333 0 164.5 24.5 231.5 73.5s100.5 109.167 100.5 180.5zM420.001 1217l180 286h226l-271 -286h-135z" />
    <glyph glyph-name="acircumflex" unicode="&#xe2;" horiz-adv-x="1175" 
d="M294 745l-167.998 0.00195312c0 123.333 41 215 123 275c75.333 54.667 182 82 320 82c87.333 0 163.666 -15 228.999 -45c112 -50.667 168 -135.334 168 -254.001v-615c0 -43.333 20.333 -65 61 -65l58 8v-131l-48.5 -13c-17 -4.66699 -33.833 -7 -50.5 -7
c-72 0 -123 17 -153 51c-23.333 26 -35 63.333 -35 112c-48 -50 -95 -88 -141 -114c-74 -41.333 -156.667 -62 -248 -62c-98.667 0 -179.334 28.667 -242.001 86s-94 132.666 -94 225.999c0 72 17 134 51 186c54.667 83.333 147 133 277 149l295 37
c28.667 2.66699 49.667 11 63 25c20.667 20.667 31 54.667 31 102c0 117.333 -83.333 176 -250 176c-88.667 0 -153.667 -24.333 -195 -73c-24 -30 -41 -75.333 -51 -136zM786.002 373.002l-0.000976562 176c-15.333 -14 -42.166 -25.667 -80.499 -35
s-104.833 -20.166 -199.5 -32.499s-159.167 -32.833 -193.5 -61.5s-51.5 -66.334 -51.5 -113.001c0 -61.333 15.5 -108 46.5 -140s79.833 -48 146.5 -48c87.333 0 164.5 24.5 231.5 73.5s100.5 109.167 100.5 180.5zM552.001 1384l-135 -188h-160l201 287h193l200 -287h-164
z" />
    <glyph glyph-name="atilde" unicode="&#xe3;" horiz-adv-x="1175" 
d="M294 745l-167.998 0.00195312c0 123.333 41 215 123 275c75.333 54.667 182 82 320 82c87.333 0 163.666 -15 228.999 -45c112 -50.667 168 -135.334 168 -254.001v-615c0 -43.333 20.333 -65 61 -65l58 8v-131l-48.5 -13c-17 -4.66699 -33.833 -7 -50.5 -7
c-72 0 -123 17 -153 51c-23.333 26 -35 63.333 -35 112c-48 -50 -95 -88 -141 -114c-74 -41.333 -156.667 -62 -248 -62c-98.667 0 -179.334 28.667 -242.001 86s-94 132.666 -94 225.999c0 72 17 134 51 186c54.667 83.333 147 133 277 149l295 37
c28.667 2.66699 49.667 11 63 25c20.667 20.667 31 54.667 31 102c0 117.333 -83.333 176 -250 176c-88.667 0 -153.667 -24.333 -195 -73c-24 -30 -41 -75.333 -51 -136zM786.002 373.002l-0.000976562 176c-15.333 -14 -42.166 -25.667 -80.499 -35
s-104.833 -20.166 -199.5 -32.499s-159.167 -32.833 -193.5 -61.5s-51.5 -66.334 -51.5 -113.001c0 -61.333 15.5 -108 46.5 -140s79.833 -48 146.5 -48c87.333 0 164.5 24.5 231.5 73.5s100.5 109.167 100.5 180.5zM810.001 1479h103.002
c-8.66699 -63.333 -31.334 -116.166 -68.001 -158.499s-82.334 -63.5 -137.001 -63.5c-16.667 0 -33.5 1.83301 -50.5 5.5s-41.167 10.167 -72.5 19.5l-53 21c-18 5.33301 -39.333 11.333 -64 18s-44.334 10 -59.001 10c-26 0 -46.5 -7.83301 -61.5 -23.5
s-27.167 -37.834 -36.5 -66.501h-99c8.66699 65.333 30.334 118.5 65.001 159.5s84 61.5 148 61.5c23.333 0 46 -3 68 -9s46 -13.667 72 -23l45 -17c47.333 -19.333 80 -29 98 -29c35.333 0 61.333 11 78 33c10.667 14 18.667 34.667 24 62z" />
    <glyph glyph-name="egrave" unicode="&#xe8;" 
d="M863 336h181.001c-7.33301 -41.333 -23.333 -84.333 -48 -129c-36.667 -68.667 -85 -122.667 -145 -162c-36.667 -24.667 -69.334 -41.667 -98.001 -51c-52 -18 -116.333 -27 -193 -27c-147.333 0 -264 50.167 -350 150.5s-129 230.5 -129 390.5
c0 177.333 41 318 123 422c90 114.667 221 172 393 172c150 0 264 -55.667 342 -167s117 -263.333 117 -456h-782c0 -113.333 26.167 -200.333 78.5 -261s129.833 -91 232.5 -91c79.333 0 146.333 24.667 201 74c46 42 71.667 87 77 135zM274.001 623h598
c0 91.333 -22.667 165 -68 221c-52 65.333 -129 98 -231 98c-82 0 -152.333 -32 -211 -96s-88 -138.333 -88 -223zM510.001 1217l-270 286h225l181 -286h-136z" />
    <glyph glyph-name="eacute" unicode="&#xe9;" 
d="M863 336h181.001c-7.33301 -41.333 -23.333 -84.333 -48 -129c-36.667 -68.667 -85 -122.667 -145 -162c-36.667 -24.667 -69.334 -41.667 -98.001 -51c-52 -18 -116.333 -27 -193 -27c-147.333 0 -264 50.167 -350 150.5s-129 230.5 -129 390.5
c0 177.333 41 318 123 422c90 114.667 221 172 393 172c150 0 264 -55.667 342 -167s117 -263.333 117 -456h-782c0 -113.333 26.167 -200.333 78.5 -261s129.833 -91 232.5 -91c79.333 0 146.333 24.667 201 74c46 42 71.667 87 77 135zM274.001 623h598
c0 91.333 -22.667 165 -68 221c-52 65.333 -129 98 -231 98c-82 0 -152.333 -32 -211 -96s-88 -138.333 -88 -223zM420.001 1217l180 286h226l-271 -286h-135z" />
    <glyph glyph-name="ecircumflex" unicode="&#xea;" 
d="M863 336h181.001c-7.33301 -41.333 -23.333 -84.333 -48 -129c-36.667 -68.667 -85 -122.667 -145 -162c-36.667 -24.667 -69.334 -41.667 -98.001 -51c-52 -18 -116.333 -27 -193 -27c-147.333 0 -264 50.167 -350 150.5s-129 230.5 -129 390.5
c0 177.333 41 318 123 422c90 114.667 221 172 393 172c150 0 264 -55.667 342 -167s117 -263.333 117 -456h-782c0 -113.333 26.167 -200.333 78.5 -261s129.833 -91 232.5 -91c79.333 0 146.333 24.667 201 74c46 42 71.667 87 77 135zM274.001 623h598
c0 91.333 -22.667 165 -68 221c-52 65.333 -129 98 -231 98c-82 0 -152.333 -32 -211 -96s-88 -138.333 -88 -223zM566.001 1384l-135 -188h-160l201 287h193l200 -287h-163z" />
    <glyph glyph-name="igrave" unicode="&#xec;" horiz-adv-x="487" 
d="M320 1073v-1073h-181v1073h181zM200 1217l-270 286h225l181 -286h-136z" />
    <glyph glyph-name="iacute" unicode="&#xed;" horiz-adv-x="487" 
d="M319 1073v-1073h-180v1073h180zM140 1217l180 286h225l-270 -286h-135z" />
    <glyph glyph-name="ograve" unicode="&#xf2;" horiz-adv-x="1179" 
d="M73 537c0 154 39.667 283 119 387c90 118.667 215.667 178 377 178c160.667 0 286.667 -59.333 378 -178c80.667 -105.333 121 -234.333 121 -387c0 -152 -40.333 -280.333 -121 -385c-91.333 -120.667 -217.333 -181 -378 -181c-160 0 -285 59.667 -375 179
c-80.667 104.667 -121 233.667 -121 387zM257 537c0 -101.333 19.333 -187.332 58 -257.999c54.667 -101.333 139.334 -152 254.001 -152c113.333 0 197.333 49.667 252 149c39.333 72.667 59 159.667 59 261c0 100.667 -19 186.667 -57 258
c-54.667 100.667 -139.334 151 -254.001 151c-113.333 0 -197.333 -49.667 -252 -149c-40 -72.667 -60 -159.334 -60 -260.001zM521 1217l-270 286h225l181 -286h-136z" />
    <glyph glyph-name="oacute" unicode="&#xf3;" horiz-adv-x="1179" 
d="M73 537c0 154 39.667 283 119 387c90 118.667 215.667 178 377 178c160.667 0 286.667 -59.333 378 -178c80.667 -105.333 121 -234.333 121 -387c0 -152 -40.333 -280.333 -121 -385c-91.333 -120.667 -217.333 -181 -378 -181c-160 0 -285 59.667 -375 179
c-80.667 104.667 -121 233.667 -121 387zM257 537c0 -101.333 19.333 -187.332 58 -257.999c54.667 -101.333 139.334 -152 254.001 -152c113.333 0 197.333 49.667 252 149c39.333 72.667 59 159.667 59 261c0 100.667 -19 186.667 -57 258
c-54.667 100.667 -139.334 151 -254.001 151c-113.333 0 -197.333 -49.667 -252 -149c-40 -72.667 -60 -159.334 -60 -260.001zM451 1217l180 286h226l-271 -286h-135z" />
    <glyph glyph-name="ocircumflex" unicode="&#xf4;" horiz-adv-x="1179" 
d="M73 537c0 154 39.667 283 119 387c90 118.667 215.667 178 377 178c160.667 0 286.667 -59.333 378 -178c80.667 -105.333 121 -234.333 121 -387c0 -152 -40.333 -280.333 -121 -385c-91.333 -120.667 -217.333 -181 -378 -181c-160 0 -285 59.667 -375 179
c-80.667 104.667 -121 233.667 -121 387zM257 537c0 -101.333 19.333 -187.332 58 -257.999c54.667 -101.333 139.334 -152 254.001 -152c113.333 0 197.333 49.667 252 149c39.333 72.667 59 159.667 59 261c0 100.667 -19 186.667 -57 258
c-54.667 100.667 -139.334 151 -254.001 151c-113.333 0 -197.333 -49.667 -252 -149c-40 -72.667 -60 -159.334 -60 -260.001zM569 1384l-136 -188h-159l200 287h193l201 -287h-164z" />
    <glyph glyph-name="otilde" unicode="&#xf5;" horiz-adv-x="1179" 
d="M73 537c0 154 39.667 283 119 387c90 118.667 215.667 178 377 178c160.667 0 286.667 -59.333 378 -178c80.667 -105.333 121 -234.333 121 -387c0 -152 -40.333 -280.333 -121 -385c-91.333 -120.667 -217.333 -181 -378 -181c-160 0 -285 59.667 -375 179
c-80.667 104.667 -121 233.667 -121 387zM257 537c0 -101.333 19.333 -187.332 58 -257.999c54.667 -101.333 139.334 -152 254.001 -152c113.333 0 197.333 49.667 252 149c39.333 72.667 59 159.667 59 261c0 100.667 -19 186.667 -57 258
c-54.667 100.667 -139.334 151 -254.001 151c-113.333 0 -197.333 -49.667 -252 -149c-40 -72.667 -60 -159.334 -60 -260.001zM816 1479h103.002c-8.66699 -63.333 -31.334 -116.166 -68.001 -158.499s-82.334 -63.5 -137.001 -63.5c-16.667 0 -33.5 1.83301 -50.5 5.5
s-41.167 10.167 -72.5 19.5l-53 21c-18 5.33301 -39.333 11.333 -64 18s-44.334 10 -59.001 10c-26 0 -46.5 -7.83301 -61.5 -23.5s-27.167 -37.834 -36.5 -66.501h-99c8.66699 65.333 30.334 118.5 65.001 159.5s84 61.5 148 61.5c23.333 0 46 -3 68 -9
s45.667 -13.667 71 -23l46 -17c47.333 -19.333 80 -29 98 -29c35.333 0 61.333 11 78 33c10.667 14 18.667 34.667 24 62z" />
    <glyph glyph-name="divide" unicode="&#xf7;" horiz-adv-x="1706" 
 />
    <glyph glyph-name="glyph216" unicode="&#xf9;" 
d="M1003 0h-172v156l-4 4c-38 -64.667 -83.667 -113 -137 -145s-121 -48 -203 -48c-92.667 0 -169.667 23.333 -231 70c-78 58.667 -117 147.334 -117 266.001v770h180v-713c0 -82.667 20 -143.334 60 -182.001c34 -34 83.667 -51 149 -51c102.667 0 180 39.667 232 119
c42 64 63 143 63 237v590h180v-1073zM521 1217l-270 286h225l180 -286h-135z" />
    <glyph glyph-name="glyph217" unicode="&#xfa;" 
d="M1003 0h-172v156l-4 4c-38 -64.667 -83.667 -113 -137 -145s-121 -48 -203 -48c-92.667 0 -169.667 23.333 -231 70c-78 58.667 -117 147.334 -117 266.001v770h180v-713c0 -82.667 20 -143.334 60 -182.001c34 -34 83.667 -51 149 -51c102.667 0 180 39.667 232 119
c42 64 63 143 63 237v590h180v-1073zM451 1217l180 286h225l-270 -286h-135z" />
    <glyph glyph-name="glyph234" unicode="&#xfd;" horiz-adv-x="1085" 
d="M802 1073l200.999 -0.000976562l-187.5 -522l-197.5 -531c-86 -216.667 -149.167 -347.167 -189.5 -391.5s-117.833 -66.5 -232.5 -66.5c-10.667 0 -19.667 0.666992 -27 2c-20 6.66699 -35.667 11.334 -47 14.001v164c11.333 -4 26.833 -8.5 46.5 -13.5
s39.834 -7.5 60.501 -7.5c44.667 0 76.667 13 96 39s51.333 96.333 96 211l-397 1102h205l282 -872zM439.999 1217l181 286h225l-270 -286h-136z" />
    <glyph glyph-name="Abreve" unicode="&#x102;" horiz-adv-x="1454" 
d="M978 430h-590l-155 -430h-205l553 1470h225l533 -1470h-217zM450 606h455l-218 647zM900 1839l99.002 0.00390625c-12.667 -96.667 -48.334 -168.334 -107.001 -215.001c-53.333 -42 -127 -63 -221 -63c-90 0 -160.333 22.5 -211 67.5s-81.334 115.167 -92.001 210.5h98
c7.33301 -20.667 13 -35.667 17 -45c9.33301 -20.667 20 -38.334 32 -53.001c18 -20.667 40.667 -36.834 68 -48.501s62 -17.5 104 -17.5c71.333 0 124.666 19.333 159.999 58c20.667 21.333 38.334 56.666 53.001 105.999z" />
    <glyph glyph-name="abreve" unicode="&#x103;" horiz-adv-x="1175" 
d="M294 745l-167.998 0.00195312c0 123.333 41 215 123 275c75.333 54.667 182 82 320 82c87.333 0 163.666 -15 228.999 -45c112 -50.667 168 -135.334 168 -254.001v-615c0 -43.333 20.333 -65 61 -65l58 8v-131l-48.5 -13c-17 -4.66699 -33.833 -7 -50.5 -7
c-72 0 -123 17 -153 51c-23.333 26 -35 63.333 -35 112c-48 -50 -95 -88 -141 -114c-74 -41.333 -156.667 -62 -248 -62c-98.667 0 -179.334 28.667 -242.001 86s-94 132.666 -94 225.999c0 72 17 134 51 186c54.667 83.333 147 133 277 149l295 37
c28.667 2.66699 49.667 11 63 25c20.667 20.667 31 54.667 31 102c0 117.333 -83.333 176 -250 176c-88.667 0 -153.667 -24.333 -195 -73c-24 -30 -41 -75.333 -51 -136zM786.002 373.002l-0.000976562 176c-15.333 -14 -42.166 -25.667 -80.499 -35
s-104.833 -20.166 -199.5 -32.499s-159.167 -32.833 -193.5 -61.5s-51.5 -66.334 -51.5 -113.001c0 -61.333 15.5 -108 46.5 -140s79.833 -48 146.5 -48c87.333 0 164.5 24.5 231.5 73.5s100.5 109.167 100.5 180.5zM760.001 1475h98.0029
c-12.667 -97.333 -48.334 -169 -107.001 -215c-53.333 -42.667 -127 -64 -221 -64c-90 0 -160.333 22.5 -211 67.5s-81.334 115.5 -92.001 211.5h98c7.33301 -20.667 13 -35.667 17 -45c9.33301 -20.667 20.333 -38.667 33 -54c17.333 -20 39.666 -35.833 66.999 -47.5
s62.333 -17.5 105 -17.5c70.667 0 123.667 19 159 57c20.667 22 38.667 57.667 54 107z" />
    <glyph glyph-name="Ccaron" unicode="&#x10c;" horiz-adv-x="1274" 
 />
    <glyph glyph-name="ccaron" unicode="&#x10d;" horiz-adv-x="922" 
 />
    <glyph glyph-name="Dslash" unicode="&#x110;" horiz-adv-x="1568" 
d="M757 844l0.000976562 -176h-393v-496h385c131.333 0 235.166 49.5 311.499 148.5s114.5 240.5 114.5 424.5c0 182 -38.5 320.5 -115.5 415.5s-184.5 142.5 -322.5 142.5h-373v-459h393zM61.001 668v176h106v626h594c190 0 340.667 -65.167 452 -195.5
s167 -302.5 167 -516.5c0 -86 -9.66699 -170 -29 -252c-34 -142 -90 -254.667 -168 -338c-106 -112 -249.333 -168 -430 -168h-586v668h-106z" />
    <glyph glyph-name="dcroat" unicode="&#x111;" 
d="M1023 1200l-0.000976562 -1200h-172v147c-36.667 -65.333 -85 -113 -145 -143c-48 -24.667 -102 -37 -162 -37c-165.333 0 -289.666 67.667 -372.999 203c-65.333 106.667 -98 239.667 -98 399c0 156 39.333 283.833 118 383.5s188 149.5 328 149.5
c84.667 0 156.667 -22 216 -66c30 -21.333 64.667 -59.333 104 -114l4 12v258h-258v156h258v122h180v-127h82v-143h-82zM256.999 541c0 -123.333 25.001 -223.167 75.001 -299.5s122 -114.5 216 -114.5c74 0 137 24 189 72c68 62.667 102 158.667 102 288
c0 123.333 -15 220.333 -45 291c-46.667 109.333 -127.334 164 -242.001 164c-121.333 0 -205.333 -49.667 -252 -149c-28.667 -62 -43 -146 -43 -252z" />
    <glyph glyph-name="Itilde" unicode="&#x128;" horiz-adv-x="602" 
d="M385 1470v-1470h-197v1470h197zM570 1880l102.003 0.00195312c-6.66699 -64 -28 -117.5 -64 -160.5s-82.667 -64.5 -140 -64.5c-30.667 0 -70.334 9.33301 -119.001 28l-54 17c-65.333 22 -107.333 33 -126 33c-26 0 -45.833 -7.16699 -59.5 -21.5
s-25.5 -37.5 -35.5 -69.5h-98c9.33301 67.333 29 118.666 59 153.999c36 42.667 87.333 64 154 64c23.333 0 46.166 -2.5 68.499 -7.5s45.833 -12.167 70.5 -21.5l45 -21c16.667 -6.66699 34.5 -12.334 53.5 -17.001s32.833 -7 41.5 -7c35.333 0 61 10.333 77 31
c11.333 13.333 19.666 34.333 24.999 63z" />
    <glyph glyph-name="itilde" unicode="&#x129;" horiz-adv-x="487" 
d="M319 1073v-1073h-180v1073h180zM516 1479h102.003c-8 -63.333 -30.333 -116.166 -67 -158.499s-82.334 -63.5 -137.001 -63.5c-16.667 0 -33.5 1.83301 -50.5 5.5s-41.167 10.167 -72.5 19.5l-54 21c-17.333 5.33301 -38.333 11.333 -63 18s-44.334 10 -59.001 10
c-26 0 -46.5 -7.83301 -61.5 -23.5s-27.5 -37.834 -37.5 -66.501h-98c8 65.333 29.5 118.5 64.5 159.5s84.5 61.5 148.5 61.5c23.333 0 45.833 -3 67.5 -9s45.5 -13.667 71.5 -23l45 -17c48 -19.333 81 -29 99 -29c35.333 0 61 11 77 33c11.333 14 19.666 34.667 24.999 62z
" />
    <glyph glyph-name="Utilde" unicode="&#x168;" horiz-adv-x="1478" 
d="M1109 1470l196.999 -0.000976562v-954c0 -161.333 -47.667 -291.666 -143 -390.999c-105.333 -110.667 -254.333 -166 -447 -166c-186.667 0 -330.667 54 -432 162c-88.667 95.333 -133 219 -133 371v978h197v-925c0 -146 39.333 -253.333 118 -322
c64.667 -56 149.334 -84 254.001 -84c110.667 0 199 26.667 265 80c82.667 68.667 124 176 124 322v929zM985.999 1880l102.999 0.00195312c-7.33301 -64 -29 -117.5 -65 -160.5s-82.667 -64.5 -140 -64.5c-30 0 -69.667 9.33301 -119 28l-53 17c-66 22 -108.333 33 -127 33
c-26 0 -45.833 -7.16699 -59.5 -21.5s-25.167 -37.5 -34.5 -69.5h-99c10 67.333 30 118.666 60 153.999c35.333 42.667 86.333 64 153 64c23.333 0 46.333 -2.5 69 -7.5s46.334 -12.167 71.001 -21.5l45 -21c16 -6.66699 33.667 -12.334 53 -17.001s33 -7 41 -7
c35.333 0 61.333 10.333 78 31c10.667 13.333 18.667 34.333 24 63z" />
    <glyph glyph-name="utilde" unicode="&#x169;" 
d="M1003 0h-172v156l-4 4c-38 -64.667 -83.667 -113 -137 -145s-121 -48 -203 -48c-92.667 0 -169.667 23.333 -231 70c-78 58.667 -117 147.334 -117 266.001v770h180v-713c0 -82.667 20 -143.334 60 -182.001c34 -34 83.667 -51 149 -51c102.667 0 180 39.667 232 119
c42 64 63 143 63 237v590h180v-1073zM856 1479h102.002c-8 -63.333 -30.5 -116.166 -67.5 -158.499s-82.5 -63.5 -136.5 -63.5c-16.667 0 -33.5 1.83301 -50.5 5.5s-41.167 10.167 -72.5 19.5l-54 21c-17.333 5.33301 -38.333 11.333 -63 18s-44.334 10 -59.001 10
c-26 0 -46.5 -7.83301 -61.5 -23.5s-27.5 -37.834 -37.5 -66.501h-98c8 65.333 29.5 118.5 64.5 159.5s84.5 61.5 148.5 61.5c23.333 0 45.833 -3 67.5 -9s45.5 -13.667 71.5 -23l45 -17c48 -19.333 81 -29 99 -29c35.333 0 61 11 77 33c11.333 14 19.666 34.667 24.999 62z
" />
    <glyph glyph-name="Ohorn" unicode="&#x1a0;" horiz-adv-x="1572" 
d="M1233 1376c100.667 -72 177.001 -172.331 229.001 -300.998c44 -106.667 66 -219.334 66 -338.001c0 -198 -50.667 -367.333 -152 -508c-128 -180 -316.333 -270 -565 -270c-247.333 0 -435 89.333 -563 268c-102.667 143.333 -154 313.333 -154 510
c0 195.333 50.667 363.333 152 504c129.333 180 317.666 270 564.999 270c68 0 131 -7.16699 189 -21.5s112.333 -35.833 163 -64.5c8 1.33301 22 9.66602 42 24.999s33.333 26.333 40 33c18 16 30 33.667 36 53s9 41.333 9 66h-115v127h197v-181
c0 -38 -20.333 -77.333 -61 -118c-30.667 -26 -56.667 -44 -78 -54zM1323 737.002c0 176 -44.999 318.667 -134.999 428c-94.667 113.333 -220.334 170 -377.001 170c-156 0 -280.333 -56 -373 -168s-139 -255.333 -139 -430c0 -177.333 45.667 -321.333 137 -432
s216.333 -166 375 -166c156.667 0 281.167 55.667 373.5 167s138.5 255 138.5 431z" />
    <glyph glyph-name="ohorn" unicode="&#x1a1;" 
d="M904 979c7.33301 1.33301 18.5 8.83398 33.5 22.501s27.167 25.167 36.5 34.5c18 16.667 30 34.5 36 53.5s9 40.833 9 65.5h-115v127h197v-180c0 -38.667 -20.333 -78.334 -61 -119.001l-44.5 -39.5c-14.333 -13 -26.833 -21.5 -37.5 -25.5
c36.667 -50.667 64.167 -109.5 82.5 -176.5s27.5 -135.167 27.5 -204.5c0 -152 -40.333 -280.333 -121 -385c-91.333 -120.667 -217.333 -181 -378 -181c-160 0 -285 59.667 -375 179c-80.667 104.667 -121 233.667 -121 387c0 154 39.667 283 119 387
c90 118.667 215.667 178 377 178c142 0 253.667 -41 335 -123zM257 537.001c0 -101.333 19.333 -187.332 58 -257.999c54.667 -101.333 139.334 -152 254.001 -152c113.333 0 197.333 49.667 252 149c39.333 72.667 59 159.667 59 261c0 100.667 -19 186.667 -57 258
c-54.667 100.667 -139.334 151 -254.001 151c-113.333 0 -197.333 -49.667 -252 -149c-40 -72.667 -60 -159.334 -60 -260.001z" />
    <glyph glyph-name="Uhorn" unicode="&#x1af;" horiz-adv-x="1478" 
d="M1306 1401c8 2.66699 18.499 7.66406 31.499 14.9971s24 14.833 33 22.5s15.5 17.334 19.5 29.001s6 22.167 6 31.5v49h-115v127h197v-180c0 -38 -20.333 -77.667 -61 -119c-15.333 -13.333 -34 -25.666 -56 -36.999c-6.66699 -2.66699 -25 -10.667 -55 -24v-799
c0 -161.333 -47.667 -291.666 -143 -390.999c-105.333 -110.667 -254.333 -166 -447 -166c-186.667 0 -330.667 54 -432 162c-88.667 95.333 -133 219 -133 371v978h197v-925c0 -146 39.333 -253.333 118 -322c64.667 -56 149.334 -84 254.001 -84
c110.667 0 199 26.667 265 80c82.667 68.667 124 176 124 322v929h197v-69z" />
    <glyph glyph-name="uhorn" unicode="&#x1b0;" 
d="M1003 1004c8.66699 2.66699 18.999 9.33301 30.999 20c6.66699 8 11.334 13.333 14.001 16c18 16.667 29.333 34.5 34 53.5s7 42.167 7 69.5h-114v127h196v-180c0 -38 -20.333 -77.667 -61 -119c-35.333 -31.333 -71 -54.333 -107 -69v-922h-172v156l-4 4
c-38 -64.667 -83.667 -113 -137 -145s-121 -48 -203 -48c-92.667 0 -169.667 23.333 -231 70c-78 58.667 -117 147.334 -117 266.001v770h180v-713c0 -82.667 20 -143.334 60 -182.001c34 -34 83.667 -51 149 -51c102.667 0 180 39.667 232 119c42 64 63 143 63 237v590h180
v-69z" />
    <glyph glyph-name="uni1EA0" unicode="&#x1ea0;" horiz-adv-x="1454" 
d="M978 430h-590l-155 -430h-205l553 1470h225l533 -1470h-217zM450 606h455l-218 647zM773 -348h-180v205h180v-205z" />
    <glyph glyph-name="uni1EA1" unicode="&#x1ea1;" horiz-adv-x="1175" 
d="M294 745l-167.998 0.00195312c0 123.333 41 215 123 275c75.333 54.667 182 82 320 82c87.333 0 163.666 -15 228.999 -45c112 -50.667 168 -135.334 168 -254.001v-615c0 -43.333 20.333 -65 61 -65l58 8v-131l-48.5 -13c-17 -4.66699 -33.833 -7 -50.5 -7
c-72 0 -123 17 -153 51c-23.333 26 -35 63.333 -35 112c-48 -50 -95 -88 -141 -114c-74 -41.333 -156.667 -62 -248 -62c-98.667 0 -179.334 28.667 -242.001 86s-94 132.666 -94 225.999c0 72 17 134 51 186c54.667 83.333 147 133 277 149l295 37
c28.667 2.66699 49.667 11 63 25c20.667 20.667 31 54.667 31 102c0 117.333 -83.333 176 -250 176c-88.667 0 -153.667 -24.333 -195 -73c-24 -30 -41 -75.333 -51 -136zM786.002 373.002l-0.000976562 176c-15.333 -14 -42.166 -25.667 -80.499 -35
s-104.833 -20.166 -199.5 -32.499s-159.167 -32.833 -193.5 -61.5s-51.5 -66.334 -51.5 -113.001c0 -61.333 15.5 -108 46.5 -140s79.833 -48 146.5 -48c87.333 0 164.5 24.5 231.5 73.5s100.5 109.167 100.5 180.5zM641.001 -343.998h-181v205h181v-205z" />
    <glyph glyph-name="uni1EA2" unicode="&#x1ea2;" horiz-adv-x="1454" 
d="M978 430h-590l-155 -430h-205l553 1470h225l533 -1470h-217zM450 606h455l-218 647zM743 1550l-117.001 0.000976562c0 52 5.5 93.333 16.5 124s36 59.667 75 87s58.5 58 58.5 92c0 33.333 -9 57.166 -27 71.499s-38.667 21.5 -62 21.5
c-36.667 0 -62.167 -10.333 -76.5 -31s-21.5 -46 -21.5 -76l-131 -2c0 74 24 130 72 168c40.667 32.667 90.334 49 149.001 49c52 0 97.667 -10.333 137 -31c66 -34 99 -89 99 -165c0 -36 -8.5 -66.167 -25.5 -90.5s-45.667 -50.833 -86 -79.5s-60.5 -74.667 -60.5 -138z
" />
    <glyph glyph-name="uni1EA3" unicode="&#x1ea3;" horiz-adv-x="1175" 
d="M294 745l-167.998 0.00195312c0 123.333 41 215 123 275c75.333 54.667 182 82 320 82c87.333 0 163.666 -15 228.999 -45c112 -50.667 168 -135.334 168 -254.001v-615c0 -43.333 20.333 -65 61 -65l58 8v-131l-48.5 -13c-17 -4.66699 -33.833 -7 -50.5 -7
c-72 0 -123 17 -153 51c-23.333 26 -35 63.333 -35 112c-48 -50 -95 -88 -141 -114c-74 -41.333 -156.667 -62 -248 -62c-98.667 0 -179.334 28.667 -242.001 86s-94 132.666 -94 225.999c0 72 17 134 51 186c54.667 83.333 147 133 277 149l295 37
c28.667 2.66699 49.667 11 63 25c20.667 20.667 31 54.667 31 102c0 117.333 -83.333 176 -250 176c-88.667 0 -153.667 -24.333 -195 -73c-24 -30 -41 -75.333 -51 -136zM786.002 373.002l-0.000976562 176c-15.333 -14 -42.166 -25.667 -80.499 -35
s-104.833 -20.166 -199.5 -32.499s-159.167 -32.833 -193.5 -61.5s-51.5 -66.334 -51.5 -113.001c0 -61.333 15.5 -108 46.5 -140s79.833 -48 146.5 -48c87.333 0 164.5 24.5 231.5 73.5s100.5 109.167 100.5 180.5zM591.001 1178h-121.002c0 47.333 5.16699 83 15.5 107
s35.333 50 75 78s59.5 59 59.5 93c0 32.667 -8.83301 56.167 -26.5 70.5s-38.167 21.5 -61.5 21.5c-37.333 0 -63.166 -10.167 -77.499 -30.5s-21.5 -45.5 -21.5 -75.5l-131 -2c0 73.333 24 129.333 72 168c40.667 32.667 90.667 49 150 49c51.333 0 97 -10.333 137 -31
c65.333 -34 98 -89.333 98 -166c0 -35.333 -8.5 -65.333 -25.5 -90s-45.5 -51.334 -85.5 -80.001c-21.333 -14.667 -36.166 -29.167 -44.499 -43.5s-12.5 -37.166 -12.5 -68.499z" />
    <glyph glyph-name="uni1EA4" unicode="&#x1ea4;" horiz-adv-x="1454" 
d="M978 430h-590l-155 -430h-205l553 1470h225l533 -1470h-217zM450 606h455l-218 647zM1302 2126l-266 -291h-136l181 291h221zM683 1810l-135 -192h-164l205 291h189l204 -291h-163z" />
    <glyph glyph-name="uni1EA5" unicode="&#x1ea5;" horiz-adv-x="1175" 
d="M294 745l-167.998 0.00195312c0 123.333 41 215 123 275c75.333 54.667 182 82 320 82c87.333 0 163.666 -15 228.999 -45c112 -50.667 168 -135.334 168 -254.001v-615c0 -43.333 20.333 -65 61 -65l58 8v-131l-48.5 -13c-17 -4.66699 -33.833 -7 -50.5 -7
c-72 0 -123 17 -153 51c-23.333 26 -35 63.333 -35 112c-48 -50 -95 -88 -141 -114c-74 -41.333 -156.667 -62 -248 -62c-98.667 0 -179.334 28.667 -242.001 86s-94 132.666 -94 225.999c0 72 17 134 51 186c54.667 83.333 147 133 277 149l295 37
c28.667 2.66699 49.667 11 63 25c20.667 20.667 31 54.667 31 102c0 117.333 -83.333 176 -250 176c-88.667 0 -153.667 -24.333 -195 -73c-24 -30 -41 -75.333 -51 -136zM786.002 373.002l-0.000976562 176c-15.333 -14 -42.166 -25.667 -80.499 -35
s-104.833 -20.166 -199.5 -32.499s-159.167 -32.833 -193.5 -61.5s-51.5 -66.334 -51.5 -113.001c0 -61.333 15.5 -108 46.5 -140s79.833 -48 146.5 -48c87.333 0 164.5 24.5 231.5 73.5s100.5 109.167 100.5 180.5zM731.001 1428l180 286h226l-271 -286h-135zM552.001 1384
l-135 -188h-160l201 287h193l200 -287h-164z" />
    <glyph glyph-name="uni1EA6" unicode="&#x1ea6;" horiz-adv-x="1454" 
d="M978 430h-590l-155 -430h-205l553 1470h225l533 -1470h-217zM450 606h455l-218 647zM934 1868l-266 291h221l181 -291h-136zM683 1810l-135 -192h-164l205 291h189l204 -291h-163z" />
    <glyph glyph-name="uni1EA7" unicode="&#x1ea7;" horiz-adv-x="1175" 
d="M294 745l-167.998 0.00195312c0 123.333 41 215 123 275c75.333 54.667 182 82 320 82c87.333 0 163.666 -15 228.999 -45c112 -50.667 168 -135.334 168 -254.001v-615c0 -43.333 20.333 -65 61 -65l58 8v-131l-48.5 -13c-17 -4.66699 -33.833 -7 -50.5 -7
c-72 0 -123 17 -153 51c-23.333 26 -35 63.333 -35 112c-48 -50 -95 -88 -141 -114c-74 -41.333 -156.667 -62 -248 -62c-98.667 0 -179.334 28.667 -242.001 86s-94 132.666 -94 225.999c0 72 17 134 51 186c54.667 83.333 147 133 277 149l295 37
c28.667 2.66699 49.667 11 63 25c20.667 20.667 31 54.667 31 102c0 117.333 -83.333 176 -250 176c-88.667 0 -153.667 -24.333 -195 -73c-24 -30 -41 -75.333 -51 -136zM786.002 373.002l-0.000976562 176c-15.333 -14 -42.166 -25.667 -80.499 -35
s-104.833 -20.166 -199.5 -32.499s-159.167 -32.833 -193.5 -61.5s-51.5 -66.334 -51.5 -113.001c0 -61.333 15.5 -108 46.5 -140s79.833 -48 146.5 -48c87.333 0 164.5 24.5 231.5 73.5s100.5 109.167 100.5 180.5zM782.001 1417l-271 286h225l181 -286h-135zM552.001 1384
l-135 -188h-160l201 287h193l200 -287h-164z" />
    <glyph glyph-name="uni1EA8" unicode="&#x1ea8;" horiz-adv-x="1454" 
d="M978 430h-590l-155 -430h-205l553 1470h225l533 -1470h-217zM450 606h455l-218 647zM683 1810l-135 -192h-164l205 291h189l204 -291h-163zM1014 1831h-117.001c0 52 5.5 93.333 16.5 124s36 59.667 75 87s58.5 58 58.5 92c0 33.333 -9 57.166 -27 71.5
c-18 14.333 -38.667 21.5 -62 21.5c-36.667 0 -62.167 -10.333 -76.5 -31s-21.5 -46 -21.5 -76l-131 -2c0 74 24 130 72 168c40.667 32.667 90.334 49 149.001 49c52 0 97.667 -10.333 137 -31c66 -34 99 -89 99 -165c0 -36 -8.5 -66.167 -25.5 -90.5
s-45.667 -50.833 -86 -79.5s-60.5 -74.667 -60.5 -138z" />
    <glyph glyph-name="uni1EA9" unicode="&#x1ea9;" horiz-adv-x="1175" 
d="M294 745l-167.998 0.00195312c0 123.333 41 215 123 275c75.333 54.667 182 82 320 82c87.333 0 163.666 -15 228.999 -45c112 -50.667 168 -135.334 168 -254.001v-615c0 -43.333 20.333 -65 61 -65l58 8v-131l-48.5 -13c-17 -4.66699 -33.833 -7 -50.5 -7
c-72 0 -123 17 -153 51c-23.333 26 -35 63.333 -35 112c-48 -50 -95 -88 -141 -114c-74 -41.333 -156.667 -62 -248 -62c-98.667 0 -179.334 28.667 -242.001 86s-94 132.666 -94 225.999c0 72 17 134 51 186c54.667 83.333 147 133 277 149l295 37
c28.667 2.66699 49.667 11 63 25c20.667 20.667 31 54.667 31 102c0 117.333 -83.333 176 -250 176c-88.667 0 -153.667 -24.333 -195 -73c-24 -30 -41 -75.333 -51 -136zM786.002 373.002l-0.000976562 176c-15.333 -14 -42.166 -25.667 -80.499 -35
s-104.833 -20.166 -199.5 -32.499s-159.167 -32.833 -193.5 -61.5s-51.5 -66.334 -51.5 -113.001c0 -61.333 15.5 -108 46.5 -140s79.833 -48 146.5 -48c87.333 0 164.5 24.5 231.5 73.5s100.5 109.167 100.5 180.5zM872.001 1409h-121.002c0 47.333 5.16699 83 15.5 107
s35.333 50 75 78s59.5 59 59.5 93c0 32.667 -8.83301 56.167 -26.5 70.5s-38.167 21.5 -61.5 21.5c-37.333 0 -63.166 -10.167 -77.499 -30.5s-21.5 -45.5 -21.5 -75.5l-131 -2c0 73.333 24 129.333 72 168c40.667 32.667 90.667 49 150 49c51.333 0 97 -10.333 137 -31
c65.333 -34 98 -89.333 98 -166c0 -35.333 -8.5 -65.333 -25.5 -90s-45.5 -51.334 -85.5 -80.001c-21.333 -14.667 -36.166 -29.167 -44.499 -43.5s-12.5 -37.166 -12.5 -68.499zM551.999 1384l-135 -188h-160l201 287h193l200 -287h-164z" />
    <glyph glyph-name="uni1EAA" unicode="&#x1eaa;" horiz-adv-x="1454" 
d="M978 430h-590l-155 -430h-205l553 1470h225l533 -1470h-217zM450 606h455l-218 647zM683 1810l-135 -192h-164l205 291h189l204 -291h-163zM1022 2211l102 0.000976562c-6.66699 -64 -28.167 -117.5 -64.5 -160.5s-83.166 -64.5 -140.499 -64.5
c-30 0 -69.667 9.33301 -119 28l-53 17c-65.333 22 -107.666 33 -126.999 33c-26 0 -45.833 -7.16699 -59.5 -21.5s-25.167 -37.5 -34.5 -69.5h-98c9.33301 67.333 29 118.666 59 153.999c35.333 42.667 86.666 64 153.999 64c23.333 0 46.166 -2.5 68.499 -7.5
s45.833 -12.167 70.5 -21.5l45 -21c16.667 -6.66699 34.5 -12.334 53.5 -17c19 -4.66699 32.5 -7 40.5 -7c35.333 0 61.333 10.333 78 31c10.667 13.333 19 34.333 25 63z" />
    <glyph glyph-name="uni1EAB" unicode="&#x1eab;" horiz-adv-x="1175" 
d="M294 745l-167.998 0.00195312c0 123.333 41 215 123 275c75.333 54.667 182 82 320 82c87.333 0 163.666 -15 228.999 -45c112 -50.667 168 -135.334 168 -254.001v-615c0 -43.333 20.333 -65 61 -65l58 8v-131l-48.5 -13c-17 -4.66699 -33.833 -7 -50.5 -7
c-72 0 -123 17 -153 51c-23.333 26 -35 63.333 -35 112c-48 -50 -95 -88 -141 -114c-74 -41.333 -156.667 -62 -248 -62c-98.667 0 -179.334 28.667 -242.001 86s-94 132.666 -94 225.999c0 72 17 134 51 186c54.667 83.333 147 133 277 149l295 37
c28.667 2.66699 49.667 11 63 25c20.667 20.667 31 54.667 31 102c0 117.333 -83.333 176 -250 176c-88.667 0 -153.667 -24.333 -195 -73c-24 -30 -41 -75.333 -51 -136zM786.002 373.002l-0.000976562 176c-15.333 -14 -42.166 -25.667 -80.499 -35
s-104.833 -20.166 -199.5 -32.499s-159.167 -32.833 -193.5 -61.5s-51.5 -66.334 -51.5 -113.001c0 -61.333 15.5 -108 46.5 -140s79.833 -48 146.5 -48c87.333 0 164.5 24.5 231.5 73.5s100.5 109.167 100.5 180.5zM890.001 1730h103.002
c-8.66699 -63.333 -31.334 -116.166 -68.001 -158.499s-82.334 -63.5 -137.001 -63.5c-16.667 0 -33.5 1.83301 -50.5 5.5s-41.167 10.167 -72.5 19.5l-53 21c-18 5.33301 -39.333 11.333 -64 18s-44.334 10 -59.001 10c-26 0 -46.5 -7.83301 -61.5 -23.5
s-27.167 -37.834 -36.5 -66.501h-99c8.66699 65.333 30.334 118.5 65.001 159.5s84 61.5 148 61.5c23.333 0 46 -3 68 -9s46 -13.667 72 -23l45 -17c47.333 -19.333 80 -29 98 -29c35.333 0 61.333 11 78 33c10.667 14 18.667 34.667 24 62zM552.003 1384l-135 -188h-160
l201 287h193l200 -287h-164z" />
    <glyph glyph-name="uni1EAC" unicode="&#x1eac;" horiz-adv-x="1454" 
d="M978 430h-590l-155 -430h-205l553 1470h225l533 -1470h-217zM450 606h455l-218 647zM773 -348h-180v205h180v-205zM683 1810l-135 -192h-164l205 291h189l204 -291h-163z" />
    <glyph glyph-name="uni1EAD" unicode="&#x1ead;" horiz-adv-x="1175" 
d="M294 745l-167.998 0.00195312c0 123.333 41 215 123 275c75.333 54.667 182 82 320 82c87.333 0 163.666 -15 228.999 -45c112 -50.667 168 -135.334 168 -254.001v-615c0 -43.333 20.333 -65 61 -65l58 8v-131l-48.5 -13c-17 -4.66699 -33.833 -7 -50.5 -7
c-72 0 -123 17 -153 51c-23.333 26 -35 63.333 -35 112c-48 -50 -95 -88 -141 -114c-74 -41.333 -156.667 -62 -248 -62c-98.667 0 -179.334 28.667 -242.001 86s-94 132.666 -94 225.999c0 72 17 134 51 186c54.667 83.333 147 133 277 149l295 37
c28.667 2.66699 49.667 11 63 25c20.667 20.667 31 54.667 31 102c0 117.333 -83.333 176 -250 176c-88.667 0 -153.667 -24.333 -195 -73c-24 -30 -41 -75.333 -51 -136zM786.002 373.002l-0.000976562 176c-15.333 -14 -42.166 -25.667 -80.499 -35
s-104.833 -20.166 -199.5 -32.499s-159.167 -32.833 -193.5 -61.5s-51.5 -66.334 -51.5 -113.001c0 -61.333 15.5 -108 46.5 -140s79.833 -48 146.5 -48c87.333 0 164.5 24.5 231.5 73.5s100.5 109.167 100.5 180.5zM641.001 -343.998h-181v205h181v-205zM552.001 1384
l-135 -188h-160l201 287h193l200 -287h-164z" />
    <glyph glyph-name="uni1EAE" unicode="&#x1eae;" horiz-adv-x="1454" 
d="M978 430h-590l-155 -430h-205l553 1470h225l533 -1470h-217zM450 606h455l-218 647zM1011 2126l-266 -291h-136l181 291h221zM900 1839l99.002 0.00390625c-12.667 -96.667 -48.334 -168.334 -107.001 -215.001c-53.333 -42 -127 -63 -221 -63
c-90 0 -160.333 22.5 -211 67.5s-81.334 115.167 -92.001 210.5h98c7.33301 -20.667 13 -35.667 17 -45c9.33301 -20.667 20 -38.334 32 -53.001c18 -20.667 40.667 -36.834 68 -48.501s62 -17.5 104 -17.5c71.333 0 124.666 19.333 159.999 58
c20.667 21.333 38.334 56.666 53.001 105.999z" />
    <glyph glyph-name="uni1EAF" unicode="&#x1eaf;" horiz-adv-x="1175" 
d="M294 745l-167.998 0.00195312c0 123.333 41 215 123 275c75.333 54.667 182 82 320 82c87.333 0 163.666 -15 228.999 -45c112 -50.667 168 -135.334 168 -254.001v-615c0 -43.333 20.333 -65 61 -65l58 8v-131l-48.5 -13c-17 -4.66699 -33.833 -7 -50.5 -7
c-72 0 -123 17 -153 51c-23.333 26 -35 63.333 -35 112c-48 -50 -95 -88 -141 -114c-74 -41.333 -156.667 -62 -248 -62c-98.667 0 -179.334 28.667 -242.001 86s-94 132.666 -94 225.999c0 72 17 134 51 186c54.667 83.333 147 133 277 149l295 37
c28.667 2.66699 49.667 11 63 25c20.667 20.667 31 54.667 31 102c0 117.333 -83.333 176 -250 176c-88.667 0 -153.667 -24.333 -195 -73c-24 -30 -41 -75.333 -51 -136zM786.002 373.002l-0.000976562 176c-15.333 -14 -42.166 -25.667 -80.499 -35
s-104.833 -20.166 -199.5 -32.499s-159.167 -32.833 -193.5 -61.5s-51.5 -66.334 -51.5 -113.001c0 -61.333 15.5 -108 46.5 -140s79.833 -48 146.5 -48c87.333 0 164.5 24.5 231.5 73.5s100.5 109.167 100.5 180.5zM480.001 1458l180 286h226l-271 -286h-135zM760.001 1475
h98.0029c-12.667 -97.333 -48.334 -169 -107.001 -215c-53.333 -42.667 -127 -64 -221 -64c-90 0 -160.333 22.5 -211 67.5s-81.334 115.5 -92.001 211.5h98c7.33301 -20.667 13 -35.667 17 -45c9.33301 -20.667 20.333 -38.667 33 -54
c17.333 -20 39.666 -35.833 66.999 -47.5s62.333 -17.5 105 -17.5c70.667 0 123.667 19 159 57c20.667 22 38.667 57.667 54 107z" />
    <glyph glyph-name="uni1EB0" unicode="&#x1eb0;" horiz-adv-x="1454" 
d="M978 430h-590l-155 -430h-205l553 1470h225l533 -1470h-217zM450 606h455l-218 647zM633 1868l-266 291h221l181 -291h-136zM900 1839l99.002 0.00390625c-12.667 -96.667 -48.334 -168.334 -107.001 -215.001c-53.333 -42 -127 -63 -221 -63
c-90 0 -160.333 22.5 -211 67.5s-81.334 115.167 -92.001 210.5h98c7.33301 -20.667 13 -35.667 17 -45c9.33301 -20.667 20 -38.334 32 -53.001c18 -20.667 40.667 -36.834 68 -48.501s62 -17.5 104 -17.5c71.333 0 124.666 19.333 159.999 58
c20.667 21.333 38.334 56.666 53.001 105.999z" />
    <glyph glyph-name="uni1EB1" unicode="&#x1eb1;" horiz-adv-x="1175" 
d="M294 745l-167.998 0.00195312c0 123.333 41 215 123 275c75.333 54.667 182 82 320 82c87.333 0 163.666 -15 228.999 -45c112 -50.667 168 -135.334 168 -254.001v-615c0 -43.333 20.333 -65 61 -65l58 8v-131l-48.5 -13c-17 -4.66699 -33.833 -7 -50.5 -7
c-72 0 -123 17 -153 51c-23.333 26 -35 63.333 -35 112c-48 -50 -95 -88 -141 -114c-74 -41.333 -156.667 -62 -248 -62c-98.667 0 -179.334 28.667 -242.001 86s-94 132.666 -94 225.999c0 72 17 134 51 186c54.667 83.333 147 133 277 149l295 37
c28.667 2.66699 49.667 11 63 25c20.667 20.667 31 54.667 31 102c0 117.333 -83.333 176 -250 176c-88.667 0 -153.667 -24.333 -195 -73c-24 -30 -41 -75.333 -51 -136zM786.002 373.002l-0.000976562 176c-15.333 -14 -42.166 -25.667 -80.499 -35
s-104.833 -20.166 -199.5 -32.499s-159.167 -32.833 -193.5 -61.5s-51.5 -66.334 -51.5 -113.001c0 -61.333 15.5 -108 46.5 -140s79.833 -48 146.5 -48c87.333 0 164.5 24.5 231.5 73.5s100.5 109.167 100.5 180.5zM501.001 1457l-271 286h225l181 -286h-135zM760.001 1475
h98.0029c-12.667 -97.333 -48.334 -169 -107.001 -215c-53.333 -42.667 -127 -64 -221 -64c-90 0 -160.333 22.5 -211 67.5s-81.334 115.5 -92.001 211.5h98c7.33301 -20.667 13 -35.667 17 -45c9.33301 -20.667 20.333 -38.667 33 -54
c17.333 -20 39.666 -35.833 66.999 -47.5s62.333 -17.5 105 -17.5c70.667 0 123.667 19 159 57c20.667 22 38.667 57.667 54 107z" />
    <glyph glyph-name="uni1EB2" unicode="&#x1eb2;" horiz-adv-x="1454" 
d="M978 430h-590l-155 -430h-205l553 1470h225l533 -1470h-217zM450 606h455l-218 647zM733 1811h-117.001c0 52 5.5 93.333 16.5 124s36 59.667 75 87s58.5 58 58.5 92c0 33.333 -9 57.166 -27 71.5c-18 14.333 -38.667 21.5 -62 21.5c-36.667 0 -62.167 -10.333 -76.5 -31
s-21.5 -46 -21.5 -76l-131 -2c0 74 24 130 72 168c40.667 32.667 90.334 49 149.001 49c52 0 97.667 -10.333 137 -31c66 -34 99 -89 99 -165c0 -36 -8.5 -66.167 -25.5 -90.5s-45.667 -50.833 -86 -79.5s-60.5 -74.667 -60.5 -138zM899.999 1839l99.002 0.00390625
c-12.667 -96.667 -48.334 -168.334 -107.001 -215.001c-53.333 -42 -127 -63 -221 -63c-90 0 -160.333 22.5 -211 67.5s-81.334 115.167 -92.001 210.5h98c7.33301 -20.667 13 -35.667 17 -45c9.33301 -20.667 20 -38.334 32 -53.001c18 -20.667 40.667 -36.834 68 -48.501
s62 -17.5 104 -17.5c71.333 0 124.666 19.333 159.999 58c20.667 21.333 38.334 56.666 53.001 105.999z" />
    <glyph glyph-name="uni1EB3" unicode="&#x1eb3;" horiz-adv-x="1175" 
d="M294 745l-167.998 0.00195312c0 123.333 41 215 123 275c75.333 54.667 182 82 320 82c87.333 0 163.666 -15 228.999 -45c112 -50.667 168 -135.334 168 -254.001v-615c0 -43.333 20.333 -65 61 -65l58 8v-131l-48.5 -13c-17 -4.66699 -33.833 -7 -50.5 -7
c-72 0 -123 17 -153 51c-23.333 26 -35 63.333 -35 112c-48 -50 -95 -88 -141 -114c-74 -41.333 -156.667 -62 -248 -62c-98.667 0 -179.334 28.667 -242.001 86s-94 132.666 -94 225.999c0 72 17 134 51 186c54.667 83.333 147 133 277 149l295 37
c28.667 2.66699 49.667 11 63 25c20.667 20.667 31 54.667 31 102c0 117.333 -83.333 176 -250 176c-88.667 0 -153.667 -24.333 -195 -73c-24 -30 -41 -75.333 -51 -136zM786.002 373.002l-0.000976562 176c-15.333 -14 -42.166 -25.667 -80.499 -35
s-104.833 -20.166 -199.5 -32.499s-159.167 -32.833 -193.5 -61.5s-51.5 -66.334 -51.5 -113.001c0 -61.333 15.5 -108 46.5 -140s79.833 -48 146.5 -48c87.333 0 164.5 24.5 231.5 73.5s100.5 109.167 100.5 180.5zM611.001 1469h-121.002c0 47.333 5.16699 83 15.5 107
s35.333 50 75 78s59.5 59 59.5 93c0 32.667 -8.83301 56.167 -26.5 70.5s-38.167 21.5 -61.5 21.5c-37.333 0 -63.166 -10.167 -77.499 -30.5s-21.5 -45.5 -21.5 -75.5l-131 -2c0 73.333 24 129.333 72 168c40.667 32.667 90.667 49 150 49c51.333 0 97 -10.333 137 -31
c65.333 -34 98 -89.333 98 -166c0 -35.333 -8.5 -65.333 -25.5 -90s-45.5 -51.334 -85.5 -80.001c-21.333 -14.667 -36.166 -29.167 -44.499 -43.5s-12.5 -37.166 -12.5 -68.499zM759.999 1475h98.0029c-12.667 -97.333 -48.334 -169 -107.001 -215
c-53.333 -42.667 -127 -64 -221 -64c-90 0 -160.333 22.5 -211 67.5s-81.334 115.5 -92.001 211.5h98c7.33301 -20.667 13 -35.667 17 -45c9.33301 -20.667 20.333 -38.667 33 -54c17.333 -20 39.666 -35.833 66.999 -47.5s62.333 -17.5 105 -17.5
c70.667 0 123.667 19 159 57c20.667 22 38.667 57.667 54 107z" />
    <glyph glyph-name="uni1EB4" unicode="&#x1eb4;" horiz-adv-x="1454" 
d="M978 430h-590l-155 -430h-205l553 1470h225l533 -1470h-217zM450 606h455l-218 647zM1042 2141l102 0.000976562c-6.66699 -64 -28.167 -117.5 -64.5 -160.5s-83.166 -64.5 -140.499 -64.5c-30 0 -69.667 9.33301 -119 28l-53 17c-65.333 22 -107.666 33 -126.999 33
c-26 0 -45.833 -7.16699 -59.5 -21.5s-25.167 -37.5 -34.5 -69.5h-98c9.33301 67.333 29 118.666 59 153.999c35.333 42.667 86.666 64 153.999 64c23.333 0 46.166 -2.5 68.499 -7.5s45.833 -12.167 70.5 -21.5l45 -21c16.667 -6.66699 34.5 -12.334 53.5 -17
c19 -4.66699 32.5 -7 40.5 -7c35.333 0 61.333 10.333 78 31c10.667 13.333 19 34.333 25 63zM900 1839l99.002 0.00390625c-12.667 -96.667 -48.334 -168.334 -107.001 -215.001c-53.333 -42 -127 -63 -221 -63c-90 0 -160.333 22.5 -211 67.5
s-81.334 115.167 -92.001 210.5h98c7.33301 -20.667 13 -35.667 17 -45c9.33301 -20.667 20 -38.334 32 -53.001c18 -20.667 40.667 -36.834 68 -48.501s62 -17.5 104 -17.5c71.333 0 124.666 19.333 159.999 58c20.667 21.333 38.334 56.666 53.001 105.999z" />
    <glyph glyph-name="uni1EB5" unicode="&#x1eb5;" horiz-adv-x="1175" 
d="M294 745l-167.998 0.00195312c0 123.333 41 215 123 275c75.333 54.667 182 82 320 82c87.333 0 163.666 -15 228.999 -45c112 -50.667 168 -135.334 168 -254.001v-615c0 -43.333 20.333 -65 61 -65l58 8v-131l-48.5 -13c-17 -4.66699 -33.833 -7 -50.5 -7
c-72 0 -123 17 -153 51c-23.333 26 -35 63.333 -35 112c-48 -50 -95 -88 -141 -114c-74 -41.333 -156.667 -62 -248 -62c-98.667 0 -179.334 28.667 -242.001 86s-94 132.666 -94 225.999c0 72 17 134 51 186c54.667 83.333 147 133 277 149l295 37
c28.667 2.66699 49.667 11 63 25c20.667 20.667 31 54.667 31 102c0 117.333 -83.333 176 -250 176c-88.667 0 -153.667 -24.333 -195 -73c-24 -30 -41 -75.333 -51 -136zM786.002 373.002l-0.000976562 176c-15.333 -14 -42.166 -25.667 -80.499 -35
s-104.833 -20.166 -199.5 -32.499s-159.167 -32.833 -193.5 -61.5s-51.5 -66.334 -51.5 -113.001c0 -61.333 15.5 -108 46.5 -140s79.833 -48 146.5 -48c87.333 0 164.5 24.5 231.5 73.5s100.5 109.167 100.5 180.5zM900.001 1760h103.002
c-8.66699 -63.333 -31.334 -116.166 -68.001 -158.499s-82.334 -63.5 -137.001 -63.5c-16.667 0 -33.5 1.83301 -50.5 5.5s-41.167 10.167 -72.5 19.5l-53 21c-18 5.33301 -39.333 11.333 -64 18s-44.334 10 -59.001 10c-26 0 -46.5 -7.83301 -61.5 -23.5
s-27.167 -37.834 -36.5 -66.501h-99c8.66699 65.333 30.334 118.5 65.001 159.5s84 61.5 148 61.5c23.333 0 46 -3 68 -9s46 -13.667 72 -23l45 -17c47.333 -19.333 80 -29 98 -29c35.333 0 61.333 11 78 33c10.667 14 18.667 34.667 24 62zM760.003 1475h98.0029
c-12.667 -97.333 -48.334 -169 -107.001 -215c-53.333 -42.667 -127 -64 -221 -64c-90 0 -160.333 22.5 -211 67.5s-81.334 115.5 -92.001 211.5h98c7.33301 -20.667 13 -35.667 17 -45c9.33301 -20.667 20.333 -38.667 33 -54c17.333 -20 39.666 -35.833 66.999 -47.5
s62.333 -17.5 105 -17.5c70.667 0 123.667 19 159 57c20.667 22 38.667 57.667 54 107z" />
    <glyph glyph-name="uni1EB6" unicode="&#x1eb6;" horiz-adv-x="1454" 
d="M978 430h-590l-155 -430h-205l553 1470h225l533 -1470h-217zM450 606h455l-218 647zM773 -348h-180v205h180v-205zM900 1839l99.002 0.00390625c-12.667 -96.667 -48.334 -168.334 -107.001 -215.001c-53.333 -42 -127 -63 -221 -63c-90 0 -160.333 22.5 -211 67.5
s-81.334 115.167 -92.001 210.5h98c7.33301 -20.667 13 -35.667 17 -45c9.33301 -20.667 20 -38.334 32 -53.001c18 -20.667 40.667 -36.834 68 -48.501s62 -17.5 104 -17.5c71.333 0 124.666 19.333 159.999 58c20.667 21.333 38.334 56.666 53.001 105.999z" />
    <glyph glyph-name="uni1EB7" unicode="&#x1eb7;" horiz-adv-x="1175" 
d="M294 745l-167.998 0.00195312c0 123.333 41 215 123 275c75.333 54.667 182 82 320 82c87.333 0 163.666 -15 228.999 -45c112 -50.667 168 -135.334 168 -254.001v-615c0 -43.333 20.333 -65 61 -65l58 8v-131l-48.5 -13c-17 -4.66699 -33.833 -7 -50.5 -7
c-72 0 -123 17 -153 51c-23.333 26 -35 63.333 -35 112c-48 -50 -95 -88 -141 -114c-74 -41.333 -156.667 -62 -248 -62c-98.667 0 -179.334 28.667 -242.001 86s-94 132.666 -94 225.999c0 72 17 134 51 186c54.667 83.333 147 133 277 149l295 37
c28.667 2.66699 49.667 11 63 25c20.667 20.667 31 54.667 31 102c0 117.333 -83.333 176 -250 176c-88.667 0 -153.667 -24.333 -195 -73c-24 -30 -41 -75.333 -51 -136zM786.002 373.002l-0.000976562 176c-15.333 -14 -42.166 -25.667 -80.499 -35
s-104.833 -20.166 -199.5 -32.499s-159.167 -32.833 -193.5 -61.5s-51.5 -66.334 -51.5 -113.001c0 -61.333 15.5 -108 46.5 -140s79.833 -48 146.5 -48c87.333 0 164.5 24.5 231.5 73.5s100.5 109.167 100.5 180.5zM641.001 -343.998h-181v205h181v-205zM760.001 1475
h98.0029c-12.667 -97.333 -48.334 -169 -107.001 -215c-53.333 -42.667 -127 -64 -221 -64c-90 0 -160.333 22.5 -211 67.5s-81.334 115.5 -92.001 211.5h98c7.33301 -20.667 13 -35.667 17 -45c9.33301 -20.667 20.333 -38.667 33 -54
c17.333 -20 39.666 -35.833 66.999 -47.5s62.333 -17.5 105 -17.5c70.667 0 123.667 19 159 57c20.667 22 38.667 57.667 54 107z" />
    <glyph glyph-name="uni1EB8" unicode="&#x1eb8;" horiz-adv-x="1454" 
d="M1261 176v-176h-1085v1470h1073v-176h-872v-450h803v-176h-803v-492h884zM774 -348h-180v205h180v-205z" />
    <glyph glyph-name="uni1EB9" unicode="&#x1eb9;" 
d="M863 336h181.001c-7.33301 -41.333 -23.333 -84.333 -48 -129c-36.667 -68.667 -85 -122.667 -145 -162c-36.667 -24.667 -69.334 -41.667 -98.001 -51c-52 -18 -116.333 -27 -193 -27c-147.333 0 -264 50.167 -350 150.5s-129 230.5 -129 390.5
c0 177.333 41 318 123 422c90 114.667 221 172 393 172c150 0 264 -55.667 342 -167s117 -263.333 117 -456h-782c0 -113.333 26.167 -200.333 78.5 -261s129.833 -91 232.5 -91c79.333 0 146.333 24.667 201 74c46 42 71.667 87 77 135zM274.001 623h598
c0 91.333 -22.667 165 -68 221c-52 65.333 -129 98 -231 98c-82 0 -152.333 -32 -211 -96s-88 -138.333 -88 -223zM659.001 -344h-181v205h181v-205z" />
    <glyph glyph-name="uni1EBA" unicode="&#x1eba;" horiz-adv-x="1454" 
d="M1261 176v-176h-1085v1470h1073v-176h-872v-450h803v-176h-803v-492h884zM743 1550l-116 0.000976562c0 52 5.33301 93.333 16 124s35.5 59.667 74.5 87s58.5 58 58.5 92c0 33.333 -8.83301 57.166 -26.5 71.499s-38.167 21.5 -61.5 21.5
c-36.667 0 -62.167 -10.333 -76.5 -31s-21.5 -46 -21.5 -76l-131 -2c0 74 23.667 130 71 168c41.333 32.667 91.333 49 150 49c52 0 97.667 -10.333 137 -31c65.333 -34 98 -89 98 -165c0 -36 -8.5 -66.167 -25.5 -90.5s-45.667 -50.833 -86 -79.5s-60.5 -74.667 -60.5 -138
z" />
    <glyph glyph-name="uni1EBB" unicode="&#x1ebb;" 
d="M863 336h181.001c-7.33301 -41.333 -23.333 -84.333 -48 -129c-36.667 -68.667 -85 -122.667 -145 -162c-36.667 -24.667 -69.334 -41.667 -98.001 -51c-52 -18 -116.333 -27 -193 -27c-147.333 0 -264 50.167 -350 150.5s-129 230.5 -129 390.5
c0 177.333 41 318 123 422c90 114.667 221 172 393 172c150 0 264 -55.667 342 -167s117 -263.333 117 -456h-782c0 -113.333 26.167 -200.333 78.5 -261s129.833 -91 232.5 -91c79.333 0 146.333 24.667 201 74c46 42 71.667 87 77 135zM274.001 623h598
c0 91.333 -22.667 165 -68 221c-52 65.333 -129 98 -231 98c-82 0 -152.333 -32 -211 -96s-88 -138.333 -88 -223zM629.001 1178h-121.001c0 47.333 5.16699 83 15.5 107s35.333 50 75 78s59.5 59 59.5 93c0 32.667 -9 56.167 -27 70.5s-38.667 21.5 -62 21.5
c-36.667 0 -62.167 -10.167 -76.5 -30.5s-21.5 -45.5 -21.5 -75.5l-131 -2c0 73.333 24 129.333 72 168c40.667 32.667 90.334 49 149.001 49c52 0 97.667 -10.333 137 -31c66 -34 99 -89.333 99 -166c0 -35.333 -8.5 -65.333 -25.5 -90s-45.5 -51.334 -85.5 -80.001
c-22 -14.667 -37 -29.167 -45 -43.5s-12 -37.166 -12 -68.499z" />
    <glyph glyph-name="uni1EBC" unicode="&#x1ebc;" horiz-adv-x="1454" 
d="M1261 176v-176h-1085v1470h1073v-176h-872v-450h803v-176h-803v-492h884zM952 1880l102.999 0.00195312c-7.33301 -64 -29 -117.5 -65 -160.5s-82.667 -64.5 -140 -64.5c-30 0 -69.667 9.33301 -119 28l-53 17c-66 22 -108.333 33 -127 33
c-26 0 -45.833 -7.16699 -59.5 -21.5s-25.167 -37.5 -34.5 -69.5h-99c10 67.333 30 118.666 60 153.999c35.333 42.667 86.333 64 153 64c23.333 0 46.333 -2.5 69 -7.5s46.334 -12.167 71.001 -21.5l45 -21c16 -6.66699 33.667 -12.334 53 -17.001s33 -7 41 -7
c35.333 0 61.333 10.333 78 31c10.667 13.333 18.667 34.333 24 63z" />
    <glyph glyph-name="uni1EBD" unicode="&#x1ebd;" 
d="M863 336h181.001c-7.33301 -41.333 -23.333 -84.333 -48 -129c-36.667 -68.667 -85 -122.667 -145 -162c-36.667 -24.667 -69.334 -41.667 -98.001 -51c-52 -18 -116.333 -27 -193 -27c-147.333 0 -264 50.167 -350 150.5s-129 230.5 -129 390.5
c0 177.333 41 318 123 422c90 114.667 221 172 393 172c150 0 264 -55.667 342 -167s117 -263.333 117 -456h-782c0 -113.333 26.167 -200.333 78.5 -261s129.833 -91 232.5 -91c79.333 0 146.333 24.667 201 74c46 42 71.667 87 77 135zM274.001 623h598
c0 91.333 -22.667 165 -68 221c-52 65.333 -129 98 -231 98c-82 0 -152.333 -32 -211 -96s-88 -138.333 -88 -223zM816.001 1479h103.002c-8.66699 -63.333 -31.334 -116.166 -68.001 -158.499s-82.334 -63.5 -137.001 -63.5c-16.667 0 -33.5 1.83301 -50.5 5.5
s-41.167 10.167 -72.5 19.5l-53 21c-18 5.33301 -39.333 11.333 -64 18s-44.334 10 -59.001 10c-26 0 -46.5 -7.83301 -61.5 -23.5s-27.167 -37.834 -36.5 -66.501h-99c8.66699 65.333 30.334 118.5 65.001 159.5s84 61.5 148 61.5c23.333 0 46 -3 68 -9
s45.667 -13.667 71 -23l46 -17c47.333 -19.333 80 -29 98 -29c35.333 0 61.333 11 78 33c10.667 14 18.667 34.667 24 62z" />
    <glyph glyph-name="uni1EBE" unicode="&#x1ebe;" horiz-adv-x="1454" 
d="M1261 176v-176h-1085v1470h1073v-176h-872v-450h803v-176h-803v-492h884zM900 1845l180 291h221l-266 -291h-135zM719 1810l-135 -192h-164l205 291h188l205 -291h-164z" />
    <glyph glyph-name="uni1EBF" unicode="&#x1ebf;" 
d="M863 336h181.001c-7.33301 -41.333 -23.333 -84.333 -48 -129c-36.667 -68.667 -85 -122.667 -145 -162c-36.667 -24.667 -69.334 -41.667 -98.001 -51c-52 -18 -116.333 -27 -193 -27c-147.333 0 -264 50.167 -350 150.5s-129 230.5 -129 390.5
c0 177.333 41 318 123 422c90 114.667 221 172 393 172c150 0 264 -55.667 342 -167s117 -263.333 117 -456h-782c0 -113.333 26.167 -200.333 78.5 -261s129.833 -91 232.5 -91c79.333 0 146.333 24.667 201 74c46 42 71.667 87 77 135zM274.001 623h598
c0 91.333 -22.667 165 -68 221c-52 65.333 -129 98 -231 98c-82 0 -152.333 -32 -211 -96s-88 -138.333 -88 -223zM741.001 1418l180 286h226l-271 -286h-135zM552.001 1384l-135 -188h-160l201 287h192l201 -287h-164z" />
    <glyph glyph-name="uni1EC0" unicode="&#x1ec0;" horiz-adv-x="1454" 
d="M1261 176v-176h-1085v1470h1073v-176h-872v-450h803v-176h-803v-492h884zM946 1835l-266 291h221l180 -291h-135zM719 1810l-135 -192h-164l205 291h188l205 -291h-164z" />
    <glyph glyph-name="uni1EC1" unicode="&#x1ec1;" 
d="M863 336h181.001c-7.33301 -41.333 -23.333 -84.333 -48 -129c-36.667 -68.667 -85 -122.667 -145 -162c-36.667 -24.667 -69.334 -41.667 -98.001 -51c-52 -18 -116.333 -27 -193 -27c-147.333 0 -264 50.167 -350 150.5s-129 230.5 -129 390.5
c0 177.333 41 318 123 422c90 114.667 221 172 393 172c150 0 264 -55.667 342 -167s117 -263.333 117 -456h-782c0 -113.333 26.167 -200.333 78.5 -261s129.833 -91 232.5 -91c79.333 0 146.333 24.667 201 74c46 42 71.667 87 77 135zM274.001 623h598
c0 91.333 -22.667 165 -68 221c-52 65.333 -129 98 -231 98c-82 0 -152.333 -32 -211 -96s-88 -138.333 -88 -223zM781.001 1428l-270 286h225l181 -286h-136zM552.001 1384l-135 -188h-160l201 287h192l201 -287h-164z" />
    <glyph glyph-name="uni1EC2" unicode="&#x1ec2;" horiz-adv-x="1454" 
d="M1261 176v-176h-1085v1470h1073v-176h-872v-450h803v-176h-803v-492h884zM1064 1801h-116c0 52 5.33301 93.333 16 124s35.5 59.667 74.5 87s58.5 58 58.5 92c0 33.333 -8.83301 57.166 -26.5 71.5c-17.667 14.333 -38.167 21.5 -61.5 21.5
c-36.667 0 -62.167 -10.333 -76.5 -31s-21.5 -46 -21.5 -76l-131 -2c0 74 23.667 130 71 168c41.333 32.667 91.333 49 150 49c52 0 97.667 -10.333 137 -31c65.333 -34 98 -89 98 -165c0 -36 -8.5 -66.167 -25.5 -90.5s-45.667 -50.833 -86 -79.5s-60.5 -74.667 -60.5 -138
zM719 1810l-135 -192h-164l205 291h188l205 -291h-164z" />
    <glyph glyph-name="uni1EC3" unicode="&#x1ec3;" 
d="M863 336h181.001c-7.33301 -41.333 -23.333 -84.333 -48 -129c-36.667 -68.667 -85 -122.667 -145 -162c-36.667 -24.667 -69.334 -41.667 -98.001 -51c-52 -18 -116.333 -27 -193 -27c-147.333 0 -264 50.167 -350 150.5s-129 230.5 -129 390.5
c0 177.333 41 318 123 422c90 114.667 221 172 393 172c150 0 264 -55.667 342 -167s117 -263.333 117 -456h-782c0 -113.333 26.167 -200.333 78.5 -261s129.833 -91 232.5 -91c79.333 0 146.333 24.667 201 74c46 42 71.667 87 77 135zM274.001 623h598
c0 91.333 -22.667 165 -68 221c-52 65.333 -129 98 -231 98c-82 0 -152.333 -32 -211 -96s-88 -138.333 -88 -223zM859.001 1429h-121.001c0 47.333 5.16699 83 15.5 107s35.333 50 75 78s59.5 59 59.5 93c0 32.667 -9 56.167 -27 70.5s-38.667 21.5 -62 21.5
c-36.667 0 -62.167 -10.167 -76.5 -30.5s-21.5 -45.5 -21.5 -75.5l-131 -2c0 73.333 24 129.333 72 168c40.667 32.667 90.334 49 149.001 49c52 0 97.667 -10.333 137 -31c66 -34 99 -89.333 99 -166c0 -35.333 -8.5 -65.333 -25.5 -90s-45.5 -51.334 -85.5 -80.001
c-22 -14.667 -37 -29.167 -45 -43.5s-12 -37.166 -12 -68.499zM552 1384l-135 -188h-160l201 287h192l201 -287h-164z" />
    <glyph glyph-name="uni1EC4" unicode="&#x1ec4;" horiz-adv-x="1454" 
d="M1261 176v-176h-1085v1470h1073v-176h-872v-450h803v-176h-803v-492h884zM1042 2171l102.999 0.000976562c-7.33301 -64 -29 -117.5 -65 -160.5s-82.667 -64.5 -140 -64.5c-30 0 -69.667 9.33301 -119 28l-53 17c-66 22 -108.333 33 -127 33
c-26 0 -45.833 -7.16699 -59.5 -21.5s-25.167 -37.5 -34.5 -69.5h-99c10 67.333 30 118.666 60 153.999c35.333 42.667 86.333 64 153 64c23.333 0 46.333 -2.5 69 -7.5s46.334 -12.167 71.001 -21.5l45 -21c16 -6.66699 33.667 -12.334 53 -17c19.333 -4.66699 33 -7 41 -7
c35.333 0 61.333 10.333 78 31c10.667 13.333 18.667 34.333 24 63zM718.999 1810l-135 -192h-164l205 291h188l205 -291h-164z" />
    <glyph glyph-name="uni1EC5" unicode="&#x1ec5;" 
d="M863 336h181.001c-7.33301 -41.333 -23.333 -84.333 -48 -129c-36.667 -68.667 -85 -122.667 -145 -162c-36.667 -24.667 -69.334 -41.667 -98.001 -51c-52 -18 -116.333 -27 -193 -27c-147.333 0 -264 50.167 -350 150.5s-129 230.5 -129 390.5
c0 177.333 41 318 123 422c90 114.667 221 172 393 172c150 0 264 -55.667 342 -167s117 -263.333 117 -456h-782c0 -113.333 26.167 -200.333 78.5 -261s129.833 -91 232.5 -91c79.333 0 146.333 24.667 201 74c46 42 71.667 87 77 135zM274.001 623h598
c0 91.333 -22.667 165 -68 221c-52 65.333 -129 98 -231 98c-82 0 -152.333 -32 -211 -96s-88 -138.333 -88 -223zM876.001 1740h103.002c-8.66699 -63.333 -31.334 -116.166 -68.001 -158.499s-82.334 -63.5 -137.001 -63.5c-16.667 0 -33.5 1.83301 -50.5 5.5
s-41.167 10.167 -72.5 19.5l-53 21c-18 5.33301 -39.333 11.333 -64 18s-44.334 10 -59.001 10c-26 0 -46.5 -7.83301 -61.5 -23.5s-27.167 -37.834 -36.5 -66.501h-99c8.66699 65.333 30.334 118.5 65.001 159.5s84 61.5 148 61.5c23.333 0 46 -3 68 -9
s45.667 -13.667 71 -23l46 -17c47.333 -19.333 80 -29 98 -29c35.333 0 61.333 11 78 33c10.667 14 18.667 34.667 24 62zM552.003 1384l-135 -188h-160l201 287h192l201 -287h-164z" />
    <glyph glyph-name="uni1EC6" unicode="&#x1ec6;" horiz-adv-x="1454" 
d="M1261 176v-176h-1085v1470h1073v-176h-872v-450h803v-176h-803v-492h884zM774 -348h-180v205h180v-205zM719 1810l-135 -192h-164l205 291h188l205 -291h-164z" />
    <glyph glyph-name="uni1EC7" unicode="&#x1ec7;" 
d="M863 336h181.001c-7.33301 -41.333 -23.333 -84.333 -48 -129c-36.667 -68.667 -85 -122.667 -145 -162c-36.667 -24.667 -69.334 -41.667 -98.001 -51c-52 -18 -116.333 -27 -193 -27c-147.333 0 -264 50.167 -350 150.5s-129 230.5 -129 390.5
c0 177.333 41 318 123 422c90 114.667 221 172 393 172c150 0 264 -55.667 342 -167s117 -263.333 117 -456h-782c0 -113.333 26.167 -200.333 78.5 -261s129.833 -91 232.5 -91c79.333 0 146.333 24.667 201 74c46 42 71.667 87 77 135zM274.001 623h598
c0 91.333 -22.667 165 -68 221c-52 65.333 -129 98 -231 98c-82 0 -152.333 -32 -211 -96s-88 -138.333 -88 -223zM659.001 -344h-181v205h181v-205zM552.001 1384l-135 -188h-160l201 287h192l201 -287h-164z" />
    <glyph glyph-name="uni1EC8" unicode="&#x1ec8;" horiz-adv-x="602" 
d="M385 1470v-1470h-196v1470h196zM342 1550l-117.001 0.000976562c0 52 5.5 93.333 16.5 124s35.833 59.667 74.5 87s58 58 58 92c0 33.333 -8.83301 57.166 -26.5 71.499s-38.167 21.5 -61.5 21.5c-36.667 0 -62.167 -10.333 -76.5 -31s-21.5 -46 -21.5 -76l-131 -2
c0 74 24 130 72 168c40.667 32.667 90.334 49 149.001 49c52 0 97.667 -10.333 137 -31c66 -34 99 -89 99 -165c0 -36 -8.5 -66.167 -25.5 -90.5s-45.667 -50.833 -86 -79.5s-60.5 -74.667 -60.5 -138z" />
    <glyph glyph-name="uni1EC9" unicode="&#x1ec9;" horiz-adv-x="487" 
d="M319 1073v-1073h-180v1073h180zM288 1178h-121c0 47.333 5.16699 83 15.5 107s35.166 50 74.499 78s59 59 59 93c0 32.667 -8.83301 56.167 -26.5 70.5s-38.167 21.5 -61.5 21.5c-36.667 0 -62.167 -10.167 -76.5 -30.5s-21.5 -45.5 -21.5 -75.5l-131 -2
c0 73.333 24 129.333 72 168c40.667 32.667 90.334 49 149.001 49c52 0 97.667 -10.333 137 -31c66 -34 99 -89.333 99 -166c0 -35.333 -8.5 -65.333 -25.5 -90s-45.5 -51.334 -85.5 -80.001c-22 -14.667 -37 -29.167 -45 -43.5s-12 -37.166 -12 -68.499z" />
    <glyph glyph-name="uni1ECA" unicode="&#x1eca;" horiz-adv-x="602" 
d="M385 1470v-1470h-197v1470h197zM372 -348h-180v205h180v-205z" />
    <glyph glyph-name="uni1ECB" unicode="&#x1ecb;" horiz-adv-x="487" 
d="M324 1073v-1073h-181v1073h181zM319 1266h-180v204h180v-204zM324 -344h-181v205h181v-205z" />
    <glyph glyph-name="uni1ECC" unicode="&#x1ecc;" horiz-adv-x="1572" 
d="M1323 737c0 176 -44.999 318.667 -134.999 428c-94.667 113.333 -220.334 170 -377.001 170c-156 0 -280.333 -56 -373 -168s-139 -255.333 -139 -430c0 -177.333 45.667 -321.333 137 -432s216.333 -166 375 -166c156.667 0 281.167 55.667 373.5 167
s138.5 255 138.5 431zM1528 737c0 -198 -50.667 -367.333 -152 -508c-128 -180 -316.333 -270 -565 -270c-247.333 0 -435 89.333 -563 268c-102.667 143.333 -154 313.333 -154 510c0 195.333 50.667 363.333 152 504c129.333 180 317.666 270 564.999 270
c246.667 0 434.334 -89.333 563.001 -268c102.667 -142 154 -310.667 154 -506zM901.001 -348h-180v205h180v-205z" />
    <glyph glyph-name="uni1ECD" unicode="&#x1ecd;" horiz-adv-x="1179" 
d="M73 537c0 154 39.667 283 119 387c90 118.667 215.667 178 377 178c160.667 0 286.667 -59.333 378 -178c80.667 -105.333 121 -234.333 121 -387c0 -152 -40.333 -280.333 -121 -385c-91.333 -120.667 -217.333 -181 -378 -181c-160 0 -285 59.667 -375 179
c-80.667 104.667 -121 233.667 -121 387zM257 537c0 -101.333 19.333 -187.332 58 -257.999c54.667 -101.333 139.334 -152 254.001 -152c113.333 0 197.333 49.667 252 149c39.333 72.667 59 159.667 59 261c0 100.667 -19 186.667 -57 258
c-54.667 100.667 -139.334 151 -254.001 151c-113.333 0 -197.333 -49.667 -252 -149c-40 -72.667 -60 -159.334 -60 -260.001zM661 -343.999h-180v205h180v-205z" />
    <glyph glyph-name="uni1ECE" unicode="&#x1ece;" horiz-adv-x="1572" 
d="M1323 737c0 176 -44.999 318.667 -134.999 428c-94.667 113.333 -220.334 170 -377.001 170c-156 0 -280.333 -56 -373 -168s-139 -255.333 -139 -430c0 -177.333 45.667 -321.333 137 -432s216.333 -166 375 -166c156.667 0 281.167 55.667 373.5 167
s138.5 255 138.5 431zM1528 737c0 -198 -50.667 -367.333 -152 -508c-128 -180 -316.333 -270 -565 -270c-247.333 0 -435 89.333 -563 268c-102.667 143.333 -154 313.333 -154 510c0 195.333 50.667 363.333 152 504c129.333 180 317.666 270 564.999 270
c246.667 0 434.334 -89.333 563.001 -268c102.667 -142 154 -310.667 154 -506zM867.001 1580l-117 0.000976562c0 52 5.5 93.333 16.5 124s36 59.667 75 87s58.5 58 58.5 92c0 33.333 -8.83301 57.166 -26.5 71.499s-38.167 21.5 -61.5 21.5
c-36.667 0 -62.167 -10.333 -76.5 -31s-21.5 -46 -21.5 -76l-132 -2c0 74 24 130 72 168c41.333 32.667 91.333 49 150 49c51.333 0 97 -10.333 137 -31c65.333 -34 98 -89 98 -165c0 -36 -8.5 -66.167 -25.5 -90.5s-45.667 -50.833 -86 -79.5s-60.5 -74.667 -60.5 -138z
" />
    <glyph glyph-name="uni1ECF" unicode="&#x1ecf;" horiz-adv-x="1179" 
d="M73 537c0 154 39.667 283 119 387c90 118.667 215.667 178 377 178c160.667 0 286.667 -59.333 378 -178c80.667 -105.333 121 -234.333 121 -387c0 -152 -40.333 -280.333 -121 -385c-91.333 -120.667 -217.333 -181 -378 -181c-160 0 -285 59.667 -375 179
c-80.667 104.667 -121 233.667 -121 387zM257 537c0 -101.333 19.333 -187.332 58 -257.999c54.667 -101.333 139.334 -152 254.001 -152c113.333 0 197.333 49.667 252 149c39.333 72.667 59 159.667 59 261c0 100.667 -19 186.667 -57 258
c-54.667 100.667 -139.334 151 -254.001 151c-113.333 0 -197.333 -49.667 -252 -149c-40 -72.667 -60 -159.334 -60 -260.001zM629 1178h-121.001c0 47.333 5.16699 83 15.5 107s35.333 50 75 78s59.5 59 59.5 93c0 32.667 -9 56.167 -27 70.5s-38.667 21.5 -62 21.5
c-36.667 0 -62.167 -10.167 -76.5 -30.5s-21.5 -45.5 -21.5 -75.5l-131 -2c0 73.333 24 129.333 72 168c40.667 32.667 90.334 49 149.001 49c52 0 97.667 -10.333 137 -31c66 -34 99 -89.333 99 -166c0 -35.333 -8.5 -65.333 -25.5 -90s-45.5 -51.334 -85.5 -80.001
c-22 -14.667 -37 -29.167 -45 -43.5s-12 -37.166 -12 -68.499z" />
    <glyph glyph-name="uni1ED0" unicode="&#x1ed0;" horiz-adv-x="1572" 
d="M1323 737c0 176 -44.999 318.667 -134.999 428c-94.667 113.333 -220.334 170 -377.001 170c-156 0 -280.333 -56 -373 -168s-139 -255.333 -139 -430c0 -177.333 45.667 -321.333 137 -432s216.333 -166 375 -166c156.667 0 281.167 55.667 373.5 167
s138.5 255 138.5 431zM1528 737c0 -198 -50.667 -367.333 -152 -508c-128 -180 -316.333 -270 -565 -270c-247.333 0 -435 89.333 -563 268c-102.667 143.333 -154 313.333 -154 510c0 195.333 50.667 363.333 152 504c129.333 180 317.666 270 564.999 270
c246.667 0 434.334 -89.333 563.001 -268c102.667 -142 154 -310.667 154 -506zM991.001 1835l180 291h221l-266 -291h-135zM811.001 1810l-135 -192h-164l205 291h188l205 -291h-164z" />
    <glyph glyph-name="uni1ED1" unicode="&#x1ed1;" horiz-adv-x="1179" 
d="M73 537c0 154 39.667 283 119 387c90 118.667 215.667 178 377 178c160.667 0 286.667 -59.333 378 -178c80.667 -105.333 121 -234.333 121 -387c0 -152 -40.333 -280.333 -121 -385c-91.333 -120.667 -217.333 -181 -378 -181c-160 0 -285 59.667 -375 179
c-80.667 104.667 -121 233.667 -121 387zM257 537c0 -101.333 19.333 -187.332 58 -257.999c54.667 -101.333 139.334 -152 254.001 -152c113.333 0 197.333 49.667 252 149c39.333 72.667 59 159.667 59 261c0 100.667 -19 186.667 -57 258
c-54.667 100.667 -139.334 151 -254.001 151c-113.333 0 -197.333 -49.667 -252 -149c-40 -72.667 -60 -159.334 -60 -260.001zM752 1418l180 286h226l-271 -286h-135zM569 1384l-135 -188h-160l201 287h193l200 -287h-163z" />
    <glyph glyph-name="uni1ED2" unicode="&#x1ed2;" horiz-adv-x="1572" 
d="M1323 737c0 176 -44.999 318.667 -134.999 428c-94.667 113.333 -220.334 170 -377.001 170c-156 0 -280.333 -56 -373 -168s-139 -255.333 -139 -430c0 -177.333 45.667 -321.333 137 -432s216.333 -166 375 -166c156.667 0 281.167 55.667 373.5 167
s138.5 255 138.5 431zM1528 737c0 -198 -50.667 -367.333 -152 -508c-128 -180 -316.333 -270 -565 -270c-247.333 0 -435 89.333 -563 268c-102.667 143.333 -154 313.333 -154 510c0 195.333 50.667 363.333 152 504c129.333 180 317.666 270 564.999 270
c246.667 0 434.334 -89.333 563.001 -268c102.667 -142 154 -310.667 154 -506zM1036 1815l-266 291h221l180 -291h-135zM811.001 1810l-135 -192h-164l205 291h188l205 -291h-164z" />
    <glyph glyph-name="uni1ED3" unicode="&#x1ed3;" horiz-adv-x="1179" 
d="M73 537c0 154 39.667 283 119 387c90 118.667 215.667 178 377 178c160.667 0 286.667 -59.333 378 -178c80.667 -105.333 121 -234.333 121 -387c0 -152 -40.333 -280.333 -121 -385c-91.333 -120.667 -217.333 -181 -378 -181c-160 0 -285 59.667 -375 179
c-80.667 104.667 -121 233.667 -121 387zM257 537c0 -101.333 19.333 -187.332 58 -257.999c54.667 -101.333 139.334 -152 254.001 -152c113.333 0 197.333 49.667 252 149c39.333 72.667 59 159.667 59 261c0 100.667 -19 186.667 -57 258
c-54.667 100.667 -139.334 151 -254.001 151c-113.333 0 -197.333 -49.667 -252 -149c-40 -72.667 -60 -159.334 -60 -260.001zM822 1418l-270 286h225l181 -286h-136zM569 1384l-135 -188h-160l201 287h193l200 -287h-163z" />
    <glyph glyph-name="uni1ED4" unicode="&#x1ed4;" horiz-adv-x="1572" 
d="M1323 737c0 176 -44.999 318.667 -134.999 428c-94.667 113.333 -220.334 170 -377.001 170c-156 0 -280.333 -56 -373 -168s-139 -255.333 -139 -430c0 -177.333 45.667 -321.333 137 -432s216.333 -166 375 -166c156.667 0 281.167 55.667 373.5 167
s138.5 255 138.5 431zM1528 737c0 -198 -50.667 -367.333 -152 -508c-128 -180 -316.333 -270 -565 -270c-247.333 0 -435 89.333 -563 268c-102.667 143.333 -154 313.333 -154 510c0 195.333 50.667 363.333 152 504c129.333 180 317.666 270 564.999 270
c246.667 0 434.334 -89.333 563.001 -268c102.667 -142 154 -310.667 154 -506zM1128 1811h-117c0 52 5.5 93.333 16.5 124s36 59.667 75 87s58.5 58 58.5 92c0 33.333 -8.83301 57.166 -26.5 71.5c-17.667 14.333 -38.167 21.5 -61.5 21.5
c-36.667 0 -62.167 -10.333 -76.5 -31s-21.5 -46 -21.5 -76l-132 -2c0 74 24 130 72 168c41.333 32.667 91.333 49 150 49c51.333 0 97 -10.333 137 -31c65.333 -34 98 -89 98 -165c0 -36 -8.5 -66.167 -25.5 -90.5s-45.667 -50.833 -86 -79.5s-60.5 -74.667 -60.5 -138z
M811.001 1810l-135 -192h-164l205 291h188l205 -291h-164z" />
    <glyph glyph-name="uni1ED5" unicode="&#x1ed5;" horiz-adv-x="1179" 
d="M73 537c0 154 39.667 283 119 387c90 118.667 215.667 178 377 178c160.667 0 286.667 -59.333 378 -178c80.667 -105.333 121 -234.333 121 -387c0 -152 -40.333 -280.333 -121 -385c-91.333 -120.667 -217.333 -181 -378 -181c-160 0 -285 59.667 -375 179
c-80.667 104.667 -121 233.667 -121 387zM257 537c0 -101.333 19.333 -187.332 58 -257.999c54.667 -101.333 139.334 -152 254.001 -152c113.333 0 197.333 49.667 252 149c39.333 72.667 59 159.667 59 261c0 100.667 -19 186.667 -57 258
c-54.667 100.667 -139.334 151 -254.001 151c-113.333 0 -197.333 -49.667 -252 -149c-40 -72.667 -60 -159.334 -60 -260.001zM890 1409h-121.001c0 47.333 5.16699 83 15.5 107s35.333 50 75 78s59.5 59 59.5 93c0 32.667 -9 56.167 -27 70.5s-38.667 21.5 -62 21.5
c-36.667 0 -62.167 -10.167 -76.5 -30.5s-21.5 -45.5 -21.5 -75.5l-131 -2c0 73.333 24 129.333 72 168c40.667 32.667 90.334 49 149.001 49c52 0 97.667 -10.333 137 -31c66 -34 99 -89.333 99 -166c0 -35.333 -8.5 -65.333 -25.5 -90s-45.5 -51.334 -85.5 -80.001
c-22 -14.667 -37 -29.167 -45 -43.5s-12 -37.166 -12 -68.499zM568.999 1384l-135 -188h-160l201 287h193l200 -287h-163z" />
    <glyph glyph-name="uni1ED6" unicode="&#x1ed6;" horiz-adv-x="1572" 
d="M1323 737c0 176 -44.999 318.667 -134.999 428c-94.667 113.333 -220.334 170 -377.001 170c-156 0 -280.333 -56 -373 -168s-139 -255.333 -139 -430c0 -177.333 45.667 -321.333 137 -432s216.333 -166 375 -166c156.667 0 281.167 55.667 373.5 167
s138.5 255 138.5 431zM1528 737c0 -198 -50.667 -367.333 -152 -508c-128 -180 -316.333 -270 -565 -270c-247.333 0 -435 89.333 -563 268c-102.667 143.333 -154 313.333 -154 510c0 195.333 50.667 363.333 152 504c129.333 180 317.666 270 564.999 270
c246.667 0 434.334 -89.333 563.001 -268c102.667 -142 154 -310.667 154 -506zM1137 2151l101.997 0.000976562c-6.66699 -64 -28.167 -117.5 -64.5 -160.5s-83.166 -64.5 -140.499 -64.5c-30 0 -69.667 9.33301 -119 28l-53 17c-65.333 22 -107.666 33 -126.999 33
c-26 0 -45.833 -7.16699 -59.5 -21.5s-25.167 -37.5 -34.5 -69.5h-98c9.33301 67.333 29 118.666 59 153.999c35.333 42.667 86.666 64 153.999 64c22.667 0 45.334 -2.5 68.001 -7.5s46.334 -12.167 71.001 -21.5l45 -21c16.667 -6.66699 34.5 -12.334 53.5 -17
c19 -4.66699 32.5 -7 40.5 -7c35.333 0 61.333 10.333 78 31c10.667 13.333 19 34.333 25 63zM810.998 1810l-135 -192h-164l205 291h188l205 -291h-164z" />
    <glyph glyph-name="uni1ED7" unicode="&#x1ed7;" horiz-adv-x="1179" 
d="M73 537c0 154 39.667 283 119 387c90 118.667 215.667 178 377 178c160.667 0 286.667 -59.333 378 -178c80.667 -105.333 121 -234.333 121 -387c0 -152 -40.333 -280.333 -121 -385c-91.333 -120.667 -217.333 -181 -378 -181c-160 0 -285 59.667 -375 179
c-80.667 104.667 -121 233.667 -121 387zM257 537c0 -101.333 19.333 -187.332 58 -257.999c54.667 -101.333 139.334 -152 254.001 -152c113.333 0 197.333 49.667 252 149c39.333 72.667 59 159.667 59 261c0 100.667 -19 186.667 -57 258
c-54.667 100.667 -139.334 151 -254.001 151c-113.333 0 -197.333 -49.667 -252 -149c-40 -72.667 -60 -159.334 -60 -260.001zM897 1760h103.002c-8.66699 -63.333 -31.334 -116.166 -68.001 -158.499s-82.334 -63.5 -137.001 -63.5c-16.667 0 -33.5 1.83301 -50.5 5.5
s-41.167 10.167 -72.5 19.5l-53 21c-18 5.33301 -39.333 11.333 -64 18s-44.334 10 -59.001 10c-26 0 -46.5 -7.83301 -61.5 -23.5s-27.167 -37.834 -36.5 -66.501h-99c8.66699 65.333 30.334 118.5 65.001 159.5s84 61.5 148 61.5c23.333 0 46 -3 68 -9
s45.667 -13.667 71 -23l46 -17c47.333 -19.333 80 -29 98 -29c35.333 0 61.333 11 78 33c10.667 14 18.667 34.667 24 62zM569.002 1384l-135 -188h-160l201 287h193l200 -287h-163z" />
    <glyph glyph-name="uni1ED8" unicode="&#x1ed8;" horiz-adv-x="1572" 
d="M1323 737c0 176 -44.999 318.667 -134.999 428c-94.667 113.333 -220.334 170 -377.001 170c-156 0 -280.333 -56 -373 -168s-139 -255.333 -139 -430c0 -177.333 45.667 -321.333 137 -432s216.333 -166 375 -166c156.667 0 281.167 55.667 373.5 167
s138.5 255 138.5 431zM1528 737c0 -198 -50.667 -367.333 -152 -508c-128 -180 -316.333 -270 -565 -270c-247.333 0 -435 89.333 -563 268c-102.667 143.333 -154 313.333 -154 510c0 195.333 50.667 363.333 152 504c129.333 180 317.666 270 564.999 270
c246.667 0 434.334 -89.333 563.001 -268c102.667 -142 154 -310.667 154 -506zM901.001 -348h-180v205h180v-205zM811.001 1810l-135 -192h-164l205 291h188l205 -291h-164z" />
    <glyph glyph-name="uni1ED9" unicode="&#x1ed9;" horiz-adv-x="1179" 
d="M73 537c0 154 39.667 283 119 387c90 118.667 215.667 178 377 178c160.667 0 286.667 -59.333 378 -178c80.667 -105.333 121 -234.333 121 -387c0 -152 -40.333 -280.333 -121 -385c-91.333 -120.667 -217.333 -181 -378 -181c-160 0 -285 59.667 -375 179
c-80.667 104.667 -121 233.667 -121 387zM257 537c0 -101.333 19.333 -187.332 58 -257.999c54.667 -101.333 139.334 -152 254.001 -152c113.333 0 197.333 49.667 252 149c39.333 72.667 59 159.667 59 261c0 100.667 -19 186.667 -57 258
c-54.667 100.667 -139.334 151 -254.001 151c-113.333 0 -197.333 -49.667 -252 -149c-40 -72.667 -60 -159.334 -60 -260.001zM661 -343.999h-180v205h180v-205zM569 1384l-135 -188h-160l201 287h193l200 -287h-163z" />
    <glyph glyph-name="uni1EDA" unicode="&#x1eda;" horiz-adv-x="1572" 
d="M1323 737c0 176 -44.999 318.667 -134.999 428c-94.667 113.333 -220.334 170 -377.001 170c-156 0 -280.333 -56 -373 -168s-139 -255.333 -139 -430c0 -177.333 45.667 -321.333 137 -432s216.333 -166 375 -166c156.667 0 281.167 55.667 373.5 167
s138.5 255 138.5 431zM660.001 1614l180 291h221l-266 -291h-135zM1233 1376c100.667 -72 177.001 -172.331 229.001 -300.998c44 -106.667 66 -219.334 66 -338.001c0 -198 -50.667 -367.333 -152 -508c-128 -180 -316.333 -270 -565 -270c-247.333 0 -435 89.333 -563 268
c-102.667 143.333 -154 313.333 -154 510c0 195.333 50.667 363.333 152 504c129.333 180 317.666 270 564.999 270c68 0 131 -7.16699 189 -21.5s112.333 -35.833 163 -64.5c8 1.33301 22 9.66602 42 24.999s33.333 26.333 40 33c18 16 30 33.667 36 53s9 41.333 9 66h-115
v127h197v-181c0 -38 -20.333 -77.333 -61 -118c-30.667 -26 -56.667 -44 -78 -54z" />
    <glyph glyph-name="uni1EDB" unicode="&#x1edb;" horiz-adv-x="1179" 
d="M451 1217l180 286h226l-271 -286h-135zM905 979c7.33301 1.33301 18.5 8.83398 33.5 22.501s27.167 25.167 36.5 34.5c18 16.667 30 34.5 36 53.5s9 40.833 9 65.5h-115v127h197v-180c0 -38.667 -20.333 -78.334 -61 -119.001l-44.5 -39.5
c-14.333 -13 -26.833 -21.5 -37.5 -25.5c36.667 -50.667 64.167 -109.5 82.5 -176.5s27.5 -135.167 27.5 -204.5c0 -152 -40.333 -280.333 -121 -385c-91.333 -120.667 -217.333 -181 -378 -181c-160 0 -285 59.667 -375 179c-80.667 104.667 -121 233.667 -121 387
c0 154 39.667 283 119 387c90 118.667 215.667 178 377 178c142 0 253.667 -41 335 -123zM258 537.001c0 -101.333 19.333 -187.332 58 -257.999c54.667 -101.333 139.334 -152 254.001 -152c113.333 0 197.333 49.667 252 149c39.333 72.667 59 159.667 59 261
c0 100.667 -19 186.667 -57 258c-54.667 100.667 -139.334 151 -254.001 151c-113.333 0 -197.333 -49.667 -252 -149c-40 -72.667 -60 -159.334 -60 -260.001z" />
    <glyph glyph-name="uni1EDC" unicode="&#x1edc;" horiz-adv-x="1572" 
d="M1323 737c0 176 -44.999 318.667 -134.999 428c-94.667 113.333 -220.334 170 -377.001 170c-156 0 -280.333 -56 -373 -168s-139 -255.333 -139 -430c0 -177.333 45.667 -321.333 137 -432s216.333 -166 375 -166c156.667 0 281.167 55.667 373.5 167
s138.5 255 138.5 431zM785.001 1614l-266 291h221l180 -291h-135zM1233 1376c100.667 -72 177.001 -172.331 229.001 -300.998c44 -106.667 66 -219.334 66 -338.001c0 -198 -50.667 -367.333 -152 -508c-128 -180 -316.333 -270 -565 -270c-247.333 0 -435 89.333 -563 268
c-102.667 143.333 -154 313.333 -154 510c0 195.333 50.667 363.333 152 504c129.333 180 317.666 270 564.999 270c68 0 131 -7.16699 189 -21.5s112.333 -35.833 163 -64.5c8 1.33301 22 9.66602 42 24.999s33.333 26.333 40 33c18 16 30 33.667 36 53s9 41.333 9 66h-115
v127h197v-181c0 -38 -20.333 -77.333 -61 -118c-30.667 -26 -56.667 -44 -78 -54z" />
    <glyph glyph-name="uni1EDD" unicode="&#x1edd;" horiz-adv-x="1179" 
d="M522 1217l-271 286h226l180 -286h-135zM905 979c7.33301 1.33301 18.5 8.83398 33.5 22.501s27.167 25.167 36.5 34.5c18 16.667 30 34.5 36 53.5s9 40.833 9 65.5h-115v127h197v-180c0 -38.667 -20.333 -78.334 -61 -119.001l-44.5 -39.5
c-14.333 -13 -26.833 -21.5 -37.5 -25.5c36.667 -50.667 64.167 -109.5 82.5 -176.5s27.5 -135.167 27.5 -204.5c0 -152 -40.333 -280.333 -121 -385c-91.333 -120.667 -217.333 -181 -378 -181c-160 0 -285 59.667 -375 179c-80.667 104.667 -121 233.667 -121 387
c0 154 39.667 283 119 387c90 118.667 215.667 178 377 178c142 0 253.667 -41 335 -123zM258 537.001c0 -101.333 19.333 -187.332 58 -257.999c54.667 -101.333 139.334 -152 254.001 -152c113.333 0 197.333 49.667 252 149c39.333 72.667 59 159.667 59 261
c0 100.667 -19 186.667 -57 258c-54.667 100.667 -139.334 151 -254.001 151c-113.333 0 -197.333 -49.667 -252 -149c-40 -72.667 -60 -159.334 -60 -260.001z" />
    <glyph glyph-name="uni1EDE" unicode="&#x1ede;" horiz-adv-x="1572" 
d="M1323 737c0 176 -44.999 318.667 -134.999 428c-94.667 113.333 -220.334 170 -377.001 170c-156 0 -280.333 -56 -373 -168s-139 -255.333 -139 -430c0 -177.333 45.667 -321.333 137 -432s216.333 -166 375 -166c156.667 0 281.167 55.667 373.5 167
s138.5 255 138.5 431zM867.001 1580l-117 0.000976562c0 52 5.5 93.333 16.5 124s36 59.667 75 87s58.5 58 58.5 92c0 33.333 -8.83301 57.166 -26.5 71.499s-38.167 21.5 -61.5 21.5c-36.667 0 -62.167 -10.333 -76.5 -31s-21.5 -46 -21.5 -76l-132 -2c0 74 24 130 72 168
c41.333 32.667 91.333 49 150 49c51.333 0 97 -10.333 137 -31c65.333 -34 98 -89 98 -165c0 -36 -8.5 -66.167 -25.5 -90.5s-45.667 -50.833 -86 -79.5s-60.5 -74.667 -60.5 -138zM1233 1376c100.667 -72 177.001 -172.331 229.001 -300.998
c44 -106.667 66 -219.334 66 -338.001c0 -198 -50.667 -367.333 -152 -508c-128 -180 -316.333 -270 -565 -270c-247.333 0 -435 89.333 -563 268c-102.667 143.333 -154 313.333 -154 510c0 195.333 50.667 363.333 152 504c129.333 180 317.666 270 564.999 270
c68 0 131 -7.16699 189 -21.5s112.333 -35.833 163 -64.5c8 1.33301 22 9.66602 42 24.999s33.333 26.333 40 33c18 16 30 33.667 36 53s9 41.333 9 66h-115v127h197v-181c0 -38 -20.333 -77.333 -61 -118c-30.667 -26 -56.667 -44 -78 -54z" />
    <glyph glyph-name="uni1EDF" unicode="&#x1edf;" horiz-adv-x="1179" 
d="M629 1178h-121.002c0 47.333 5.16699 83 15.5 107s35.333 50 75 78s59.5 59 59.5 93c0 32.667 -8.83301 56.167 -26.5 70.5s-38.167 21.5 -61.5 21.5c-37.333 0 -63.166 -10.167 -77.499 -30.5s-21.5 -45.5 -21.5 -75.5l-131 -2c0 73.333 24 129.333 72 168
c40.667 32.667 90.667 49 150 49c51.333 0 97 -10.333 137 -31c65.333 -34 98 -89.333 98 -166c0 -35.333 -8.5 -65.333 -25.5 -90s-45.5 -51.334 -85.5 -80.001c-21.333 -14.667 -36.166 -29.167 -44.499 -43.5s-12.5 -37.166 -12.5 -68.499zM904.998 979
c7.33301 1.33301 18.5 8.83398 33.5 22.501s27.167 25.167 36.5 34.5c18 16.667 30 34.5 36 53.5s9 40.833 9 65.5h-115v127h197v-180c0 -38.667 -20.333 -78.334 -61 -119.001l-44.5 -39.5c-14.333 -13 -26.833 -21.5 -37.5 -25.5
c36.667 -50.667 64.167 -109.5 82.5 -176.5s27.5 -135.167 27.5 -204.5c0 -152 -40.333 -280.333 -121 -385c-91.333 -120.667 -217.333 -181 -378 -181c-160 0 -285 59.667 -375 179c-80.667 104.667 -121 233.667 -121 387c0 154 39.667 283 119 387
c90 118.667 215.667 178 377 178c142 0 253.667 -41 335 -123zM257.998 537.001c0 -101.333 19.333 -187.332 58 -257.999c54.667 -101.333 139.334 -152 254.001 -152c113.333 0 197.333 49.667 252 149c39.333 72.667 59 159.667 59 261c0 100.667 -19 186.667 -57 258
c-54.667 100.667 -139.334 151 -254.001 151c-113.333 0 -197.333 -49.667 -252 -149c-40 -72.667 -60 -159.334 -60 -260.001z" />
    <glyph glyph-name="uni1EE0" unicode="&#x1ee0;" horiz-adv-x="1572" 
d="M1323 737c0 176 -44.999 318.667 -134.999 428c-94.667 113.333 -220.334 170 -377.001 170c-156 0 -280.333 -56 -373 -168s-139 -255.333 -139 -430c0 -177.333 45.667 -321.333 137 -432s216.333 -166 375 -166c156.667 0 281.167 55.667 373.5 167
s138.5 255 138.5 431zM1057 1880l101.997 0.00195312c-6.66699 -64 -28.167 -117.5 -64.5 -160.5s-83.166 -64.5 -140.499 -64.5c-30 0 -69.667 9.33301 -119 28l-53 17c-65.333 22 -107.666 33 -126.999 33c-26 0 -45.833 -7.16699 -59.5 -21.5s-25.167 -37.5 -34.5 -69.5
h-98c9.33301 67.333 29 118.666 59 153.999c35.333 42.667 86.666 64 153.999 64c22.667 0 45.334 -2.5 68.001 -7.5s46.334 -12.167 71.001 -21.5l45 -21c16.667 -6.66699 34.5 -12.334 53.5 -17.001s32.5 -7 40.5 -7c35.333 0 61.333 10.333 78 31
c10.667 13.333 19 34.333 25 63zM1233 1376c100.667 -72 177.001 -172.331 229.001 -300.998c44 -106.667 66 -219.334 66 -338.001c0 -198 -50.667 -367.333 -152 -508c-128 -180 -316.333 -270 -565 -270c-247.333 0 -435 89.333 -563 268
c-102.667 143.333 -154 313.333 -154 510c0 195.333 50.667 363.333 152 504c129.333 180 317.666 270 564.999 270c68 0 131 -7.16699 189 -21.5s112.333 -35.833 163 -64.5c8 1.33301 22 9.66602 42 24.999s33.333 26.333 40 33c18 16 30 33.667 36 53s9 41.333 9 66h-115
v127h197v-181c0 -38 -20.333 -77.333 -61 -118c-30.667 -26 -56.667 -44 -78 -54z" />
    <glyph glyph-name="uni1EE1" unicode="&#x1ee1;" horiz-adv-x="1179" 
d="M817 1479h101.997c-8 -63.333 -30.5 -116.166 -67.5 -158.499s-82.833 -63.5 -137.5 -63.5c-16 0 -32.667 1.83301 -50 5.5s-41.666 10.167 -72.999 19.5l-53 21l-63.5 18c-24.333 6.66699 -44.166 10 -59.499 10c-26 0 -46.5 -7.83301 -61.5 -23.5
s-27.167 -37.834 -36.5 -66.501h-99c8.66699 65.333 30.334 118.5 65.001 159.5s84 61.5 148 61.5c23.333 0 46 -3 68 -9s46 -13.667 72 -23l45 -17c47.333 -19.333 80 -29 98 -29c35.333 0 61.333 11 78 33c10.667 14 19 34.667 25 62zM904.997 979
c7.33301 1.33301 18.5 8.83398 33.5 22.501s27.167 25.167 36.5 34.5c18 16.667 30 34.5 36 53.5s9 40.833 9 65.5h-115v127h197v-180c0 -38.667 -20.333 -78.334 -61 -119.001l-44.5 -39.5c-14.333 -13 -26.833 -21.5 -37.5 -25.5
c36.667 -50.667 64.167 -109.5 82.5 -176.5s27.5 -135.167 27.5 -204.5c0 -152 -40.333 -280.333 -121 -385c-91.333 -120.667 -217.333 -181 -378 -181c-160 0 -285 59.667 -375 179c-80.667 104.667 -121 233.667 -121 387c0 154 39.667 283 119 387
c90 118.667 215.667 178 377 178c142 0 253.667 -41 335 -123zM257.997 537.001c0 -101.333 19.333 -187.332 58 -257.999c54.667 -101.333 139.334 -152 254.001 -152c113.333 0 197.333 49.667 252 149c39.333 72.667 59 159.667 59 261c0 100.667 -19 186.667 -57 258
c-54.667 100.667 -139.334 151 -254.001 151c-113.333 0 -197.333 -49.667 -252 -149c-40 -72.667 -60 -159.334 -60 -260.001z" />
    <glyph glyph-name="uni1EE2" unicode="&#x1ee2;" horiz-adv-x="1572" 
d="M1323 737c0 176 -44.999 318.667 -134.999 428c-94.667 113.333 -220.334 170 -377.001 170c-156 0 -280.333 -56 -373 -168s-139 -255.333 -139 -430c0 -177.333 45.667 -321.333 137 -432s216.333 -166 375 -166c156.667 0 281.167 55.667 373.5 167
s138.5 255 138.5 431zM901.001 -348h-180v205h180v-205zM1233 1376c100.667 -72 177.001 -172.331 229.001 -300.998c44 -106.667 66 -219.334 66 -338.001c0 -198 -50.667 -367.333 -152 -508c-128 -180 -316.333 -270 -565 -270c-247.333 0 -435 89.333 -563 268
c-102.667 143.333 -154 313.333 -154 510c0 195.333 50.667 363.333 152 504c129.333 180 317.666 270 564.999 270c68 0 131 -7.16699 189 -21.5s112.333 -35.833 163 -64.5c8 1.33301 22 9.66602 42 24.999s33.333 26.333 40 33c18 16 30 33.667 36 53s9 41.333 9 66h-115
v127h197v-181c0 -38 -20.333 -77.333 -61 -118c-30.667 -26 -56.667 -44 -78 -54z" />
    <glyph glyph-name="uni1EE3" unicode="&#x1ee3;" horiz-adv-x="1179" 
d="M661 -344h-180v205h180v-205zM905 979c7.33301 1.33301 18.5 8.83398 33.5 22.501s27.167 25.167 36.5 34.5c18 16.667 30 34.5 36 53.5s9 40.833 9 65.5h-115v127h197v-180c0 -38.667 -20.333 -78.334 -61 -119.001l-44.5 -39.5c-14.333 -13 -26.833 -21.5 -37.5 -25.5
c36.667 -50.667 64.167 -109.5 82.5 -176.5s27.5 -135.167 27.5 -204.5c0 -152 -40.333 -280.333 -121 -385c-91.333 -120.667 -217.333 -181 -378 -181c-160 0 -285 59.667 -375 179c-80.667 104.667 -121 233.667 -121 387c0 154 39.667 283 119 387
c90 118.667 215.667 178 377 178c142 0 253.667 -41 335 -123zM258 537.001c0 -101.333 19.333 -187.332 58 -257.999c54.667 -101.333 139.334 -152 254.001 -152c113.333 0 197.333 49.667 252 149c39.333 72.667 59 159.667 59 261c0 100.667 -19 186.667 -57 258
c-54.667 100.667 -139.334 151 -254.001 151c-113.333 0 -197.333 -49.667 -252 -149c-40 -72.667 -60 -159.334 -60 -260.001z" />
    <glyph glyph-name="uni1EE4" unicode="&#x1ee4;" horiz-adv-x="1478" 
d="M1109 1470l196.999 -0.000976562v-954c0 -161.333 -47.667 -291.666 -143 -390.999c-105.333 -110.667 -254.333 -166 -447 -166c-186.667 0 -330.667 54 -432 162c-88.667 95.333 -133 219 -133 371v978h197v-925c0 -146 39.333 -253.333 118 -322
c64.667 -56 149.334 -84 254.001 -84c110.667 0 199 26.667 265 80c82.667 68.667 124 176 124 322v929zM818.999 -348.001h-181v205h181v-205z" />
    <glyph glyph-name="uni1EE5" unicode="&#x1ee5;" 
d="M1003 0h-172v156l-4 4c-38 -64.667 -83.667 -113 -137 -145s-121 -48 -203 -48c-92.667 0 -169.667 23.333 -231 70c-78 58.667 -117 147.334 -117 266.001v770h180v-713c0 -82.667 20 -143.334 60 -182.001c34 -34 83.667 -51 149 -51c102.667 0 180 39.667 232 119
c42 64 63 143 63 237v590h180v-1073zM661 -344h-181v205h181v-205z" />
    <glyph glyph-name="uni1EE6" unicode="&#x1ee6;" horiz-adv-x="1478" 
d="M1109 1470l196.999 -0.000976562v-954c0 -161.333 -47.667 -291.666 -143 -390.999c-105.333 -110.667 -254.333 -166 -447 -166c-186.667 0 -330.667 54 -432 162c-88.667 95.333 -133 219 -133 371v978h197v-925c0 -146 39.333 -253.333 118 -322
c64.667 -56 149.334 -84 254.001 -84c110.667 0 199 26.667 265 80c82.667 68.667 124 176 124 322v929zM796.999 1580l-117.001 0.000976562c0 52 5.5 93.333 16.5 124s36 59.667 75 87s58.5 58 58.5 92c0 33.333 -9 57.166 -27 71.499s-38.667 21.5 -62 21.5
c-36.667 0 -62.167 -10.333 -76.5 -31s-21.5 -46 -21.5 -76l-131 -2c0 74 24 130 72 168c40.667 32.667 90.334 49 149.001 49c52 0 98 -10.333 138 -31c65.333 -34 98 -89 98 -165c0 -36 -8.5 -66.167 -25.5 -90.5s-45.667 -50.833 -86 -79.5s-60.5 -74.667 -60.5 -138z
" />
    <glyph glyph-name="uni1EE7" unicode="&#x1ee7;" 
d="M1003 0h-172v156l-4 4c-38 -64.667 -83.667 -113 -137 -145s-121 -48 -203 -48c-92.667 0 -169.667 23.333 -231 70c-78 58.667 -117 147.334 -117 266.001v770h180v-713c0 -82.667 20 -143.334 60 -182.001c34 -34 83.667 -51 149 -51c102.667 0 180 39.667 232 119
c42 64 63 143 63 237v590h180v-1073zM629 1178h-121.001c0 47.333 5 83 15 107s34.833 50 74.5 78s59.5 59 59.5 93c0 32.667 -8.83301 56.167 -26.5 70.5s-38.167 21.5 -61.5 21.5c-36.667 0 -62.167 -10.167 -76.5 -30.5s-21.5 -45.5 -21.5 -75.5l-131 -2
c0 73.333 23.667 129.333 71 168c41.333 32.667 91.333 49 150 49c52 0 97.667 -10.333 137 -31c66 -34 99 -89.333 99 -166c0 -35.333 -8.66699 -65.333 -26 -90s-45.666 -51.334 -84.999 -80.001c-22 -14.667 -37 -29.167 -45 -43.5s-12 -37.166 -12 -68.499z" />
    <glyph glyph-name="uni1EE8" unicode="&#x1ee8;" horiz-adv-x="1478" 
d="M640 1614l180 291h221l-266 -291h-135zM1306 1401c8 2.66699 18.499 7.66406 31.499 14.9971s24 14.833 33 22.5s15.5 17.334 19.5 29.001s6 22.167 6 31.5v49h-115v127h197v-180c0 -38 -20.333 -77.667 -61 -119c-15.333 -13.333 -34 -25.666 -56 -36.999
c-6.66699 -2.66699 -25 -10.667 -55 -24v-799c0 -161.333 -47.667 -291.666 -143 -390.999c-105.333 -110.667 -254.333 -166 -447 -166c-186.667 0 -330.667 54 -432 162c-88.667 95.333 -133 219 -133 371v978h197v-925c0 -146 39.333 -253.333 118 -322
c64.667 -56 149.334 -84 254.001 -84c110.667 0 199 26.667 265 80c82.667 68.667 124 176 124 322v929h197v-69z" />
    <glyph glyph-name="uni1EE9" unicode="&#x1ee9;" 
d="M451 1217l180 286h225l-270 -286h-135zM1003 1004c8.66699 2.66699 18.999 9.33301 30.999 20c6.66699 8 11.334 13.333 14.001 16c18 16.667 29.333 34.5 34 53.5s7 42.167 7 69.5h-114v127h196v-180c0 -38 -20.333 -77.667 -61 -119
c-35.333 -31.333 -71 -54.333 -107 -69v-922h-172v156l-4 4c-38 -64.667 -83.667 -113 -137 -145s-121 -48 -203 -48c-92.667 0 -169.667 23.333 -231 70c-78 58.667 -117 147.334 -117 266.001v770h180v-713c0 -82.667 20 -143.334 60 -182.001c34 -34 83.667 -51 149 -51
c102.667 0 180 39.667 232 119c42 64 63 143 63 237v590h180v-69z" />
    <glyph glyph-name="uni1EEA" unicode="&#x1eea;" horiz-adv-x="1478" 
d="M705 1614l-266 291h221l180 -291h-135zM1306 1401c8 2.66699 18.499 7.66406 31.499 14.9971s24 14.833 33 22.5s15.5 17.334 19.5 29.001s6 22.167 6 31.5v49h-115v127h197v-180c0 -38 -20.333 -77.667 -61 -119c-15.333 -13.333 -34 -25.666 -56 -36.999
c-6.66699 -2.66699 -25 -10.667 -55 -24v-799c0 -161.333 -47.667 -291.666 -143 -390.999c-105.333 -110.667 -254.333 -166 -447 -166c-186.667 0 -330.667 54 -432 162c-88.667 95.333 -133 219 -133 371v978h197v-925c0 -146 39.333 -253.333 118 -322
c64.667 -56 149.334 -84 254.001 -84c110.667 0 199 26.667 265 80c82.667 68.667 124 176 124 322v929h197v-69z" />
    <glyph glyph-name="uni1EEB" unicode="&#x1eeb;" 
d="M521 1217l-270 286h225l180 -286h-135zM1003 1004c8.66699 2.66699 18.999 9.33301 30.999 20c6.66699 8 11.334 13.333 14.001 16c18 16.667 29.333 34.5 34 53.5s7 42.167 7 69.5h-114v127h196v-180c0 -38 -20.333 -77.667 -61 -119
c-35.333 -31.333 -71 -54.333 -107 -69v-922h-172v156l-4 4c-38 -64.667 -83.667 -113 -137 -145s-121 -48 -203 -48c-92.667 0 -169.667 23.333 -231 70c-78 58.667 -117 147.334 -117 266.001v770h180v-713c0 -82.667 20 -143.334 60 -182.001c34 -34 83.667 -51 149 -51
c102.667 0 180 39.667 232 119c42 64 63 143 63 237v590h180v-69z" />
    <glyph glyph-name="uni1EEC" unicode="&#x1eec;" horiz-adv-x="1478" 
d="M797 1580l-117.001 0.000976562c0 52 5.5 93.333 16.5 124s36 59.667 75 87s58.5 58 58.5 92c0 33.333 -9 57.166 -27 71.499s-38.667 21.5 -62 21.5c-36.667 0 -62.167 -10.333 -76.5 -31s-21.5 -46 -21.5 -76l-131 -2c0 74 24 130 72 168
c40.667 32.667 90.334 49 149.001 49c52 0 98 -10.333 138 -31c65.333 -34 98 -89 98 -165c0 -36 -8.5 -66.167 -25.5 -90.5s-45.667 -50.833 -86 -79.5s-60.5 -74.667 -60.5 -138zM1306 1401c8 2.66699 18.499 7.66406 31.499 14.9971s24 14.833 33 22.5
s15.5 17.334 19.5 29.001s6 22.167 6 31.5v49h-115v127h197v-180c0 -38 -20.333 -77.667 -61 -119c-15.333 -13.333 -34 -25.666 -56 -36.999c-6.66699 -2.66699 -25 -10.667 -55 -24v-799c0 -161.333 -47.667 -291.666 -143 -390.999
c-105.333 -110.667 -254.333 -166 -447 -166c-186.667 0 -330.667 54 -432 162c-88.667 95.333 -133 219 -133 371v978h197v-925c0 -146 39.333 -253.333 118 -322c64.667 -56 149.334 -84 254.001 -84c110.667 0 199 26.667 265 80c82.667 68.667 124 176 124 322v929h197
v-69z" />
    <glyph glyph-name="uni1EED" unicode="&#x1eed;" 
d="M629 1178h-121.001c0 47.333 5 83 15 107s34.833 50 74.5 78s59.5 59 59.5 93c0 32.667 -8.83301 56.167 -26.5 70.5s-38.167 21.5 -61.5 21.5c-36.667 0 -62.167 -10.167 -76.5 -30.5s-21.5 -45.5 -21.5 -75.5l-131 -2c0 73.333 23.667 129.333 71 168
c41.333 32.667 91.333 49 150 49c52 0 97.667 -10.333 137 -31c66 -34 99 -89.333 99 -166c0 -35.333 -8.66699 -65.333 -26 -90s-45.666 -51.334 -84.999 -80.001c-22 -14.667 -37 -29.167 -45 -43.5s-12 -37.166 -12 -68.499zM1003 1004
c8.66699 2.66699 18.999 9.33301 30.999 20c6.66699 8 11.334 13.333 14.001 16c18 16.667 29.333 34.5 34 53.5s7 42.167 7 69.5h-114v127h196v-180c0 -38 -20.333 -77.667 -61 -119c-35.333 -31.333 -71 -54.333 -107 -69v-922h-172v156l-4 4
c-38 -64.667 -83.667 -113 -137 -145s-121 -48 -203 -48c-92.667 0 -169.667 23.333 -231 70c-78 58.667 -117 147.334 -117 266.001v770h180v-713c0 -82.667 20 -143.334 60 -182.001c34 -34 83.667 -51 149 -51c102.667 0 180 39.667 232 119c42 64 63 143 63 237v590h180
v-69z" />
    <glyph glyph-name="uni1EEE" unicode="&#x1eee;" horiz-adv-x="1478" 
d="M986 1880l102.999 0.00195312c-7.33301 -64 -29 -117.5 -65 -160.5s-82.667 -64.5 -140 -64.5c-30 0 -69.667 9.33301 -119 28l-53 17c-66 22 -108.333 33 -127 33c-26 0 -45.833 -7.16699 -59.5 -21.5s-25.167 -37.5 -34.5 -69.5h-99c10 67.333 30 118.666 60 153.999
c35.333 42.667 86.333 64 153 64c23.333 0 46.333 -2.5 69 -7.5s46.334 -12.167 71.001 -21.5l45 -21c16 -6.66699 33.667 -12.334 53 -17.001s33 -7 41 -7c35.333 0 61.333 10.333 78 31c10.667 13.333 18.667 34.333 24 63zM1306 1401
c8 2.66699 18.499 7.66406 31.499 14.9971s24 14.833 33 22.5s15.5 17.334 19.5 29.001s6 22.167 6 31.5v49h-115v127h197v-180c0 -38 -20.333 -77.667 -61 -119c-15.333 -13.333 -34 -25.666 -56 -36.999c-6.66699 -2.66699 -25 -10.667 -55 -24v-799
c0 -161.333 -47.667 -291.666 -143 -390.999c-105.333 -110.667 -254.333 -166 -447 -166c-186.667 0 -330.667 54 -432 162c-88.667 95.333 -133 219 -133 371v978h197v-925c0 -146 39.333 -253.333 118 -322c64.667 -56 149.334 -84 254.001 -84
c110.667 0 199 26.667 265 80c82.667 68.667 124 176 124 322v929h197v-69z" />
    <glyph glyph-name="uni1EEF" unicode="&#x1eef;" 
d="M856 1479h102.002c-8 -63.333 -30.5 -116.166 -67.5 -158.499s-82.5 -63.5 -136.5 -63.5c-16.667 0 -33.5 1.83301 -50.5 5.5s-41.167 10.167 -72.5 19.5l-54 21c-17.333 5.33301 -38.333 11.333 -63 18s-44.334 10 -59.001 10c-26 0 -46.5 -7.83301 -61.5 -23.5
s-27.5 -37.834 -37.5 -66.501h-98c8 65.333 29.5 118.5 64.5 159.5s84.5 61.5 148.5 61.5c23.333 0 45.833 -3 67.5 -9s45.5 -13.667 71.5 -23l45 -17c48 -19.333 81 -29 99 -29c35.333 0 61 11 77 33c11.333 14 19.666 34.667 24.999 62zM1003 1004
c8.66699 2.66699 18.999 9.33301 30.999 20c6.66699 8 11.334 13.333 14.001 16c18 16.667 29.333 34.5 34 53.5s7 42.167 7 69.5h-114v127h196v-180c0 -38 -20.333 -77.667 -61 -119c-35.333 -31.333 -71 -54.333 -107 -69v-922h-172v156l-4 4
c-38 -64.667 -83.667 -113 -137 -145s-121 -48 -203 -48c-92.667 0 -169.667 23.333 -231 70c-78 58.667 -117 147.334 -117 266.001v770h180v-713c0 -82.667 20 -143.334 60 -182.001c34 -34 83.667 -51 149 -51c102.667 0 180 39.667 232 119c42 64 63 143 63 237v590h180
v-69z" />
    <glyph glyph-name="uni1EF0" unicode="&#x1ef0;" horiz-adv-x="1478" 
d="M819 -348h-181v205h181v-205zM1306 1401c8 2.66699 18.499 7.66406 31.499 14.9971s24 14.833 33 22.5s15.5 17.334 19.5 29.001s6 22.167 6 31.5v49h-115v127h197v-180c0 -38 -20.333 -77.667 -61 -119c-15.333 -13.333 -34 -25.666 -56 -36.999
c-6.66699 -2.66699 -25 -10.667 -55 -24v-799c0 -161.333 -47.667 -291.666 -143 -390.999c-105.333 -110.667 -254.333 -166 -447 -166c-186.667 0 -330.667 54 -432 162c-88.667 95.333 -133 219 -133 371v978h197v-925c0 -146 39.333 -253.333 118 -322
c64.667 -56 149.334 -84 254.001 -84c110.667 0 199 26.667 265 80c82.667 68.667 124 176 124 322v929h197v-69z" />
    <glyph glyph-name="uni1EF1" unicode="&#x1ef1;" 
d="M661 -344h-181v205h181v-205zM1003 1004c8.66699 2.66699 18.999 9.33301 30.999 20c6.66699 8 11.334 13.333 14.001 16c18 16.667 29.333 34.5 34 53.5s7 42.167 7 69.5h-114v127h196v-180c0 -38 -20.333 -77.667 -61 -119c-35.333 -31.333 -71 -54.333 -107 -69v-922
h-172v156l-4 4c-38 -64.667 -83.667 -113 -137 -145s-121 -48 -203 -48c-92.667 0 -169.667 23.333 -231 70c-78 58.667 -117 147.334 -117 266.001v770h180v-713c0 -82.667 20 -143.334 60 -182.001c34 -34 83.667 -51 149 -51c102.667 0 180 39.667 232 119
c42 64 63 143 63 237v590h180v-69z" />
    <glyph glyph-name="Ygrave" unicode="&#x1ef2;" horiz-adv-x="1454" 
d="M782 594v-594h-197v594l-557 876h233l422 -704l422 704h234zM644 1614l-267 291h222l180 -291h-135z" />
    <glyph glyph-name="ygrave" unicode="&#x1ef3;" horiz-adv-x="1085" 
d="M802 1073l200.999 -0.000976562l-187.5 -522l-197.5 -531c-86 -216.667 -149.167 -347.167 -189.5 -391.5s-117.833 -66.5 -232.5 -66.5c-10.667 0 -19.667 0.666992 -27 2c-20 6.66699 -35.667 11.334 -47 14.001v164c11.333 -4 26.833 -8.5 46.5 -13.5
s39.834 -7.5 60.501 -7.5c44.667 0 76.667 13 96 39s51.333 96.333 96 211l-397 1102h205l282 -872zM520.999 1217l-271 286h226l180 -286h-135z" />
    <glyph glyph-name="uni1EF4" unicode="&#x1ef4;" horiz-adv-x="1454" 
d="M782 594v-594h-197v594l-557 876h233l422 -704l422 704h234zM782 -344h-181v205h181v-205z" />
    <glyph glyph-name="uni1EF5" unicode="&#x1ef5;" horiz-adv-x="1085" 
d="M802 1073l200.999 -0.000976562l-187.5 -522l-197.5 -531c-86 -216.667 -149.167 -347.167 -189.5 -391.5s-117.833 -66.5 -232.5 -66.5c-10.667 0 -19.667 0.666992 -27 2c-20 6.66699 -35.667 11.334 -47 14.001v164c11.333 -4 26.833 -8.5 46.5 -13.5
s39.834 -7.5 60.501 -7.5c44.667 0 76.667 13 96 39s51.333 96.333 96 211l-397 1102h205l282 -872zM900.999 -324.001h-181v205h181v-205z" />
    <glyph glyph-name="uni1EF6" unicode="&#x1ef6;" horiz-adv-x="1454" 
d="M782 594v-594h-197v594l-557 876h233l422 -704l422 704h234zM757 1529l-117.001 0.000976562c0 52 5.5 93.333 16.5 124s35.833 59.667 74.5 87s58 58 58 92c0 33.333 -8.83301 57.166 -26.5 71.499s-38.167 21.5 -61.5 21.5c-36.667 0 -62.167 -10.333 -76.5 -31
s-21.5 -46 -21.5 -76l-131 -2c0 74 24 130 72 168c40.667 32.667 90.334 49 149.001 49c52 0 97.667 -10.333 137 -31c66 -34 99 -89 99 -165c0 -36 -8.66699 -66.167 -26 -90.5s-46 -50.833 -86 -79.5s-60 -74.667 -60 -138z" />
    <glyph glyph-name="uni1EF7" unicode="&#x1ef7;" horiz-adv-x="1085" 
d="M802 1073l200.999 -0.000976562l-187.5 -522l-197.5 -531c-86 -216.667 -149.167 -347.167 -189.5 -391.5s-117.833 -66.5 -232.5 -66.5c-10.667 0 -19.667 0.666992 -27 2c-20 6.66699 -35.667 11.334 -47 14.001v164c11.333 -4 26.833 -8.5 46.5 -13.5
s39.834 -7.5 60.501 -7.5c44.667 0 76.667 13 96 39s51.333 96.333 96 211l-397 1102h205l282 -872zM596.999 1178h-121c0 47.333 5.16699 83 15.5 107s35.333 50 75 78s59.5 59 59.5 93c0 32.667 -8.83301 56.167 -26.5 70.5s-38.167 21.5 -61.5 21.5
c-36.667 0 -62.167 -10.167 -76.5 -30.5s-21.5 -45.5 -21.5 -75.5l-132 -2c0 73.333 24 129.333 72 168c41.333 32.667 91.333 49 150 49c52 0 97.667 -10.333 137 -31c65.333 -34 98 -89.333 98 -166c0 -35.333 -8.5 -65.333 -25.5 -90s-45.167 -51.334 -84.5 -80.001
c-22 -14.667 -37.167 -29.167 -45.5 -43.5s-12.5 -37.166 -12.5 -68.499z" />
    <glyph glyph-name="uni1EF8" unicode="&#x1ef8;" horiz-adv-x="1454" 
d="M782 594v-594h-197v594l-557 876h233l422 -704l422 704h234zM986 1880l102 0.00195312c-6.66699 -64 -28 -117.5 -64 -160.5s-82.667 -64.5 -140 -64.5c-30 0 -69.667 9.33301 -119 28l-53 17c-66 22 -108.333 33 -127 33c-26 0 -45.833 -7.16699 -59.5 -21.5
s-25.5 -37.5 -35.5 -69.5h-98c10 67.333 30 118.666 60 153.999c35.333 42.667 86.333 64 153 64c23.333 0 46.333 -2.5 69 -7.5s46 -12.167 70 -21.5l45 -21c16.667 -6.66699 34.5 -12.334 53.5 -17.001s32.833 -7 41.5 -7c35.333 0 61.333 10.333 78 31
c10.667 13.333 18.667 34.333 24 63z" />
    <glyph glyph-name="uni1EF9" unicode="&#x1ef9;" horiz-adv-x="1085" 
d="M802 1073l200.999 -0.000976562l-187.5 -522l-197.5 -531c-86 -216.667 -149.167 -347.167 -189.5 -391.5s-117.833 -66.5 -232.5 -66.5c-10.667 0 -19.667 0.666992 -27 2c-20 6.66699 -35.667 11.334 -47 14.001v164c11.333 -4 26.833 -8.5 46.5 -13.5
s39.834 -7.5 60.501 -7.5c44.667 0 76.667 13 96 39s51.333 96.333 96 211l-397 1102h205l282 -872zM815.999 1479h101.998c-8 -63.333 -30.5 -116.166 -67.5 -158.499s-82.833 -63.5 -137.5 -63.5c-16 0 -32.667 1.83301 -50 5.5s-41.666 10.167 -72.999 19.5l-53 21
c-17.333 5.33301 -38.333 11.333 -63 18s-44.667 10 -60 10c-26 0 -46.5 -7.83301 -61.5 -23.5s-27.167 -37.834 -36.5 -66.501h-98c8 65.333 29.333 118.5 64 159.5s84.334 61.5 149.001 61.5c22.667 0 45 -3 67 -9s46 -13.667 72 -23l45 -17c48 -19.333 80.667 -29 98 -29
c36 0 62 11 78 33c10.667 14 19 34.667 25 62z" />
    <glyph glyph-name="quoteleft" unicode="&#x2018;" horiz-adv-x="487" 
d="M348 1180l-0.000976562 -217h-213v200c0 87.333 15.333 158.333 46 213s86.334 91.667 167.001 111v-98c-46.667 -7.33301 -78 -35.333 -94 -84c-11.333 -32 -17 -73.667 -17 -125h111z" />
    <glyph glyph-name="quoteright" unicode="&#x2019;" horiz-adv-x="487" 
d="M110 1253v216.999h213v-200c0 -84.667 -15 -153 -45 -205c-34 -58.667 -90 -97 -168 -115v94c45.333 7.33301 76 35.333 92 84c9.33301 30.667 14 72.334 14 125.001h-106z" />
    <glyph glyph-name="quotedblleft" unicode="&#x201c;" horiz-adv-x="737" 
d="M630 1180l-0.000976562 -217h-213v200c0 87.333 15.333 158.333 46 213s86.334 91.667 167.001 111v-98c-46.667 -7.33301 -78 -35.333 -94 -84c-11.333 -32 -17 -73.667 -17 -125h111zM289.999 1180v-216.999h-213v200c0 86 16 156.667 48 212s87 92.666 165 111.999
v-98c-45.333 -7.33301 -76 -35.333 -92 -84c-10 -30 -15 -71.667 -15 -125h107z" />
    <glyph glyph-name="quotedblright" unicode="&#x201d;" horiz-adv-x="737" 
d="M53 1253v217h213v-200c0 -86 -14.333 -154.333 -43 -205c-34 -58.667 -90.667 -97 -170 -115v94c46.667 7.33301 78 35.333 94 84c11.333 32 17 73.667 17 125h-111zM393 1253v216.999h213v-200c0 -84.667 -15 -153 -45 -205c-34 -58.667 -90 -97 -168 -115v94
c45.333 7.33301 76 35.333 92 84c9.33301 30.667 14 72.334 14 125.001h-106z" />
    <glyph glyph-name="ellipsis" unicode="&#x2026;" horiz-adv-x="1245" 
d="M372 209v-209h-188v209h188zM704 209v-209h-188v209h188zM1036 209v-209h-188v209h188z" />
    <glyph glyph-name=".null" horiz-adv-x="0" 
 />
    <glyph glyph-name="nonmarkingreturn" horiz-adv-x="571" 
 />
    <glyph glyph-name="ugrave" horiz-adv-x="582" 
 />
    <glyph glyph-name="uacute" horiz-adv-x="580" 
 />
    <glyph glyph-name="yacute" horiz-adv-x="629" 
 />
    </font>
</defs>
</svg>
